G04 #@! TF.FileFunction,Legend,Top*
%FSLAX46Y46*%
G04 Gerber Fmt 4.6, Leading zero omitted, Abs format (unit mm)*
G04 Created by KiCad (PCBNEW 4.0.7) date 03/03/18 23:13:13*
%MOMM*%
%LPD*%
G01*
G04 APERTURE LIST*
%ADD10C,0.100000*%
%ADD11C,0.300000*%
%ADD12C,0.150000*%
%ADD13C,0.120000*%
%ADD14C,0.381000*%
%ADD15C,0.099060*%
G04 APERTURE END LIST*
D10*
D11*
X92500000Y-85107143D02*
X93642857Y-85107143D01*
X93071428Y-85678571D02*
X93071428Y-84535714D01*
X95285714Y-84178571D02*
X95785714Y-85678571D01*
X96285714Y-84178571D01*
X98214285Y-84178571D02*
X98499999Y-84178571D01*
X98642857Y-84250000D01*
X98785714Y-84392857D01*
X98857142Y-84678571D01*
X98857142Y-85178571D01*
X98785714Y-85464286D01*
X98642857Y-85607143D01*
X98499999Y-85678571D01*
X98214285Y-85678571D01*
X98071428Y-85607143D01*
X97928571Y-85464286D01*
X97857142Y-85178571D01*
X97857142Y-84678571D01*
X97928571Y-84392857D01*
X98071428Y-84250000D01*
X98214285Y-84178571D01*
X99500000Y-84178571D02*
X99500000Y-85392857D01*
X99571428Y-85535714D01*
X99642857Y-85607143D01*
X99785714Y-85678571D01*
X100071428Y-85678571D01*
X100214286Y-85607143D01*
X100285714Y-85535714D01*
X100357143Y-85392857D01*
X100357143Y-84178571D01*
X100857143Y-84178571D02*
X101714286Y-84178571D01*
X101285715Y-85678571D02*
X101285715Y-84178571D01*
X111500000Y-85107143D02*
X112642857Y-85107143D01*
X112071428Y-85678571D02*
X112071428Y-84535714D01*
X114285714Y-84178571D02*
X114785714Y-85678571D01*
X115285714Y-84178571D01*
X116928571Y-85678571D02*
X116928571Y-84178571D01*
X117642857Y-85678571D02*
X117642857Y-84178571D01*
X118500000Y-85678571D01*
X118500000Y-84178571D01*
X129500000Y-85107143D02*
X130642857Y-85107143D01*
X132285714Y-84178571D02*
X132785714Y-85678571D01*
X133285714Y-84178571D01*
X134928571Y-85678571D02*
X134928571Y-84178571D01*
X135642857Y-85678571D02*
X135642857Y-84178571D01*
X136500000Y-85678571D01*
X136500000Y-84178571D01*
D12*
X154452381Y-129619048D02*
X153785714Y-129619048D01*
X153880952Y-129619048D02*
X153833333Y-129571429D01*
X153785714Y-129476191D01*
X153785714Y-129333333D01*
X153833333Y-129238095D01*
X153928571Y-129190476D01*
X154452381Y-129190476D01*
X153928571Y-129190476D02*
X153833333Y-129142857D01*
X153785714Y-129047619D01*
X153785714Y-128904762D01*
X153833333Y-128809524D01*
X153928571Y-128761905D01*
X154452381Y-128761905D01*
X154452381Y-127857143D02*
X153928571Y-127857143D01*
X153833333Y-127904762D01*
X153785714Y-128000000D01*
X153785714Y-128190477D01*
X153833333Y-128285715D01*
X154404762Y-127857143D02*
X154452381Y-127952381D01*
X154452381Y-128190477D01*
X154404762Y-128285715D01*
X154309524Y-128333334D01*
X154214286Y-128333334D01*
X154119048Y-128285715D01*
X154071429Y-128190477D01*
X154071429Y-127952381D01*
X154023810Y-127857143D01*
X154452381Y-127476191D02*
X153785714Y-126952381D01*
X153785714Y-127476191D02*
X154452381Y-126952381D01*
X153452381Y-125904762D02*
X153452381Y-125285714D01*
X153833333Y-125619048D01*
X153833333Y-125476190D01*
X153880952Y-125380952D01*
X153928571Y-125333333D01*
X154023810Y-125285714D01*
X154261905Y-125285714D01*
X154357143Y-125333333D01*
X154404762Y-125380952D01*
X154452381Y-125476190D01*
X154452381Y-125761905D01*
X154404762Y-125857143D01*
X154357143Y-125904762D01*
X153452381Y-124952381D02*
X153452381Y-124333333D01*
X153833333Y-124666667D01*
X153833333Y-124523809D01*
X153880952Y-124428571D01*
X153928571Y-124380952D01*
X154023810Y-124333333D01*
X154261905Y-124333333D01*
X154357143Y-124380952D01*
X154404762Y-124428571D01*
X154452381Y-124523809D01*
X154452381Y-124809524D01*
X154404762Y-124904762D01*
X154357143Y-124952381D01*
X154452381Y-122714285D02*
X153452381Y-122714285D01*
X154404762Y-122714285D02*
X154452381Y-122809523D01*
X154452381Y-123000000D01*
X154404762Y-123095238D01*
X154357143Y-123142857D01*
X154261905Y-123190476D01*
X153976190Y-123190476D01*
X153880952Y-123142857D01*
X153833333Y-123095238D01*
X153785714Y-123000000D01*
X153785714Y-122809523D01*
X153833333Y-122714285D01*
X153928571Y-121904761D02*
X153976190Y-121761904D01*
X154023810Y-121714285D01*
X154119048Y-121666666D01*
X154261905Y-121666666D01*
X154357143Y-121714285D01*
X154404762Y-121761904D01*
X154452381Y-121857142D01*
X154452381Y-122238095D01*
X153452381Y-122238095D01*
X153452381Y-121904761D01*
X153500000Y-121809523D01*
X153547619Y-121761904D01*
X153642857Y-121714285D01*
X153738095Y-121714285D01*
X153833333Y-121761904D01*
X153880952Y-121809523D01*
X153928571Y-121904761D01*
X153928571Y-122238095D01*
X154452381Y-121238095D02*
X153785714Y-121238095D01*
X153880952Y-121238095D02*
X153833333Y-121190476D01*
X153785714Y-121095238D01*
X153785714Y-120952380D01*
X153833333Y-120857142D01*
X153928571Y-120809523D01*
X154452381Y-120809523D01*
X153928571Y-120809523D02*
X153833333Y-120761904D01*
X153785714Y-120666666D01*
X153785714Y-120523809D01*
X153833333Y-120428571D01*
X153928571Y-120380952D01*
X154452381Y-120380952D01*
X171452381Y-129619048D02*
X170785714Y-129619048D01*
X170880952Y-129619048D02*
X170833333Y-129571429D01*
X170785714Y-129476191D01*
X170785714Y-129333333D01*
X170833333Y-129238095D01*
X170928571Y-129190476D01*
X171452381Y-129190476D01*
X170928571Y-129190476D02*
X170833333Y-129142857D01*
X170785714Y-129047619D01*
X170785714Y-128904762D01*
X170833333Y-128809524D01*
X170928571Y-128761905D01*
X171452381Y-128761905D01*
X171452381Y-127857143D02*
X170928571Y-127857143D01*
X170833333Y-127904762D01*
X170785714Y-128000000D01*
X170785714Y-128190477D01*
X170833333Y-128285715D01*
X171404762Y-127857143D02*
X171452381Y-127952381D01*
X171452381Y-128190477D01*
X171404762Y-128285715D01*
X171309524Y-128333334D01*
X171214286Y-128333334D01*
X171119048Y-128285715D01*
X171071429Y-128190477D01*
X171071429Y-127952381D01*
X171023810Y-127857143D01*
X171452381Y-127476191D02*
X170785714Y-126952381D01*
X170785714Y-127476191D02*
X171452381Y-126952381D01*
X170452381Y-125904762D02*
X170452381Y-125285714D01*
X170833333Y-125619048D01*
X170833333Y-125476190D01*
X170880952Y-125380952D01*
X170928571Y-125333333D01*
X171023810Y-125285714D01*
X171261905Y-125285714D01*
X171357143Y-125333333D01*
X171404762Y-125380952D01*
X171452381Y-125476190D01*
X171452381Y-125761905D01*
X171404762Y-125857143D01*
X171357143Y-125904762D01*
X170452381Y-124666667D02*
X170452381Y-124571428D01*
X170500000Y-124476190D01*
X170547619Y-124428571D01*
X170642857Y-124380952D01*
X170833333Y-124333333D01*
X171071429Y-124333333D01*
X171261905Y-124380952D01*
X171357143Y-124428571D01*
X171404762Y-124476190D01*
X171452381Y-124571428D01*
X171452381Y-124666667D01*
X171404762Y-124761905D01*
X171357143Y-124809524D01*
X171261905Y-124857143D01*
X171071429Y-124904762D01*
X170833333Y-124904762D01*
X170642857Y-124857143D01*
X170547619Y-124809524D01*
X170500000Y-124761905D01*
X170452381Y-124666667D01*
X171452381Y-122714285D02*
X170452381Y-122714285D01*
X171404762Y-122714285D02*
X171452381Y-122809523D01*
X171452381Y-123000000D01*
X171404762Y-123095238D01*
X171357143Y-123142857D01*
X171261905Y-123190476D01*
X170976190Y-123190476D01*
X170880952Y-123142857D01*
X170833333Y-123095238D01*
X170785714Y-123000000D01*
X170785714Y-122809523D01*
X170833333Y-122714285D01*
X170928571Y-121904761D02*
X170976190Y-121761904D01*
X171023810Y-121714285D01*
X171119048Y-121666666D01*
X171261905Y-121666666D01*
X171357143Y-121714285D01*
X171404762Y-121761904D01*
X171452381Y-121857142D01*
X171452381Y-122238095D01*
X170452381Y-122238095D01*
X170452381Y-121904761D01*
X170500000Y-121809523D01*
X170547619Y-121761904D01*
X170642857Y-121714285D01*
X170738095Y-121714285D01*
X170833333Y-121761904D01*
X170880952Y-121809523D01*
X170928571Y-121904761D01*
X170928571Y-122238095D01*
X171452381Y-121238095D02*
X170785714Y-121238095D01*
X170880952Y-121238095D02*
X170833333Y-121190476D01*
X170785714Y-121095238D01*
X170785714Y-120952380D01*
X170833333Y-120857142D01*
X170928571Y-120809523D01*
X171452381Y-120809523D01*
X170928571Y-120809523D02*
X170833333Y-120761904D01*
X170785714Y-120666666D01*
X170785714Y-120523809D01*
X170833333Y-120428571D01*
X170928571Y-120380952D01*
X171452381Y-120380952D01*
X169678571Y-128107142D02*
X168964286Y-128607142D01*
X169678571Y-128964285D02*
X168178571Y-128964285D01*
X168178571Y-128392857D01*
X168250000Y-128249999D01*
X168321429Y-128178571D01*
X168464286Y-128107142D01*
X168678571Y-128107142D01*
X168821429Y-128178571D01*
X168892857Y-128249999D01*
X168964286Y-128392857D01*
X168964286Y-128964285D01*
X169607143Y-126892857D02*
X169678571Y-127035714D01*
X169678571Y-127321428D01*
X169607143Y-127464285D01*
X169464286Y-127535714D01*
X168892857Y-127535714D01*
X168750000Y-127464285D01*
X168678571Y-127321428D01*
X168678571Y-127035714D01*
X168750000Y-126892857D01*
X168892857Y-126821428D01*
X169035714Y-126821428D01*
X169178571Y-127535714D01*
X168678571Y-126321428D02*
X169678571Y-125964285D01*
X168678571Y-125607143D01*
X169607143Y-124464286D02*
X169678571Y-124607143D01*
X169678571Y-124892857D01*
X169607143Y-125035714D01*
X169464286Y-125107143D01*
X168892857Y-125107143D01*
X168750000Y-125035714D01*
X168678571Y-124892857D01*
X168678571Y-124607143D01*
X168750000Y-124464286D01*
X168892857Y-124392857D01*
X169035714Y-124392857D01*
X169178571Y-125107143D01*
X169678571Y-123750000D02*
X168678571Y-123750000D01*
X168964286Y-123750000D02*
X168821429Y-123678572D01*
X168750000Y-123607143D01*
X168678571Y-123464286D01*
X168678571Y-123321429D01*
X169607143Y-122892858D02*
X169678571Y-122750001D01*
X169678571Y-122464286D01*
X169607143Y-122321429D01*
X169464286Y-122250001D01*
X169392857Y-122250001D01*
X169250000Y-122321429D01*
X169178571Y-122464286D01*
X169178571Y-122678572D01*
X169107143Y-122821429D01*
X168964286Y-122892858D01*
X168892857Y-122892858D01*
X168750000Y-122821429D01*
X168678571Y-122678572D01*
X168678571Y-122464286D01*
X168750000Y-122321429D01*
X169607143Y-121035715D02*
X169678571Y-121178572D01*
X169678571Y-121464286D01*
X169607143Y-121607143D01*
X169464286Y-121678572D01*
X168892857Y-121678572D01*
X168750000Y-121607143D01*
X168678571Y-121464286D01*
X168678571Y-121178572D01*
X168750000Y-121035715D01*
X168892857Y-120964286D01*
X169035714Y-120964286D01*
X169178571Y-121678572D01*
X151892857Y-128535714D02*
X151892857Y-129035714D01*
X152678571Y-129035714D02*
X151178571Y-129035714D01*
X151178571Y-128321428D01*
X152678571Y-127535714D02*
X152607143Y-127678572D01*
X152535714Y-127750000D01*
X152392857Y-127821429D01*
X151964286Y-127821429D01*
X151821429Y-127750000D01*
X151750000Y-127678572D01*
X151678571Y-127535714D01*
X151678571Y-127321429D01*
X151750000Y-127178572D01*
X151821429Y-127107143D01*
X151964286Y-127035714D01*
X152392857Y-127035714D01*
X152535714Y-127107143D01*
X152607143Y-127178572D01*
X152678571Y-127321429D01*
X152678571Y-127535714D01*
X152678571Y-126392857D02*
X151678571Y-126392857D01*
X151964286Y-126392857D02*
X151821429Y-126321429D01*
X151750000Y-126250000D01*
X151678571Y-126107143D01*
X151678571Y-125964286D01*
X151678571Y-125607143D02*
X152678571Y-125321429D01*
X151964286Y-125035715D01*
X152678571Y-124750000D01*
X151678571Y-124464286D01*
X152678571Y-123250000D02*
X151892857Y-123250000D01*
X151750000Y-123321429D01*
X151678571Y-123464286D01*
X151678571Y-123750000D01*
X151750000Y-123892857D01*
X152607143Y-123250000D02*
X152678571Y-123392857D01*
X152678571Y-123750000D01*
X152607143Y-123892857D01*
X152464286Y-123964286D01*
X152321429Y-123964286D01*
X152178571Y-123892857D01*
X152107143Y-123750000D01*
X152107143Y-123392857D01*
X152035714Y-123250000D01*
X152678571Y-122535714D02*
X151678571Y-122535714D01*
X151964286Y-122535714D02*
X151821429Y-122464286D01*
X151750000Y-122392857D01*
X151678571Y-122250000D01*
X151678571Y-122107143D01*
X152678571Y-120964286D02*
X151178571Y-120964286D01*
X152607143Y-120964286D02*
X152678571Y-121107143D01*
X152678571Y-121392857D01*
X152607143Y-121535715D01*
X152535714Y-121607143D01*
X152392857Y-121678572D01*
X151964286Y-121678572D01*
X151821429Y-121607143D01*
X151750000Y-121535715D01*
X151678571Y-121392857D01*
X151678571Y-121107143D01*
X151750000Y-120964286D01*
X161750000Y-102295000D02*
X161750000Y-102950000D01*
X167250000Y-102295000D02*
X167250000Y-103045000D01*
X167250000Y-108705000D02*
X167250000Y-107955000D01*
X161750000Y-108705000D02*
X161750000Y-107955000D01*
X161750000Y-102295000D02*
X167250000Y-102295000D01*
X161750000Y-108705000D02*
X167250000Y-108705000D01*
X161750000Y-102950000D02*
X160000000Y-102950000D01*
D13*
X86120000Y-114600000D02*
X86120000Y-113400000D01*
X87880000Y-113400000D02*
X87880000Y-114600000D01*
X149100000Y-102880000D02*
X147900000Y-102880000D01*
X147900000Y-101120000D02*
X149100000Y-101120000D01*
X149580000Y-110740000D02*
X148650000Y-110740000D01*
X146420000Y-110740000D02*
X147350000Y-110740000D01*
X146420000Y-110740000D02*
X146420000Y-112900000D01*
X149580000Y-110740000D02*
X149580000Y-112200000D01*
X154420000Y-105760000D02*
X155350000Y-105760000D01*
X157580000Y-105760000D02*
X156650000Y-105760000D01*
X157580000Y-105760000D02*
X157580000Y-103600000D01*
X154420000Y-105760000D02*
X154420000Y-104300000D01*
X170580000Y-114240000D02*
X169650000Y-114240000D01*
X167420000Y-114240000D02*
X168350000Y-114240000D01*
X167420000Y-114240000D02*
X167420000Y-116400000D01*
X170580000Y-114240000D02*
X170580000Y-115700000D01*
X172420000Y-109760000D02*
X173350000Y-109760000D01*
X175580000Y-109760000D02*
X174650000Y-109760000D01*
X175580000Y-109760000D02*
X175580000Y-107600000D01*
X172420000Y-109760000D02*
X172420000Y-108300000D01*
X144880000Y-84900000D02*
X144880000Y-86100000D01*
X143120000Y-86100000D02*
X143120000Y-84900000D01*
X99880000Y-104900000D02*
X99880000Y-106100000D01*
X98120000Y-106100000D02*
X98120000Y-104900000D01*
X147130000Y-83980000D02*
X147130000Y-89980000D01*
X147130000Y-89980000D02*
X154950000Y-89980000D01*
X154950000Y-89980000D02*
X154950000Y-83980000D01*
X154950000Y-83980000D02*
X147130000Y-83980000D01*
X148500000Y-89980000D02*
X148500000Y-88980000D01*
X148500000Y-88980000D02*
X153580000Y-88980000D01*
X153580000Y-88980000D02*
X153580000Y-89980000D01*
X148500000Y-88980000D02*
X148750000Y-88550000D01*
X148750000Y-88550000D02*
X153330000Y-88550000D01*
X153330000Y-88550000D02*
X153580000Y-88980000D01*
X148750000Y-89980000D02*
X148750000Y-88980000D01*
X153330000Y-89980000D02*
X153330000Y-88980000D01*
X147700000Y-83980000D02*
X147700000Y-84600000D01*
X147700000Y-84600000D02*
X149300000Y-84600000D01*
X149300000Y-84600000D02*
X149300000Y-83980000D01*
X150240000Y-83980000D02*
X150240000Y-84600000D01*
X150240000Y-84600000D02*
X151840000Y-84600000D01*
X151840000Y-84600000D02*
X151840000Y-83980000D01*
X152780000Y-83980000D02*
X152780000Y-84600000D01*
X152780000Y-84600000D02*
X154380000Y-84600000D01*
X154380000Y-84600000D02*
X154380000Y-83980000D01*
X117370000Y-126020000D02*
X117370000Y-120020000D01*
X117370000Y-120020000D02*
X91770000Y-120020000D01*
X91770000Y-120020000D02*
X91770000Y-126020000D01*
X91770000Y-126020000D02*
X117370000Y-126020000D01*
X116000000Y-120020000D02*
X116000000Y-121020000D01*
X116000000Y-121020000D02*
X110920000Y-121020000D01*
X110920000Y-121020000D02*
X110920000Y-120020000D01*
X116000000Y-121020000D02*
X115750000Y-121450000D01*
X115750000Y-121450000D02*
X110920000Y-121450000D01*
X110920000Y-121450000D02*
X110920000Y-121020000D01*
X115750000Y-120020000D02*
X115750000Y-121020000D01*
X93140000Y-120020000D02*
X93140000Y-121020000D01*
X93140000Y-121020000D02*
X98220000Y-121020000D01*
X98220000Y-121020000D02*
X98220000Y-120020000D01*
X93140000Y-121020000D02*
X93390000Y-121450000D01*
X93390000Y-121450000D02*
X98220000Y-121450000D01*
X98220000Y-121450000D02*
X98220000Y-121020000D01*
X93390000Y-120020000D02*
X93390000Y-121020000D01*
X116800000Y-126020000D02*
X116800000Y-125400000D01*
X116800000Y-125400000D02*
X115200000Y-125400000D01*
X115200000Y-125400000D02*
X115200000Y-126020000D01*
X114260000Y-126020000D02*
X114260000Y-125400000D01*
X114260000Y-125400000D02*
X112660000Y-125400000D01*
X112660000Y-125400000D02*
X112660000Y-126020000D01*
X111720000Y-126020000D02*
X111720000Y-125400000D01*
X111720000Y-125400000D02*
X110120000Y-125400000D01*
X110120000Y-125400000D02*
X110120000Y-126020000D01*
X109180000Y-126020000D02*
X109180000Y-125400000D01*
X109180000Y-125400000D02*
X107580000Y-125400000D01*
X107580000Y-125400000D02*
X107580000Y-126020000D01*
X106640000Y-126020000D02*
X106640000Y-125400000D01*
X106640000Y-125400000D02*
X105040000Y-125400000D01*
X105040000Y-125400000D02*
X105040000Y-126020000D01*
X104100000Y-126020000D02*
X104100000Y-125400000D01*
X104100000Y-125400000D02*
X102500000Y-125400000D01*
X102500000Y-125400000D02*
X102500000Y-126020000D01*
X101560000Y-126020000D02*
X101560000Y-125400000D01*
X101560000Y-125400000D02*
X99960000Y-125400000D01*
X99960000Y-125400000D02*
X99960000Y-126020000D01*
X99020000Y-126020000D02*
X99020000Y-125400000D01*
X99020000Y-125400000D02*
X97420000Y-125400000D01*
X97420000Y-125400000D02*
X97420000Y-126020000D01*
X96480000Y-126020000D02*
X96480000Y-125400000D01*
X96480000Y-125400000D02*
X94880000Y-125400000D01*
X94880000Y-125400000D02*
X94880000Y-126020000D01*
X93940000Y-126020000D02*
X93940000Y-125400000D01*
X93940000Y-125400000D02*
X92340000Y-125400000D01*
X92340000Y-125400000D02*
X92340000Y-126020000D01*
X137370000Y-126020000D02*
X137370000Y-120020000D01*
X137370000Y-120020000D02*
X124470000Y-120020000D01*
X124470000Y-120020000D02*
X124470000Y-126020000D01*
X124470000Y-126020000D02*
X137370000Y-126020000D01*
X136000000Y-120020000D02*
X136000000Y-121020000D01*
X136000000Y-121020000D02*
X125840000Y-121020000D01*
X125840000Y-121020000D02*
X125840000Y-120020000D01*
X136000000Y-121020000D02*
X135750000Y-121450000D01*
X135750000Y-121450000D02*
X126090000Y-121450000D01*
X126090000Y-121450000D02*
X125840000Y-121020000D01*
X135750000Y-120020000D02*
X135750000Y-121020000D01*
X126090000Y-120020000D02*
X126090000Y-121020000D01*
X136800000Y-126020000D02*
X136800000Y-125400000D01*
X136800000Y-125400000D02*
X135200000Y-125400000D01*
X135200000Y-125400000D02*
X135200000Y-126020000D01*
X134260000Y-126020000D02*
X134260000Y-125400000D01*
X134260000Y-125400000D02*
X132660000Y-125400000D01*
X132660000Y-125400000D02*
X132660000Y-126020000D01*
X131720000Y-126020000D02*
X131720000Y-125400000D01*
X131720000Y-125400000D02*
X130120000Y-125400000D01*
X130120000Y-125400000D02*
X130120000Y-126020000D01*
X129180000Y-126020000D02*
X129180000Y-125400000D01*
X129180000Y-125400000D02*
X127580000Y-125400000D01*
X127580000Y-125400000D02*
X127580000Y-126020000D01*
X126640000Y-126020000D02*
X126640000Y-125400000D01*
X126640000Y-125400000D02*
X125040000Y-125400000D01*
X125040000Y-125400000D02*
X125040000Y-126020000D01*
X159120000Y-89600000D02*
X159120000Y-88400000D01*
X160880000Y-88400000D02*
X160880000Y-89600000D01*
X126600000Y-106880000D02*
X125400000Y-106880000D01*
X125400000Y-105120000D02*
X126600000Y-105120000D01*
X120600000Y-106880000D02*
X119400000Y-106880000D01*
X119400000Y-105120000D02*
X120600000Y-105120000D01*
X86880000Y-99400000D02*
X86880000Y-100600000D01*
X85120000Y-100600000D02*
X85120000Y-99400000D01*
X98120000Y-116850000D02*
X98120000Y-115650000D01*
X99880000Y-115650000D02*
X99880000Y-116850000D01*
X152500000Y-116570000D02*
X150500000Y-116570000D01*
X150500000Y-114430000D02*
X152500000Y-114430000D01*
X147900000Y-107120000D02*
X149100000Y-107120000D01*
X149100000Y-108880000D02*
X147900000Y-108880000D01*
X156100000Y-109380000D02*
X154900000Y-109380000D01*
X154900000Y-107620000D02*
X156100000Y-107620000D01*
X154900000Y-100120000D02*
X156100000Y-100120000D01*
X156100000Y-101880000D02*
X154900000Y-101880000D01*
X154900000Y-93120000D02*
X156100000Y-93120000D01*
X156100000Y-94880000D02*
X154900000Y-94880000D01*
X141500000Y-117930000D02*
X143500000Y-117930000D01*
X143500000Y-120070000D02*
X141500000Y-120070000D01*
X169500000Y-120070000D02*
X167500000Y-120070000D01*
X167500000Y-117930000D02*
X169500000Y-117930000D01*
X163120000Y-113600000D02*
X163120000Y-112400000D01*
X164880000Y-112400000D02*
X164880000Y-113600000D01*
X169600000Y-112380000D02*
X168400000Y-112380000D01*
X168400000Y-110620000D02*
X169600000Y-110620000D01*
X175100000Y-105880000D02*
X173900000Y-105880000D01*
X173900000Y-104120000D02*
X175100000Y-104120000D01*
X173900000Y-98120000D02*
X175100000Y-98120000D01*
X175100000Y-99880000D02*
X173900000Y-99880000D01*
X161880000Y-112400000D02*
X161880000Y-113600000D01*
X160120000Y-113600000D02*
X160120000Y-112400000D01*
X129150000Y-109400000D02*
X124850000Y-109400000D01*
X124850000Y-109400000D02*
X124850000Y-116700000D01*
X129150000Y-109400000D02*
X129150000Y-116700000D01*
X111620000Y-107600000D02*
X111620000Y-106400000D01*
X113380000Y-106400000D02*
X113380000Y-107600000D01*
X161850000Y-99880000D02*
X160650000Y-99880000D01*
X160650000Y-98120000D02*
X161850000Y-98120000D01*
X173900000Y-112120000D02*
X175100000Y-112120000D01*
X175100000Y-113880000D02*
X173900000Y-113880000D01*
X106117000Y-108111000D02*
X106117000Y-116411000D01*
X102417000Y-108111000D02*
X102417000Y-116411000D01*
X106117000Y-108111000D02*
X102417000Y-108111000D01*
X135350000Y-100700000D02*
X135350000Y-109000000D01*
X131650000Y-100700000D02*
X131650000Y-109000000D01*
X135350000Y-100700000D02*
X131650000Y-100700000D01*
X98120000Y-111600000D02*
X98120000Y-110400000D01*
X99880000Y-110400000D02*
X99880000Y-111600000D01*
X152500000Y-120070000D02*
X150500000Y-120070000D01*
X150500000Y-117930000D02*
X152500000Y-117930000D01*
X141500000Y-114430000D02*
X143500000Y-114430000D01*
X143500000Y-116570000D02*
X141500000Y-116570000D01*
X149100000Y-99880000D02*
X147900000Y-99880000D01*
X147900000Y-98120000D02*
X149100000Y-98120000D01*
X158500000Y-117930000D02*
X160500000Y-117930000D01*
X160500000Y-120070000D02*
X158500000Y-120070000D01*
D12*
X88250000Y-102795000D02*
X88250000Y-103450000D01*
X93750000Y-102795000D02*
X93750000Y-103545000D01*
X93750000Y-109205000D02*
X93750000Y-108455000D01*
X88250000Y-109205000D02*
X88250000Y-108455000D01*
X88250000Y-102795000D02*
X93750000Y-102795000D01*
X88250000Y-109205000D02*
X93750000Y-109205000D01*
X88250000Y-103450000D02*
X86500000Y-103450000D01*
D13*
X111090000Y-111590000D02*
X111090000Y-112850000D01*
X111090000Y-118410000D02*
X111090000Y-117150000D01*
X114850000Y-111590000D02*
X111090000Y-111590000D01*
X117100000Y-118410000D02*
X111090000Y-118410000D01*
X137590000Y-103910000D02*
X138850000Y-103910000D01*
X144410000Y-103910000D02*
X143150000Y-103910000D01*
X137590000Y-100150000D02*
X137590000Y-103910000D01*
X144410000Y-97900000D02*
X144410000Y-103910000D01*
X120772000Y-96412000D02*
X120772000Y-97672000D01*
X120772000Y-103232000D02*
X120772000Y-101972000D01*
X124532000Y-96412000D02*
X120772000Y-96412000D01*
X126782000Y-103232000D02*
X120772000Y-103232000D01*
X138700000Y-92650000D02*
X147000000Y-92650000D01*
X138700000Y-96350000D02*
X147000000Y-96350000D01*
X138700000Y-92650000D02*
X138700000Y-96350000D01*
X121848000Y-94835000D02*
X121848000Y-86535000D01*
X125548000Y-94835000D02*
X125548000Y-86535000D01*
X121848000Y-94835000D02*
X125548000Y-94835000D01*
X122850000Y-108700000D02*
X122850000Y-117000000D01*
X119150000Y-108700000D02*
X119150000Y-117000000D01*
X122850000Y-108700000D02*
X119150000Y-108700000D01*
D14*
X98500000Y-91000000D02*
G75*
G03X98500000Y-91000000I-1500000J0D01*
G01*
X100502303Y-91000000D02*
G75*
G03X100502303Y-91000000I-3502303J0D01*
G01*
X93500000Y-87500000D02*
X100500000Y-87500000D01*
X100500000Y-87500000D02*
X100500000Y-94500000D01*
X100500000Y-94500000D02*
X93500000Y-94500000D01*
X93500000Y-94500000D02*
X93500000Y-87500000D01*
X116500000Y-91000000D02*
G75*
G03X116500000Y-91000000I-1500000J0D01*
G01*
X118502303Y-91000000D02*
G75*
G03X118502303Y-91000000I-3502303J0D01*
G01*
X111500000Y-87500000D02*
X118500000Y-87500000D01*
X118500000Y-87500000D02*
X118500000Y-94500000D01*
X118500000Y-94500000D02*
X111500000Y-94500000D01*
X111500000Y-94500000D02*
X111500000Y-87500000D01*
X134500000Y-91000000D02*
G75*
G03X134500000Y-91000000I-1500000J0D01*
G01*
X136502303Y-91000000D02*
G75*
G03X136502303Y-91000000I-3502303J0D01*
G01*
X129500000Y-87500000D02*
X136500000Y-87500000D01*
X136500000Y-87500000D02*
X136500000Y-94500000D01*
X136500000Y-94500000D02*
X129500000Y-94500000D01*
X129500000Y-94500000D02*
X129500000Y-87500000D01*
D13*
X107400000Y-105120000D02*
X108600000Y-105120000D01*
X108600000Y-106880000D02*
X107400000Y-106880000D01*
X154900000Y-96620000D02*
X156100000Y-96620000D01*
X156100000Y-98380000D02*
X154900000Y-98380000D01*
X143100000Y-112380000D02*
X141900000Y-112380000D01*
X141900000Y-110620000D02*
X143100000Y-110620000D01*
X149100000Y-105880000D02*
X147900000Y-105880000D01*
X147900000Y-104120000D02*
X149100000Y-104120000D01*
X173900000Y-115120000D02*
X175100000Y-115120000D01*
X175100000Y-116880000D02*
X173900000Y-116880000D01*
X156100000Y-112380000D02*
X154900000Y-112380000D01*
X154900000Y-110620000D02*
X156100000Y-110620000D01*
X173900000Y-101120000D02*
X175100000Y-101120000D01*
X175100000Y-102880000D02*
X173900000Y-102880000D01*
D12*
X109250000Y-96056000D02*
X108595000Y-96056000D01*
X109250000Y-101556000D02*
X108500000Y-101556000D01*
X102840000Y-101556000D02*
X103590000Y-101556000D01*
X102840000Y-96056000D02*
X103590000Y-96056000D01*
X109250000Y-96056000D02*
X109250000Y-101556000D01*
X102840000Y-96056000D02*
X102840000Y-101556000D01*
X108595000Y-96056000D02*
X108595000Y-94306000D01*
D13*
X160100000Y-84880000D02*
X158900000Y-84880000D01*
X158900000Y-83120000D02*
X160100000Y-83120000D01*
X160880000Y-93900000D02*
X160880000Y-95100000D01*
X159120000Y-95100000D02*
X159120000Y-93900000D01*
X172880000Y-93900000D02*
X172880000Y-95100000D01*
X171120000Y-95100000D02*
X171120000Y-93900000D01*
D12*
X162795000Y-93750000D02*
X163450000Y-93750000D01*
X162795000Y-88250000D02*
X163545000Y-88250000D01*
X169205000Y-88250000D02*
X168455000Y-88250000D01*
X169205000Y-93750000D02*
X168455000Y-93750000D01*
X162795000Y-93750000D02*
X162795000Y-88250000D01*
X169205000Y-93750000D02*
X169205000Y-88250000D01*
X163450000Y-93750000D02*
X163450000Y-95500000D01*
D13*
X166500000Y-83150000D02*
X165500000Y-83150000D01*
X165500000Y-84850000D02*
X166500000Y-84850000D01*
X141350000Y-87000000D02*
X141350000Y-86000000D01*
X139650000Y-86000000D02*
X139650000Y-87000000D01*
X132500000Y-97150000D02*
X131500000Y-97150000D01*
X131500000Y-98850000D02*
X132500000Y-98850000D01*
X95650000Y-98500000D02*
X95650000Y-99500000D01*
X97350000Y-99500000D02*
X97350000Y-98500000D01*
X90850000Y-114500000D02*
X90850000Y-113500000D01*
X89150000Y-113500000D02*
X89150000Y-114500000D01*
X115150000Y-100000000D02*
X115150000Y-101000000D01*
X116850000Y-101000000D02*
X116850000Y-100000000D01*
X96850000Y-115750000D02*
X96850000Y-114750000D01*
X95150000Y-114750000D02*
X95150000Y-115750000D01*
X99150000Y-98500000D02*
X99150000Y-99500000D01*
X100850000Y-99500000D02*
X100850000Y-98500000D01*
X113350000Y-101000000D02*
X113350000Y-100000000D01*
X111650000Y-100000000D02*
X111650000Y-101000000D01*
X168500000Y-98150000D02*
X167500000Y-98150000D01*
X167500000Y-99850000D02*
X168500000Y-99850000D01*
X134500000Y-115150000D02*
X133500000Y-115150000D01*
X133500000Y-116850000D02*
X134500000Y-116850000D01*
D15*
X147500380Y-125000000D02*
G75*
G03X147500380Y-125000000I-500380J0D01*
G01*
X148501140Y-125000000D02*
G75*
G03X148501140Y-125000000I-1501140J0D01*
G01*
D14*
X149548957Y-125000000D02*
G75*
G03X149548957Y-125000000I-2548957J0D01*
G01*
X144000260Y-122000260D02*
X149999740Y-122000260D01*
X149999740Y-122000260D02*
X149999740Y-127999740D01*
X149999740Y-127999740D02*
X144000260Y-127999740D01*
X144000260Y-127999740D02*
X144000260Y-122000260D01*
X149371904Y-125000000D02*
G75*
G03X149371904Y-125000000I-2371904J0D01*
G01*
D15*
X164500380Y-125000000D02*
G75*
G03X164500380Y-125000000I-500380J0D01*
G01*
X165501140Y-125000000D02*
G75*
G03X165501140Y-125000000I-1501140J0D01*
G01*
D14*
X166548957Y-125000000D02*
G75*
G03X166548957Y-125000000I-2548957J0D01*
G01*
X161000260Y-122000260D02*
X166999740Y-122000260D01*
X166999740Y-122000260D02*
X166999740Y-127999740D01*
X166999740Y-127999740D02*
X161000260Y-127999740D01*
X161000260Y-127999740D02*
X161000260Y-122000260D01*
X166371904Y-125000000D02*
G75*
G03X166371904Y-125000000I-2371904J0D01*
G01*
D12*
X163738095Y-100822381D02*
X163738095Y-101631905D01*
X163785714Y-101727143D01*
X163833333Y-101774762D01*
X163928571Y-101822381D01*
X164119048Y-101822381D01*
X164214286Y-101774762D01*
X164261905Y-101727143D01*
X164309524Y-101631905D01*
X164309524Y-100822381D01*
X165214286Y-100822381D02*
X165023809Y-100822381D01*
X164928571Y-100870000D01*
X164880952Y-100917619D01*
X164785714Y-101060476D01*
X164738095Y-101250952D01*
X164738095Y-101631905D01*
X164785714Y-101727143D01*
X164833333Y-101774762D01*
X164928571Y-101822381D01*
X165119048Y-101822381D01*
X165214286Y-101774762D01*
X165261905Y-101727143D01*
X165309524Y-101631905D01*
X165309524Y-101393810D01*
X165261905Y-101298571D01*
X165214286Y-101250952D01*
X165119048Y-101203333D01*
X164928571Y-101203333D01*
X164833333Y-101250952D01*
X164785714Y-101298571D01*
X164738095Y-101393810D01*
X89152381Y-114166666D02*
X88676190Y-114500000D01*
X89152381Y-114738095D02*
X88152381Y-114738095D01*
X88152381Y-114357142D01*
X88200000Y-114261904D01*
X88247619Y-114214285D01*
X88342857Y-114166666D01*
X88485714Y-114166666D01*
X88580952Y-114214285D01*
X88628571Y-114261904D01*
X88676190Y-114357142D01*
X88676190Y-114738095D01*
X88152381Y-113261904D02*
X88152381Y-113738095D01*
X88628571Y-113785714D01*
X88580952Y-113738095D01*
X88533333Y-113642857D01*
X88533333Y-113404761D01*
X88580952Y-113309523D01*
X88628571Y-113261904D01*
X88723810Y-113214285D01*
X88961905Y-113214285D01*
X89057143Y-113261904D01*
X89104762Y-113309523D01*
X89152381Y-113404761D01*
X89152381Y-113642857D01*
X89104762Y-113738095D01*
X89057143Y-113785714D01*
X147857143Y-100752381D02*
X147523809Y-100276190D01*
X147285714Y-100752381D02*
X147285714Y-99752381D01*
X147666667Y-99752381D01*
X147761905Y-99800000D01*
X147809524Y-99847619D01*
X147857143Y-99942857D01*
X147857143Y-100085714D01*
X147809524Y-100180952D01*
X147761905Y-100228571D01*
X147666667Y-100276190D01*
X147285714Y-100276190D01*
X148809524Y-100752381D02*
X148238095Y-100752381D01*
X148523809Y-100752381D02*
X148523809Y-99752381D01*
X148428571Y-99895238D01*
X148333333Y-99990476D01*
X148238095Y-100038095D01*
X149666667Y-100085714D02*
X149666667Y-100752381D01*
X149428571Y-99704762D02*
X149190476Y-100419048D01*
X149809524Y-100419048D01*
X145952381Y-112238095D02*
X144952381Y-112238095D01*
X144952381Y-112000000D01*
X145000000Y-111857142D01*
X145095238Y-111761904D01*
X145190476Y-111714285D01*
X145380952Y-111666666D01*
X145523810Y-111666666D01*
X145714286Y-111714285D01*
X145809524Y-111761904D01*
X145904762Y-111857142D01*
X145952381Y-112000000D01*
X145952381Y-112238095D01*
X145047619Y-111285714D02*
X145000000Y-111238095D01*
X144952381Y-111142857D01*
X144952381Y-110904761D01*
X145000000Y-110809523D01*
X145047619Y-110761904D01*
X145142857Y-110714285D01*
X145238095Y-110714285D01*
X145380952Y-110761904D01*
X145952381Y-111333333D01*
X145952381Y-110714285D01*
X158952381Y-105738095D02*
X157952381Y-105738095D01*
X157952381Y-105500000D01*
X158000000Y-105357142D01*
X158095238Y-105261904D01*
X158190476Y-105214285D01*
X158380952Y-105166666D01*
X158523810Y-105166666D01*
X158714286Y-105214285D01*
X158809524Y-105261904D01*
X158904762Y-105357142D01*
X158952381Y-105500000D01*
X158952381Y-105738095D01*
X157952381Y-104833333D02*
X157952381Y-104214285D01*
X158333333Y-104547619D01*
X158333333Y-104404761D01*
X158380952Y-104309523D01*
X158428571Y-104261904D01*
X158523810Y-104214285D01*
X158761905Y-104214285D01*
X158857143Y-104261904D01*
X158904762Y-104309523D01*
X158952381Y-104404761D01*
X158952381Y-104690476D01*
X158904762Y-104785714D01*
X158857143Y-104833333D01*
X166952381Y-115738095D02*
X165952381Y-115738095D01*
X165952381Y-115500000D01*
X166000000Y-115357142D01*
X166095238Y-115261904D01*
X166190476Y-115214285D01*
X166380952Y-115166666D01*
X166523810Y-115166666D01*
X166714286Y-115214285D01*
X166809524Y-115261904D01*
X166904762Y-115357142D01*
X166952381Y-115500000D01*
X166952381Y-115738095D01*
X166285714Y-114309523D02*
X166952381Y-114309523D01*
X165904762Y-114547619D02*
X166619048Y-114785714D01*
X166619048Y-114166666D01*
X176952381Y-109738095D02*
X175952381Y-109738095D01*
X175952381Y-109500000D01*
X176000000Y-109357142D01*
X176095238Y-109261904D01*
X176190476Y-109214285D01*
X176380952Y-109166666D01*
X176523810Y-109166666D01*
X176714286Y-109214285D01*
X176809524Y-109261904D01*
X176904762Y-109357142D01*
X176952381Y-109500000D01*
X176952381Y-109738095D01*
X175952381Y-108261904D02*
X175952381Y-108738095D01*
X176428571Y-108785714D01*
X176380952Y-108738095D01*
X176333333Y-108642857D01*
X176333333Y-108404761D01*
X176380952Y-108309523D01*
X176428571Y-108261904D01*
X176523810Y-108214285D01*
X176761905Y-108214285D01*
X176857143Y-108261904D01*
X176904762Y-108309523D01*
X176952381Y-108404761D01*
X176952381Y-108642857D01*
X176904762Y-108738095D01*
X176857143Y-108785714D01*
X142352381Y-85666666D02*
X142352381Y-86142857D01*
X141352381Y-86142857D01*
X142352381Y-84809523D02*
X142352381Y-85380952D01*
X142352381Y-85095238D02*
X141352381Y-85095238D01*
X141495238Y-85190476D01*
X141590476Y-85285714D01*
X141638095Y-85380952D01*
X97352381Y-105666666D02*
X97352381Y-106142857D01*
X96352381Y-106142857D01*
X96447619Y-105380952D02*
X96400000Y-105333333D01*
X96352381Y-105238095D01*
X96352381Y-104999999D01*
X96400000Y-104904761D01*
X96447619Y-104857142D01*
X96542857Y-104809523D01*
X96638095Y-104809523D01*
X96780952Y-104857142D01*
X97352381Y-105428571D01*
X97352381Y-104809523D01*
X148761905Y-82952381D02*
X148761905Y-81952381D01*
X149142858Y-81952381D01*
X149238096Y-82000000D01*
X149285715Y-82047619D01*
X149333334Y-82142857D01*
X149333334Y-82285714D01*
X149285715Y-82380952D01*
X149238096Y-82428571D01*
X149142858Y-82476190D01*
X148761905Y-82476190D01*
X150285715Y-82952381D02*
X149714286Y-82952381D01*
X150000000Y-82952381D02*
X150000000Y-81952381D01*
X149904762Y-82095238D01*
X149809524Y-82190476D01*
X149714286Y-82238095D01*
X114261905Y-127952381D02*
X114261905Y-126952381D01*
X114642858Y-126952381D01*
X114738096Y-127000000D01*
X114785715Y-127047619D01*
X114833334Y-127142857D01*
X114833334Y-127285714D01*
X114785715Y-127380952D01*
X114738096Y-127428571D01*
X114642858Y-127476190D01*
X114261905Y-127476190D01*
X115214286Y-127047619D02*
X115261905Y-127000000D01*
X115357143Y-126952381D01*
X115595239Y-126952381D01*
X115690477Y-127000000D01*
X115738096Y-127047619D01*
X115785715Y-127142857D01*
X115785715Y-127238095D01*
X115738096Y-127380952D01*
X115166667Y-127952381D01*
X115785715Y-127952381D01*
X134261905Y-127952381D02*
X134261905Y-126952381D01*
X134642858Y-126952381D01*
X134738096Y-127000000D01*
X134785715Y-127047619D01*
X134833334Y-127142857D01*
X134833334Y-127285714D01*
X134785715Y-127380952D01*
X134738096Y-127428571D01*
X134642858Y-127476190D01*
X134261905Y-127476190D01*
X135690477Y-127285714D02*
X135690477Y-127952381D01*
X135452381Y-126904762D02*
X135214286Y-127619048D01*
X135833334Y-127619048D01*
X158452381Y-89166666D02*
X157976190Y-89500000D01*
X158452381Y-89738095D02*
X157452381Y-89738095D01*
X157452381Y-89357142D01*
X157500000Y-89261904D01*
X157547619Y-89214285D01*
X157642857Y-89166666D01*
X157785714Y-89166666D01*
X157880952Y-89214285D01*
X157928571Y-89261904D01*
X157976190Y-89357142D01*
X157976190Y-89738095D01*
X158452381Y-88214285D02*
X158452381Y-88785714D01*
X158452381Y-88500000D02*
X157452381Y-88500000D01*
X157595238Y-88595238D01*
X157690476Y-88690476D01*
X157738095Y-88785714D01*
X125833334Y-104752381D02*
X125500000Y-104276190D01*
X125261905Y-104752381D02*
X125261905Y-103752381D01*
X125642858Y-103752381D01*
X125738096Y-103800000D01*
X125785715Y-103847619D01*
X125833334Y-103942857D01*
X125833334Y-104085714D01*
X125785715Y-104180952D01*
X125738096Y-104228571D01*
X125642858Y-104276190D01*
X125261905Y-104276190D01*
X126214286Y-103847619D02*
X126261905Y-103800000D01*
X126357143Y-103752381D01*
X126595239Y-103752381D01*
X126690477Y-103800000D01*
X126738096Y-103847619D01*
X126785715Y-103942857D01*
X126785715Y-104038095D01*
X126738096Y-104180952D01*
X126166667Y-104752381D01*
X126785715Y-104752381D01*
X119833334Y-104752381D02*
X119500000Y-104276190D01*
X119261905Y-104752381D02*
X119261905Y-103752381D01*
X119642858Y-103752381D01*
X119738096Y-103800000D01*
X119785715Y-103847619D01*
X119833334Y-103942857D01*
X119833334Y-104085714D01*
X119785715Y-104180952D01*
X119738096Y-104228571D01*
X119642858Y-104276190D01*
X119261905Y-104276190D01*
X120166667Y-103752381D02*
X120785715Y-103752381D01*
X120452381Y-104133333D01*
X120595239Y-104133333D01*
X120690477Y-104180952D01*
X120738096Y-104228571D01*
X120785715Y-104323810D01*
X120785715Y-104561905D01*
X120738096Y-104657143D01*
X120690477Y-104704762D01*
X120595239Y-104752381D01*
X120309524Y-104752381D01*
X120214286Y-104704762D01*
X120166667Y-104657143D01*
X84752381Y-100166666D02*
X84276190Y-100500000D01*
X84752381Y-100738095D02*
X83752381Y-100738095D01*
X83752381Y-100357142D01*
X83800000Y-100261904D01*
X83847619Y-100214285D01*
X83942857Y-100166666D01*
X84085714Y-100166666D01*
X84180952Y-100214285D01*
X84228571Y-100261904D01*
X84276190Y-100357142D01*
X84276190Y-100738095D01*
X84085714Y-99309523D02*
X84752381Y-99309523D01*
X83704762Y-99547619D02*
X84419048Y-99785714D01*
X84419048Y-99166666D01*
X101152381Y-116416666D02*
X100676190Y-116750000D01*
X101152381Y-116988095D02*
X100152381Y-116988095D01*
X100152381Y-116607142D01*
X100200000Y-116511904D01*
X100247619Y-116464285D01*
X100342857Y-116416666D01*
X100485714Y-116416666D01*
X100580952Y-116464285D01*
X100628571Y-116511904D01*
X100676190Y-116607142D01*
X100676190Y-116988095D01*
X100152381Y-115559523D02*
X100152381Y-115750000D01*
X100200000Y-115845238D01*
X100247619Y-115892857D01*
X100390476Y-115988095D01*
X100580952Y-116035714D01*
X100961905Y-116035714D01*
X101057143Y-115988095D01*
X101104762Y-115940476D01*
X101152381Y-115845238D01*
X101152381Y-115654761D01*
X101104762Y-115559523D01*
X101057143Y-115511904D01*
X100961905Y-115464285D01*
X100723810Y-115464285D01*
X100628571Y-115511904D01*
X100580952Y-115559523D01*
X100533333Y-115654761D01*
X100533333Y-115845238D01*
X100580952Y-115940476D01*
X100628571Y-115988095D01*
X100723810Y-116035714D01*
X151333334Y-114102381D02*
X151000000Y-113626190D01*
X150761905Y-114102381D02*
X150761905Y-113102381D01*
X151142858Y-113102381D01*
X151238096Y-113150000D01*
X151285715Y-113197619D01*
X151333334Y-113292857D01*
X151333334Y-113435714D01*
X151285715Y-113530952D01*
X151238096Y-113578571D01*
X151142858Y-113626190D01*
X150761905Y-113626190D01*
X151904762Y-113530952D02*
X151809524Y-113483333D01*
X151761905Y-113435714D01*
X151714286Y-113340476D01*
X151714286Y-113292857D01*
X151761905Y-113197619D01*
X151809524Y-113150000D01*
X151904762Y-113102381D01*
X152095239Y-113102381D01*
X152190477Y-113150000D01*
X152238096Y-113197619D01*
X152285715Y-113292857D01*
X152285715Y-113340476D01*
X152238096Y-113435714D01*
X152190477Y-113483333D01*
X152095239Y-113530952D01*
X151904762Y-113530952D01*
X151809524Y-113578571D01*
X151761905Y-113626190D01*
X151714286Y-113721429D01*
X151714286Y-113911905D01*
X151761905Y-114007143D01*
X151809524Y-114054762D01*
X151904762Y-114102381D01*
X152095239Y-114102381D01*
X152190477Y-114054762D01*
X152238096Y-114007143D01*
X152285715Y-113911905D01*
X152285715Y-113721429D01*
X152238096Y-113626190D01*
X152190477Y-113578571D01*
X152095239Y-113530952D01*
X147857143Y-110152381D02*
X147523809Y-109676190D01*
X147285714Y-110152381D02*
X147285714Y-109152381D01*
X147666667Y-109152381D01*
X147761905Y-109200000D01*
X147809524Y-109247619D01*
X147857143Y-109342857D01*
X147857143Y-109485714D01*
X147809524Y-109580952D01*
X147761905Y-109628571D01*
X147666667Y-109676190D01*
X147285714Y-109676190D01*
X148809524Y-110152381D02*
X148238095Y-110152381D01*
X148523809Y-110152381D02*
X148523809Y-109152381D01*
X148428571Y-109295238D01*
X148333333Y-109390476D01*
X148238095Y-109438095D01*
X149428571Y-109152381D02*
X149523810Y-109152381D01*
X149619048Y-109200000D01*
X149666667Y-109247619D01*
X149714286Y-109342857D01*
X149761905Y-109533333D01*
X149761905Y-109771429D01*
X149714286Y-109961905D01*
X149666667Y-110057143D01*
X149619048Y-110104762D01*
X149523810Y-110152381D01*
X149428571Y-110152381D01*
X149333333Y-110104762D01*
X149285714Y-110057143D01*
X149238095Y-109961905D01*
X149190476Y-109771429D01*
X149190476Y-109533333D01*
X149238095Y-109342857D01*
X149285714Y-109247619D01*
X149333333Y-109200000D01*
X149428571Y-109152381D01*
X154857143Y-107252381D02*
X154523809Y-106776190D01*
X154285714Y-107252381D02*
X154285714Y-106252381D01*
X154666667Y-106252381D01*
X154761905Y-106300000D01*
X154809524Y-106347619D01*
X154857143Y-106442857D01*
X154857143Y-106585714D01*
X154809524Y-106680952D01*
X154761905Y-106728571D01*
X154666667Y-106776190D01*
X154285714Y-106776190D01*
X155809524Y-107252381D02*
X155238095Y-107252381D01*
X155523809Y-107252381D02*
X155523809Y-106252381D01*
X155428571Y-106395238D01*
X155333333Y-106490476D01*
X155238095Y-106538095D01*
X156761905Y-107252381D02*
X156190476Y-107252381D01*
X156476190Y-107252381D02*
X156476190Y-106252381D01*
X156380952Y-106395238D01*
X156285714Y-106490476D01*
X156190476Y-106538095D01*
X154857143Y-103152381D02*
X154523809Y-102676190D01*
X154285714Y-103152381D02*
X154285714Y-102152381D01*
X154666667Y-102152381D01*
X154761905Y-102200000D01*
X154809524Y-102247619D01*
X154857143Y-102342857D01*
X154857143Y-102485714D01*
X154809524Y-102580952D01*
X154761905Y-102628571D01*
X154666667Y-102676190D01*
X154285714Y-102676190D01*
X155809524Y-103152381D02*
X155238095Y-103152381D01*
X155523809Y-103152381D02*
X155523809Y-102152381D01*
X155428571Y-102295238D01*
X155333333Y-102390476D01*
X155238095Y-102438095D01*
X156190476Y-102247619D02*
X156238095Y-102200000D01*
X156333333Y-102152381D01*
X156571429Y-102152381D01*
X156666667Y-102200000D01*
X156714286Y-102247619D01*
X156761905Y-102342857D01*
X156761905Y-102438095D01*
X156714286Y-102580952D01*
X156142857Y-103152381D01*
X156761905Y-103152381D01*
X154857143Y-96152381D02*
X154523809Y-95676190D01*
X154285714Y-96152381D02*
X154285714Y-95152381D01*
X154666667Y-95152381D01*
X154761905Y-95200000D01*
X154809524Y-95247619D01*
X154857143Y-95342857D01*
X154857143Y-95485714D01*
X154809524Y-95580952D01*
X154761905Y-95628571D01*
X154666667Y-95676190D01*
X154285714Y-95676190D01*
X155809524Y-96152381D02*
X155238095Y-96152381D01*
X155523809Y-96152381D02*
X155523809Y-95152381D01*
X155428571Y-95295238D01*
X155333333Y-95390476D01*
X155238095Y-95438095D01*
X156142857Y-95152381D02*
X156761905Y-95152381D01*
X156428571Y-95533333D01*
X156571429Y-95533333D01*
X156666667Y-95580952D01*
X156714286Y-95628571D01*
X156761905Y-95723810D01*
X156761905Y-95961905D01*
X156714286Y-96057143D01*
X156666667Y-96104762D01*
X156571429Y-96152381D01*
X156285714Y-96152381D01*
X156190476Y-96104762D01*
X156142857Y-96057143D01*
X141857143Y-121302381D02*
X141523809Y-120826190D01*
X141285714Y-121302381D02*
X141285714Y-120302381D01*
X141666667Y-120302381D01*
X141761905Y-120350000D01*
X141809524Y-120397619D01*
X141857143Y-120492857D01*
X141857143Y-120635714D01*
X141809524Y-120730952D01*
X141761905Y-120778571D01*
X141666667Y-120826190D01*
X141285714Y-120826190D01*
X142809524Y-121302381D02*
X142238095Y-121302381D01*
X142523809Y-121302381D02*
X142523809Y-120302381D01*
X142428571Y-120445238D01*
X142333333Y-120540476D01*
X142238095Y-120588095D01*
X143714286Y-120302381D02*
X143238095Y-120302381D01*
X143190476Y-120778571D01*
X143238095Y-120730952D01*
X143333333Y-120683333D01*
X143571429Y-120683333D01*
X143666667Y-120730952D01*
X143714286Y-120778571D01*
X143761905Y-120873810D01*
X143761905Y-121111905D01*
X143714286Y-121207143D01*
X143666667Y-121254762D01*
X143571429Y-121302381D01*
X143333333Y-121302381D01*
X143238095Y-121254762D01*
X143190476Y-121207143D01*
X167857143Y-117602381D02*
X167523809Y-117126190D01*
X167285714Y-117602381D02*
X167285714Y-116602381D01*
X167666667Y-116602381D01*
X167761905Y-116650000D01*
X167809524Y-116697619D01*
X167857143Y-116792857D01*
X167857143Y-116935714D01*
X167809524Y-117030952D01*
X167761905Y-117078571D01*
X167666667Y-117126190D01*
X167285714Y-117126190D01*
X168809524Y-117602381D02*
X168238095Y-117602381D01*
X168523809Y-117602381D02*
X168523809Y-116602381D01*
X168428571Y-116745238D01*
X168333333Y-116840476D01*
X168238095Y-116888095D01*
X169380952Y-117030952D02*
X169285714Y-116983333D01*
X169238095Y-116935714D01*
X169190476Y-116840476D01*
X169190476Y-116792857D01*
X169238095Y-116697619D01*
X169285714Y-116650000D01*
X169380952Y-116602381D01*
X169571429Y-116602381D01*
X169666667Y-116650000D01*
X169714286Y-116697619D01*
X169761905Y-116792857D01*
X169761905Y-116840476D01*
X169714286Y-116935714D01*
X169666667Y-116983333D01*
X169571429Y-117030952D01*
X169380952Y-117030952D01*
X169285714Y-117078571D01*
X169238095Y-117126190D01*
X169190476Y-117221429D01*
X169190476Y-117411905D01*
X169238095Y-117507143D01*
X169285714Y-117554762D01*
X169380952Y-117602381D01*
X169571429Y-117602381D01*
X169666667Y-117554762D01*
X169714286Y-117507143D01*
X169761905Y-117411905D01*
X169761905Y-117221429D01*
X169714286Y-117126190D01*
X169666667Y-117078571D01*
X169571429Y-117030952D01*
X166152381Y-113642857D02*
X165676190Y-113976191D01*
X166152381Y-114214286D02*
X165152381Y-114214286D01*
X165152381Y-113833333D01*
X165200000Y-113738095D01*
X165247619Y-113690476D01*
X165342857Y-113642857D01*
X165485714Y-113642857D01*
X165580952Y-113690476D01*
X165628571Y-113738095D01*
X165676190Y-113833333D01*
X165676190Y-114214286D01*
X165247619Y-113261905D02*
X165200000Y-113214286D01*
X165152381Y-113119048D01*
X165152381Y-112880952D01*
X165200000Y-112785714D01*
X165247619Y-112738095D01*
X165342857Y-112690476D01*
X165438095Y-112690476D01*
X165580952Y-112738095D01*
X166152381Y-113309524D01*
X166152381Y-112690476D01*
X165152381Y-112071429D02*
X165152381Y-111976190D01*
X165200000Y-111880952D01*
X165247619Y-111833333D01*
X165342857Y-111785714D01*
X165533333Y-111738095D01*
X165771429Y-111738095D01*
X165961905Y-111785714D01*
X166057143Y-111833333D01*
X166104762Y-111880952D01*
X166152381Y-111976190D01*
X166152381Y-112071429D01*
X166104762Y-112166667D01*
X166057143Y-112214286D01*
X165961905Y-112261905D01*
X165771429Y-112309524D01*
X165533333Y-112309524D01*
X165342857Y-112261905D01*
X165247619Y-112214286D01*
X165200000Y-112166667D01*
X165152381Y-112071429D01*
X168357143Y-110252381D02*
X168023809Y-109776190D01*
X167785714Y-110252381D02*
X167785714Y-109252381D01*
X168166667Y-109252381D01*
X168261905Y-109300000D01*
X168309524Y-109347619D01*
X168357143Y-109442857D01*
X168357143Y-109585714D01*
X168309524Y-109680952D01*
X168261905Y-109728571D01*
X168166667Y-109776190D01*
X167785714Y-109776190D01*
X168738095Y-109347619D02*
X168785714Y-109300000D01*
X168880952Y-109252381D01*
X169119048Y-109252381D01*
X169214286Y-109300000D01*
X169261905Y-109347619D01*
X169309524Y-109442857D01*
X169309524Y-109538095D01*
X169261905Y-109680952D01*
X168690476Y-110252381D01*
X169309524Y-110252381D01*
X170261905Y-110252381D02*
X169690476Y-110252381D01*
X169976190Y-110252381D02*
X169976190Y-109252381D01*
X169880952Y-109395238D01*
X169785714Y-109490476D01*
X169690476Y-109538095D01*
X173857143Y-103752381D02*
X173523809Y-103276190D01*
X173285714Y-103752381D02*
X173285714Y-102752381D01*
X173666667Y-102752381D01*
X173761905Y-102800000D01*
X173809524Y-102847619D01*
X173857143Y-102942857D01*
X173857143Y-103085714D01*
X173809524Y-103180952D01*
X173761905Y-103228571D01*
X173666667Y-103276190D01*
X173285714Y-103276190D01*
X174238095Y-102847619D02*
X174285714Y-102800000D01*
X174380952Y-102752381D01*
X174619048Y-102752381D01*
X174714286Y-102800000D01*
X174761905Y-102847619D01*
X174809524Y-102942857D01*
X174809524Y-103038095D01*
X174761905Y-103180952D01*
X174190476Y-103752381D01*
X174809524Y-103752381D01*
X175190476Y-102847619D02*
X175238095Y-102800000D01*
X175333333Y-102752381D01*
X175571429Y-102752381D01*
X175666667Y-102800000D01*
X175714286Y-102847619D01*
X175761905Y-102942857D01*
X175761905Y-103038095D01*
X175714286Y-103180952D01*
X175142857Y-103752381D01*
X175761905Y-103752381D01*
X173857143Y-101152381D02*
X173523809Y-100676190D01*
X173285714Y-101152381D02*
X173285714Y-100152381D01*
X173666667Y-100152381D01*
X173761905Y-100200000D01*
X173809524Y-100247619D01*
X173857143Y-100342857D01*
X173857143Y-100485714D01*
X173809524Y-100580952D01*
X173761905Y-100628571D01*
X173666667Y-100676190D01*
X173285714Y-100676190D01*
X174238095Y-100247619D02*
X174285714Y-100200000D01*
X174380952Y-100152381D01*
X174619048Y-100152381D01*
X174714286Y-100200000D01*
X174761905Y-100247619D01*
X174809524Y-100342857D01*
X174809524Y-100438095D01*
X174761905Y-100580952D01*
X174190476Y-101152381D01*
X174809524Y-101152381D01*
X175142857Y-100152381D02*
X175761905Y-100152381D01*
X175428571Y-100533333D01*
X175571429Y-100533333D01*
X175666667Y-100580952D01*
X175714286Y-100628571D01*
X175761905Y-100723810D01*
X175761905Y-100961905D01*
X175714286Y-101057143D01*
X175666667Y-101104762D01*
X175571429Y-101152381D01*
X175285714Y-101152381D01*
X175190476Y-101104762D01*
X175142857Y-101057143D01*
X159752381Y-113642857D02*
X159276190Y-113976191D01*
X159752381Y-114214286D02*
X158752381Y-114214286D01*
X158752381Y-113833333D01*
X158800000Y-113738095D01*
X158847619Y-113690476D01*
X158942857Y-113642857D01*
X159085714Y-113642857D01*
X159180952Y-113690476D01*
X159228571Y-113738095D01*
X159276190Y-113833333D01*
X159276190Y-114214286D01*
X158847619Y-113261905D02*
X158800000Y-113214286D01*
X158752381Y-113119048D01*
X158752381Y-112880952D01*
X158800000Y-112785714D01*
X158847619Y-112738095D01*
X158942857Y-112690476D01*
X159038095Y-112690476D01*
X159180952Y-112738095D01*
X159752381Y-113309524D01*
X159752381Y-112690476D01*
X159085714Y-111833333D02*
X159752381Y-111833333D01*
X158704762Y-112071429D02*
X159419048Y-112309524D01*
X159419048Y-111690476D01*
X130452381Y-114738095D02*
X129452381Y-114738095D01*
X129452381Y-114500000D01*
X129500000Y-114357142D01*
X129595238Y-114261904D01*
X129690476Y-114214285D01*
X129880952Y-114166666D01*
X130023810Y-114166666D01*
X130214286Y-114214285D01*
X130309524Y-114261904D01*
X130404762Y-114357142D01*
X130452381Y-114500000D01*
X130452381Y-114738095D01*
X130452381Y-113214285D02*
X130452381Y-113785714D01*
X130452381Y-113500000D02*
X129452381Y-113500000D01*
X129595238Y-113595238D01*
X129690476Y-113690476D01*
X129738095Y-113785714D01*
X115052381Y-107166666D02*
X115052381Y-107642857D01*
X114052381Y-107642857D01*
X114052381Y-106928571D02*
X114052381Y-106309523D01*
X114433333Y-106642857D01*
X114433333Y-106499999D01*
X114480952Y-106404761D01*
X114528571Y-106357142D01*
X114623810Y-106309523D01*
X114861905Y-106309523D01*
X114957143Y-106357142D01*
X115004762Y-106404761D01*
X115052381Y-106499999D01*
X115052381Y-106785714D01*
X115004762Y-106880952D01*
X114957143Y-106928571D01*
X161083334Y-97352381D02*
X160607143Y-97352381D01*
X160607143Y-96352381D01*
X161845239Y-96685714D02*
X161845239Y-97352381D01*
X161607143Y-96304762D02*
X161369048Y-97019048D01*
X161988096Y-97019048D01*
X173857143Y-115152381D02*
X173523809Y-114676190D01*
X173285714Y-115152381D02*
X173285714Y-114152381D01*
X173666667Y-114152381D01*
X173761905Y-114200000D01*
X173809524Y-114247619D01*
X173857143Y-114342857D01*
X173857143Y-114485714D01*
X173809524Y-114580952D01*
X173761905Y-114628571D01*
X173666667Y-114676190D01*
X173285714Y-114676190D01*
X174238095Y-114247619D02*
X174285714Y-114200000D01*
X174380952Y-114152381D01*
X174619048Y-114152381D01*
X174714286Y-114200000D01*
X174761905Y-114247619D01*
X174809524Y-114342857D01*
X174809524Y-114438095D01*
X174761905Y-114580952D01*
X174190476Y-115152381D01*
X174809524Y-115152381D01*
X175714286Y-114152381D02*
X175238095Y-114152381D01*
X175190476Y-114628571D01*
X175238095Y-114580952D01*
X175333333Y-114533333D01*
X175571429Y-114533333D01*
X175666667Y-114580952D01*
X175714286Y-114628571D01*
X175761905Y-114723810D01*
X175761905Y-114961905D01*
X175714286Y-115057143D01*
X175666667Y-115104762D01*
X175571429Y-115152381D01*
X175333333Y-115152381D01*
X175238095Y-115104762D01*
X175190476Y-115057143D01*
X107974143Y-114053857D02*
X108021762Y-114101476D01*
X108069381Y-114244333D01*
X108069381Y-114339571D01*
X108021762Y-114482429D01*
X107926524Y-114577667D01*
X107831286Y-114625286D01*
X107640810Y-114672905D01*
X107497952Y-114672905D01*
X107307476Y-114625286D01*
X107212238Y-114577667D01*
X107117000Y-114482429D01*
X107069381Y-114339571D01*
X107069381Y-114244333D01*
X107117000Y-114101476D01*
X107164619Y-114053857D01*
X108069381Y-113101476D02*
X108069381Y-113672905D01*
X108069381Y-113387191D02*
X107069381Y-113387191D01*
X107212238Y-113482429D01*
X107307476Y-113577667D01*
X107355095Y-113672905D01*
X107164619Y-112720524D02*
X107117000Y-112672905D01*
X107069381Y-112577667D01*
X107069381Y-112339571D01*
X107117000Y-112244333D01*
X107164619Y-112196714D01*
X107259857Y-112149095D01*
X107355095Y-112149095D01*
X107497952Y-112196714D01*
X108069381Y-112768143D01*
X108069381Y-112149095D01*
X137207143Y-106642857D02*
X137254762Y-106690476D01*
X137302381Y-106833333D01*
X137302381Y-106928571D01*
X137254762Y-107071429D01*
X137159524Y-107166667D01*
X137064286Y-107214286D01*
X136873810Y-107261905D01*
X136730952Y-107261905D01*
X136540476Y-107214286D01*
X136445238Y-107166667D01*
X136350000Y-107071429D01*
X136302381Y-106928571D01*
X136302381Y-106833333D01*
X136350000Y-106690476D01*
X136397619Y-106642857D01*
X137302381Y-105690476D02*
X137302381Y-106261905D01*
X137302381Y-105976191D02*
X136302381Y-105976191D01*
X136445238Y-106071429D01*
X136540476Y-106166667D01*
X136588095Y-106261905D01*
X136302381Y-105357143D02*
X136302381Y-104738095D01*
X136683333Y-105071429D01*
X136683333Y-104928571D01*
X136730952Y-104833333D01*
X136778571Y-104785714D01*
X136873810Y-104738095D01*
X137111905Y-104738095D01*
X137207143Y-104785714D01*
X137254762Y-104833333D01*
X137302381Y-104928571D01*
X137302381Y-105214286D01*
X137254762Y-105309524D01*
X137207143Y-105357143D01*
X101152381Y-111166666D02*
X100676190Y-111500000D01*
X101152381Y-111738095D02*
X100152381Y-111738095D01*
X100152381Y-111357142D01*
X100200000Y-111261904D01*
X100247619Y-111214285D01*
X100342857Y-111166666D01*
X100485714Y-111166666D01*
X100580952Y-111214285D01*
X100628571Y-111261904D01*
X100676190Y-111357142D01*
X100676190Y-111738095D01*
X100152381Y-110833333D02*
X100152381Y-110166666D01*
X101152381Y-110595238D01*
X151333334Y-117602381D02*
X151000000Y-117126190D01*
X150761905Y-117602381D02*
X150761905Y-116602381D01*
X151142858Y-116602381D01*
X151238096Y-116650000D01*
X151285715Y-116697619D01*
X151333334Y-116792857D01*
X151333334Y-116935714D01*
X151285715Y-117030952D01*
X151238096Y-117078571D01*
X151142858Y-117126190D01*
X150761905Y-117126190D01*
X151809524Y-117602381D02*
X152000000Y-117602381D01*
X152095239Y-117554762D01*
X152142858Y-117507143D01*
X152238096Y-117364286D01*
X152285715Y-117173810D01*
X152285715Y-116792857D01*
X152238096Y-116697619D01*
X152190477Y-116650000D01*
X152095239Y-116602381D01*
X151904762Y-116602381D01*
X151809524Y-116650000D01*
X151761905Y-116697619D01*
X151714286Y-116792857D01*
X151714286Y-117030952D01*
X151761905Y-117126190D01*
X151809524Y-117173810D01*
X151904762Y-117221429D01*
X152095239Y-117221429D01*
X152190477Y-117173810D01*
X152238096Y-117126190D01*
X152285715Y-117030952D01*
X141857143Y-117802381D02*
X141523809Y-117326190D01*
X141285714Y-117802381D02*
X141285714Y-116802381D01*
X141666667Y-116802381D01*
X141761905Y-116850000D01*
X141809524Y-116897619D01*
X141857143Y-116992857D01*
X141857143Y-117135714D01*
X141809524Y-117230952D01*
X141761905Y-117278571D01*
X141666667Y-117326190D01*
X141285714Y-117326190D01*
X142809524Y-117802381D02*
X142238095Y-117802381D01*
X142523809Y-117802381D02*
X142523809Y-116802381D01*
X142428571Y-116945238D01*
X142333333Y-117040476D01*
X142238095Y-117088095D01*
X143666667Y-116802381D02*
X143476190Y-116802381D01*
X143380952Y-116850000D01*
X143333333Y-116897619D01*
X143238095Y-117040476D01*
X143190476Y-117230952D01*
X143190476Y-117611905D01*
X143238095Y-117707143D01*
X143285714Y-117754762D01*
X143380952Y-117802381D01*
X143571429Y-117802381D01*
X143666667Y-117754762D01*
X143714286Y-117707143D01*
X143761905Y-117611905D01*
X143761905Y-117373810D01*
X143714286Y-117278571D01*
X143666667Y-117230952D01*
X143571429Y-117183333D01*
X143380952Y-117183333D01*
X143285714Y-117230952D01*
X143238095Y-117278571D01*
X143190476Y-117373810D01*
X147857143Y-97752381D02*
X147523809Y-97276190D01*
X147285714Y-97752381D02*
X147285714Y-96752381D01*
X147666667Y-96752381D01*
X147761905Y-96800000D01*
X147809524Y-96847619D01*
X147857143Y-96942857D01*
X147857143Y-97085714D01*
X147809524Y-97180952D01*
X147761905Y-97228571D01*
X147666667Y-97276190D01*
X147285714Y-97276190D01*
X148809524Y-97752381D02*
X148238095Y-97752381D01*
X148523809Y-97752381D02*
X148523809Y-96752381D01*
X148428571Y-96895238D01*
X148333333Y-96990476D01*
X148238095Y-97038095D01*
X149142857Y-96752381D02*
X149809524Y-96752381D01*
X149380952Y-97752381D01*
X158857143Y-121302381D02*
X158523809Y-120826190D01*
X158285714Y-121302381D02*
X158285714Y-120302381D01*
X158666667Y-120302381D01*
X158761905Y-120350000D01*
X158809524Y-120397619D01*
X158857143Y-120492857D01*
X158857143Y-120635714D01*
X158809524Y-120730952D01*
X158761905Y-120778571D01*
X158666667Y-120826190D01*
X158285714Y-120826190D01*
X159809524Y-121302381D02*
X159238095Y-121302381D01*
X159523809Y-121302381D02*
X159523809Y-120302381D01*
X159428571Y-120445238D01*
X159333333Y-120540476D01*
X159238095Y-120588095D01*
X160285714Y-121302381D02*
X160476190Y-121302381D01*
X160571429Y-121254762D01*
X160619048Y-121207143D01*
X160714286Y-121064286D01*
X160761905Y-120873810D01*
X160761905Y-120492857D01*
X160714286Y-120397619D01*
X160666667Y-120350000D01*
X160571429Y-120302381D01*
X160380952Y-120302381D01*
X160285714Y-120350000D01*
X160238095Y-120397619D01*
X160190476Y-120492857D01*
X160190476Y-120730952D01*
X160238095Y-120826190D01*
X160285714Y-120873810D01*
X160380952Y-120921429D01*
X160571429Y-120921429D01*
X160666667Y-120873810D01*
X160714286Y-120826190D01*
X160761905Y-120730952D01*
X90238095Y-101322381D02*
X90238095Y-102131905D01*
X90285714Y-102227143D01*
X90333333Y-102274762D01*
X90428571Y-102322381D01*
X90619048Y-102322381D01*
X90714286Y-102274762D01*
X90761905Y-102227143D01*
X90809524Y-102131905D01*
X90809524Y-101322381D01*
X91809524Y-102322381D02*
X91238095Y-102322381D01*
X91523809Y-102322381D02*
X91523809Y-101322381D01*
X91428571Y-101465238D01*
X91333333Y-101560476D01*
X91238095Y-101608095D01*
X112238095Y-118952381D02*
X112238095Y-119761905D01*
X112285714Y-119857143D01*
X112333333Y-119904762D01*
X112428571Y-119952381D01*
X112619048Y-119952381D01*
X112714286Y-119904762D01*
X112761905Y-119857143D01*
X112809524Y-119761905D01*
X112809524Y-118952381D01*
X113190476Y-118952381D02*
X113809524Y-118952381D01*
X113476190Y-119333333D01*
X113619048Y-119333333D01*
X113714286Y-119380952D01*
X113761905Y-119428571D01*
X113809524Y-119523810D01*
X113809524Y-119761905D01*
X113761905Y-119857143D01*
X113714286Y-119904762D01*
X113619048Y-119952381D01*
X113333333Y-119952381D01*
X113238095Y-119904762D01*
X113190476Y-119857143D01*
X144952381Y-102761905D02*
X145761905Y-102761905D01*
X145857143Y-102714286D01*
X145904762Y-102666667D01*
X145952381Y-102571429D01*
X145952381Y-102380952D01*
X145904762Y-102285714D01*
X145857143Y-102238095D01*
X145761905Y-102190476D01*
X144952381Y-102190476D01*
X144952381Y-101238095D02*
X144952381Y-101714286D01*
X145428571Y-101761905D01*
X145380952Y-101714286D01*
X145333333Y-101619048D01*
X145333333Y-101380952D01*
X145380952Y-101285714D01*
X145428571Y-101238095D01*
X145523810Y-101190476D01*
X145761905Y-101190476D01*
X145857143Y-101238095D01*
X145904762Y-101285714D01*
X145952381Y-101380952D01*
X145952381Y-101619048D01*
X145904762Y-101714286D01*
X145857143Y-101761905D01*
X121920095Y-103774381D02*
X121920095Y-104583905D01*
X121967714Y-104679143D01*
X122015333Y-104726762D01*
X122110571Y-104774381D01*
X122301048Y-104774381D01*
X122396286Y-104726762D01*
X122443905Y-104679143D01*
X122491524Y-104583905D01*
X122491524Y-103774381D01*
X122920095Y-103869619D02*
X122967714Y-103822000D01*
X123062952Y-103774381D01*
X123301048Y-103774381D01*
X123396286Y-103822000D01*
X123443905Y-103869619D01*
X123491524Y-103964857D01*
X123491524Y-104060095D01*
X123443905Y-104202952D01*
X122872476Y-104774381D01*
X123491524Y-104774381D01*
X143357143Y-91507143D02*
X143309524Y-91554762D01*
X143166667Y-91602381D01*
X143071429Y-91602381D01*
X142928571Y-91554762D01*
X142833333Y-91459524D01*
X142785714Y-91364286D01*
X142738095Y-91173810D01*
X142738095Y-91030952D01*
X142785714Y-90840476D01*
X142833333Y-90745238D01*
X142928571Y-90650000D01*
X143071429Y-90602381D01*
X143166667Y-90602381D01*
X143309524Y-90650000D01*
X143357143Y-90697619D01*
X144309524Y-91602381D02*
X143738095Y-91602381D01*
X144023809Y-91602381D02*
X144023809Y-90602381D01*
X143928571Y-90745238D01*
X143833333Y-90840476D01*
X143738095Y-90888095D01*
X145214286Y-90602381D02*
X144738095Y-90602381D01*
X144690476Y-91078571D01*
X144738095Y-91030952D01*
X144833333Y-90983333D01*
X145071429Y-90983333D01*
X145166667Y-91030952D01*
X145214286Y-91078571D01*
X145261905Y-91173810D01*
X145261905Y-91411905D01*
X145214286Y-91507143D01*
X145166667Y-91554762D01*
X145071429Y-91602381D01*
X144833333Y-91602381D01*
X144738095Y-91554762D01*
X144690476Y-91507143D01*
X121357143Y-90166666D02*
X121404762Y-90214285D01*
X121452381Y-90357142D01*
X121452381Y-90452380D01*
X121404762Y-90595238D01*
X121309524Y-90690476D01*
X121214286Y-90738095D01*
X121023810Y-90785714D01*
X120880952Y-90785714D01*
X120690476Y-90738095D01*
X120595238Y-90690476D01*
X120500000Y-90595238D01*
X120452381Y-90452380D01*
X120452381Y-90357142D01*
X120500000Y-90214285D01*
X120547619Y-90166666D01*
X120785714Y-89309523D02*
X121452381Y-89309523D01*
X120404762Y-89547619D02*
X121119048Y-89785714D01*
X121119048Y-89166666D01*
X124357143Y-114166666D02*
X124404762Y-114214285D01*
X124452381Y-114357142D01*
X124452381Y-114452380D01*
X124404762Y-114595238D01*
X124309524Y-114690476D01*
X124214286Y-114738095D01*
X124023810Y-114785714D01*
X123880952Y-114785714D01*
X123690476Y-114738095D01*
X123595238Y-114690476D01*
X123500000Y-114595238D01*
X123452381Y-114452380D01*
X123452381Y-114357142D01*
X123500000Y-114214285D01*
X123547619Y-114166666D01*
X124452381Y-113690476D02*
X124452381Y-113500000D01*
X124404762Y-113404761D01*
X124357143Y-113357142D01*
X124214286Y-113261904D01*
X124023810Y-113214285D01*
X123642857Y-113214285D01*
X123547619Y-113261904D01*
X123500000Y-113309523D01*
X123452381Y-113404761D01*
X123452381Y-113595238D01*
X123500000Y-113690476D01*
X123547619Y-113738095D01*
X123642857Y-113785714D01*
X123880952Y-113785714D01*
X123976190Y-113738095D01*
X124023810Y-113690476D01*
X124071429Y-113595238D01*
X124071429Y-113404761D01*
X124023810Y-113309523D01*
X123976190Y-113261904D01*
X123880952Y-113214285D01*
X90666667Y-86452381D02*
X90666667Y-87166667D01*
X90619047Y-87309524D01*
X90523809Y-87404762D01*
X90380952Y-87452381D01*
X90285714Y-87452381D01*
X91619048Y-86452381D02*
X91142857Y-86452381D01*
X91095238Y-86928571D01*
X91142857Y-86880952D01*
X91238095Y-86833333D01*
X91476191Y-86833333D01*
X91571429Y-86880952D01*
X91619048Y-86928571D01*
X91666667Y-87023810D01*
X91666667Y-87261905D01*
X91619048Y-87357143D01*
X91571429Y-87404762D01*
X91476191Y-87452381D01*
X91238095Y-87452381D01*
X91142857Y-87404762D01*
X91095238Y-87357143D01*
X119666667Y-86452381D02*
X119666667Y-87166667D01*
X119619047Y-87309524D01*
X119523809Y-87404762D01*
X119380952Y-87452381D01*
X119285714Y-87452381D01*
X120571429Y-86452381D02*
X120380952Y-86452381D01*
X120285714Y-86500000D01*
X120238095Y-86547619D01*
X120142857Y-86690476D01*
X120095238Y-86880952D01*
X120095238Y-87261905D01*
X120142857Y-87357143D01*
X120190476Y-87404762D01*
X120285714Y-87452381D01*
X120476191Y-87452381D01*
X120571429Y-87404762D01*
X120619048Y-87357143D01*
X120666667Y-87261905D01*
X120666667Y-87023810D01*
X120619048Y-86928571D01*
X120571429Y-86880952D01*
X120476191Y-86833333D01*
X120285714Y-86833333D01*
X120190476Y-86880952D01*
X120142857Y-86928571D01*
X120095238Y-87023810D01*
X126666667Y-86452381D02*
X126666667Y-87166667D01*
X126619047Y-87309524D01*
X126523809Y-87404762D01*
X126380952Y-87452381D01*
X126285714Y-87452381D01*
X127047619Y-86452381D02*
X127714286Y-86452381D01*
X127285714Y-87452381D01*
X107357143Y-108057143D02*
X107309524Y-108104762D01*
X107166667Y-108152381D01*
X107071429Y-108152381D01*
X106928571Y-108104762D01*
X106833333Y-108009524D01*
X106785714Y-107914286D01*
X106738095Y-107723810D01*
X106738095Y-107580952D01*
X106785714Y-107390476D01*
X106833333Y-107295238D01*
X106928571Y-107200000D01*
X107071429Y-107152381D01*
X107166667Y-107152381D01*
X107309524Y-107200000D01*
X107357143Y-107247619D01*
X108309524Y-108152381D02*
X107738095Y-108152381D01*
X108023809Y-108152381D02*
X108023809Y-107152381D01*
X107928571Y-107295238D01*
X107833333Y-107390476D01*
X107738095Y-107438095D01*
X108928571Y-107152381D02*
X109023810Y-107152381D01*
X109119048Y-107200000D01*
X109166667Y-107247619D01*
X109214286Y-107342857D01*
X109261905Y-107533333D01*
X109261905Y-107771429D01*
X109214286Y-107961905D01*
X109166667Y-108057143D01*
X109119048Y-108104762D01*
X109023810Y-108152381D01*
X108928571Y-108152381D01*
X108833333Y-108104762D01*
X108785714Y-108057143D01*
X108738095Y-107961905D01*
X108690476Y-107771429D01*
X108690476Y-107533333D01*
X108738095Y-107342857D01*
X108785714Y-107247619D01*
X108833333Y-107200000D01*
X108928571Y-107152381D01*
X154857143Y-99557143D02*
X154809524Y-99604762D01*
X154666667Y-99652381D01*
X154571429Y-99652381D01*
X154428571Y-99604762D01*
X154333333Y-99509524D01*
X154285714Y-99414286D01*
X154238095Y-99223810D01*
X154238095Y-99080952D01*
X154285714Y-98890476D01*
X154333333Y-98795238D01*
X154428571Y-98700000D01*
X154571429Y-98652381D01*
X154666667Y-98652381D01*
X154809524Y-98700000D01*
X154857143Y-98747619D01*
X155809524Y-99652381D02*
X155238095Y-99652381D01*
X155523809Y-99652381D02*
X155523809Y-98652381D01*
X155428571Y-98795238D01*
X155333333Y-98890476D01*
X155238095Y-98938095D01*
X156142857Y-98652381D02*
X156809524Y-98652381D01*
X156380952Y-99652381D01*
X141857143Y-110157143D02*
X141809524Y-110204762D01*
X141666667Y-110252381D01*
X141571429Y-110252381D01*
X141428571Y-110204762D01*
X141333333Y-110109524D01*
X141285714Y-110014286D01*
X141238095Y-109823810D01*
X141238095Y-109680952D01*
X141285714Y-109490476D01*
X141333333Y-109395238D01*
X141428571Y-109300000D01*
X141571429Y-109252381D01*
X141666667Y-109252381D01*
X141809524Y-109300000D01*
X141857143Y-109347619D01*
X142809524Y-110252381D02*
X142238095Y-110252381D01*
X142523809Y-110252381D02*
X142523809Y-109252381D01*
X142428571Y-109395238D01*
X142333333Y-109490476D01*
X142238095Y-109538095D01*
X143380952Y-109680952D02*
X143285714Y-109633333D01*
X143238095Y-109585714D01*
X143190476Y-109490476D01*
X143190476Y-109442857D01*
X143238095Y-109347619D01*
X143285714Y-109300000D01*
X143380952Y-109252381D01*
X143571429Y-109252381D01*
X143666667Y-109300000D01*
X143714286Y-109347619D01*
X143761905Y-109442857D01*
X143761905Y-109490476D01*
X143714286Y-109585714D01*
X143666667Y-109633333D01*
X143571429Y-109680952D01*
X143380952Y-109680952D01*
X143285714Y-109728571D01*
X143238095Y-109776190D01*
X143190476Y-109871429D01*
X143190476Y-110061905D01*
X143238095Y-110157143D01*
X143285714Y-110204762D01*
X143380952Y-110252381D01*
X143571429Y-110252381D01*
X143666667Y-110204762D01*
X143714286Y-110157143D01*
X143761905Y-110061905D01*
X143761905Y-109871429D01*
X143714286Y-109776190D01*
X143666667Y-109728571D01*
X143571429Y-109680952D01*
X147857143Y-103657143D02*
X147809524Y-103704762D01*
X147666667Y-103752381D01*
X147571429Y-103752381D01*
X147428571Y-103704762D01*
X147333333Y-103609524D01*
X147285714Y-103514286D01*
X147238095Y-103323810D01*
X147238095Y-103180952D01*
X147285714Y-102990476D01*
X147333333Y-102895238D01*
X147428571Y-102800000D01*
X147571429Y-102752381D01*
X147666667Y-102752381D01*
X147809524Y-102800000D01*
X147857143Y-102847619D01*
X148809524Y-103752381D02*
X148238095Y-103752381D01*
X148523809Y-103752381D02*
X148523809Y-102752381D01*
X148428571Y-102895238D01*
X148333333Y-102990476D01*
X148238095Y-103038095D01*
X149285714Y-103752381D02*
X149476190Y-103752381D01*
X149571429Y-103704762D01*
X149619048Y-103657143D01*
X149714286Y-103514286D01*
X149761905Y-103323810D01*
X149761905Y-102942857D01*
X149714286Y-102847619D01*
X149666667Y-102800000D01*
X149571429Y-102752381D01*
X149380952Y-102752381D01*
X149285714Y-102800000D01*
X149238095Y-102847619D01*
X149190476Y-102942857D01*
X149190476Y-103180952D01*
X149238095Y-103276190D01*
X149285714Y-103323810D01*
X149380952Y-103371429D01*
X149571429Y-103371429D01*
X149666667Y-103323810D01*
X149714286Y-103276190D01*
X149761905Y-103180952D01*
X173857143Y-118057143D02*
X173809524Y-118104762D01*
X173666667Y-118152381D01*
X173571429Y-118152381D01*
X173428571Y-118104762D01*
X173333333Y-118009524D01*
X173285714Y-117914286D01*
X173238095Y-117723810D01*
X173238095Y-117580952D01*
X173285714Y-117390476D01*
X173333333Y-117295238D01*
X173428571Y-117200000D01*
X173571429Y-117152381D01*
X173666667Y-117152381D01*
X173809524Y-117200000D01*
X173857143Y-117247619D01*
X174238095Y-117247619D02*
X174285714Y-117200000D01*
X174380952Y-117152381D01*
X174619048Y-117152381D01*
X174714286Y-117200000D01*
X174761905Y-117247619D01*
X174809524Y-117342857D01*
X174809524Y-117438095D01*
X174761905Y-117580952D01*
X174190476Y-118152381D01*
X174809524Y-118152381D01*
X175761905Y-118152381D02*
X175190476Y-118152381D01*
X175476190Y-118152381D02*
X175476190Y-117152381D01*
X175380952Y-117295238D01*
X175285714Y-117390476D01*
X175190476Y-117438095D01*
X154857143Y-110157143D02*
X154809524Y-110204762D01*
X154666667Y-110252381D01*
X154571429Y-110252381D01*
X154428571Y-110204762D01*
X154333333Y-110109524D01*
X154285714Y-110014286D01*
X154238095Y-109823810D01*
X154238095Y-109680952D01*
X154285714Y-109490476D01*
X154333333Y-109395238D01*
X154428571Y-109300000D01*
X154571429Y-109252381D01*
X154666667Y-109252381D01*
X154809524Y-109300000D01*
X154857143Y-109347619D01*
X155238095Y-109347619D02*
X155285714Y-109300000D01*
X155380952Y-109252381D01*
X155619048Y-109252381D01*
X155714286Y-109300000D01*
X155761905Y-109347619D01*
X155809524Y-109442857D01*
X155809524Y-109538095D01*
X155761905Y-109680952D01*
X155190476Y-110252381D01*
X155809524Y-110252381D01*
X156190476Y-109347619D02*
X156238095Y-109300000D01*
X156333333Y-109252381D01*
X156571429Y-109252381D01*
X156666667Y-109300000D01*
X156714286Y-109347619D01*
X156761905Y-109442857D01*
X156761905Y-109538095D01*
X156714286Y-109680952D01*
X156142857Y-110252381D01*
X156761905Y-110252381D01*
X173857143Y-104057143D02*
X173809524Y-104104762D01*
X173666667Y-104152381D01*
X173571429Y-104152381D01*
X173428571Y-104104762D01*
X173333333Y-104009524D01*
X173285714Y-103914286D01*
X173238095Y-103723810D01*
X173238095Y-103580952D01*
X173285714Y-103390476D01*
X173333333Y-103295238D01*
X173428571Y-103200000D01*
X173571429Y-103152381D01*
X173666667Y-103152381D01*
X173809524Y-103200000D01*
X173857143Y-103247619D01*
X174238095Y-103247619D02*
X174285714Y-103200000D01*
X174380952Y-103152381D01*
X174619048Y-103152381D01*
X174714286Y-103200000D01*
X174761905Y-103247619D01*
X174809524Y-103342857D01*
X174809524Y-103438095D01*
X174761905Y-103580952D01*
X174190476Y-104152381D01*
X174809524Y-104152381D01*
X175142857Y-103152381D02*
X175761905Y-103152381D01*
X175428571Y-103533333D01*
X175571429Y-103533333D01*
X175666667Y-103580952D01*
X175714286Y-103628571D01*
X175761905Y-103723810D01*
X175761905Y-103961905D01*
X175714286Y-104057143D01*
X175666667Y-104104762D01*
X175571429Y-104152381D01*
X175285714Y-104152381D01*
X175190476Y-104104762D01*
X175142857Y-104057143D01*
X109627381Y-99567905D02*
X110436905Y-99567905D01*
X110532143Y-99520286D01*
X110579762Y-99472667D01*
X110627381Y-99377429D01*
X110627381Y-99186952D01*
X110579762Y-99091714D01*
X110532143Y-99044095D01*
X110436905Y-98996476D01*
X109627381Y-98996476D01*
X109960714Y-98091714D02*
X110627381Y-98091714D01*
X109579762Y-98329810D02*
X110294048Y-98567905D01*
X110294048Y-97948857D01*
X159333334Y-82352381D02*
X158857143Y-82352381D01*
X158857143Y-81352381D01*
X160142858Y-81352381D02*
X159666667Y-81352381D01*
X159619048Y-81828571D01*
X159666667Y-81780952D01*
X159761905Y-81733333D01*
X160000001Y-81733333D01*
X160095239Y-81780952D01*
X160142858Y-81828571D01*
X160190477Y-81923810D01*
X160190477Y-82161905D01*
X160142858Y-82257143D01*
X160095239Y-82304762D01*
X160000001Y-82352381D01*
X159761905Y-82352381D01*
X159666667Y-82304762D01*
X159619048Y-82257143D01*
X158752381Y-95142857D02*
X158276190Y-95476191D01*
X158752381Y-95714286D02*
X157752381Y-95714286D01*
X157752381Y-95333333D01*
X157800000Y-95238095D01*
X157847619Y-95190476D01*
X157942857Y-95142857D01*
X158085714Y-95142857D01*
X158180952Y-95190476D01*
X158228571Y-95238095D01*
X158276190Y-95333333D01*
X158276190Y-95714286D01*
X157847619Y-94761905D02*
X157800000Y-94714286D01*
X157752381Y-94619048D01*
X157752381Y-94380952D01*
X157800000Y-94285714D01*
X157847619Y-94238095D01*
X157942857Y-94190476D01*
X158038095Y-94190476D01*
X158180952Y-94238095D01*
X158752381Y-94809524D01*
X158752381Y-94190476D01*
X157752381Y-93333333D02*
X157752381Y-93523810D01*
X157800000Y-93619048D01*
X157847619Y-93666667D01*
X157990476Y-93761905D01*
X158180952Y-93809524D01*
X158561905Y-93809524D01*
X158657143Y-93761905D01*
X158704762Y-93714286D01*
X158752381Y-93619048D01*
X158752381Y-93428571D01*
X158704762Y-93333333D01*
X158657143Y-93285714D01*
X158561905Y-93238095D01*
X158323810Y-93238095D01*
X158228571Y-93285714D01*
X158180952Y-93333333D01*
X158133333Y-93428571D01*
X158133333Y-93619048D01*
X158180952Y-93714286D01*
X158228571Y-93761905D01*
X158323810Y-93809524D01*
X170752381Y-95142857D02*
X170276190Y-95476191D01*
X170752381Y-95714286D02*
X169752381Y-95714286D01*
X169752381Y-95333333D01*
X169800000Y-95238095D01*
X169847619Y-95190476D01*
X169942857Y-95142857D01*
X170085714Y-95142857D01*
X170180952Y-95190476D01*
X170228571Y-95238095D01*
X170276190Y-95333333D01*
X170276190Y-95714286D01*
X169847619Y-94761905D02*
X169800000Y-94714286D01*
X169752381Y-94619048D01*
X169752381Y-94380952D01*
X169800000Y-94285714D01*
X169847619Y-94238095D01*
X169942857Y-94190476D01*
X170038095Y-94190476D01*
X170180952Y-94238095D01*
X170752381Y-94809524D01*
X170752381Y-94190476D01*
X169752381Y-93857143D02*
X169752381Y-93190476D01*
X170752381Y-93619048D01*
X161322381Y-91761905D02*
X162131905Y-91761905D01*
X162227143Y-91714286D01*
X162274762Y-91666667D01*
X162322381Y-91571429D01*
X162322381Y-91380952D01*
X162274762Y-91285714D01*
X162227143Y-91238095D01*
X162131905Y-91190476D01*
X161322381Y-91190476D01*
X161322381Y-90809524D02*
X161322381Y-90142857D01*
X162322381Y-90571429D01*
X141452381Y-125333333D02*
X142166667Y-125333333D01*
X142309524Y-125380953D01*
X142404762Y-125476191D01*
X142452381Y-125619048D01*
X142452381Y-125714286D01*
X142452381Y-124809524D02*
X142452381Y-124619048D01*
X142404762Y-124523809D01*
X142357143Y-124476190D01*
X142214286Y-124380952D01*
X142023810Y-124333333D01*
X141642857Y-124333333D01*
X141547619Y-124380952D01*
X141500000Y-124428571D01*
X141452381Y-124523809D01*
X141452381Y-124714286D01*
X141500000Y-124809524D01*
X141547619Y-124857143D01*
X141642857Y-124904762D01*
X141880952Y-124904762D01*
X141976190Y-124857143D01*
X142023810Y-124809524D01*
X142071429Y-124714286D01*
X142071429Y-124523809D01*
X142023810Y-124428571D01*
X141976190Y-124380952D01*
X141880952Y-124333333D01*
X158452381Y-125809523D02*
X159166667Y-125809523D01*
X159309524Y-125857143D01*
X159404762Y-125952381D01*
X159452381Y-126095238D01*
X159452381Y-126190476D01*
X159452381Y-124809523D02*
X159452381Y-125380952D01*
X159452381Y-125095238D02*
X158452381Y-125095238D01*
X158595238Y-125190476D01*
X158690476Y-125285714D01*
X158738095Y-125380952D01*
X159452381Y-123857142D02*
X159452381Y-124428571D01*
X159452381Y-124142857D02*
X158452381Y-124142857D01*
X158595238Y-124238095D01*
X158690476Y-124333333D01*
X158738095Y-124428571D01*
X165833334Y-82607143D02*
X165785715Y-82654762D01*
X165642858Y-82702381D01*
X165547620Y-82702381D01*
X165404762Y-82654762D01*
X165309524Y-82559524D01*
X165261905Y-82464286D01*
X165214286Y-82273810D01*
X165214286Y-82130952D01*
X165261905Y-81940476D01*
X165309524Y-81845238D01*
X165404762Y-81750000D01*
X165547620Y-81702381D01*
X165642858Y-81702381D01*
X165785715Y-81750000D01*
X165833334Y-81797619D01*
X166785715Y-82702381D02*
X166214286Y-82702381D01*
X166500000Y-82702381D02*
X166500000Y-81702381D01*
X166404762Y-81845238D01*
X166309524Y-81940476D01*
X166214286Y-81988095D01*
X142607143Y-86666666D02*
X142654762Y-86714285D01*
X142702381Y-86857142D01*
X142702381Y-86952380D01*
X142654762Y-87095238D01*
X142559524Y-87190476D01*
X142464286Y-87238095D01*
X142273810Y-87285714D01*
X142130952Y-87285714D01*
X141940476Y-87238095D01*
X141845238Y-87190476D01*
X141750000Y-87095238D01*
X141702381Y-86952380D01*
X141702381Y-86857142D01*
X141750000Y-86714285D01*
X141797619Y-86666666D01*
X141797619Y-86285714D02*
X141750000Y-86238095D01*
X141702381Y-86142857D01*
X141702381Y-85904761D01*
X141750000Y-85809523D01*
X141797619Y-85761904D01*
X141892857Y-85714285D01*
X141988095Y-85714285D01*
X142130952Y-85761904D01*
X142702381Y-86333333D01*
X142702381Y-85714285D01*
X131833334Y-96607143D02*
X131785715Y-96654762D01*
X131642858Y-96702381D01*
X131547620Y-96702381D01*
X131404762Y-96654762D01*
X131309524Y-96559524D01*
X131261905Y-96464286D01*
X131214286Y-96273810D01*
X131214286Y-96130952D01*
X131261905Y-95940476D01*
X131309524Y-95845238D01*
X131404762Y-95750000D01*
X131547620Y-95702381D01*
X131642858Y-95702381D01*
X131785715Y-95750000D01*
X131833334Y-95797619D01*
X132166667Y-95702381D02*
X132785715Y-95702381D01*
X132452381Y-96083333D01*
X132595239Y-96083333D01*
X132690477Y-96130952D01*
X132738096Y-96178571D01*
X132785715Y-96273810D01*
X132785715Y-96511905D01*
X132738096Y-96607143D01*
X132690477Y-96654762D01*
X132595239Y-96702381D01*
X132309524Y-96702381D01*
X132214286Y-96654762D01*
X132166667Y-96607143D01*
X95107143Y-99166666D02*
X95154762Y-99214285D01*
X95202381Y-99357142D01*
X95202381Y-99452380D01*
X95154762Y-99595238D01*
X95059524Y-99690476D01*
X94964286Y-99738095D01*
X94773810Y-99785714D01*
X94630952Y-99785714D01*
X94440476Y-99738095D01*
X94345238Y-99690476D01*
X94250000Y-99595238D01*
X94202381Y-99452380D01*
X94202381Y-99357142D01*
X94250000Y-99214285D01*
X94297619Y-99166666D01*
X94202381Y-98261904D02*
X94202381Y-98738095D01*
X94678571Y-98785714D01*
X94630952Y-98738095D01*
X94583333Y-98642857D01*
X94583333Y-98404761D01*
X94630952Y-98309523D01*
X94678571Y-98261904D01*
X94773810Y-98214285D01*
X95011905Y-98214285D01*
X95107143Y-98261904D01*
X95154762Y-98309523D01*
X95202381Y-98404761D01*
X95202381Y-98642857D01*
X95154762Y-98738095D01*
X95107143Y-98785714D01*
X92107143Y-114166666D02*
X92154762Y-114214285D01*
X92202381Y-114357142D01*
X92202381Y-114452380D01*
X92154762Y-114595238D01*
X92059524Y-114690476D01*
X91964286Y-114738095D01*
X91773810Y-114785714D01*
X91630952Y-114785714D01*
X91440476Y-114738095D01*
X91345238Y-114690476D01*
X91250000Y-114595238D01*
X91202381Y-114452380D01*
X91202381Y-114357142D01*
X91250000Y-114214285D01*
X91297619Y-114166666D01*
X91202381Y-113309523D02*
X91202381Y-113500000D01*
X91250000Y-113595238D01*
X91297619Y-113642857D01*
X91440476Y-113738095D01*
X91630952Y-113785714D01*
X92011905Y-113785714D01*
X92107143Y-113738095D01*
X92154762Y-113690476D01*
X92202381Y-113595238D01*
X92202381Y-113404761D01*
X92154762Y-113309523D01*
X92107143Y-113261904D01*
X92011905Y-113214285D01*
X91773810Y-113214285D01*
X91678571Y-113261904D01*
X91630952Y-113309523D01*
X91583333Y-113404761D01*
X91583333Y-113595238D01*
X91630952Y-113690476D01*
X91678571Y-113738095D01*
X91773810Y-113785714D01*
X114607143Y-100666666D02*
X114654762Y-100714285D01*
X114702381Y-100857142D01*
X114702381Y-100952380D01*
X114654762Y-101095238D01*
X114559524Y-101190476D01*
X114464286Y-101238095D01*
X114273810Y-101285714D01*
X114130952Y-101285714D01*
X113940476Y-101238095D01*
X113845238Y-101190476D01*
X113750000Y-101095238D01*
X113702381Y-100952380D01*
X113702381Y-100857142D01*
X113750000Y-100714285D01*
X113797619Y-100666666D01*
X113702381Y-100333333D02*
X113702381Y-99666666D01*
X114702381Y-100095238D01*
X98107143Y-115416666D02*
X98154762Y-115464285D01*
X98202381Y-115607142D01*
X98202381Y-115702380D01*
X98154762Y-115845238D01*
X98059524Y-115940476D01*
X97964286Y-115988095D01*
X97773810Y-116035714D01*
X97630952Y-116035714D01*
X97440476Y-115988095D01*
X97345238Y-115940476D01*
X97250000Y-115845238D01*
X97202381Y-115702380D01*
X97202381Y-115607142D01*
X97250000Y-115464285D01*
X97297619Y-115416666D01*
X97630952Y-114845238D02*
X97583333Y-114940476D01*
X97535714Y-114988095D01*
X97440476Y-115035714D01*
X97392857Y-115035714D01*
X97297619Y-114988095D01*
X97250000Y-114940476D01*
X97202381Y-114845238D01*
X97202381Y-114654761D01*
X97250000Y-114559523D01*
X97297619Y-114511904D01*
X97392857Y-114464285D01*
X97440476Y-114464285D01*
X97535714Y-114511904D01*
X97583333Y-114559523D01*
X97630952Y-114654761D01*
X97630952Y-114845238D01*
X97678571Y-114940476D01*
X97726190Y-114988095D01*
X97821429Y-115035714D01*
X98011905Y-115035714D01*
X98107143Y-114988095D01*
X98154762Y-114940476D01*
X98202381Y-114845238D01*
X98202381Y-114654761D01*
X98154762Y-114559523D01*
X98107143Y-114511904D01*
X98011905Y-114464285D01*
X97821429Y-114464285D01*
X97726190Y-114511904D01*
X97678571Y-114559523D01*
X97630952Y-114654761D01*
X98607143Y-99642857D02*
X98654762Y-99690476D01*
X98702381Y-99833333D01*
X98702381Y-99928571D01*
X98654762Y-100071429D01*
X98559524Y-100166667D01*
X98464286Y-100214286D01*
X98273810Y-100261905D01*
X98130952Y-100261905D01*
X97940476Y-100214286D01*
X97845238Y-100166667D01*
X97750000Y-100071429D01*
X97702381Y-99928571D01*
X97702381Y-99833333D01*
X97750000Y-99690476D01*
X97797619Y-99642857D01*
X98702381Y-98690476D02*
X98702381Y-99261905D01*
X98702381Y-98976191D02*
X97702381Y-98976191D01*
X97845238Y-99071429D01*
X97940476Y-99166667D01*
X97988095Y-99261905D01*
X98702381Y-97738095D02*
X98702381Y-98309524D01*
X98702381Y-98023810D02*
X97702381Y-98023810D01*
X97845238Y-98119048D01*
X97940476Y-98214286D01*
X97988095Y-98309524D01*
X114607143Y-101142857D02*
X114654762Y-101190476D01*
X114702381Y-101333333D01*
X114702381Y-101428571D01*
X114654762Y-101571429D01*
X114559524Y-101666667D01*
X114464286Y-101714286D01*
X114273810Y-101761905D01*
X114130952Y-101761905D01*
X113940476Y-101714286D01*
X113845238Y-101666667D01*
X113750000Y-101571429D01*
X113702381Y-101428571D01*
X113702381Y-101333333D01*
X113750000Y-101190476D01*
X113797619Y-101142857D01*
X114702381Y-100190476D02*
X114702381Y-100761905D01*
X114702381Y-100476191D02*
X113702381Y-100476191D01*
X113845238Y-100571429D01*
X113940476Y-100666667D01*
X113988095Y-100761905D01*
X114035714Y-99333333D02*
X114702381Y-99333333D01*
X113654762Y-99571429D02*
X114369048Y-99809524D01*
X114369048Y-99190476D01*
X167357143Y-97607143D02*
X167309524Y-97654762D01*
X167166667Y-97702381D01*
X167071429Y-97702381D01*
X166928571Y-97654762D01*
X166833333Y-97559524D01*
X166785714Y-97464286D01*
X166738095Y-97273810D01*
X166738095Y-97130952D01*
X166785714Y-96940476D01*
X166833333Y-96845238D01*
X166928571Y-96750000D01*
X167071429Y-96702381D01*
X167166667Y-96702381D01*
X167309524Y-96750000D01*
X167357143Y-96797619D01*
X168309524Y-97702381D02*
X167738095Y-97702381D01*
X168023809Y-97702381D02*
X168023809Y-96702381D01*
X167928571Y-96845238D01*
X167833333Y-96940476D01*
X167738095Y-96988095D01*
X169166667Y-96702381D02*
X168976190Y-96702381D01*
X168880952Y-96750000D01*
X168833333Y-96797619D01*
X168738095Y-96940476D01*
X168690476Y-97130952D01*
X168690476Y-97511905D01*
X168738095Y-97607143D01*
X168785714Y-97654762D01*
X168880952Y-97702381D01*
X169071429Y-97702381D01*
X169166667Y-97654762D01*
X169214286Y-97607143D01*
X169261905Y-97511905D01*
X169261905Y-97273810D01*
X169214286Y-97178571D01*
X169166667Y-97130952D01*
X169071429Y-97083333D01*
X168880952Y-97083333D01*
X168785714Y-97130952D01*
X168738095Y-97178571D01*
X168690476Y-97273810D01*
X133357143Y-114607143D02*
X133309524Y-114654762D01*
X133166667Y-114702381D01*
X133071429Y-114702381D01*
X132928571Y-114654762D01*
X132833333Y-114559524D01*
X132785714Y-114464286D01*
X132738095Y-114273810D01*
X132738095Y-114130952D01*
X132785714Y-113940476D01*
X132833333Y-113845238D01*
X132928571Y-113750000D01*
X133071429Y-113702381D01*
X133166667Y-113702381D01*
X133309524Y-113750000D01*
X133357143Y-113797619D01*
X133738095Y-113797619D02*
X133785714Y-113750000D01*
X133880952Y-113702381D01*
X134119048Y-113702381D01*
X134214286Y-113750000D01*
X134261905Y-113797619D01*
X134309524Y-113892857D01*
X134309524Y-113988095D01*
X134261905Y-114130952D01*
X133690476Y-114702381D01*
X134309524Y-114702381D01*
X134928571Y-113702381D02*
X135023810Y-113702381D01*
X135119048Y-113750000D01*
X135166667Y-113797619D01*
X135214286Y-113892857D01*
X135261905Y-114083333D01*
X135261905Y-114321429D01*
X135214286Y-114511905D01*
X135166667Y-114607143D01*
X135119048Y-114654762D01*
X135023810Y-114702381D01*
X134928571Y-114702381D01*
X134833333Y-114654762D01*
X134785714Y-114607143D01*
X134738095Y-114511905D01*
X134690476Y-114321429D01*
X134690476Y-114083333D01*
X134738095Y-113892857D01*
X134785714Y-113797619D01*
X134833333Y-113750000D01*
X134928571Y-113702381D01*
D10*
X146833334Y-129476190D02*
X146833334Y-129833333D01*
X146809524Y-129904762D01*
X146761905Y-129952381D01*
X146690477Y-129976190D01*
X146642858Y-129976190D01*
X147142857Y-129690476D02*
X147095238Y-129666667D01*
X147071429Y-129642857D01*
X147047619Y-129595238D01*
X147047619Y-129571429D01*
X147071429Y-129523810D01*
X147095238Y-129500000D01*
X147142857Y-129476190D01*
X147238095Y-129476190D01*
X147285714Y-129500000D01*
X147309524Y-129523810D01*
X147333333Y-129571429D01*
X147333333Y-129595238D01*
X147309524Y-129642857D01*
X147285714Y-129666667D01*
X147238095Y-129690476D01*
X147142857Y-129690476D01*
X147095238Y-129714286D01*
X147071429Y-129738095D01*
X147047619Y-129785714D01*
X147047619Y-129880952D01*
X147071429Y-129928571D01*
X147095238Y-129952381D01*
X147142857Y-129976190D01*
X147238095Y-129976190D01*
X147285714Y-129952381D01*
X147309524Y-129928571D01*
X147333333Y-129880952D01*
X147333333Y-129785714D01*
X147309524Y-129738095D01*
X147285714Y-129714286D01*
X147238095Y-129690476D01*
X163595239Y-129476190D02*
X163595239Y-129833333D01*
X163571429Y-129904762D01*
X163523810Y-129952381D01*
X163452382Y-129976190D01*
X163404763Y-129976190D01*
X164095238Y-129976190D02*
X163809524Y-129976190D01*
X163952381Y-129976190D02*
X163952381Y-129476190D01*
X163904762Y-129547619D01*
X163857143Y-129595238D01*
X163809524Y-129619048D01*
X164404762Y-129476190D02*
X164452381Y-129476190D01*
X164500000Y-129500000D01*
X164523809Y-129523810D01*
X164547619Y-129571429D01*
X164571428Y-129666667D01*
X164571428Y-129785714D01*
X164547619Y-129880952D01*
X164523809Y-129928571D01*
X164500000Y-129952381D01*
X164452381Y-129976190D01*
X164404762Y-129976190D01*
X164357143Y-129952381D01*
X164333333Y-129928571D01*
X164309524Y-129880952D01*
X164285714Y-129785714D01*
X164285714Y-129666667D01*
X164309524Y-129571429D01*
X164333333Y-129523810D01*
X164357143Y-129500000D01*
X164404762Y-129476190D01*
M02*
