G04 #@! TF.FileFunction,Copper,L2,Bot,Signal*
%FSLAX46Y46*%
G04 Gerber Fmt 4.6, Leading zero omitted, Abs format (unit mm)*
G04 Created by KiCad (PCBNEW 4.0.7) date 03/03/18 23:13:13*
%MOMM*%
%LPD*%
G01*
G04 APERTURE LIST*
%ADD10C,0.100000*%
%ADD11C,0.600000*%
%ADD12R,2.000000X2.600000*%
%ADD13O,2.000000X2.600000*%
%ADD14R,2.550000X2.550000*%
%ADD15C,3.500000*%
%ADD16R,1.500000X4.000000*%
%ADD17C,1.998980*%
%ADD18C,2.499360*%
%ADD19C,0.800000*%
%ADD20C,0.250000*%
%ADD21C,1.000000*%
%ADD22C,1.500000*%
%ADD23C,0.500000*%
G04 APERTURE END LIST*
D10*
D11*
X159000000Y-128000000D03*
X158000000Y-128000000D03*
X157000000Y-128000000D03*
X156000000Y-128000000D03*
X155000000Y-128000000D03*
X154000000Y-128000000D03*
X153000000Y-128000000D03*
X152000000Y-128000000D03*
X159000000Y-127000000D03*
X158000000Y-127000000D03*
X157000000Y-127000000D03*
X156000000Y-127000000D03*
X155000000Y-127000000D03*
X154000000Y-127000000D03*
X153000000Y-127000000D03*
X152000000Y-127000000D03*
X159000000Y-126000000D03*
X158000000Y-126000000D03*
X157000000Y-126000000D03*
X156000000Y-126000000D03*
X155000000Y-126000000D03*
X154000000Y-126000000D03*
X153000000Y-126000000D03*
X83000000Y-121000000D03*
X82000000Y-121000000D03*
X83000000Y-120000000D03*
X82000000Y-120000000D03*
X83000000Y-119000000D03*
X82000000Y-119000000D03*
X83000000Y-118000000D03*
X82000000Y-118000000D03*
X83000000Y-117000000D03*
X82000000Y-117000000D03*
X83000000Y-116000000D03*
X82000000Y-116000000D03*
X83000000Y-115000000D03*
X82000000Y-115000000D03*
X83000000Y-114000000D03*
X82000000Y-114000000D03*
X83000000Y-113000000D03*
X82000000Y-113000000D03*
X83000000Y-112000000D03*
X82000000Y-112000000D03*
X83000000Y-111000000D03*
X82000000Y-111000000D03*
X83000000Y-110000000D03*
X82000000Y-110000000D03*
X83000000Y-109000000D03*
X82000000Y-109000000D03*
X83000000Y-108000000D03*
X82000000Y-108000000D03*
X83000000Y-107000000D03*
X82000000Y-107000000D03*
X83000000Y-106000000D03*
X82000000Y-106000000D03*
X83000000Y-105000000D03*
X82000000Y-105000000D03*
X83000000Y-104000000D03*
X82000000Y-104000000D03*
X83000000Y-103000000D03*
X82000000Y-103000000D03*
X83000000Y-102000000D03*
X82000000Y-102000000D03*
X83000000Y-101000000D03*
X82000000Y-101000000D03*
X83000000Y-100000000D03*
X82000000Y-100000000D03*
X83000000Y-99000000D03*
X82000000Y-99000000D03*
X83000000Y-98000000D03*
X82000000Y-98000000D03*
X83000000Y-97000000D03*
X82000000Y-97000000D03*
X83000000Y-96000000D03*
X82000000Y-96000000D03*
X83000000Y-95000000D03*
X82000000Y-95000000D03*
X83000000Y-94000000D03*
X82000000Y-94000000D03*
X83000000Y-93000000D03*
X82000000Y-93000000D03*
X83000000Y-92000000D03*
X82000000Y-92000000D03*
X83000000Y-91000000D03*
X82000000Y-91000000D03*
X83000000Y-90000000D03*
X82000000Y-90000000D03*
X83000000Y-89000000D03*
X152000000Y-126000000D03*
X82000000Y-89000000D03*
X178000000Y-121000000D03*
X178000000Y-120000000D03*
X178000000Y-119000000D03*
X178000000Y-118000000D03*
X178000000Y-117000000D03*
X178000000Y-116000000D03*
X178000000Y-115000000D03*
X178000000Y-114000000D03*
X178000000Y-113000000D03*
X178000000Y-112000000D03*
X178000000Y-111000000D03*
X178000000Y-110000000D03*
X178000000Y-109000000D03*
X178000000Y-108000000D03*
X178000000Y-107000000D03*
X178000000Y-106000000D03*
X178000000Y-105000000D03*
X178000000Y-104000000D03*
X178000000Y-103000000D03*
X178000000Y-102000000D03*
X178000000Y-101000000D03*
X178000000Y-100000000D03*
X178000000Y-99000000D03*
X178000000Y-98000000D03*
X178000000Y-97000000D03*
X178000000Y-96000000D03*
X178000000Y-95000000D03*
X178000000Y-94000000D03*
X178000000Y-93000000D03*
X178000000Y-92000000D03*
X178000000Y-91000000D03*
X178000000Y-90000000D03*
X142000000Y-128000000D03*
X141000000Y-128000000D03*
X140000000Y-128000000D03*
X139000000Y-128000000D03*
X138000000Y-128000000D03*
X137000000Y-128000000D03*
X136000000Y-128000000D03*
X135000000Y-128000000D03*
X134000000Y-128000000D03*
X133000000Y-128000000D03*
X132000000Y-128000000D03*
X131000000Y-128000000D03*
X130000000Y-128000000D03*
X129000000Y-128000000D03*
X128000000Y-128000000D03*
X127000000Y-128000000D03*
X126000000Y-128000000D03*
X125000000Y-128000000D03*
X124000000Y-128000000D03*
X123000000Y-128000000D03*
X122000000Y-128000000D03*
X121000000Y-128000000D03*
X120000000Y-128000000D03*
X119000000Y-128000000D03*
X118000000Y-128000000D03*
X117000000Y-128000000D03*
X116000000Y-128000000D03*
X115000000Y-128000000D03*
X114000000Y-128000000D03*
X113000000Y-128000000D03*
X112000000Y-128000000D03*
X111000000Y-128000000D03*
X110000000Y-128000000D03*
X109000000Y-128000000D03*
X108000000Y-128000000D03*
X107000000Y-128000000D03*
X106000000Y-128000000D03*
X105000000Y-128000000D03*
X104000000Y-128000000D03*
X103000000Y-128000000D03*
X102000000Y-128000000D03*
X101000000Y-128000000D03*
X100000000Y-128000000D03*
X99000000Y-128000000D03*
X98000000Y-128000000D03*
X97000000Y-128000000D03*
X96000000Y-128000000D03*
X95000000Y-128000000D03*
X94000000Y-128000000D03*
X93000000Y-128000000D03*
X92000000Y-128000000D03*
X91000000Y-128000000D03*
X90000000Y-128000000D03*
X89000000Y-128000000D03*
X178000000Y-89000000D03*
X170000000Y-82000000D03*
X169000000Y-82000000D03*
X168000000Y-82000000D03*
X167000000Y-82000000D03*
X166000000Y-82000000D03*
X165000000Y-82000000D03*
X164000000Y-82000000D03*
X163000000Y-82000000D03*
X162000000Y-82000000D03*
X161000000Y-82000000D03*
X160000000Y-82000000D03*
X159000000Y-82000000D03*
X158000000Y-82000000D03*
X157000000Y-82000000D03*
X156000000Y-82000000D03*
X155000000Y-82000000D03*
X154000000Y-82000000D03*
X153000000Y-82000000D03*
X152000000Y-82000000D03*
X151000000Y-82000000D03*
X150000000Y-82000000D03*
X149000000Y-82000000D03*
X148000000Y-82000000D03*
X147000000Y-82000000D03*
X146000000Y-82000000D03*
X145000000Y-82000000D03*
X144000000Y-82000000D03*
X143000000Y-82000000D03*
X142000000Y-82000000D03*
X141000000Y-82000000D03*
X140000000Y-82000000D03*
X139000000Y-82000000D03*
X138000000Y-82000000D03*
X137000000Y-82000000D03*
X136000000Y-82000000D03*
X135000000Y-82000000D03*
X134000000Y-82000000D03*
X133000000Y-82000000D03*
X132000000Y-82000000D03*
X131000000Y-82000000D03*
X130000000Y-82000000D03*
X129000000Y-82000000D03*
X128000000Y-82000000D03*
X127000000Y-82000000D03*
X126000000Y-82000000D03*
X125000000Y-82000000D03*
X124000000Y-82000000D03*
X123000000Y-82000000D03*
X122000000Y-82000000D03*
X121000000Y-82000000D03*
X120000000Y-82000000D03*
X119000000Y-82000000D03*
X118000000Y-82000000D03*
X117000000Y-82000000D03*
X116000000Y-82000000D03*
X115000000Y-82000000D03*
X114000000Y-82000000D03*
X113000000Y-82000000D03*
X112000000Y-82000000D03*
X111000000Y-82000000D03*
X110000000Y-82000000D03*
X109000000Y-82000000D03*
X108000000Y-82000000D03*
X107000000Y-82000000D03*
X106000000Y-82000000D03*
X105000000Y-82000000D03*
X104000000Y-82000000D03*
X103000000Y-82000000D03*
X102000000Y-82000000D03*
X101000000Y-82000000D03*
X100000000Y-82000000D03*
X99000000Y-82000000D03*
X98000000Y-82000000D03*
X97000000Y-82000000D03*
X96000000Y-82000000D03*
X95000000Y-82000000D03*
X94000000Y-82000000D03*
X93000000Y-82000000D03*
X92000000Y-82000000D03*
X91000000Y-82000000D03*
X90000000Y-82000000D03*
D12*
X148500000Y-87000000D03*
D13*
X151040000Y-87000000D03*
X153580000Y-87000000D03*
D12*
X116000000Y-123000000D03*
D13*
X113460000Y-123000000D03*
X110920000Y-123000000D03*
X108380000Y-123000000D03*
X105840000Y-123000000D03*
X103300000Y-123000000D03*
X100760000Y-123000000D03*
X98220000Y-123000000D03*
X95680000Y-123000000D03*
X93140000Y-123000000D03*
D12*
X136000000Y-123000000D03*
D13*
X133460000Y-123000000D03*
X130920000Y-123000000D03*
X128380000Y-123000000D03*
X125840000Y-123000000D03*
D14*
X99540000Y-88460000D03*
X99540000Y-91000000D03*
X99540000Y-93540000D03*
X94460000Y-88460000D03*
X94460000Y-91000000D03*
X94460000Y-93540000D03*
D15*
X97000000Y-91000000D03*
D14*
X117540000Y-88460000D03*
X117540000Y-91000000D03*
X117540000Y-93540000D03*
X112460000Y-88460000D03*
X112460000Y-91000000D03*
X112460000Y-93540000D03*
D15*
X115000000Y-91000000D03*
D14*
X135540000Y-88460000D03*
X135540000Y-91000000D03*
X135540000Y-93540000D03*
X130460000Y-88460000D03*
X130460000Y-91000000D03*
X130460000Y-93540000D03*
D15*
X133000000Y-91000000D03*
D16*
X149540000Y-127000000D03*
X144460000Y-127000000D03*
X166540000Y-127000000D03*
X161460000Y-127000000D03*
D11*
X89000000Y-82000000D03*
D17*
X147000000Y-125000000D03*
D18*
X149540000Y-122460000D03*
X149540000Y-127540000D03*
X144460000Y-127540000D03*
X144460000Y-122460000D03*
D17*
X164000000Y-125000000D03*
D18*
X166540000Y-122460000D03*
X166540000Y-127540000D03*
X161460000Y-127540000D03*
X161460000Y-122460000D03*
D11*
X137250000Y-84500000D03*
X97000000Y-106750000D03*
X113000000Y-113250000D03*
X90000000Y-110000000D03*
X89000000Y-110000000D03*
X88000000Y-110000000D03*
X87000000Y-110000000D03*
X87000000Y-109000000D03*
X88000000Y-109000000D03*
X89000000Y-109000000D03*
X90000000Y-109000000D03*
X90000000Y-108000000D03*
X89000000Y-108000000D03*
X126000000Y-107500000D03*
X127000000Y-107500000D03*
X128000000Y-107500000D03*
X128000000Y-103000000D03*
X128000000Y-104000000D03*
X167000000Y-101000000D03*
X168000000Y-101000000D03*
X169000000Y-101000000D03*
X171000000Y-104000000D03*
X171000000Y-103000000D03*
X171000000Y-102000000D03*
X171000000Y-101000000D03*
X170000000Y-101000000D03*
X107000000Y-108000000D03*
X108000000Y-108000000D03*
X109000000Y-108000000D03*
X110000000Y-108000000D03*
X111000000Y-98000000D03*
X110000000Y-98000000D03*
X109000000Y-98000000D03*
X108000000Y-98000000D03*
X107000000Y-98000000D03*
X106000000Y-98000000D03*
X105000000Y-98000000D03*
X104000000Y-98000000D03*
X103000000Y-98000000D03*
X102000000Y-98000000D03*
X88000000Y-97000000D03*
X89000000Y-97000000D03*
X90000000Y-97000000D03*
X91000000Y-97000000D03*
X92000000Y-97000000D03*
X93000000Y-97000000D03*
X94000000Y-97000000D03*
X95000000Y-97000000D03*
X138000000Y-125000000D03*
X138000000Y-124000000D03*
X138000000Y-123000000D03*
X138000000Y-122000000D03*
X138000000Y-121000000D03*
X138000000Y-120000000D03*
X138000000Y-119000000D03*
X138000000Y-118000000D03*
X138000000Y-117000000D03*
X138000000Y-116000000D03*
X138000000Y-115000000D03*
X138000000Y-114000000D03*
X138000000Y-113000000D03*
X138000000Y-112000000D03*
X138000000Y-111000000D03*
X138000000Y-110000000D03*
X138000000Y-109000000D03*
X138000000Y-108000000D03*
X159000000Y-109000000D03*
X160000000Y-109000000D03*
X161000000Y-109000000D03*
X162000000Y-109000000D03*
X163000000Y-109000000D03*
X164000000Y-109000000D03*
X165000000Y-109000000D03*
X166000000Y-109000000D03*
X167000000Y-109000000D03*
X168000000Y-109000000D03*
X130000000Y-100000000D03*
X130000000Y-101000000D03*
X130000000Y-103000000D03*
X130000000Y-104000000D03*
X143256000Y-101346000D03*
X159893000Y-101219000D03*
X157000000Y-92000000D03*
X175750000Y-96750000D03*
X157000000Y-89500000D03*
D19*
X120250000Y-113250000D02*
X113000000Y-113250000D01*
X124000000Y-109500000D02*
X120250000Y-113250000D01*
X124000000Y-88000000D02*
X124000000Y-109500000D01*
X127500000Y-84500000D02*
X124000000Y-88000000D01*
X137250000Y-84500000D02*
X127500000Y-84500000D01*
X101750000Y-113250000D02*
X113000000Y-113250000D01*
X97000000Y-108500000D02*
X101750000Y-113250000D01*
X97000000Y-106750000D02*
X97000000Y-108500000D01*
D20*
X89000000Y-110000000D02*
X90000000Y-110000000D01*
X87000000Y-110000000D02*
X88000000Y-110000000D01*
X88000000Y-109000000D02*
X87000000Y-109000000D01*
X90000000Y-109000000D02*
X89000000Y-109000000D01*
X89000000Y-108000000D02*
X90000000Y-108000000D01*
D21*
X135540000Y-91000000D02*
X135540000Y-93540000D01*
X133000000Y-91000000D02*
X135540000Y-91000000D01*
X133000000Y-91000000D02*
X130460000Y-91000000D01*
D20*
X127000000Y-107500000D02*
X126000000Y-107500000D01*
X170000000Y-101000000D02*
X169000000Y-101000000D01*
X168000000Y-101000000D02*
X167000000Y-101000000D01*
X171000000Y-102000000D02*
X171000000Y-103000000D01*
X170000000Y-101000000D02*
X171000000Y-101000000D01*
X108000000Y-108000000D02*
X107000000Y-108000000D01*
X110000000Y-108000000D02*
X109000000Y-108000000D01*
X110000000Y-98000000D02*
X111000000Y-98000000D01*
X108000000Y-98000000D02*
X109000000Y-98000000D01*
X106000000Y-98000000D02*
X107000000Y-98000000D01*
X104000000Y-98000000D02*
X105000000Y-98000000D01*
X102000000Y-98000000D02*
X103000000Y-98000000D01*
X89000000Y-97000000D02*
X88000000Y-97000000D01*
X91000000Y-97000000D02*
X90000000Y-97000000D01*
X93000000Y-97000000D02*
X92000000Y-97000000D01*
X95000000Y-97000000D02*
X94000000Y-97000000D01*
D22*
X130460000Y-93540000D02*
X130500000Y-95500000D01*
X139000000Y-91000000D02*
X139000000Y-89145000D01*
X135540000Y-91000000D02*
X139000000Y-91000000D01*
X138315000Y-88460000D02*
X135540000Y-88460000D01*
X139000000Y-89145000D02*
X138315000Y-88460000D01*
X135540000Y-93540000D02*
X137460000Y-93540000D01*
X130460000Y-93540000D02*
X127460000Y-93540000D01*
X127540000Y-88460000D02*
X127540000Y-90855000D01*
X127540000Y-90855000D02*
X127685000Y-91000000D01*
X127685000Y-91000000D02*
X130460000Y-91000000D01*
X130460000Y-88460000D02*
X127540000Y-88460000D01*
X135540000Y-93540000D02*
X130460000Y-93540000D01*
X135540000Y-88460000D02*
X130460000Y-88460000D01*
D20*
X138000000Y-124000000D02*
X138000000Y-125000000D01*
X138000000Y-122000000D02*
X138000000Y-123000000D01*
X138000000Y-120000000D02*
X138000000Y-121000000D01*
X138000000Y-118000000D02*
X138000000Y-119000000D01*
X138000000Y-116000000D02*
X138000000Y-117000000D01*
X138000000Y-114000000D02*
X138000000Y-115000000D01*
X138000000Y-112000000D02*
X138000000Y-113000000D01*
X138000000Y-110000000D02*
X138000000Y-111000000D01*
X138000000Y-108000000D02*
X138000000Y-109000000D01*
D21*
X131000000Y-126000000D02*
X142920000Y-126000000D01*
X142920000Y-126000000D02*
X144460000Y-127540000D01*
X131000000Y-123380000D02*
X131000000Y-126000000D01*
X130920000Y-123000000D02*
X130920000Y-123300000D01*
X130920000Y-123300000D02*
X131000000Y-123380000D01*
X149540000Y-127540000D02*
X149540000Y-127000000D01*
X144460000Y-127540000D02*
X144460000Y-122460000D01*
X149540000Y-127540000D02*
X149540000Y-122460000D01*
X161460000Y-127540000D02*
X161460000Y-122460000D01*
X166540000Y-127540000D02*
X166540000Y-122460000D01*
D20*
X159000000Y-109000000D02*
X160000000Y-109000000D01*
X161000000Y-109000000D02*
X162000000Y-109000000D01*
X163000000Y-109000000D02*
X164000000Y-109000000D01*
X165000000Y-109000000D02*
X166000000Y-109000000D01*
X167000000Y-109000000D02*
X168000000Y-109000000D01*
D19*
X128380000Y-123000000D02*
X128380000Y-121880000D01*
X128380000Y-121880000D02*
X127000000Y-120500000D01*
X118500000Y-120500000D02*
X116000000Y-123000000D01*
X127000000Y-120500000D02*
X118500000Y-120500000D01*
X130000000Y-100000000D02*
X130000000Y-104000000D01*
X130000000Y-100000000D02*
X130000000Y-101000000D01*
X130000000Y-103000000D02*
X130000000Y-104000000D01*
X159766000Y-101346000D02*
X143256000Y-101346000D01*
X159893000Y-101219000D02*
X159766000Y-101346000D01*
D21*
X117540000Y-93540000D02*
X117540000Y-91000000D01*
X115000000Y-91000000D02*
X117540000Y-91000000D01*
D22*
X112460000Y-91000000D02*
X112460000Y-93540000D01*
X112460000Y-88460000D02*
X112460000Y-91000000D01*
X117540000Y-88460000D02*
X112460000Y-88460000D01*
X117540000Y-93540000D02*
X112460000Y-93540000D01*
D23*
X136000000Y-123000000D02*
X136000000Y-102750000D01*
X146750000Y-92000000D02*
X157000000Y-92000000D01*
X136000000Y-102750000D02*
X146750000Y-92000000D01*
X133460000Y-103290000D02*
X146000000Y-90750000D01*
X146000000Y-90750000D02*
X172750000Y-90750000D01*
X172750000Y-90750000D02*
X175750000Y-93750000D01*
X175750000Y-93750000D02*
X175750000Y-96750000D01*
X133460000Y-103290000D02*
X133460000Y-123000000D01*
D22*
X99540000Y-88460000D02*
X97000000Y-91000000D01*
X99540000Y-91000000D02*
X94460000Y-91000000D01*
X99540000Y-93540000D02*
X94460000Y-93540000D01*
X94460000Y-88460000D02*
X99540000Y-88460000D01*
D23*
X93140000Y-120610000D02*
X93140000Y-123000000D01*
X94500000Y-119250000D02*
X93140000Y-120610000D01*
X126750000Y-119250000D02*
X94500000Y-119250000D01*
X132000000Y-114000000D02*
X126750000Y-119250000D01*
X132000000Y-102750000D02*
X132000000Y-114000000D01*
X145250000Y-89500000D02*
X132000000Y-102750000D01*
X157000000Y-89500000D02*
X145250000Y-89500000D01*
G36*
X178675000Y-128675000D02*
X168452646Y-128675000D01*
X168741982Y-127965808D01*
X168737316Y-127090733D01*
X168636756Y-126847958D01*
X173293464Y-126847958D01*
X173463858Y-127284448D01*
X174455009Y-127698411D01*
X175529132Y-127701566D01*
X176522698Y-127293432D01*
X176536142Y-127284448D01*
X176706536Y-126847958D01*
X175000000Y-125141421D01*
X173293464Y-126847958D01*
X168636756Y-126847958D01*
X168411417Y-126303943D01*
X168240000Y-126255169D01*
X168240000Y-125529132D01*
X172298434Y-125529132D01*
X172706568Y-126522698D01*
X172715552Y-126536142D01*
X173152042Y-126706536D01*
X174858579Y-125000000D01*
X175141421Y-125000000D01*
X176847958Y-126706536D01*
X177284448Y-126536142D01*
X177698411Y-125544991D01*
X177701566Y-124470868D01*
X177293432Y-123477302D01*
X177284448Y-123463858D01*
X176847958Y-123293464D01*
X175141421Y-125000000D01*
X174858579Y-125000000D01*
X173152042Y-123293464D01*
X172715552Y-123463858D01*
X172301589Y-124455009D01*
X172298434Y-125529132D01*
X168240000Y-125529132D01*
X168240000Y-124811033D01*
X168095371Y-124461868D01*
X167828132Y-124194629D01*
X167816365Y-124189755D01*
X167885468Y-123946889D01*
X166540000Y-122601421D01*
X166525858Y-122615564D01*
X166384437Y-122474143D01*
X166398579Y-122460000D01*
X166681421Y-122460000D01*
X168026889Y-123805468D01*
X168411417Y-123696057D01*
X168633363Y-123152042D01*
X173293464Y-123152042D01*
X175000000Y-124858579D01*
X176706536Y-123152042D01*
X176536142Y-122715552D01*
X175544991Y-122301589D01*
X174470868Y-122298434D01*
X173477302Y-122706568D01*
X173463858Y-122715552D01*
X173293464Y-123152042D01*
X168633363Y-123152042D01*
X168741982Y-122885808D01*
X168737316Y-122010733D01*
X168411417Y-121223943D01*
X168026889Y-121114532D01*
X166681421Y-122460000D01*
X166398579Y-122460000D01*
X165053111Y-121114532D01*
X164668583Y-121223943D01*
X164338018Y-122034192D01*
X164341839Y-122750807D01*
X163661259Y-122750213D01*
X163657316Y-122010733D01*
X163331417Y-121223943D01*
X162946889Y-121114532D01*
X161601421Y-122460000D01*
X161615564Y-122474143D01*
X161474143Y-122615564D01*
X161460000Y-122601421D01*
X160114532Y-123946889D01*
X160183635Y-124189755D01*
X160171868Y-124194629D01*
X159904629Y-124461868D01*
X159760000Y-124811033D01*
X159760000Y-126255169D01*
X159588583Y-126303943D01*
X159258018Y-127114192D01*
X159262684Y-127989267D01*
X159546724Y-128675000D01*
X151452646Y-128675000D01*
X151741982Y-127965808D01*
X151737316Y-127090733D01*
X151411417Y-126303943D01*
X151240000Y-126255169D01*
X151240000Y-124811033D01*
X151095371Y-124461868D01*
X150828132Y-124194629D01*
X150816365Y-124189755D01*
X150885468Y-123946889D01*
X149540000Y-122601421D01*
X149525858Y-122615564D01*
X149384437Y-122474143D01*
X149398579Y-122460000D01*
X149681421Y-122460000D01*
X151026889Y-123805468D01*
X151411417Y-123696057D01*
X151741982Y-122885808D01*
X151737442Y-122034192D01*
X159258018Y-122034192D01*
X159262684Y-122909267D01*
X159588583Y-123696057D01*
X159973111Y-123805468D01*
X161318579Y-122460000D01*
X159973111Y-121114532D01*
X159588583Y-121223943D01*
X159258018Y-122034192D01*
X151737442Y-122034192D01*
X151737316Y-122010733D01*
X151411417Y-121223943D01*
X151026889Y-121114532D01*
X149681421Y-122460000D01*
X149398579Y-122460000D01*
X148053111Y-121114532D01*
X147668583Y-121223943D01*
X147338018Y-122034192D01*
X147341839Y-122750807D01*
X146661259Y-122750213D01*
X146657316Y-122010733D01*
X146331417Y-121223943D01*
X145946889Y-121114532D01*
X144601421Y-122460000D01*
X144615564Y-122474143D01*
X144474143Y-122615564D01*
X144460000Y-122601421D01*
X143114532Y-123946889D01*
X143183635Y-124189755D01*
X143171868Y-124194629D01*
X142904629Y-124461868D01*
X142760000Y-124811033D01*
X142760000Y-126255169D01*
X142588583Y-126303943D01*
X142258018Y-127114192D01*
X142262684Y-127989267D01*
X142546724Y-128675000D01*
X81325000Y-128675000D01*
X81325000Y-126847958D01*
X83293464Y-126847958D01*
X83463858Y-127284448D01*
X84455009Y-127698411D01*
X85529132Y-127701566D01*
X86522698Y-127293432D01*
X86536142Y-127284448D01*
X86706536Y-126847958D01*
X85000000Y-125141421D01*
X83293464Y-126847958D01*
X81325000Y-126847958D01*
X81325000Y-125529132D01*
X82298434Y-125529132D01*
X82706568Y-126522698D01*
X82715552Y-126536142D01*
X83152042Y-126706536D01*
X84858579Y-125000000D01*
X85141421Y-125000000D01*
X86847958Y-126706536D01*
X87284448Y-126536142D01*
X87698411Y-125544991D01*
X87701566Y-124470868D01*
X87293432Y-123477302D01*
X87284448Y-123463858D01*
X86847958Y-123293464D01*
X85141421Y-125000000D01*
X84858579Y-125000000D01*
X83152042Y-123293464D01*
X82715552Y-123463858D01*
X82301589Y-124455009D01*
X82298434Y-125529132D01*
X81325000Y-125529132D01*
X81325000Y-123152042D01*
X83293464Y-123152042D01*
X85000000Y-124858579D01*
X86706536Y-123152042D01*
X86536142Y-122715552D01*
X86379294Y-122650043D01*
X90890000Y-122650043D01*
X90890000Y-123349957D01*
X91061271Y-124210995D01*
X91549010Y-124940947D01*
X92278962Y-125428686D01*
X93140000Y-125599957D01*
X94001038Y-125428686D01*
X94712935Y-124953011D01*
X95026155Y-125139834D01*
X95276585Y-125207814D01*
X95580000Y-125009578D01*
X95580000Y-123100000D01*
X95780000Y-123100000D01*
X95780000Y-125009578D01*
X96083415Y-125207814D01*
X96333845Y-125139834D01*
X96950000Y-124772323D01*
X97566155Y-125139834D01*
X97816585Y-125207814D01*
X98120000Y-125009578D01*
X98120000Y-123100000D01*
X95780000Y-123100000D01*
X95580000Y-123100000D01*
X95560000Y-123100000D01*
X95560000Y-122900000D01*
X95580000Y-122900000D01*
X95580000Y-120990422D01*
X95780000Y-120990422D01*
X95780000Y-122900000D01*
X98120000Y-122900000D01*
X98120000Y-120990422D01*
X97816585Y-120792186D01*
X97566155Y-120860166D01*
X96950000Y-121227677D01*
X96333845Y-120860166D01*
X96083415Y-120792186D01*
X95780000Y-120990422D01*
X95580000Y-120990422D01*
X95276585Y-120792186D01*
X95026155Y-120860166D01*
X94988982Y-120882338D01*
X95121320Y-120750000D01*
X99631540Y-120750000D01*
X99187065Y-121046989D01*
X98873845Y-120860166D01*
X98623415Y-120792186D01*
X98320000Y-120990422D01*
X98320000Y-122900000D01*
X98340000Y-122900000D01*
X98340000Y-123100000D01*
X98320000Y-123100000D01*
X98320000Y-125009578D01*
X98623415Y-125207814D01*
X98873845Y-125139834D01*
X99187065Y-124953011D01*
X99898962Y-125428686D01*
X100760000Y-125599957D01*
X101621038Y-125428686D01*
X102030000Y-125155426D01*
X102438962Y-125428686D01*
X103300000Y-125599957D01*
X104161038Y-125428686D01*
X104872935Y-124953011D01*
X105186155Y-125139834D01*
X105436585Y-125207814D01*
X105740000Y-125009578D01*
X105740000Y-123100000D01*
X105940000Y-123100000D01*
X105940000Y-125009578D01*
X106243415Y-125207814D01*
X106493845Y-125139834D01*
X107110000Y-124772323D01*
X107726155Y-125139834D01*
X107976585Y-125207814D01*
X108280000Y-125009578D01*
X108280000Y-123100000D01*
X105940000Y-123100000D01*
X105740000Y-123100000D01*
X105720000Y-123100000D01*
X105720000Y-122900000D01*
X105740000Y-122900000D01*
X105740000Y-120990422D01*
X105940000Y-120990422D01*
X105940000Y-122900000D01*
X108280000Y-122900000D01*
X108280000Y-120990422D01*
X107976585Y-120792186D01*
X107726155Y-120860166D01*
X107110000Y-121227677D01*
X106493845Y-120860166D01*
X106243415Y-120792186D01*
X105940000Y-120990422D01*
X105740000Y-120990422D01*
X105436585Y-120792186D01*
X105186155Y-120860166D01*
X104872935Y-121046989D01*
X104428460Y-120750000D01*
X109791540Y-120750000D01*
X109347065Y-121046989D01*
X109033845Y-120860166D01*
X108783415Y-120792186D01*
X108480000Y-120990422D01*
X108480000Y-122900000D01*
X108500000Y-122900000D01*
X108500000Y-123100000D01*
X108480000Y-123100000D01*
X108480000Y-125009578D01*
X108783415Y-125207814D01*
X109033845Y-125139834D01*
X109347065Y-124953011D01*
X110058962Y-125428686D01*
X110920000Y-125599957D01*
X111781038Y-125428686D01*
X112492935Y-124953011D01*
X112806155Y-125139834D01*
X113056585Y-125207814D01*
X113360000Y-125009578D01*
X113360000Y-123100000D01*
X113340000Y-123100000D01*
X113340000Y-122900000D01*
X113360000Y-122900000D01*
X113360000Y-120990422D01*
X113056585Y-120792186D01*
X112806155Y-120860166D01*
X112492935Y-121046989D01*
X112048460Y-120750000D01*
X114167962Y-120750000D01*
X114111337Y-120786437D01*
X114069234Y-120848056D01*
X113863415Y-120792186D01*
X113560000Y-120990422D01*
X113560000Y-122900000D01*
X113580000Y-122900000D01*
X113580000Y-123100000D01*
X113560000Y-123100000D01*
X113560000Y-125009578D01*
X113863415Y-125207814D01*
X114063764Y-125153429D01*
X114086437Y-125188663D01*
X114504153Y-125474076D01*
X115000000Y-125574488D01*
X117000000Y-125574488D01*
X117463222Y-125487327D01*
X117888663Y-125213563D01*
X118174076Y-124795847D01*
X118274488Y-124300000D01*
X118274488Y-123058964D01*
X119183452Y-122150000D01*
X123689465Y-122150000D01*
X123590000Y-122650043D01*
X123590000Y-123349957D01*
X123761271Y-124210995D01*
X124249010Y-124940947D01*
X124978962Y-125428686D01*
X125840000Y-125599957D01*
X126701038Y-125428686D01*
X127110000Y-125155426D01*
X127518962Y-125428686D01*
X128380000Y-125599957D01*
X129241038Y-125428686D01*
X129952935Y-124953011D01*
X130266155Y-125139834D01*
X130516585Y-125207814D01*
X130820000Y-125009578D01*
X130820000Y-123100000D01*
X130800000Y-123100000D01*
X130800000Y-122900000D01*
X130820000Y-122900000D01*
X130820000Y-120990422D01*
X130516585Y-120792186D01*
X130266155Y-120860166D01*
X129952935Y-121046989D01*
X129621922Y-120825813D01*
X129546726Y-120713274D01*
X128477386Y-119643934D01*
X131960000Y-116161320D01*
X131960000Y-120998255D01*
X131887065Y-121046989D01*
X131573845Y-120860166D01*
X131323415Y-120792186D01*
X131020000Y-120990422D01*
X131020000Y-122900000D01*
X131040000Y-122900000D01*
X131040000Y-123100000D01*
X131020000Y-123100000D01*
X131020000Y-125009578D01*
X131323415Y-125207814D01*
X131573845Y-125139834D01*
X131887065Y-124953011D01*
X132598962Y-125428686D01*
X133460000Y-125599957D01*
X134321038Y-125428686D01*
X134380032Y-125389268D01*
X134504153Y-125474076D01*
X135000000Y-125574488D01*
X137000000Y-125574488D01*
X137463222Y-125487327D01*
X137888663Y-125213563D01*
X138174076Y-124795847D01*
X138274488Y-124300000D01*
X138274488Y-122034192D01*
X142258018Y-122034192D01*
X142262684Y-122909267D01*
X142588583Y-123696057D01*
X142973111Y-123805468D01*
X144318579Y-122460000D01*
X142973111Y-121114532D01*
X142588583Y-121223943D01*
X142258018Y-122034192D01*
X138274488Y-122034192D01*
X138274488Y-121700000D01*
X138187327Y-121236778D01*
X138017662Y-120973111D01*
X143114532Y-120973111D01*
X144460000Y-122318579D01*
X145805468Y-120973111D01*
X148194532Y-120973111D01*
X149540000Y-122318579D01*
X150885468Y-120973111D01*
X160114532Y-120973111D01*
X161460000Y-122318579D01*
X162805468Y-120973111D01*
X165194532Y-120973111D01*
X166540000Y-122318579D01*
X167885468Y-120973111D01*
X167776057Y-120588583D01*
X166965808Y-120258018D01*
X166090733Y-120262684D01*
X165303943Y-120588583D01*
X165194532Y-120973111D01*
X162805468Y-120973111D01*
X162696057Y-120588583D01*
X161885808Y-120258018D01*
X161010733Y-120262684D01*
X160223943Y-120588583D01*
X160114532Y-120973111D01*
X150885468Y-120973111D01*
X150776057Y-120588583D01*
X149965808Y-120258018D01*
X149090733Y-120262684D01*
X148303943Y-120588583D01*
X148194532Y-120973111D01*
X145805468Y-120973111D01*
X145696057Y-120588583D01*
X144885808Y-120258018D01*
X144010733Y-120262684D01*
X143223943Y-120588583D01*
X143114532Y-120973111D01*
X138017662Y-120973111D01*
X137913563Y-120811337D01*
X137500000Y-120528762D01*
X137500000Y-103371320D01*
X139525320Y-101346000D01*
X141606000Y-101346000D01*
X141731599Y-101977428D01*
X142089274Y-102512726D01*
X142624572Y-102870401D01*
X143256000Y-102996000D01*
X159766000Y-102996000D01*
X160397428Y-102870401D01*
X160932726Y-102512726D01*
X161059726Y-102385726D01*
X161417401Y-101850427D01*
X161543000Y-101219000D01*
X161417401Y-100587573D01*
X161059726Y-100052274D01*
X160524427Y-99694599D01*
X159893000Y-99569000D01*
X159261573Y-99694599D01*
X159259476Y-99696000D01*
X143256000Y-99696000D01*
X142624572Y-99821599D01*
X142089274Y-100179274D01*
X141731599Y-100714572D01*
X141606000Y-101346000D01*
X139525320Y-101346000D01*
X147371320Y-93500000D01*
X156570570Y-93500000D01*
X156690333Y-93549730D01*
X157306961Y-93550268D01*
X157876857Y-93314792D01*
X158313260Y-92879151D01*
X158549730Y-92309667D01*
X158549782Y-92250000D01*
X172128680Y-92250000D01*
X174250000Y-94371320D01*
X174250000Y-96320570D01*
X174200270Y-96440333D01*
X174199732Y-97056961D01*
X174435208Y-97626857D01*
X174870849Y-98063260D01*
X175440333Y-98299730D01*
X176056961Y-98300268D01*
X176626857Y-98064792D01*
X177063260Y-97629151D01*
X177299730Y-97059667D01*
X177300268Y-96443039D01*
X177250000Y-96321381D01*
X177250000Y-93750000D01*
X177135819Y-93175975D01*
X176810660Y-92689340D01*
X173810660Y-89689340D01*
X173324025Y-89364181D01*
X172750000Y-89250000D01*
X158550218Y-89250000D01*
X158550268Y-89193039D01*
X158314792Y-88623143D01*
X157879151Y-88186740D01*
X157309667Y-87950270D01*
X156693039Y-87949732D01*
X156571381Y-88000000D01*
X155700698Y-88000000D01*
X155830000Y-87349957D01*
X155830000Y-86847958D01*
X173293464Y-86847958D01*
X173463858Y-87284448D01*
X174455009Y-87698411D01*
X175529132Y-87701566D01*
X176522698Y-87293432D01*
X176536142Y-87284448D01*
X176706536Y-86847958D01*
X175000000Y-85141421D01*
X173293464Y-86847958D01*
X155830000Y-86847958D01*
X155830000Y-86650043D01*
X155658729Y-85789005D01*
X155485088Y-85529132D01*
X172298434Y-85529132D01*
X172706568Y-86522698D01*
X172715552Y-86536142D01*
X173152042Y-86706536D01*
X174858579Y-85000000D01*
X175141421Y-85000000D01*
X176847958Y-86706536D01*
X177284448Y-86536142D01*
X177698411Y-85544991D01*
X177701566Y-84470868D01*
X177293432Y-83477302D01*
X177284448Y-83463858D01*
X176847958Y-83293464D01*
X175141421Y-85000000D01*
X174858579Y-85000000D01*
X173152042Y-83293464D01*
X172715552Y-83463858D01*
X172301589Y-84455009D01*
X172298434Y-85529132D01*
X155485088Y-85529132D01*
X155170990Y-85059053D01*
X154441038Y-84571314D01*
X153580000Y-84400043D01*
X152718962Y-84571314D01*
X152007065Y-85046989D01*
X151693845Y-84860166D01*
X151443415Y-84792186D01*
X151140000Y-84990422D01*
X151140000Y-86900000D01*
X151160000Y-86900000D01*
X151160000Y-87100000D01*
X151140000Y-87100000D01*
X151140000Y-87120000D01*
X150940000Y-87120000D01*
X150940000Y-87100000D01*
X150920000Y-87100000D01*
X150920000Y-86900000D01*
X150940000Y-86900000D01*
X150940000Y-84990422D01*
X150636585Y-84792186D01*
X150436236Y-84846571D01*
X150413563Y-84811337D01*
X149995847Y-84525924D01*
X149500000Y-84425512D01*
X147500000Y-84425512D01*
X147036778Y-84512673D01*
X146611337Y-84786437D01*
X146325924Y-85204153D01*
X146225512Y-85700000D01*
X146225512Y-88000000D01*
X145250000Y-88000000D01*
X144675975Y-88114181D01*
X144189340Y-88439340D01*
X137765000Y-94863680D01*
X137765000Y-93877500D01*
X137527500Y-93640000D01*
X135640000Y-93640000D01*
X135640000Y-95527500D01*
X135877500Y-95765000D01*
X136863680Y-95765000D01*
X131650000Y-100978680D01*
X131650000Y-100000000D01*
X131524401Y-99368572D01*
X131166726Y-98833274D01*
X130631428Y-98475599D01*
X130000000Y-98350000D01*
X129368572Y-98475599D01*
X128833274Y-98833274D01*
X128475599Y-99368572D01*
X128350000Y-100000000D01*
X128350000Y-104000000D01*
X128475599Y-104631428D01*
X128833274Y-105166726D01*
X129368572Y-105524401D01*
X130000000Y-105650000D01*
X130500000Y-105550544D01*
X130500000Y-113378680D01*
X126128680Y-117750000D01*
X94500000Y-117750000D01*
X93925975Y-117864181D01*
X93439340Y-118189340D01*
X92079340Y-119549340D01*
X91754181Y-120035975D01*
X91640000Y-120610000D01*
X91640000Y-120998255D01*
X91549010Y-121059053D01*
X91061271Y-121789005D01*
X90890000Y-122650043D01*
X86379294Y-122650043D01*
X85544991Y-122301589D01*
X84470868Y-122298434D01*
X83477302Y-122706568D01*
X83463858Y-122715552D01*
X83293464Y-123152042D01*
X81325000Y-123152042D01*
X81325000Y-106750000D01*
X95350000Y-106750000D01*
X95350000Y-108500000D01*
X95475599Y-109131428D01*
X95721871Y-109500000D01*
X95833274Y-109666726D01*
X100583274Y-114416726D01*
X101118572Y-114774401D01*
X101750000Y-114900000D01*
X120250000Y-114900000D01*
X120881428Y-114774401D01*
X121416726Y-114416726D01*
X125166726Y-110666726D01*
X125524401Y-110131428D01*
X125650000Y-109500000D01*
X125650000Y-93877500D01*
X128235000Y-93877500D01*
X128235000Y-95003967D01*
X128379629Y-95353132D01*
X128646868Y-95620371D01*
X128996033Y-95765000D01*
X130122500Y-95765000D01*
X130360000Y-95527500D01*
X130360000Y-93640000D01*
X128472500Y-93640000D01*
X128235000Y-93877500D01*
X125650000Y-93877500D01*
X125650000Y-88797500D01*
X128235000Y-88797500D01*
X128235000Y-90662500D01*
X128472500Y-90900000D01*
X130300282Y-90900000D01*
X130299694Y-91100000D01*
X128472500Y-91100000D01*
X128235000Y-91337500D01*
X128235000Y-93202500D01*
X128472500Y-93440000D01*
X130360000Y-93440000D01*
X130360000Y-93420000D01*
X130560000Y-93420000D01*
X130560000Y-93440000D01*
X130580000Y-93440000D01*
X130580000Y-93640000D01*
X130560000Y-93640000D01*
X130560000Y-95527500D01*
X130797500Y-95765000D01*
X131923967Y-95765000D01*
X132273132Y-95620371D01*
X132540371Y-95353132D01*
X132685000Y-95003967D01*
X132685000Y-93877500D01*
X132506061Y-93698561D01*
X133491046Y-93701454D01*
X133315000Y-93877500D01*
X133315000Y-95003967D01*
X133459629Y-95353132D01*
X133726868Y-95620371D01*
X134076033Y-95765000D01*
X135202500Y-95765000D01*
X135440000Y-95527500D01*
X135440000Y-93640000D01*
X135420000Y-93640000D01*
X135420000Y-93440000D01*
X135440000Y-93440000D01*
X135440000Y-93420000D01*
X135640000Y-93420000D01*
X135640000Y-93440000D01*
X137527500Y-93440000D01*
X137765000Y-93202500D01*
X137765000Y-91337500D01*
X137527500Y-91100000D01*
X135699718Y-91100000D01*
X135700306Y-90900000D01*
X137527500Y-90900000D01*
X137765000Y-90662500D01*
X137765000Y-88797500D01*
X137527500Y-88560000D01*
X135640000Y-88560000D01*
X135640000Y-88580000D01*
X135440000Y-88580000D01*
X135440000Y-88560000D01*
X135420000Y-88560000D01*
X135420000Y-88360000D01*
X135440000Y-88360000D01*
X135440000Y-86472500D01*
X135640000Y-86472500D01*
X135640000Y-88360000D01*
X137527500Y-88360000D01*
X137765000Y-88122500D01*
X137765000Y-86996033D01*
X137620371Y-86646868D01*
X137353132Y-86379629D01*
X137003967Y-86235000D01*
X135877500Y-86235000D01*
X135640000Y-86472500D01*
X135440000Y-86472500D01*
X135202500Y-86235000D01*
X134076033Y-86235000D01*
X133726868Y-86379629D01*
X133459629Y-86646868D01*
X133315000Y-86996033D01*
X133315000Y-88122500D01*
X133493939Y-88301439D01*
X132508954Y-88298546D01*
X132685000Y-88122500D01*
X132685000Y-86996033D01*
X132540371Y-86646868D01*
X132273132Y-86379629D01*
X131923967Y-86235000D01*
X130797500Y-86235000D01*
X130560000Y-86472500D01*
X130560000Y-88360000D01*
X130580000Y-88360000D01*
X130580000Y-88560000D01*
X130560000Y-88560000D01*
X130560000Y-88580000D01*
X130360000Y-88580000D01*
X130360000Y-88560000D01*
X128472500Y-88560000D01*
X128235000Y-88797500D01*
X125650000Y-88797500D01*
X125650000Y-88683452D01*
X127337419Y-86996033D01*
X128235000Y-86996033D01*
X128235000Y-88122500D01*
X128472500Y-88360000D01*
X130360000Y-88360000D01*
X130360000Y-86472500D01*
X130122500Y-86235000D01*
X128996033Y-86235000D01*
X128646868Y-86379629D01*
X128379629Y-86646868D01*
X128235000Y-86996033D01*
X127337419Y-86996033D01*
X128183453Y-86150000D01*
X137250000Y-86150000D01*
X137881428Y-86024401D01*
X138416726Y-85666726D01*
X138774401Y-85131428D01*
X138900000Y-84500000D01*
X138774401Y-83868572D01*
X138416726Y-83333274D01*
X138145494Y-83152042D01*
X173293464Y-83152042D01*
X175000000Y-84858579D01*
X176706536Y-83152042D01*
X176536142Y-82715552D01*
X175544991Y-82301589D01*
X174470868Y-82298434D01*
X173477302Y-82706568D01*
X173463858Y-82715552D01*
X173293464Y-83152042D01*
X138145494Y-83152042D01*
X137881428Y-82975599D01*
X137250000Y-82850000D01*
X127500000Y-82850000D01*
X126868572Y-82975599D01*
X126333273Y-83333274D01*
X122833274Y-86833274D01*
X122475599Y-87368572D01*
X122350000Y-88000000D01*
X122350000Y-108816548D01*
X119566548Y-111600000D01*
X102433452Y-111600000D01*
X98650000Y-107816548D01*
X98650000Y-106750000D01*
X98524401Y-106118572D01*
X98166726Y-105583274D01*
X97631428Y-105225599D01*
X97000000Y-105100000D01*
X96368572Y-105225599D01*
X95833274Y-105583274D01*
X95475599Y-106118572D01*
X95350000Y-106750000D01*
X81325000Y-106750000D01*
X81325000Y-86847958D01*
X83293464Y-86847958D01*
X83463858Y-87284448D01*
X84455009Y-87698411D01*
X85529132Y-87701566D01*
X86522698Y-87293432D01*
X86536142Y-87284448D01*
X86574963Y-87185000D01*
X91910512Y-87185000D01*
X91910512Y-94815000D01*
X91997673Y-95278222D01*
X92271437Y-95703663D01*
X92689153Y-95989076D01*
X93185000Y-96089488D01*
X95735000Y-96089488D01*
X96198222Y-96002327D01*
X96623663Y-95728563D01*
X96752503Y-95540000D01*
X97246123Y-95540000D01*
X97351437Y-95703663D01*
X97769153Y-95989076D01*
X98265000Y-96089488D01*
X100815000Y-96089488D01*
X101278222Y-96002327D01*
X101703663Y-95728563D01*
X101989076Y-95310847D01*
X102089488Y-94815000D01*
X102089488Y-87185000D01*
X109910512Y-87185000D01*
X109910512Y-94815000D01*
X109997673Y-95278222D01*
X110271437Y-95703663D01*
X110689153Y-95989076D01*
X111185000Y-96089488D01*
X113735000Y-96089488D01*
X114198222Y-96002327D01*
X114623663Y-95728563D01*
X114752503Y-95540000D01*
X115246123Y-95540000D01*
X115351437Y-95703663D01*
X115769153Y-95989076D01*
X116265000Y-96089488D01*
X118815000Y-96089488D01*
X119278222Y-96002327D01*
X119703663Y-95728563D01*
X119989076Y-95310847D01*
X120089488Y-94815000D01*
X120089488Y-87185000D01*
X120002327Y-86721778D01*
X119728563Y-86296337D01*
X119310847Y-86010924D01*
X118815000Y-85910512D01*
X116265000Y-85910512D01*
X115801778Y-85997673D01*
X115376337Y-86271437D01*
X115247497Y-86460000D01*
X114753877Y-86460000D01*
X114648563Y-86296337D01*
X114230847Y-86010924D01*
X113735000Y-85910512D01*
X111185000Y-85910512D01*
X110721778Y-85997673D01*
X110296337Y-86271437D01*
X110010924Y-86689153D01*
X109910512Y-87185000D01*
X102089488Y-87185000D01*
X102002327Y-86721778D01*
X101728563Y-86296337D01*
X101310847Y-86010924D01*
X100815000Y-85910512D01*
X98265000Y-85910512D01*
X97801778Y-85997673D01*
X97376337Y-86271437D01*
X97247497Y-86460000D01*
X96753877Y-86460000D01*
X96648563Y-86296337D01*
X96230847Y-86010924D01*
X95735000Y-85910512D01*
X93185000Y-85910512D01*
X92721778Y-85997673D01*
X92296337Y-86271437D01*
X92010924Y-86689153D01*
X91910512Y-87185000D01*
X86574963Y-87185000D01*
X86706536Y-86847958D01*
X85000000Y-85141421D01*
X83293464Y-86847958D01*
X81325000Y-86847958D01*
X81325000Y-85529132D01*
X82298434Y-85529132D01*
X82706568Y-86522698D01*
X82715552Y-86536142D01*
X83152042Y-86706536D01*
X84858579Y-85000000D01*
X85141421Y-85000000D01*
X86847958Y-86706536D01*
X87284448Y-86536142D01*
X87698411Y-85544991D01*
X87701566Y-84470868D01*
X87293432Y-83477302D01*
X87284448Y-83463858D01*
X86847958Y-83293464D01*
X85141421Y-85000000D01*
X84858579Y-85000000D01*
X83152042Y-83293464D01*
X82715552Y-83463858D01*
X82301589Y-84455009D01*
X82298434Y-85529132D01*
X81325000Y-85529132D01*
X81325000Y-83152042D01*
X83293464Y-83152042D01*
X85000000Y-84858579D01*
X86706536Y-83152042D01*
X86536142Y-82715552D01*
X85544991Y-82301589D01*
X84470868Y-82298434D01*
X83477302Y-82706568D01*
X83463858Y-82715552D01*
X83293464Y-83152042D01*
X81325000Y-83152042D01*
X81325000Y-81325000D01*
X178675000Y-81325000D01*
X178675000Y-128675000D01*
X178675000Y-128675000D01*
G37*
X178675000Y-128675000D02*
X168452646Y-128675000D01*
X168741982Y-127965808D01*
X168737316Y-127090733D01*
X168636756Y-126847958D01*
X173293464Y-126847958D01*
X173463858Y-127284448D01*
X174455009Y-127698411D01*
X175529132Y-127701566D01*
X176522698Y-127293432D01*
X176536142Y-127284448D01*
X176706536Y-126847958D01*
X175000000Y-125141421D01*
X173293464Y-126847958D01*
X168636756Y-126847958D01*
X168411417Y-126303943D01*
X168240000Y-126255169D01*
X168240000Y-125529132D01*
X172298434Y-125529132D01*
X172706568Y-126522698D01*
X172715552Y-126536142D01*
X173152042Y-126706536D01*
X174858579Y-125000000D01*
X175141421Y-125000000D01*
X176847958Y-126706536D01*
X177284448Y-126536142D01*
X177698411Y-125544991D01*
X177701566Y-124470868D01*
X177293432Y-123477302D01*
X177284448Y-123463858D01*
X176847958Y-123293464D01*
X175141421Y-125000000D01*
X174858579Y-125000000D01*
X173152042Y-123293464D01*
X172715552Y-123463858D01*
X172301589Y-124455009D01*
X172298434Y-125529132D01*
X168240000Y-125529132D01*
X168240000Y-124811033D01*
X168095371Y-124461868D01*
X167828132Y-124194629D01*
X167816365Y-124189755D01*
X167885468Y-123946889D01*
X166540000Y-122601421D01*
X166525858Y-122615564D01*
X166384437Y-122474143D01*
X166398579Y-122460000D01*
X166681421Y-122460000D01*
X168026889Y-123805468D01*
X168411417Y-123696057D01*
X168633363Y-123152042D01*
X173293464Y-123152042D01*
X175000000Y-124858579D01*
X176706536Y-123152042D01*
X176536142Y-122715552D01*
X175544991Y-122301589D01*
X174470868Y-122298434D01*
X173477302Y-122706568D01*
X173463858Y-122715552D01*
X173293464Y-123152042D01*
X168633363Y-123152042D01*
X168741982Y-122885808D01*
X168737316Y-122010733D01*
X168411417Y-121223943D01*
X168026889Y-121114532D01*
X166681421Y-122460000D01*
X166398579Y-122460000D01*
X165053111Y-121114532D01*
X164668583Y-121223943D01*
X164338018Y-122034192D01*
X164341839Y-122750807D01*
X163661259Y-122750213D01*
X163657316Y-122010733D01*
X163331417Y-121223943D01*
X162946889Y-121114532D01*
X161601421Y-122460000D01*
X161615564Y-122474143D01*
X161474143Y-122615564D01*
X161460000Y-122601421D01*
X160114532Y-123946889D01*
X160183635Y-124189755D01*
X160171868Y-124194629D01*
X159904629Y-124461868D01*
X159760000Y-124811033D01*
X159760000Y-126255169D01*
X159588583Y-126303943D01*
X159258018Y-127114192D01*
X159262684Y-127989267D01*
X159546724Y-128675000D01*
X151452646Y-128675000D01*
X151741982Y-127965808D01*
X151737316Y-127090733D01*
X151411417Y-126303943D01*
X151240000Y-126255169D01*
X151240000Y-124811033D01*
X151095371Y-124461868D01*
X150828132Y-124194629D01*
X150816365Y-124189755D01*
X150885468Y-123946889D01*
X149540000Y-122601421D01*
X149525858Y-122615564D01*
X149384437Y-122474143D01*
X149398579Y-122460000D01*
X149681421Y-122460000D01*
X151026889Y-123805468D01*
X151411417Y-123696057D01*
X151741982Y-122885808D01*
X151737442Y-122034192D01*
X159258018Y-122034192D01*
X159262684Y-122909267D01*
X159588583Y-123696057D01*
X159973111Y-123805468D01*
X161318579Y-122460000D01*
X159973111Y-121114532D01*
X159588583Y-121223943D01*
X159258018Y-122034192D01*
X151737442Y-122034192D01*
X151737316Y-122010733D01*
X151411417Y-121223943D01*
X151026889Y-121114532D01*
X149681421Y-122460000D01*
X149398579Y-122460000D01*
X148053111Y-121114532D01*
X147668583Y-121223943D01*
X147338018Y-122034192D01*
X147341839Y-122750807D01*
X146661259Y-122750213D01*
X146657316Y-122010733D01*
X146331417Y-121223943D01*
X145946889Y-121114532D01*
X144601421Y-122460000D01*
X144615564Y-122474143D01*
X144474143Y-122615564D01*
X144460000Y-122601421D01*
X143114532Y-123946889D01*
X143183635Y-124189755D01*
X143171868Y-124194629D01*
X142904629Y-124461868D01*
X142760000Y-124811033D01*
X142760000Y-126255169D01*
X142588583Y-126303943D01*
X142258018Y-127114192D01*
X142262684Y-127989267D01*
X142546724Y-128675000D01*
X81325000Y-128675000D01*
X81325000Y-126847958D01*
X83293464Y-126847958D01*
X83463858Y-127284448D01*
X84455009Y-127698411D01*
X85529132Y-127701566D01*
X86522698Y-127293432D01*
X86536142Y-127284448D01*
X86706536Y-126847958D01*
X85000000Y-125141421D01*
X83293464Y-126847958D01*
X81325000Y-126847958D01*
X81325000Y-125529132D01*
X82298434Y-125529132D01*
X82706568Y-126522698D01*
X82715552Y-126536142D01*
X83152042Y-126706536D01*
X84858579Y-125000000D01*
X85141421Y-125000000D01*
X86847958Y-126706536D01*
X87284448Y-126536142D01*
X87698411Y-125544991D01*
X87701566Y-124470868D01*
X87293432Y-123477302D01*
X87284448Y-123463858D01*
X86847958Y-123293464D01*
X85141421Y-125000000D01*
X84858579Y-125000000D01*
X83152042Y-123293464D01*
X82715552Y-123463858D01*
X82301589Y-124455009D01*
X82298434Y-125529132D01*
X81325000Y-125529132D01*
X81325000Y-123152042D01*
X83293464Y-123152042D01*
X85000000Y-124858579D01*
X86706536Y-123152042D01*
X86536142Y-122715552D01*
X86379294Y-122650043D01*
X90890000Y-122650043D01*
X90890000Y-123349957D01*
X91061271Y-124210995D01*
X91549010Y-124940947D01*
X92278962Y-125428686D01*
X93140000Y-125599957D01*
X94001038Y-125428686D01*
X94712935Y-124953011D01*
X95026155Y-125139834D01*
X95276585Y-125207814D01*
X95580000Y-125009578D01*
X95580000Y-123100000D01*
X95780000Y-123100000D01*
X95780000Y-125009578D01*
X96083415Y-125207814D01*
X96333845Y-125139834D01*
X96950000Y-124772323D01*
X97566155Y-125139834D01*
X97816585Y-125207814D01*
X98120000Y-125009578D01*
X98120000Y-123100000D01*
X95780000Y-123100000D01*
X95580000Y-123100000D01*
X95560000Y-123100000D01*
X95560000Y-122900000D01*
X95580000Y-122900000D01*
X95580000Y-120990422D01*
X95780000Y-120990422D01*
X95780000Y-122900000D01*
X98120000Y-122900000D01*
X98120000Y-120990422D01*
X97816585Y-120792186D01*
X97566155Y-120860166D01*
X96950000Y-121227677D01*
X96333845Y-120860166D01*
X96083415Y-120792186D01*
X95780000Y-120990422D01*
X95580000Y-120990422D01*
X95276585Y-120792186D01*
X95026155Y-120860166D01*
X94988982Y-120882338D01*
X95121320Y-120750000D01*
X99631540Y-120750000D01*
X99187065Y-121046989D01*
X98873845Y-120860166D01*
X98623415Y-120792186D01*
X98320000Y-120990422D01*
X98320000Y-122900000D01*
X98340000Y-122900000D01*
X98340000Y-123100000D01*
X98320000Y-123100000D01*
X98320000Y-125009578D01*
X98623415Y-125207814D01*
X98873845Y-125139834D01*
X99187065Y-124953011D01*
X99898962Y-125428686D01*
X100760000Y-125599957D01*
X101621038Y-125428686D01*
X102030000Y-125155426D01*
X102438962Y-125428686D01*
X103300000Y-125599957D01*
X104161038Y-125428686D01*
X104872935Y-124953011D01*
X105186155Y-125139834D01*
X105436585Y-125207814D01*
X105740000Y-125009578D01*
X105740000Y-123100000D01*
X105940000Y-123100000D01*
X105940000Y-125009578D01*
X106243415Y-125207814D01*
X106493845Y-125139834D01*
X107110000Y-124772323D01*
X107726155Y-125139834D01*
X107976585Y-125207814D01*
X108280000Y-125009578D01*
X108280000Y-123100000D01*
X105940000Y-123100000D01*
X105740000Y-123100000D01*
X105720000Y-123100000D01*
X105720000Y-122900000D01*
X105740000Y-122900000D01*
X105740000Y-120990422D01*
X105940000Y-120990422D01*
X105940000Y-122900000D01*
X108280000Y-122900000D01*
X108280000Y-120990422D01*
X107976585Y-120792186D01*
X107726155Y-120860166D01*
X107110000Y-121227677D01*
X106493845Y-120860166D01*
X106243415Y-120792186D01*
X105940000Y-120990422D01*
X105740000Y-120990422D01*
X105436585Y-120792186D01*
X105186155Y-120860166D01*
X104872935Y-121046989D01*
X104428460Y-120750000D01*
X109791540Y-120750000D01*
X109347065Y-121046989D01*
X109033845Y-120860166D01*
X108783415Y-120792186D01*
X108480000Y-120990422D01*
X108480000Y-122900000D01*
X108500000Y-122900000D01*
X108500000Y-123100000D01*
X108480000Y-123100000D01*
X108480000Y-125009578D01*
X108783415Y-125207814D01*
X109033845Y-125139834D01*
X109347065Y-124953011D01*
X110058962Y-125428686D01*
X110920000Y-125599957D01*
X111781038Y-125428686D01*
X112492935Y-124953011D01*
X112806155Y-125139834D01*
X113056585Y-125207814D01*
X113360000Y-125009578D01*
X113360000Y-123100000D01*
X113340000Y-123100000D01*
X113340000Y-122900000D01*
X113360000Y-122900000D01*
X113360000Y-120990422D01*
X113056585Y-120792186D01*
X112806155Y-120860166D01*
X112492935Y-121046989D01*
X112048460Y-120750000D01*
X114167962Y-120750000D01*
X114111337Y-120786437D01*
X114069234Y-120848056D01*
X113863415Y-120792186D01*
X113560000Y-120990422D01*
X113560000Y-122900000D01*
X113580000Y-122900000D01*
X113580000Y-123100000D01*
X113560000Y-123100000D01*
X113560000Y-125009578D01*
X113863415Y-125207814D01*
X114063764Y-125153429D01*
X114086437Y-125188663D01*
X114504153Y-125474076D01*
X115000000Y-125574488D01*
X117000000Y-125574488D01*
X117463222Y-125487327D01*
X117888663Y-125213563D01*
X118174076Y-124795847D01*
X118274488Y-124300000D01*
X118274488Y-123058964D01*
X119183452Y-122150000D01*
X123689465Y-122150000D01*
X123590000Y-122650043D01*
X123590000Y-123349957D01*
X123761271Y-124210995D01*
X124249010Y-124940947D01*
X124978962Y-125428686D01*
X125840000Y-125599957D01*
X126701038Y-125428686D01*
X127110000Y-125155426D01*
X127518962Y-125428686D01*
X128380000Y-125599957D01*
X129241038Y-125428686D01*
X129952935Y-124953011D01*
X130266155Y-125139834D01*
X130516585Y-125207814D01*
X130820000Y-125009578D01*
X130820000Y-123100000D01*
X130800000Y-123100000D01*
X130800000Y-122900000D01*
X130820000Y-122900000D01*
X130820000Y-120990422D01*
X130516585Y-120792186D01*
X130266155Y-120860166D01*
X129952935Y-121046989D01*
X129621922Y-120825813D01*
X129546726Y-120713274D01*
X128477386Y-119643934D01*
X131960000Y-116161320D01*
X131960000Y-120998255D01*
X131887065Y-121046989D01*
X131573845Y-120860166D01*
X131323415Y-120792186D01*
X131020000Y-120990422D01*
X131020000Y-122900000D01*
X131040000Y-122900000D01*
X131040000Y-123100000D01*
X131020000Y-123100000D01*
X131020000Y-125009578D01*
X131323415Y-125207814D01*
X131573845Y-125139834D01*
X131887065Y-124953011D01*
X132598962Y-125428686D01*
X133460000Y-125599957D01*
X134321038Y-125428686D01*
X134380032Y-125389268D01*
X134504153Y-125474076D01*
X135000000Y-125574488D01*
X137000000Y-125574488D01*
X137463222Y-125487327D01*
X137888663Y-125213563D01*
X138174076Y-124795847D01*
X138274488Y-124300000D01*
X138274488Y-122034192D01*
X142258018Y-122034192D01*
X142262684Y-122909267D01*
X142588583Y-123696057D01*
X142973111Y-123805468D01*
X144318579Y-122460000D01*
X142973111Y-121114532D01*
X142588583Y-121223943D01*
X142258018Y-122034192D01*
X138274488Y-122034192D01*
X138274488Y-121700000D01*
X138187327Y-121236778D01*
X138017662Y-120973111D01*
X143114532Y-120973111D01*
X144460000Y-122318579D01*
X145805468Y-120973111D01*
X148194532Y-120973111D01*
X149540000Y-122318579D01*
X150885468Y-120973111D01*
X160114532Y-120973111D01*
X161460000Y-122318579D01*
X162805468Y-120973111D01*
X165194532Y-120973111D01*
X166540000Y-122318579D01*
X167885468Y-120973111D01*
X167776057Y-120588583D01*
X166965808Y-120258018D01*
X166090733Y-120262684D01*
X165303943Y-120588583D01*
X165194532Y-120973111D01*
X162805468Y-120973111D01*
X162696057Y-120588583D01*
X161885808Y-120258018D01*
X161010733Y-120262684D01*
X160223943Y-120588583D01*
X160114532Y-120973111D01*
X150885468Y-120973111D01*
X150776057Y-120588583D01*
X149965808Y-120258018D01*
X149090733Y-120262684D01*
X148303943Y-120588583D01*
X148194532Y-120973111D01*
X145805468Y-120973111D01*
X145696057Y-120588583D01*
X144885808Y-120258018D01*
X144010733Y-120262684D01*
X143223943Y-120588583D01*
X143114532Y-120973111D01*
X138017662Y-120973111D01*
X137913563Y-120811337D01*
X137500000Y-120528762D01*
X137500000Y-103371320D01*
X139525320Y-101346000D01*
X141606000Y-101346000D01*
X141731599Y-101977428D01*
X142089274Y-102512726D01*
X142624572Y-102870401D01*
X143256000Y-102996000D01*
X159766000Y-102996000D01*
X160397428Y-102870401D01*
X160932726Y-102512726D01*
X161059726Y-102385726D01*
X161417401Y-101850427D01*
X161543000Y-101219000D01*
X161417401Y-100587573D01*
X161059726Y-100052274D01*
X160524427Y-99694599D01*
X159893000Y-99569000D01*
X159261573Y-99694599D01*
X159259476Y-99696000D01*
X143256000Y-99696000D01*
X142624572Y-99821599D01*
X142089274Y-100179274D01*
X141731599Y-100714572D01*
X141606000Y-101346000D01*
X139525320Y-101346000D01*
X147371320Y-93500000D01*
X156570570Y-93500000D01*
X156690333Y-93549730D01*
X157306961Y-93550268D01*
X157876857Y-93314792D01*
X158313260Y-92879151D01*
X158549730Y-92309667D01*
X158549782Y-92250000D01*
X172128680Y-92250000D01*
X174250000Y-94371320D01*
X174250000Y-96320570D01*
X174200270Y-96440333D01*
X174199732Y-97056961D01*
X174435208Y-97626857D01*
X174870849Y-98063260D01*
X175440333Y-98299730D01*
X176056961Y-98300268D01*
X176626857Y-98064792D01*
X177063260Y-97629151D01*
X177299730Y-97059667D01*
X177300268Y-96443039D01*
X177250000Y-96321381D01*
X177250000Y-93750000D01*
X177135819Y-93175975D01*
X176810660Y-92689340D01*
X173810660Y-89689340D01*
X173324025Y-89364181D01*
X172750000Y-89250000D01*
X158550218Y-89250000D01*
X158550268Y-89193039D01*
X158314792Y-88623143D01*
X157879151Y-88186740D01*
X157309667Y-87950270D01*
X156693039Y-87949732D01*
X156571381Y-88000000D01*
X155700698Y-88000000D01*
X155830000Y-87349957D01*
X155830000Y-86847958D01*
X173293464Y-86847958D01*
X173463858Y-87284448D01*
X174455009Y-87698411D01*
X175529132Y-87701566D01*
X176522698Y-87293432D01*
X176536142Y-87284448D01*
X176706536Y-86847958D01*
X175000000Y-85141421D01*
X173293464Y-86847958D01*
X155830000Y-86847958D01*
X155830000Y-86650043D01*
X155658729Y-85789005D01*
X155485088Y-85529132D01*
X172298434Y-85529132D01*
X172706568Y-86522698D01*
X172715552Y-86536142D01*
X173152042Y-86706536D01*
X174858579Y-85000000D01*
X175141421Y-85000000D01*
X176847958Y-86706536D01*
X177284448Y-86536142D01*
X177698411Y-85544991D01*
X177701566Y-84470868D01*
X177293432Y-83477302D01*
X177284448Y-83463858D01*
X176847958Y-83293464D01*
X175141421Y-85000000D01*
X174858579Y-85000000D01*
X173152042Y-83293464D01*
X172715552Y-83463858D01*
X172301589Y-84455009D01*
X172298434Y-85529132D01*
X155485088Y-85529132D01*
X155170990Y-85059053D01*
X154441038Y-84571314D01*
X153580000Y-84400043D01*
X152718962Y-84571314D01*
X152007065Y-85046989D01*
X151693845Y-84860166D01*
X151443415Y-84792186D01*
X151140000Y-84990422D01*
X151140000Y-86900000D01*
X151160000Y-86900000D01*
X151160000Y-87100000D01*
X151140000Y-87100000D01*
X151140000Y-87120000D01*
X150940000Y-87120000D01*
X150940000Y-87100000D01*
X150920000Y-87100000D01*
X150920000Y-86900000D01*
X150940000Y-86900000D01*
X150940000Y-84990422D01*
X150636585Y-84792186D01*
X150436236Y-84846571D01*
X150413563Y-84811337D01*
X149995847Y-84525924D01*
X149500000Y-84425512D01*
X147500000Y-84425512D01*
X147036778Y-84512673D01*
X146611337Y-84786437D01*
X146325924Y-85204153D01*
X146225512Y-85700000D01*
X146225512Y-88000000D01*
X145250000Y-88000000D01*
X144675975Y-88114181D01*
X144189340Y-88439340D01*
X137765000Y-94863680D01*
X137765000Y-93877500D01*
X137527500Y-93640000D01*
X135640000Y-93640000D01*
X135640000Y-95527500D01*
X135877500Y-95765000D01*
X136863680Y-95765000D01*
X131650000Y-100978680D01*
X131650000Y-100000000D01*
X131524401Y-99368572D01*
X131166726Y-98833274D01*
X130631428Y-98475599D01*
X130000000Y-98350000D01*
X129368572Y-98475599D01*
X128833274Y-98833274D01*
X128475599Y-99368572D01*
X128350000Y-100000000D01*
X128350000Y-104000000D01*
X128475599Y-104631428D01*
X128833274Y-105166726D01*
X129368572Y-105524401D01*
X130000000Y-105650000D01*
X130500000Y-105550544D01*
X130500000Y-113378680D01*
X126128680Y-117750000D01*
X94500000Y-117750000D01*
X93925975Y-117864181D01*
X93439340Y-118189340D01*
X92079340Y-119549340D01*
X91754181Y-120035975D01*
X91640000Y-120610000D01*
X91640000Y-120998255D01*
X91549010Y-121059053D01*
X91061271Y-121789005D01*
X90890000Y-122650043D01*
X86379294Y-122650043D01*
X85544991Y-122301589D01*
X84470868Y-122298434D01*
X83477302Y-122706568D01*
X83463858Y-122715552D01*
X83293464Y-123152042D01*
X81325000Y-123152042D01*
X81325000Y-106750000D01*
X95350000Y-106750000D01*
X95350000Y-108500000D01*
X95475599Y-109131428D01*
X95721871Y-109500000D01*
X95833274Y-109666726D01*
X100583274Y-114416726D01*
X101118572Y-114774401D01*
X101750000Y-114900000D01*
X120250000Y-114900000D01*
X120881428Y-114774401D01*
X121416726Y-114416726D01*
X125166726Y-110666726D01*
X125524401Y-110131428D01*
X125650000Y-109500000D01*
X125650000Y-93877500D01*
X128235000Y-93877500D01*
X128235000Y-95003967D01*
X128379629Y-95353132D01*
X128646868Y-95620371D01*
X128996033Y-95765000D01*
X130122500Y-95765000D01*
X130360000Y-95527500D01*
X130360000Y-93640000D01*
X128472500Y-93640000D01*
X128235000Y-93877500D01*
X125650000Y-93877500D01*
X125650000Y-88797500D01*
X128235000Y-88797500D01*
X128235000Y-90662500D01*
X128472500Y-90900000D01*
X130300282Y-90900000D01*
X130299694Y-91100000D01*
X128472500Y-91100000D01*
X128235000Y-91337500D01*
X128235000Y-93202500D01*
X128472500Y-93440000D01*
X130360000Y-93440000D01*
X130360000Y-93420000D01*
X130560000Y-93420000D01*
X130560000Y-93440000D01*
X130580000Y-93440000D01*
X130580000Y-93640000D01*
X130560000Y-93640000D01*
X130560000Y-95527500D01*
X130797500Y-95765000D01*
X131923967Y-95765000D01*
X132273132Y-95620371D01*
X132540371Y-95353132D01*
X132685000Y-95003967D01*
X132685000Y-93877500D01*
X132506061Y-93698561D01*
X133491046Y-93701454D01*
X133315000Y-93877500D01*
X133315000Y-95003967D01*
X133459629Y-95353132D01*
X133726868Y-95620371D01*
X134076033Y-95765000D01*
X135202500Y-95765000D01*
X135440000Y-95527500D01*
X135440000Y-93640000D01*
X135420000Y-93640000D01*
X135420000Y-93440000D01*
X135440000Y-93440000D01*
X135440000Y-93420000D01*
X135640000Y-93420000D01*
X135640000Y-93440000D01*
X137527500Y-93440000D01*
X137765000Y-93202500D01*
X137765000Y-91337500D01*
X137527500Y-91100000D01*
X135699718Y-91100000D01*
X135700306Y-90900000D01*
X137527500Y-90900000D01*
X137765000Y-90662500D01*
X137765000Y-88797500D01*
X137527500Y-88560000D01*
X135640000Y-88560000D01*
X135640000Y-88580000D01*
X135440000Y-88580000D01*
X135440000Y-88560000D01*
X135420000Y-88560000D01*
X135420000Y-88360000D01*
X135440000Y-88360000D01*
X135440000Y-86472500D01*
X135640000Y-86472500D01*
X135640000Y-88360000D01*
X137527500Y-88360000D01*
X137765000Y-88122500D01*
X137765000Y-86996033D01*
X137620371Y-86646868D01*
X137353132Y-86379629D01*
X137003967Y-86235000D01*
X135877500Y-86235000D01*
X135640000Y-86472500D01*
X135440000Y-86472500D01*
X135202500Y-86235000D01*
X134076033Y-86235000D01*
X133726868Y-86379629D01*
X133459629Y-86646868D01*
X133315000Y-86996033D01*
X133315000Y-88122500D01*
X133493939Y-88301439D01*
X132508954Y-88298546D01*
X132685000Y-88122500D01*
X132685000Y-86996033D01*
X132540371Y-86646868D01*
X132273132Y-86379629D01*
X131923967Y-86235000D01*
X130797500Y-86235000D01*
X130560000Y-86472500D01*
X130560000Y-88360000D01*
X130580000Y-88360000D01*
X130580000Y-88560000D01*
X130560000Y-88560000D01*
X130560000Y-88580000D01*
X130360000Y-88580000D01*
X130360000Y-88560000D01*
X128472500Y-88560000D01*
X128235000Y-88797500D01*
X125650000Y-88797500D01*
X125650000Y-88683452D01*
X127337419Y-86996033D01*
X128235000Y-86996033D01*
X128235000Y-88122500D01*
X128472500Y-88360000D01*
X130360000Y-88360000D01*
X130360000Y-86472500D01*
X130122500Y-86235000D01*
X128996033Y-86235000D01*
X128646868Y-86379629D01*
X128379629Y-86646868D01*
X128235000Y-86996033D01*
X127337419Y-86996033D01*
X128183453Y-86150000D01*
X137250000Y-86150000D01*
X137881428Y-86024401D01*
X138416726Y-85666726D01*
X138774401Y-85131428D01*
X138900000Y-84500000D01*
X138774401Y-83868572D01*
X138416726Y-83333274D01*
X138145494Y-83152042D01*
X173293464Y-83152042D01*
X175000000Y-84858579D01*
X176706536Y-83152042D01*
X176536142Y-82715552D01*
X175544991Y-82301589D01*
X174470868Y-82298434D01*
X173477302Y-82706568D01*
X173463858Y-82715552D01*
X173293464Y-83152042D01*
X138145494Y-83152042D01*
X137881428Y-82975599D01*
X137250000Y-82850000D01*
X127500000Y-82850000D01*
X126868572Y-82975599D01*
X126333273Y-83333274D01*
X122833274Y-86833274D01*
X122475599Y-87368572D01*
X122350000Y-88000000D01*
X122350000Y-108816548D01*
X119566548Y-111600000D01*
X102433452Y-111600000D01*
X98650000Y-107816548D01*
X98650000Y-106750000D01*
X98524401Y-106118572D01*
X98166726Y-105583274D01*
X97631428Y-105225599D01*
X97000000Y-105100000D01*
X96368572Y-105225599D01*
X95833274Y-105583274D01*
X95475599Y-106118572D01*
X95350000Y-106750000D01*
X81325000Y-106750000D01*
X81325000Y-86847958D01*
X83293464Y-86847958D01*
X83463858Y-87284448D01*
X84455009Y-87698411D01*
X85529132Y-87701566D01*
X86522698Y-87293432D01*
X86536142Y-87284448D01*
X86574963Y-87185000D01*
X91910512Y-87185000D01*
X91910512Y-94815000D01*
X91997673Y-95278222D01*
X92271437Y-95703663D01*
X92689153Y-95989076D01*
X93185000Y-96089488D01*
X95735000Y-96089488D01*
X96198222Y-96002327D01*
X96623663Y-95728563D01*
X96752503Y-95540000D01*
X97246123Y-95540000D01*
X97351437Y-95703663D01*
X97769153Y-95989076D01*
X98265000Y-96089488D01*
X100815000Y-96089488D01*
X101278222Y-96002327D01*
X101703663Y-95728563D01*
X101989076Y-95310847D01*
X102089488Y-94815000D01*
X102089488Y-87185000D01*
X109910512Y-87185000D01*
X109910512Y-94815000D01*
X109997673Y-95278222D01*
X110271437Y-95703663D01*
X110689153Y-95989076D01*
X111185000Y-96089488D01*
X113735000Y-96089488D01*
X114198222Y-96002327D01*
X114623663Y-95728563D01*
X114752503Y-95540000D01*
X115246123Y-95540000D01*
X115351437Y-95703663D01*
X115769153Y-95989076D01*
X116265000Y-96089488D01*
X118815000Y-96089488D01*
X119278222Y-96002327D01*
X119703663Y-95728563D01*
X119989076Y-95310847D01*
X120089488Y-94815000D01*
X120089488Y-87185000D01*
X120002327Y-86721778D01*
X119728563Y-86296337D01*
X119310847Y-86010924D01*
X118815000Y-85910512D01*
X116265000Y-85910512D01*
X115801778Y-85997673D01*
X115376337Y-86271437D01*
X115247497Y-86460000D01*
X114753877Y-86460000D01*
X114648563Y-86296337D01*
X114230847Y-86010924D01*
X113735000Y-85910512D01*
X111185000Y-85910512D01*
X110721778Y-85997673D01*
X110296337Y-86271437D01*
X110010924Y-86689153D01*
X109910512Y-87185000D01*
X102089488Y-87185000D01*
X102002327Y-86721778D01*
X101728563Y-86296337D01*
X101310847Y-86010924D01*
X100815000Y-85910512D01*
X98265000Y-85910512D01*
X97801778Y-85997673D01*
X97376337Y-86271437D01*
X97247497Y-86460000D01*
X96753877Y-86460000D01*
X96648563Y-86296337D01*
X96230847Y-86010924D01*
X95735000Y-85910512D01*
X93185000Y-85910512D01*
X92721778Y-85997673D01*
X92296337Y-86271437D01*
X92010924Y-86689153D01*
X91910512Y-87185000D01*
X86574963Y-87185000D01*
X86706536Y-86847958D01*
X85000000Y-85141421D01*
X83293464Y-86847958D01*
X81325000Y-86847958D01*
X81325000Y-85529132D01*
X82298434Y-85529132D01*
X82706568Y-86522698D01*
X82715552Y-86536142D01*
X83152042Y-86706536D01*
X84858579Y-85000000D01*
X85141421Y-85000000D01*
X86847958Y-86706536D01*
X87284448Y-86536142D01*
X87698411Y-85544991D01*
X87701566Y-84470868D01*
X87293432Y-83477302D01*
X87284448Y-83463858D01*
X86847958Y-83293464D01*
X85141421Y-85000000D01*
X84858579Y-85000000D01*
X83152042Y-83293464D01*
X82715552Y-83463858D01*
X82301589Y-84455009D01*
X82298434Y-85529132D01*
X81325000Y-85529132D01*
X81325000Y-83152042D01*
X83293464Y-83152042D01*
X85000000Y-84858579D01*
X86706536Y-83152042D01*
X86536142Y-82715552D01*
X85544991Y-82301589D01*
X84470868Y-82298434D01*
X83477302Y-82706568D01*
X83463858Y-82715552D01*
X83293464Y-83152042D01*
X81325000Y-83152042D01*
X81325000Y-81325000D01*
X178675000Y-81325000D01*
X178675000Y-128675000D01*
G36*
X133155564Y-90985858D02*
X133141421Y-91000000D01*
X133155564Y-91014142D01*
X133014143Y-91155564D01*
X133000000Y-91141421D01*
X132985858Y-91155564D01*
X132844436Y-91014142D01*
X132858579Y-91000000D01*
X132844436Y-90985858D01*
X132985858Y-90844437D01*
X133000000Y-90858579D01*
X133014143Y-90844437D01*
X133155564Y-90985858D01*
X133155564Y-90985858D01*
G37*
X133155564Y-90985858D02*
X133141421Y-91000000D01*
X133155564Y-91014142D01*
X133014143Y-91155564D01*
X133000000Y-91141421D01*
X132985858Y-91155564D01*
X132844436Y-91014142D01*
X132858579Y-91000000D01*
X132844436Y-90985858D01*
X132985858Y-90844437D01*
X133000000Y-90858579D01*
X133014143Y-90844437D01*
X133155564Y-90985858D01*
M02*
