G04 #@! TF.FileFunction,Copper,L1,Top,Signal*
%FSLAX46Y46*%
G04 Gerber Fmt 4.6, Leading zero omitted, Abs format (unit mm)*
G04 Created by KiCad (PCBNEW 4.0.7) date 03/03/18 23:13:13*
%MOMM*%
%LPD*%
G01*
G04 APERTURE LIST*
%ADD10C,0.100000*%
%ADD11C,0.600000*%
%ADD12R,1.750000X0.550000*%
%ADD13R,1.300000X1.500000*%
%ADD14R,1.500000X1.300000*%
%ADD15R,0.800000X0.900000*%
%ADD16R,2.000000X2.600000*%
%ADD17O,2.000000X2.600000*%
%ADD18R,2.000000X1.700000*%
%ADD19R,2.300000X3.500000*%
%ADD20R,2.500000X3.750000*%
%ADD21R,2.000000X3.800000*%
%ADD22R,2.000000X1.500000*%
%ADD23R,3.800000X2.000000*%
%ADD24R,1.500000X2.000000*%
%ADD25R,3.750000X2.500000*%
%ADD26R,2.550000X2.550000*%
%ADD27C,3.500000*%
%ADD28R,0.550000X1.750000*%
%ADD29R,1.400000X4.000000*%
%ADD30R,1.500000X4.000000*%
%ADD31R,1.500000X1.250000*%
%ADD32R,1.250000X1.500000*%
%ADD33C,1.998980*%
%ADD34C,2.499360*%
%ADD35C,0.800000*%
%ADD36C,0.500000*%
%ADD37C,0.250000*%
%ADD38C,1.000000*%
%ADD39C,1.500000*%
%ADD40C,0.600000*%
%ADD41C,1.778000*%
G04 APERTURE END LIST*
D10*
D11*
X159000000Y-128000000D03*
X158000000Y-128000000D03*
X157000000Y-128000000D03*
X156000000Y-128000000D03*
X155000000Y-128000000D03*
X154000000Y-128000000D03*
X153000000Y-128000000D03*
X152000000Y-128000000D03*
X159000000Y-127000000D03*
X158000000Y-127000000D03*
X157000000Y-127000000D03*
X156000000Y-127000000D03*
X155000000Y-127000000D03*
X154000000Y-127000000D03*
X153000000Y-127000000D03*
X152000000Y-127000000D03*
X159000000Y-126000000D03*
X158000000Y-126000000D03*
X157000000Y-126000000D03*
X156000000Y-126000000D03*
X155000000Y-126000000D03*
X154000000Y-126000000D03*
X153000000Y-126000000D03*
X83000000Y-121000000D03*
X82000000Y-121000000D03*
X83000000Y-120000000D03*
X82000000Y-120000000D03*
X83000000Y-119000000D03*
X82000000Y-119000000D03*
X83000000Y-118000000D03*
X82000000Y-118000000D03*
X83000000Y-117000000D03*
X82000000Y-117000000D03*
X83000000Y-116000000D03*
X82000000Y-116000000D03*
X83000000Y-115000000D03*
X82000000Y-115000000D03*
X83000000Y-114000000D03*
X82000000Y-114000000D03*
X83000000Y-113000000D03*
X82000000Y-113000000D03*
X83000000Y-112000000D03*
X82000000Y-112000000D03*
X83000000Y-111000000D03*
X82000000Y-111000000D03*
X83000000Y-110000000D03*
X82000000Y-110000000D03*
X83000000Y-109000000D03*
X82000000Y-109000000D03*
X83000000Y-108000000D03*
X82000000Y-108000000D03*
X83000000Y-107000000D03*
X82000000Y-107000000D03*
X83000000Y-106000000D03*
X82000000Y-106000000D03*
X83000000Y-105000000D03*
X82000000Y-105000000D03*
X83000000Y-104000000D03*
X82000000Y-104000000D03*
X83000000Y-103000000D03*
X82000000Y-103000000D03*
X83000000Y-102000000D03*
X82000000Y-102000000D03*
X83000000Y-101000000D03*
X82000000Y-101000000D03*
X83000000Y-100000000D03*
X82000000Y-100000000D03*
X83000000Y-99000000D03*
X82000000Y-99000000D03*
X83000000Y-98000000D03*
X82000000Y-98000000D03*
X83000000Y-97000000D03*
X82000000Y-97000000D03*
X83000000Y-96000000D03*
X82000000Y-96000000D03*
X83000000Y-95000000D03*
X82000000Y-95000000D03*
X83000000Y-94000000D03*
X82000000Y-94000000D03*
X83000000Y-93000000D03*
X82000000Y-93000000D03*
X83000000Y-92000000D03*
X82000000Y-92000000D03*
X83000000Y-91000000D03*
X82000000Y-91000000D03*
X83000000Y-90000000D03*
X82000000Y-90000000D03*
X83000000Y-89000000D03*
X152000000Y-126000000D03*
X82000000Y-89000000D03*
X178000000Y-121000000D03*
X178000000Y-120000000D03*
X178000000Y-119000000D03*
X178000000Y-118000000D03*
X178000000Y-117000000D03*
X178000000Y-116000000D03*
X178000000Y-115000000D03*
X178000000Y-114000000D03*
X178000000Y-113000000D03*
X178000000Y-112000000D03*
X178000000Y-111000000D03*
X178000000Y-110000000D03*
X178000000Y-109000000D03*
X178000000Y-108000000D03*
X178000000Y-107000000D03*
X178000000Y-106000000D03*
X178000000Y-105000000D03*
X178000000Y-104000000D03*
X178000000Y-103000000D03*
X178000000Y-102000000D03*
X178000000Y-101000000D03*
X178000000Y-100000000D03*
X178000000Y-99000000D03*
X178000000Y-98000000D03*
X178000000Y-97000000D03*
X178000000Y-96000000D03*
X178000000Y-95000000D03*
X178000000Y-94000000D03*
X178000000Y-93000000D03*
X178000000Y-92000000D03*
X178000000Y-91000000D03*
X178000000Y-90000000D03*
X142000000Y-128000000D03*
X141000000Y-128000000D03*
X140000000Y-128000000D03*
X139000000Y-128000000D03*
X138000000Y-128000000D03*
X137000000Y-128000000D03*
X136000000Y-128000000D03*
X135000000Y-128000000D03*
X134000000Y-128000000D03*
X133000000Y-128000000D03*
X132000000Y-128000000D03*
X131000000Y-128000000D03*
X130000000Y-128000000D03*
X129000000Y-128000000D03*
X128000000Y-128000000D03*
X127000000Y-128000000D03*
X126000000Y-128000000D03*
X125000000Y-128000000D03*
X124000000Y-128000000D03*
X123000000Y-128000000D03*
X122000000Y-128000000D03*
X121000000Y-128000000D03*
X120000000Y-128000000D03*
X119000000Y-128000000D03*
X118000000Y-128000000D03*
X117000000Y-128000000D03*
X116000000Y-128000000D03*
X115000000Y-128000000D03*
X114000000Y-128000000D03*
X113000000Y-128000000D03*
X112000000Y-128000000D03*
X111000000Y-128000000D03*
X110000000Y-128000000D03*
X109000000Y-128000000D03*
X108000000Y-128000000D03*
X107000000Y-128000000D03*
X106000000Y-128000000D03*
X105000000Y-128000000D03*
X104000000Y-128000000D03*
X103000000Y-128000000D03*
X102000000Y-128000000D03*
X101000000Y-128000000D03*
X100000000Y-128000000D03*
X99000000Y-128000000D03*
X98000000Y-128000000D03*
X97000000Y-128000000D03*
X96000000Y-128000000D03*
X95000000Y-128000000D03*
X94000000Y-128000000D03*
X93000000Y-128000000D03*
X92000000Y-128000000D03*
X91000000Y-128000000D03*
X90000000Y-128000000D03*
X89000000Y-128000000D03*
X178000000Y-89000000D03*
X170000000Y-82000000D03*
X169000000Y-82000000D03*
X168000000Y-82000000D03*
X167000000Y-82000000D03*
X166000000Y-82000000D03*
X165000000Y-82000000D03*
X164000000Y-82000000D03*
X163000000Y-82000000D03*
X162000000Y-82000000D03*
X161000000Y-82000000D03*
X160000000Y-82000000D03*
X159000000Y-82000000D03*
X158000000Y-82000000D03*
X157000000Y-82000000D03*
X156000000Y-82000000D03*
X155000000Y-82000000D03*
X154000000Y-82000000D03*
X153000000Y-82000000D03*
X152000000Y-82000000D03*
X151000000Y-82000000D03*
X150000000Y-82000000D03*
X149000000Y-82000000D03*
X148000000Y-82000000D03*
X147000000Y-82000000D03*
X146000000Y-82000000D03*
X145000000Y-82000000D03*
X144000000Y-82000000D03*
X143000000Y-82000000D03*
X142000000Y-82000000D03*
X141000000Y-82000000D03*
X140000000Y-82000000D03*
X139000000Y-82000000D03*
X138000000Y-82000000D03*
X137000000Y-82000000D03*
X136000000Y-82000000D03*
X135000000Y-82000000D03*
X134000000Y-82000000D03*
X133000000Y-82000000D03*
X132000000Y-82000000D03*
X131000000Y-82000000D03*
X130000000Y-82000000D03*
X129000000Y-82000000D03*
X128000000Y-82000000D03*
X127000000Y-82000000D03*
X126000000Y-82000000D03*
X125000000Y-82000000D03*
X124000000Y-82000000D03*
X123000000Y-82000000D03*
X122000000Y-82000000D03*
X121000000Y-82000000D03*
X120000000Y-82000000D03*
X119000000Y-82000000D03*
X118000000Y-82000000D03*
X117000000Y-82000000D03*
X116000000Y-82000000D03*
X115000000Y-82000000D03*
X114000000Y-82000000D03*
X113000000Y-82000000D03*
X112000000Y-82000000D03*
X111000000Y-82000000D03*
X110000000Y-82000000D03*
X109000000Y-82000000D03*
X108000000Y-82000000D03*
X107000000Y-82000000D03*
X106000000Y-82000000D03*
X105000000Y-82000000D03*
X104000000Y-82000000D03*
X103000000Y-82000000D03*
X102000000Y-82000000D03*
X101000000Y-82000000D03*
X100000000Y-82000000D03*
X99000000Y-82000000D03*
X98000000Y-82000000D03*
X97000000Y-82000000D03*
X96000000Y-82000000D03*
X95000000Y-82000000D03*
X94000000Y-82000000D03*
X93000000Y-82000000D03*
X92000000Y-82000000D03*
X91000000Y-82000000D03*
X90000000Y-82000000D03*
D12*
X160800000Y-103595000D03*
X160800000Y-104865000D03*
X160800000Y-106135000D03*
X160800000Y-107405000D03*
X168200000Y-107405000D03*
X168200000Y-106135000D03*
X168200000Y-104865000D03*
X168200000Y-103595000D03*
D13*
X87000000Y-112650000D03*
X87000000Y-115350000D03*
D14*
X147150000Y-102000000D03*
X149850000Y-102000000D03*
D15*
X147050000Y-112500000D03*
X148950000Y-112500000D03*
X148000000Y-110500000D03*
X156950000Y-104000000D03*
X155050000Y-104000000D03*
X156000000Y-106000000D03*
X168050000Y-116000000D03*
X169950000Y-116000000D03*
X169000000Y-114000000D03*
X174950000Y-108000000D03*
X173050000Y-108000000D03*
X174000000Y-110000000D03*
D13*
X144000000Y-86850000D03*
X144000000Y-84150000D03*
X99000000Y-106850000D03*
X99000000Y-104150000D03*
D16*
X148500000Y-87000000D03*
D17*
X151040000Y-87000000D03*
X153580000Y-87000000D03*
D16*
X116000000Y-123000000D03*
D17*
X113460000Y-123000000D03*
X110920000Y-123000000D03*
X108380000Y-123000000D03*
X105840000Y-123000000D03*
X103300000Y-123000000D03*
X100760000Y-123000000D03*
X98220000Y-123000000D03*
X95680000Y-123000000D03*
X93140000Y-123000000D03*
D16*
X136000000Y-123000000D03*
D17*
X133460000Y-123000000D03*
X130920000Y-123000000D03*
X128380000Y-123000000D03*
X125840000Y-123000000D03*
D13*
X160000000Y-87650000D03*
X160000000Y-90350000D03*
D14*
X124650000Y-106000000D03*
X127350000Y-106000000D03*
X118650000Y-106000000D03*
X121350000Y-106000000D03*
D13*
X86000000Y-101350000D03*
X86000000Y-98650000D03*
X99000000Y-114900000D03*
X99000000Y-117600000D03*
D18*
X149500000Y-115500000D03*
X153500000Y-115500000D03*
D14*
X149850000Y-108000000D03*
X147150000Y-108000000D03*
X154150000Y-108500000D03*
X156850000Y-108500000D03*
X156850000Y-101000000D03*
X154150000Y-101000000D03*
X156850000Y-94000000D03*
X154150000Y-94000000D03*
D18*
X144500000Y-119000000D03*
X140500000Y-119000000D03*
X166500000Y-119000000D03*
X170500000Y-119000000D03*
D13*
X164000000Y-111650000D03*
X164000000Y-114350000D03*
D14*
X167650000Y-111500000D03*
X170350000Y-111500000D03*
X173150000Y-105000000D03*
X175850000Y-105000000D03*
X175850000Y-99000000D03*
X173150000Y-99000000D03*
D13*
X161000000Y-114350000D03*
X161000000Y-111650000D03*
D19*
X127000000Y-111300000D03*
X127000000Y-116700000D03*
D13*
X112500000Y-105650000D03*
X112500000Y-108350000D03*
D14*
X159900000Y-99000000D03*
X162600000Y-99000000D03*
X175850000Y-113000000D03*
X173150000Y-113000000D03*
D20*
X104267000Y-110286000D03*
X104267000Y-116536000D03*
X133500000Y-102875000D03*
X133500000Y-109125000D03*
D13*
X99000000Y-109650000D03*
X99000000Y-112350000D03*
D18*
X149500000Y-119000000D03*
X153500000Y-119000000D03*
X144500000Y-115500000D03*
X140500000Y-115500000D03*
D14*
X147150000Y-99000000D03*
X149850000Y-99000000D03*
D18*
X161500000Y-119000000D03*
X157500000Y-119000000D03*
D12*
X87300000Y-104095000D03*
X87300000Y-105365000D03*
X87300000Y-106635000D03*
X87300000Y-107905000D03*
X94700000Y-107905000D03*
X94700000Y-106635000D03*
X94700000Y-105365000D03*
X94700000Y-104095000D03*
D21*
X109850000Y-115000000D03*
D22*
X116150000Y-115000000D03*
X116150000Y-112700000D03*
X116150000Y-117300000D03*
D23*
X141000000Y-105150000D03*
D24*
X141000000Y-98850000D03*
X138700000Y-98850000D03*
X143300000Y-98850000D03*
D21*
X119532000Y-99822000D03*
D22*
X125832000Y-99822000D03*
X125832000Y-97522000D03*
X125832000Y-102122000D03*
D25*
X140875000Y-94500000D03*
X147125000Y-94500000D03*
D20*
X123698000Y-92660000D03*
X123698000Y-86410000D03*
X121000000Y-110875000D03*
X121000000Y-117125000D03*
D26*
X99540000Y-88460000D03*
X99540000Y-91000000D03*
X99540000Y-93540000D03*
X94460000Y-88460000D03*
X94460000Y-91000000D03*
X94460000Y-93540000D03*
D27*
X97000000Y-91000000D03*
D26*
X117540000Y-88460000D03*
X117540000Y-91000000D03*
X117540000Y-93540000D03*
X112460000Y-88460000D03*
X112460000Y-91000000D03*
X112460000Y-93540000D03*
D27*
X115000000Y-91000000D03*
D26*
X135540000Y-88460000D03*
X135540000Y-91000000D03*
X135540000Y-93540000D03*
X130460000Y-88460000D03*
X130460000Y-91000000D03*
X130460000Y-93540000D03*
D27*
X133000000Y-91000000D03*
D14*
X109350000Y-106000000D03*
X106650000Y-106000000D03*
X156850000Y-97500000D03*
X154150000Y-97500000D03*
X141150000Y-111500000D03*
X143850000Y-111500000D03*
X147150000Y-105000000D03*
X149850000Y-105000000D03*
X175850000Y-116000000D03*
X173150000Y-116000000D03*
X154150000Y-111500000D03*
X156850000Y-111500000D03*
X175850000Y-102000000D03*
X173150000Y-102000000D03*
D28*
X107950000Y-95106000D03*
X106680000Y-95106000D03*
X105410000Y-95106000D03*
X104140000Y-95106000D03*
X104140000Y-102506000D03*
X105410000Y-102506000D03*
X106680000Y-102506000D03*
X107950000Y-102506000D03*
D14*
X158150000Y-84000000D03*
X160850000Y-84000000D03*
D13*
X160000000Y-95850000D03*
X160000000Y-93150000D03*
X172000000Y-95850000D03*
X172000000Y-93150000D03*
D28*
X164095000Y-94700000D03*
X165365000Y-94700000D03*
X166635000Y-94700000D03*
X167905000Y-94700000D03*
X167905000Y-87300000D03*
X166635000Y-87300000D03*
X165365000Y-87300000D03*
X164095000Y-87300000D03*
D29*
X147000000Y-127000000D03*
D30*
X149540000Y-127000000D03*
X144460000Y-127000000D03*
D29*
X164000000Y-127000000D03*
D30*
X166540000Y-127000000D03*
X161460000Y-127000000D03*
D11*
X89000000Y-82000000D03*
D31*
X164750000Y-84000000D03*
X167250000Y-84000000D03*
D32*
X140500000Y-85250000D03*
X140500000Y-87750000D03*
D31*
X130750000Y-98000000D03*
X133250000Y-98000000D03*
D32*
X96500000Y-100250000D03*
X96500000Y-97750000D03*
X90000000Y-112750000D03*
X90000000Y-115250000D03*
X116000000Y-101750000D03*
X116000000Y-99250000D03*
X96000000Y-114000000D03*
X96000000Y-116500000D03*
X100000000Y-100250000D03*
X100000000Y-97750000D03*
X112500000Y-99250000D03*
X112500000Y-101750000D03*
D31*
X166750000Y-99000000D03*
X169250000Y-99000000D03*
X132750000Y-116000000D03*
X135250000Y-116000000D03*
D33*
X147000000Y-125000000D03*
D34*
X149540000Y-122460000D03*
X149540000Y-127540000D03*
X144460000Y-127540000D03*
X144460000Y-122460000D03*
D33*
X164000000Y-125000000D03*
D34*
X166540000Y-122460000D03*
X166540000Y-127540000D03*
X161460000Y-127540000D03*
X161460000Y-122460000D03*
D11*
X137250000Y-84500000D03*
X97000000Y-106750000D03*
X113000000Y-113250000D03*
X90000000Y-110000000D03*
X89000000Y-110000000D03*
X88000000Y-110000000D03*
X87000000Y-110000000D03*
X87000000Y-109000000D03*
X88000000Y-109000000D03*
X89000000Y-109000000D03*
X90000000Y-109000000D03*
X90000000Y-108000000D03*
X89000000Y-108000000D03*
X126000000Y-107500000D03*
X127000000Y-107500000D03*
X128000000Y-107500000D03*
X128000000Y-103000000D03*
X128000000Y-104000000D03*
X167000000Y-101000000D03*
X168000000Y-101000000D03*
X169000000Y-101000000D03*
X171000000Y-104000000D03*
X171000000Y-103000000D03*
X171000000Y-102000000D03*
X171000000Y-101000000D03*
X170000000Y-101000000D03*
X107000000Y-108000000D03*
X108000000Y-108000000D03*
X109000000Y-108000000D03*
X110000000Y-108000000D03*
X111000000Y-98000000D03*
X110000000Y-98000000D03*
X109000000Y-98000000D03*
X108000000Y-98000000D03*
X107000000Y-98000000D03*
X106000000Y-98000000D03*
X105000000Y-98000000D03*
X104000000Y-98000000D03*
X103000000Y-98000000D03*
X102000000Y-98000000D03*
X88000000Y-97000000D03*
X89000000Y-97000000D03*
X90000000Y-97000000D03*
X91000000Y-97000000D03*
X92000000Y-97000000D03*
X93000000Y-97000000D03*
X94000000Y-97000000D03*
X95000000Y-97000000D03*
X138000000Y-125000000D03*
X138000000Y-124000000D03*
X138000000Y-123000000D03*
X138000000Y-122000000D03*
X138000000Y-121000000D03*
X138000000Y-120000000D03*
X138000000Y-119000000D03*
X138000000Y-118000000D03*
X138000000Y-117000000D03*
X138000000Y-116000000D03*
X138000000Y-115000000D03*
X138000000Y-114000000D03*
X138000000Y-113000000D03*
X138000000Y-112000000D03*
X138000000Y-111000000D03*
X138000000Y-110000000D03*
X138000000Y-109000000D03*
X138000000Y-108000000D03*
X159000000Y-109000000D03*
X160000000Y-109000000D03*
X161000000Y-109000000D03*
X162000000Y-109000000D03*
X163000000Y-109000000D03*
X164000000Y-109000000D03*
X165000000Y-109000000D03*
X166000000Y-109000000D03*
X167000000Y-109000000D03*
X168000000Y-109000000D03*
X130000000Y-100000000D03*
X130000000Y-101000000D03*
X130000000Y-103000000D03*
X130000000Y-104000000D03*
X143256000Y-101346000D03*
X159893000Y-101219000D03*
X157000000Y-92000000D03*
X175750000Y-96750000D03*
X157000000Y-89500000D03*
D35*
X140500000Y-84500000D02*
X137250000Y-84500000D01*
X99000000Y-106850000D02*
X97100000Y-106850000D01*
X97100000Y-106850000D02*
X97000000Y-106750000D01*
X113000000Y-113250000D02*
X113000000Y-115000000D01*
D36*
X112500000Y-108350000D02*
X112500000Y-109500000D01*
X112500000Y-109500000D02*
X109850000Y-112150000D01*
D35*
X104267000Y-110286000D02*
X108286000Y-110286000D01*
X109850000Y-111850000D02*
X109850000Y-112150000D01*
X109850000Y-112150000D02*
X109850000Y-115000000D01*
X108286000Y-110286000D02*
X109850000Y-111850000D01*
D36*
X144000000Y-84150000D02*
X140850000Y-84150000D01*
X140850000Y-84150000D02*
X140500000Y-84500000D01*
X143650000Y-84500000D02*
X144000000Y-84150000D01*
X158150000Y-84000000D02*
X144150000Y-84000000D01*
X144150000Y-84000000D02*
X144000000Y-84150000D01*
X99000000Y-106770000D02*
X99000000Y-106850000D01*
D35*
X109850000Y-115000000D02*
X113000000Y-115000000D01*
X113000000Y-115000000D02*
X116150000Y-115000000D01*
X109698000Y-114848000D02*
X109850000Y-115000000D01*
D37*
X87300000Y-107905000D02*
X88905000Y-107905000D01*
X88000000Y-110000000D02*
X89000000Y-110000000D01*
X87000000Y-109000000D02*
X87000000Y-110000000D01*
X89000000Y-109000000D02*
X88000000Y-109000000D01*
X90000000Y-108000000D02*
X90000000Y-109000000D01*
X88905000Y-107905000D02*
X89000000Y-108000000D01*
D35*
X87000000Y-115350000D02*
X89350000Y-115350000D01*
X89350000Y-115350000D02*
X90000000Y-116000000D01*
D38*
X105840000Y-123000000D02*
X105840000Y-118109000D01*
X105840000Y-118109000D02*
X104267000Y-116536000D01*
X99000000Y-117600000D02*
X103203000Y-117600000D01*
X103203000Y-117600000D02*
X104267000Y-116536000D01*
X96000000Y-117250000D02*
X98650000Y-117250000D01*
X98650000Y-117250000D02*
X99000000Y-117600000D01*
D37*
X128000000Y-107500000D02*
X127000000Y-107500000D01*
X127350000Y-106000000D02*
X127350000Y-106850000D01*
X127350000Y-106850000D02*
X128000000Y-107500000D01*
X128000000Y-104000000D02*
X128000000Y-103000000D01*
X127350000Y-106000000D02*
X127350000Y-104650000D01*
X127350000Y-104650000D02*
X128000000Y-104000000D01*
D38*
X140500000Y-119000000D02*
X138000000Y-119000000D01*
X141150000Y-111500000D02*
X138500000Y-111500000D01*
X138500000Y-111500000D02*
X138000000Y-111000000D01*
X138000000Y-116000000D02*
X140000000Y-116000000D01*
X140000000Y-116000000D02*
X140500000Y-115500000D01*
X136000000Y-116000000D02*
X138000000Y-116000000D01*
D37*
X104140000Y-102506000D02*
X104140000Y-98140000D01*
X104140000Y-98140000D02*
X104000000Y-98000000D01*
X169000000Y-101000000D02*
X168000000Y-101000000D01*
X170000000Y-99000000D02*
X170000000Y-101000000D01*
X171000000Y-103000000D02*
X171000000Y-104000000D01*
X171000000Y-101000000D02*
X171000000Y-102000000D01*
X109350000Y-106000000D02*
X109350000Y-107350000D01*
X109000000Y-108000000D02*
X108000000Y-108000000D01*
X109350000Y-107350000D02*
X110000000Y-108000000D01*
X96500000Y-97000000D02*
X100000000Y-97000000D01*
X100000000Y-97000000D02*
X101000000Y-98000000D01*
X111500000Y-98500000D02*
X112500000Y-98500000D01*
X111000000Y-98000000D02*
X111500000Y-98500000D01*
X109000000Y-98000000D02*
X110000000Y-98000000D01*
X107000000Y-98000000D02*
X108000000Y-98000000D01*
X105000000Y-98000000D02*
X106000000Y-98000000D01*
X103000000Y-98000000D02*
X104000000Y-98000000D01*
X101000000Y-98000000D02*
X102000000Y-98000000D01*
X96500000Y-97000000D02*
X95000000Y-97000000D01*
X90000000Y-97000000D02*
X89000000Y-97000000D01*
X92000000Y-97000000D02*
X91000000Y-97000000D01*
X94000000Y-97000000D02*
X93000000Y-97000000D01*
X127350000Y-106000000D02*
X127350000Y-105650000D01*
D39*
X135540000Y-93540000D02*
X135540000Y-95540000D01*
X135540000Y-95540000D02*
X136000000Y-96000000D01*
X130460000Y-93540000D02*
X128540000Y-93540000D01*
X128540000Y-93540000D02*
X128000000Y-93000000D01*
X130460000Y-91000000D02*
X127000000Y-91000000D01*
X135540000Y-91000000D02*
X138000000Y-91000000D01*
X135540000Y-88460000D02*
X137460000Y-88460000D01*
X137460000Y-88460000D02*
X138000000Y-89000000D01*
X130460000Y-88460000D02*
X127540000Y-88460000D01*
X127540000Y-88460000D02*
X127000000Y-89000000D01*
X135540000Y-88460000D02*
X135540000Y-85540000D01*
X135540000Y-85540000D02*
X135000000Y-85000000D01*
X130460000Y-88460000D02*
X130460000Y-85460000D01*
X130460000Y-85460000D02*
X130000000Y-85000000D01*
X130460000Y-93540000D02*
X135540000Y-93540000D01*
X130460000Y-91000000D02*
X135540000Y-91000000D01*
D38*
X166540000Y-122460000D02*
X166540000Y-127540000D01*
X161460000Y-122460000D02*
X161460000Y-127540000D01*
X144460000Y-122460000D02*
X144460000Y-127540000D01*
X149540000Y-122460000D02*
X149540000Y-127540000D01*
D37*
X137000000Y-108000000D02*
X138000000Y-108000000D01*
X135875000Y-109125000D02*
X137000000Y-108000000D01*
X133500000Y-109125000D02*
X135875000Y-109125000D01*
X138000000Y-123000000D02*
X138000000Y-124000000D01*
X138000000Y-121000000D02*
X138000000Y-122000000D01*
X138000000Y-119000000D02*
X138000000Y-120000000D01*
X138000000Y-117000000D02*
X138000000Y-118000000D01*
X138000000Y-115000000D02*
X138000000Y-116000000D01*
X138000000Y-113000000D02*
X138000000Y-114000000D01*
X138000000Y-111000000D02*
X138000000Y-112000000D01*
X138000000Y-109000000D02*
X138000000Y-110000000D01*
X160800000Y-107405000D02*
X160595000Y-107405000D01*
X160595000Y-107405000D02*
X159000000Y-109000000D01*
X160000000Y-109000000D02*
X161000000Y-109000000D01*
X162000000Y-109000000D02*
X163000000Y-109000000D01*
X164000000Y-109000000D02*
X165000000Y-109000000D01*
X166000000Y-109000000D02*
X167000000Y-109000000D01*
D36*
X172000000Y-93150000D02*
X167905000Y-93150000D01*
X173150000Y-102000000D02*
X173150000Y-99000000D01*
X173103000Y-99047000D02*
X173150000Y-99000000D01*
X167905000Y-87300000D02*
X167905000Y-93150000D01*
X167905000Y-93150000D02*
X167905000Y-94700000D01*
X167905000Y-87300000D02*
X167905000Y-84095000D01*
X167905000Y-84095000D02*
X168000000Y-84000000D01*
X167905000Y-84095000D02*
X168000000Y-84000000D01*
D35*
X127000000Y-119000000D02*
X125500000Y-120500000D01*
X125500000Y-120500000D02*
X118500000Y-120500000D01*
X118500000Y-120500000D02*
X116000000Y-123000000D01*
X128380000Y-123000000D02*
X128380000Y-120380000D01*
X128380000Y-120380000D02*
X127000000Y-119000000D01*
D38*
X132000000Y-116000000D02*
X127300000Y-116000000D01*
X127300000Y-116000000D02*
X127000000Y-115700000D01*
D35*
X127000000Y-115700000D02*
X127000000Y-119000000D01*
X130000000Y-98000000D02*
X130000000Y-100000000D01*
X130000000Y-100000000D02*
X130000000Y-101000000D01*
X130000000Y-104000000D02*
X130000000Y-108000000D01*
X130000000Y-108000000D02*
X127000000Y-111000000D01*
X127000000Y-111000000D02*
X127000000Y-110300000D01*
X130000000Y-103000000D02*
X130000000Y-104000000D01*
X125832000Y-97522000D02*
X129522000Y-97522000D01*
X129522000Y-97522000D02*
X130000000Y-98000000D01*
X129986000Y-97986000D02*
X130000000Y-98000000D01*
X125832000Y-97522000D02*
X125832000Y-94794000D01*
X125832000Y-94794000D02*
X123698000Y-92660000D01*
X125832000Y-99822000D02*
X126010000Y-100000000D01*
X126010000Y-100000000D02*
X127000000Y-100000000D01*
X127000000Y-100000000D02*
X129000000Y-102000000D01*
X129000000Y-102000000D02*
X133250000Y-102000000D01*
X133250000Y-102000000D02*
X133500000Y-102250000D01*
X133500000Y-102250000D02*
X133500000Y-102875000D01*
X116000000Y-102500000D02*
X118500000Y-102500000D01*
X118500000Y-102500000D02*
X119532000Y-101468000D01*
X119532000Y-101468000D02*
X119532000Y-99822000D01*
X118650000Y-106000000D02*
X116000000Y-106000000D01*
X116000000Y-102500000D02*
X116000000Y-106000000D01*
X116000000Y-106000000D02*
X116000000Y-112550000D01*
X116000000Y-112550000D02*
X116150000Y-112700000D01*
X116150000Y-112700000D02*
X117000000Y-112000000D01*
X118125000Y-110875000D02*
X121000000Y-110875000D01*
X117000000Y-112000000D02*
X118125000Y-110875000D01*
X116429000Y-112421000D02*
X116150000Y-112700000D01*
X138700000Y-98850000D02*
X138700000Y-100800000D01*
X136625000Y-102875000D02*
X133500000Y-102875000D01*
X138700000Y-100800000D02*
X136625000Y-102875000D01*
X133525000Y-102850000D02*
X133500000Y-102875000D01*
X119532000Y-99822000D02*
X125832000Y-99822000D01*
X87300000Y-106635000D02*
X85000000Y-106635000D01*
X85000000Y-106635000D02*
X85000000Y-107000000D01*
X87000000Y-112650000D02*
X89350000Y-112650000D01*
X89350000Y-112650000D02*
X90000000Y-112000000D01*
X86000000Y-101350000D02*
X86000000Y-102000000D01*
X86000000Y-102000000D02*
X85000000Y-103000000D01*
X85000000Y-103000000D02*
X85000000Y-107000000D01*
X85000000Y-107000000D02*
X85000000Y-110650000D01*
X85000000Y-110650000D02*
X87000000Y-112650000D01*
D36*
X96000000Y-113250000D02*
X96750000Y-113250000D01*
X96750000Y-113250000D02*
X97650000Y-112350000D01*
X97650000Y-112350000D02*
X99000000Y-112350000D01*
X94700000Y-107905000D02*
X94700000Y-111700000D01*
X94700000Y-111700000D02*
X96000000Y-113250000D01*
X99000000Y-112350000D02*
X99000000Y-114900000D01*
X98952000Y-112302000D02*
X99000000Y-112350000D01*
X95960800Y-113210800D02*
X96000000Y-113250000D01*
D35*
X159900000Y-99000000D02*
X159900000Y-101212000D01*
X143256000Y-101346000D02*
X141000000Y-101346000D01*
X159900000Y-101212000D02*
X159893000Y-101219000D01*
X141000000Y-98850000D02*
X141000000Y-94625000D01*
X141000000Y-94625000D02*
X140875000Y-94500000D01*
X141000000Y-98850000D02*
X140970000Y-98883000D01*
X141000000Y-98850000D02*
X141000000Y-101346000D01*
X141000000Y-101346000D02*
X141000000Y-101500000D01*
X141000000Y-101500000D02*
X141000000Y-105150000D01*
X141079000Y-94704000D02*
X140875000Y-94500000D01*
D36*
X166000000Y-99000000D02*
X166000000Y-103000000D01*
X166595000Y-103595000D02*
X168200000Y-103595000D01*
X166000000Y-103000000D02*
X166595000Y-103595000D01*
X162600000Y-99000000D02*
X166000000Y-99000000D01*
X168105000Y-103500000D02*
X168200000Y-103595000D01*
X162823000Y-99223000D02*
X162600000Y-99000000D01*
X162823000Y-99223000D02*
X162600000Y-99000000D01*
X148000000Y-110500000D02*
X146000000Y-111000000D01*
X145500000Y-111500000D02*
X143850000Y-111500000D01*
X146000000Y-111000000D02*
X145500000Y-111500000D01*
X147150000Y-108000000D02*
X147150000Y-110150000D01*
X147150000Y-110150000D02*
X148000000Y-110500000D01*
X147150000Y-107350000D02*
X147150000Y-108000000D01*
X143913000Y-111437000D02*
X143850000Y-111500000D01*
X164000000Y-114350000D02*
X166650000Y-114350000D01*
X167000000Y-114000000D02*
X169000000Y-114000000D01*
X166650000Y-114350000D02*
X167000000Y-114000000D01*
X169000000Y-114000000D02*
X171150000Y-114000000D01*
X171150000Y-114000000D02*
X173150000Y-116000000D01*
X164063000Y-114413000D02*
X164000000Y-114350000D01*
X173393000Y-116016000D02*
X173409000Y-116000000D01*
D39*
X147000000Y-119000000D02*
X149500000Y-119000000D01*
X144500000Y-119000000D02*
X147000000Y-119000000D01*
X149500000Y-115500000D02*
X144500000Y-115500000D01*
D35*
X147050000Y-112500000D02*
X147050000Y-115000000D01*
X147050000Y-115000000D02*
X147050000Y-115450000D01*
X147050000Y-115450000D02*
X147000000Y-115500000D01*
D39*
X147000000Y-125000000D02*
X147000000Y-119000000D01*
X147000000Y-119000000D02*
X147000000Y-115500000D01*
X147000000Y-115500000D02*
X149500000Y-115500000D01*
D36*
X160800000Y-103595000D02*
X158905000Y-103595000D01*
X158500000Y-104000000D02*
X156950000Y-104000000D01*
X158905000Y-103595000D02*
X158500000Y-104000000D01*
X156950000Y-104000000D02*
X156950000Y-101100000D01*
X156950000Y-101100000D02*
X156850000Y-101000000D01*
X156450000Y-100550000D02*
X156900000Y-101000000D01*
X156900000Y-101000000D02*
X156850000Y-101000000D01*
X160817000Y-103578000D02*
X160800000Y-103595000D01*
X149850000Y-99000000D02*
X151000000Y-99000000D01*
X153500000Y-106000000D02*
X156000000Y-106000000D01*
X152000000Y-104500000D02*
X153500000Y-106000000D01*
X152000000Y-100000000D02*
X152000000Y-104500000D01*
X151000000Y-99000000D02*
X152000000Y-100000000D01*
X160800000Y-104865000D02*
X158885000Y-104865000D01*
X158885000Y-104865000D02*
X157750000Y-106000000D01*
X157750000Y-106000000D02*
X156000000Y-106000000D01*
X149850000Y-99000000D02*
X150000000Y-99000000D01*
X155969000Y-105969000D02*
X156000000Y-106000000D01*
X156016000Y-106016000D02*
X156000000Y-106000000D01*
D39*
X164000000Y-125000000D02*
X164000000Y-119000000D01*
D36*
X168050000Y-116000000D02*
X168000000Y-116000000D01*
X168000000Y-116000000D02*
X167000000Y-117000000D01*
X167000000Y-117000000D02*
X166500000Y-119000000D01*
X166550000Y-118950000D02*
X166500000Y-119000000D01*
D39*
X161500000Y-119000000D02*
X164000000Y-119000000D01*
X164000000Y-119000000D02*
X166500000Y-119000000D01*
D36*
X168016000Y-116034000D02*
X168050000Y-116000000D01*
X164182000Y-127585000D02*
X164116000Y-127651000D01*
X168200000Y-104865000D02*
X173015000Y-104865000D01*
X173015000Y-104865000D02*
X173150000Y-105000000D01*
X173150000Y-105000000D02*
X173150000Y-105650000D01*
X173150000Y-105650000D02*
X173500000Y-106500000D01*
X174950000Y-106950000D02*
X174950000Y-108000000D01*
X174500000Y-106500000D02*
X174950000Y-106950000D01*
X173500000Y-106500000D02*
X174500000Y-106500000D01*
D37*
X172785000Y-105365000D02*
X173150000Y-105000000D01*
D36*
X168200000Y-106135000D02*
X170135000Y-106135000D01*
X172500000Y-110000000D02*
X174000000Y-110000000D01*
X171000000Y-108500000D02*
X172500000Y-110000000D01*
X171000000Y-107000000D02*
X171000000Y-108500000D01*
X170135000Y-106135000D02*
X171000000Y-107000000D01*
X173150000Y-113000000D02*
X173150000Y-112350000D01*
X173150000Y-112350000D02*
X174000000Y-111000000D01*
X174000000Y-111000000D02*
X174000000Y-110000000D01*
X168200000Y-106135000D02*
X168135000Y-106135000D01*
X160000000Y-87650000D02*
X161150000Y-87650000D01*
X166635000Y-93135000D02*
X166635000Y-94700000D01*
X161150000Y-87650000D02*
X166635000Y-93135000D01*
X166635000Y-94700000D02*
X166635000Y-94135000D01*
X153580000Y-87000000D02*
X159350000Y-87000000D01*
X159350000Y-87000000D02*
X160000000Y-87650000D01*
D35*
X110920000Y-123000000D02*
X110920000Y-123920000D01*
X121040000Y-126000000D02*
X124040000Y-123000000D01*
X110920000Y-123920000D02*
X113000000Y-126000000D01*
X113000000Y-126000000D02*
X121040000Y-126000000D01*
X124040000Y-123000000D02*
X125840000Y-123000000D01*
D36*
X103300000Y-123000000D02*
X103300000Y-121300000D01*
X93135000Y-105365000D02*
X94700000Y-105365000D01*
X92500000Y-106000000D02*
X93135000Y-105365000D01*
X92500000Y-118250000D02*
X92500000Y-106000000D01*
X93750000Y-119500000D02*
X92500000Y-118250000D01*
X101719512Y-119500000D02*
X93750000Y-119500000D01*
X103300000Y-121300000D02*
X101719512Y-119500000D01*
D40*
X94700000Y-105365000D02*
X94700000Y-106635000D01*
D36*
X100760000Y-123000000D02*
X100760000Y-121260000D01*
X89865000Y-105365000D02*
X87300000Y-105365000D01*
X91500000Y-107000000D02*
X89865000Y-105365000D01*
X91500000Y-118750000D02*
X91500000Y-107000000D01*
X93250000Y-120500000D02*
X91500000Y-118750000D01*
X100000000Y-120500000D02*
X93250000Y-120500000D01*
X100760000Y-121260000D02*
X100000000Y-120500000D01*
D40*
X87300000Y-104095000D02*
X87300000Y-105365000D01*
D39*
X117540000Y-88460000D02*
X112460000Y-88460000D01*
X117540000Y-93540000D02*
X112460000Y-93540000D01*
X111000000Y-90000000D02*
X107907000Y-90000000D01*
X107907000Y-90000000D02*
X107315000Y-89408000D01*
X111000000Y-92000000D02*
X111000000Y-90000000D01*
X109000000Y-92000000D02*
X111000000Y-92000000D01*
X107000000Y-94000000D02*
X109000000Y-92000000D01*
D40*
X107000000Y-95217000D02*
X107950000Y-95217000D01*
X106680000Y-95217000D02*
X107000000Y-95217000D01*
D39*
X107000000Y-95217000D02*
X107000000Y-94000000D01*
D41*
X112460000Y-88460000D02*
X108263000Y-88460000D01*
X108263000Y-88460000D02*
X107315000Y-89408000D01*
X107315000Y-89408000D02*
X107315000Y-94869000D01*
X112460000Y-91000000D02*
X108771000Y-91000000D01*
X108771000Y-91000000D02*
X107315000Y-92456000D01*
X107315000Y-92456000D02*
X107315000Y-94869000D01*
X108644000Y-93540000D02*
X107315000Y-94869000D01*
X108644000Y-93540000D02*
X112460000Y-93540000D01*
D36*
X144000000Y-86850000D02*
X148350000Y-86850000D01*
X148350000Y-86850000D02*
X148500000Y-87000000D01*
X96500000Y-101000000D02*
X96500000Y-104095000D01*
X94700000Y-104095000D02*
X96500000Y-104095000D01*
X96500000Y-104095000D02*
X98945000Y-104095000D01*
X94700000Y-104095000D02*
X95244200Y-104095000D01*
X94739200Y-104055800D02*
X94700000Y-104095000D01*
X106680000Y-102506000D02*
X106680000Y-105970000D01*
X106680000Y-105970000D02*
X106650000Y-106000000D01*
X99000000Y-109650000D02*
X100350000Y-109650000D01*
X102000000Y-106000000D02*
X106650000Y-106000000D01*
X101000000Y-107000000D02*
X102000000Y-106000000D01*
X101000000Y-109000000D02*
X101000000Y-107000000D01*
X100350000Y-109650000D02*
X101000000Y-109000000D01*
X105410000Y-102506000D02*
X105410000Y-104090000D01*
X101500000Y-102500000D02*
X100000000Y-101000000D01*
X101500000Y-104000000D02*
X101500000Y-102500000D01*
X102500000Y-105000000D02*
X101500000Y-104000000D01*
X104500000Y-105000000D02*
X102500000Y-105000000D01*
X105410000Y-104090000D02*
X104500000Y-105000000D01*
X107950000Y-102506000D02*
X112494000Y-102506000D01*
X112494000Y-102506000D02*
X112500000Y-102500000D01*
X112500000Y-102500000D02*
X112500000Y-105650000D01*
X157000000Y-92000000D02*
X157000000Y-94000000D01*
X154150000Y-101000000D02*
X154150000Y-100700000D01*
X154150000Y-100700000D02*
X156850000Y-97500000D01*
X156850000Y-94000000D02*
X156850000Y-97500000D01*
X156755000Y-97346000D02*
X156782000Y-97373000D01*
X156528000Y-94354000D02*
X156755000Y-94127000D01*
X149850000Y-108000000D02*
X151500000Y-108000000D01*
X152000000Y-108500000D02*
X154150000Y-108500000D01*
X151500000Y-108000000D02*
X152000000Y-108500000D01*
X149850000Y-105000000D02*
X149850000Y-108000000D01*
X149755000Y-102127000D02*
X149723000Y-104973000D01*
X149723000Y-104973000D02*
X149750000Y-105000000D01*
X164000000Y-111650000D02*
X167500000Y-111650000D01*
X167500000Y-111650000D02*
X167650000Y-111500000D01*
X161000000Y-111650000D02*
X157100000Y-111650000D01*
X157100000Y-111650000D02*
X157000000Y-111750000D01*
X164000000Y-111650000D02*
X161000000Y-111650000D01*
X175750000Y-98900000D02*
X175750000Y-96750000D01*
X175750000Y-98900000D02*
X175850000Y-99000000D01*
X175850000Y-102000000D02*
X175850000Y-99000000D01*
X175850000Y-105000000D02*
X175850000Y-102000000D01*
X175850000Y-105000000D02*
X176037000Y-104947000D01*
X175850000Y-105000000D02*
X175850000Y-104793000D01*
D35*
X86000000Y-98650000D02*
X86000000Y-95000000D01*
X90000000Y-91000000D02*
X94460000Y-91000000D01*
X86000000Y-95000000D02*
X90000000Y-91000000D01*
D39*
X99540000Y-93540000D02*
X94460000Y-93540000D01*
X99540000Y-88460000D02*
X94460000Y-88460000D01*
X102000000Y-90000000D02*
X101000000Y-90000000D01*
X101000000Y-90000000D02*
X103000000Y-90000000D01*
X103000000Y-90000000D02*
X103700000Y-90700000D01*
X103700000Y-88460000D02*
X103700000Y-90700000D01*
X103700000Y-90700000D02*
X104000000Y-91000000D01*
X104000000Y-91000000D02*
X99540000Y-91000000D01*
D41*
X99540000Y-91000000D02*
X100000000Y-91000000D01*
X100000000Y-91000000D02*
X101000000Y-92000000D01*
X103000000Y-92000000D02*
X104775000Y-93775000D01*
X101000000Y-92000000D02*
X103000000Y-92000000D01*
X104775000Y-93775000D02*
X104775000Y-94869000D01*
X99540000Y-88460000D02*
X103700000Y-88460000D01*
X103700000Y-88460000D02*
X104775000Y-89535000D01*
X104775000Y-89535000D02*
X104775000Y-94869000D01*
X103446000Y-93540000D02*
X104775000Y-94869000D01*
X103446000Y-93540000D02*
X99540000Y-93540000D01*
D40*
X104140000Y-95217000D02*
X105410000Y-95217000D01*
D36*
X124650000Y-106000000D02*
X124650000Y-104350000D01*
X125832000Y-103168000D02*
X125832000Y-102122000D01*
X124650000Y-104350000D02*
X125832000Y-103168000D01*
X121350000Y-106000000D02*
X124650000Y-106000000D01*
X160800000Y-106135000D02*
X159215000Y-106135000D01*
X159215000Y-106135000D02*
X156850000Y-108500000D01*
X157215000Y-108135000D02*
X156850000Y-108500000D01*
X168200000Y-107405000D02*
X168405000Y-107405000D01*
X168405000Y-107405000D02*
X170350000Y-109350000D01*
X170350000Y-109350000D02*
X170350000Y-111500000D01*
X170397000Y-111453000D02*
X170350000Y-111500000D01*
X164095000Y-87300000D02*
X164095000Y-84095000D01*
X164095000Y-84095000D02*
X164000000Y-84000000D01*
X164095000Y-84095000D02*
X164000000Y-84000000D01*
X160850000Y-84000000D02*
X164000000Y-84000000D01*
X160000000Y-90350000D02*
X157850000Y-90350000D01*
X157850000Y-90350000D02*
X157000000Y-89500000D01*
D35*
X159900000Y-90300000D02*
X160000000Y-90400000D01*
D36*
X160000000Y-90400000D02*
X160000000Y-93150000D01*
X164095000Y-94700000D02*
X163700000Y-94700000D01*
X163700000Y-94700000D02*
X162150000Y-93150000D01*
X162150000Y-93150000D02*
X160000000Y-93150000D01*
X160350000Y-90350000D02*
X160000000Y-90400000D01*
X164095000Y-94700000D02*
X164095000Y-94095000D01*
X159873500Y-93276500D02*
X160000000Y-93150000D01*
X165365000Y-94700000D02*
X165365000Y-96365000D01*
X170850000Y-97000000D02*
X172000000Y-95850000D01*
X166000000Y-97000000D02*
X170850000Y-97000000D01*
X165365000Y-96365000D02*
X166000000Y-97000000D01*
X160000000Y-95850000D02*
X160000000Y-96000000D01*
X160000000Y-96000000D02*
X161000000Y-97000000D01*
X165365000Y-96135000D02*
X165365000Y-94700000D01*
X164500000Y-97000000D02*
X165365000Y-96135000D01*
X161000000Y-97000000D02*
X164500000Y-97000000D01*
X165365000Y-87300000D02*
X166635000Y-87300000D01*
G36*
X178675000Y-128675000D02*
X168452646Y-128675000D01*
X168741982Y-127965808D01*
X168737316Y-127090733D01*
X168636756Y-126847958D01*
X173293464Y-126847958D01*
X173463858Y-127284448D01*
X174455009Y-127698411D01*
X175529132Y-127701566D01*
X176522698Y-127293432D01*
X176536142Y-127284448D01*
X176706536Y-126847958D01*
X175000000Y-125141421D01*
X173293464Y-126847958D01*
X168636756Y-126847958D01*
X168411417Y-126303943D01*
X168240000Y-126255169D01*
X168240000Y-125529132D01*
X172298434Y-125529132D01*
X172706568Y-126522698D01*
X172715552Y-126536142D01*
X173152042Y-126706536D01*
X174858579Y-125000000D01*
X175141421Y-125000000D01*
X176847958Y-126706536D01*
X177284448Y-126536142D01*
X177698411Y-125544991D01*
X177701566Y-124470868D01*
X177293432Y-123477302D01*
X177284448Y-123463858D01*
X176847958Y-123293464D01*
X175141421Y-125000000D01*
X174858579Y-125000000D01*
X173152042Y-123293464D01*
X172715552Y-123463858D01*
X172301589Y-124455009D01*
X172298434Y-125529132D01*
X168240000Y-125529132D01*
X168240000Y-124811033D01*
X168095371Y-124461868D01*
X167828132Y-124194629D01*
X167816365Y-124189755D01*
X167885468Y-123946889D01*
X166540000Y-122601421D01*
X166525858Y-122615564D01*
X166384437Y-122474143D01*
X166398579Y-122460000D01*
X166384437Y-122445858D01*
X166525858Y-122304437D01*
X166540000Y-122318579D01*
X166554143Y-122304437D01*
X166695564Y-122445858D01*
X166681421Y-122460000D01*
X168026889Y-123805468D01*
X168411417Y-123696057D01*
X168633363Y-123152042D01*
X173293464Y-123152042D01*
X175000000Y-124858579D01*
X176706536Y-123152042D01*
X176536142Y-122715552D01*
X175544991Y-122301589D01*
X174470868Y-122298434D01*
X173477302Y-122706568D01*
X173463858Y-122715552D01*
X173293464Y-123152042D01*
X168633363Y-123152042D01*
X168741982Y-122885808D01*
X168737316Y-122010733D01*
X168411417Y-121223943D01*
X168026891Y-121114533D01*
X168193129Y-120948295D01*
X168157285Y-120912451D01*
X168388663Y-120763563D01*
X168674076Y-120345847D01*
X168675074Y-120340921D01*
X168694629Y-120388132D01*
X168961868Y-120655371D01*
X169311033Y-120800000D01*
X170162500Y-120800000D01*
X170400000Y-120562500D01*
X170400000Y-119100000D01*
X170600000Y-119100000D01*
X170600000Y-120562500D01*
X170837500Y-120800000D01*
X171688967Y-120800000D01*
X172038132Y-120655371D01*
X172305371Y-120388132D01*
X172450000Y-120038967D01*
X172450000Y-119337500D01*
X172212500Y-119100000D01*
X170600000Y-119100000D01*
X170400000Y-119100000D01*
X170380000Y-119100000D01*
X170380000Y-118900000D01*
X170400000Y-118900000D01*
X170400000Y-118880000D01*
X170600000Y-118880000D01*
X170600000Y-118900000D01*
X172212500Y-118900000D01*
X172450000Y-118662500D01*
X172450000Y-117961033D01*
X172434863Y-117924488D01*
X173900000Y-117924488D01*
X174363222Y-117837327D01*
X174788663Y-117563563D01*
X174796252Y-117552456D01*
X174911033Y-117600000D01*
X175512500Y-117600000D01*
X175750000Y-117362500D01*
X175750000Y-116100000D01*
X175950000Y-116100000D01*
X175950000Y-117362500D01*
X176187500Y-117600000D01*
X176788967Y-117600000D01*
X177138132Y-117455371D01*
X177405371Y-117188132D01*
X177550000Y-116838967D01*
X177550000Y-116337500D01*
X177312500Y-116100000D01*
X175950000Y-116100000D01*
X175750000Y-116100000D01*
X175730000Y-116100000D01*
X175730000Y-115900000D01*
X175750000Y-115900000D01*
X175750000Y-114637500D01*
X175612500Y-114500000D01*
X175750000Y-114362500D01*
X175750000Y-113100000D01*
X175950000Y-113100000D01*
X175950000Y-114362500D01*
X176087500Y-114500000D01*
X175950000Y-114637500D01*
X175950000Y-115900000D01*
X177312500Y-115900000D01*
X177550000Y-115662500D01*
X177550000Y-115161033D01*
X177405371Y-114811868D01*
X177138132Y-114544629D01*
X177030388Y-114500000D01*
X177138132Y-114455371D01*
X177405371Y-114188132D01*
X177550000Y-113838967D01*
X177550000Y-113337500D01*
X177312500Y-113100000D01*
X175950000Y-113100000D01*
X175750000Y-113100000D01*
X175730000Y-113100000D01*
X175730000Y-112900000D01*
X175750000Y-112900000D01*
X175750000Y-111637500D01*
X175950000Y-111637500D01*
X175950000Y-112900000D01*
X177312500Y-112900000D01*
X177550000Y-112662500D01*
X177550000Y-112161033D01*
X177405371Y-111811868D01*
X177138132Y-111544629D01*
X176788967Y-111400000D01*
X176187500Y-111400000D01*
X175950000Y-111637500D01*
X175750000Y-111637500D01*
X175512500Y-111400000D01*
X175422162Y-111400000D01*
X175478574Y-111252624D01*
X175475114Y-111125110D01*
X175484774Y-111076544D01*
X175574076Y-110945847D01*
X175674488Y-110450000D01*
X175674488Y-109663432D01*
X175813222Y-109637327D01*
X176238663Y-109363563D01*
X176524076Y-108945847D01*
X176624488Y-108450000D01*
X176624488Y-107550000D01*
X176537327Y-107086778D01*
X176450000Y-106951068D01*
X176450000Y-106950000D01*
X176444925Y-106924488D01*
X176600000Y-106924488D01*
X177063222Y-106837327D01*
X177488663Y-106563563D01*
X177774076Y-106145847D01*
X177874488Y-105650000D01*
X177874488Y-104350000D01*
X177787327Y-103886778D01*
X177535363Y-103495215D01*
X177774076Y-103145847D01*
X177874488Y-102650000D01*
X177874488Y-101350000D01*
X177787327Y-100886778D01*
X177535363Y-100495215D01*
X177774076Y-100145847D01*
X177874488Y-99650000D01*
X177874488Y-98350000D01*
X177787327Y-97886778D01*
X177513563Y-97461337D01*
X177250000Y-97281252D01*
X177250000Y-97179430D01*
X177299730Y-97059667D01*
X177300268Y-96443039D01*
X177064792Y-95873143D01*
X176629151Y-95436740D01*
X176059667Y-95200270D01*
X175443039Y-95199732D01*
X174873143Y-95435208D01*
X174436740Y-95870849D01*
X174200270Y-96440333D01*
X174199732Y-97056961D01*
X174250000Y-97178619D01*
X174250000Y-97411558D01*
X174211337Y-97436437D01*
X174203748Y-97447544D01*
X174088967Y-97400000D01*
X173616257Y-97400000D01*
X173824076Y-97095847D01*
X173924488Y-96600000D01*
X173924488Y-95100000D01*
X173837327Y-94636778D01*
X173563563Y-94211337D01*
X173552456Y-94203748D01*
X173600000Y-94088967D01*
X173600000Y-93487500D01*
X173362500Y-93250000D01*
X172100000Y-93250000D01*
X172100000Y-93270000D01*
X171900000Y-93270000D01*
X171900000Y-93250000D01*
X170637500Y-93250000D01*
X170400000Y-93487500D01*
X170400000Y-94088967D01*
X170448286Y-94205538D01*
X170175924Y-94604153D01*
X170075512Y-95100000D01*
X170075512Y-95500000D01*
X169130000Y-95500000D01*
X169130000Y-95037500D01*
X168892500Y-94800000D01*
X168184488Y-94800000D01*
X168184488Y-94600000D01*
X168892500Y-94600000D01*
X169130000Y-94362500D01*
X169130000Y-93636033D01*
X168985371Y-93286868D01*
X168718132Y-93019629D01*
X168368967Y-92875000D01*
X168242500Y-92875000D01*
X168109699Y-93007801D01*
X168020819Y-92560975D01*
X167786996Y-92211033D01*
X170400000Y-92211033D01*
X170400000Y-92812500D01*
X170637500Y-93050000D01*
X171900000Y-93050000D01*
X171900000Y-91687500D01*
X172100000Y-91687500D01*
X172100000Y-93050000D01*
X173362500Y-93050000D01*
X173600000Y-92812500D01*
X173600000Y-92211033D01*
X173455371Y-91861868D01*
X173188132Y-91594629D01*
X172838967Y-91450000D01*
X172337500Y-91450000D01*
X172100000Y-91687500D01*
X171900000Y-91687500D01*
X171662500Y-91450000D01*
X171161033Y-91450000D01*
X170811868Y-91594629D01*
X170544629Y-91861868D01*
X170400000Y-92211033D01*
X167786996Y-92211033D01*
X167695660Y-92074340D01*
X165065935Y-89444615D01*
X165090000Y-89449488D01*
X165640000Y-89449488D01*
X166013218Y-89379262D01*
X166360000Y-89449488D01*
X166910000Y-89449488D01*
X167373222Y-89362327D01*
X167798663Y-89088563D01*
X168005000Y-88786579D01*
X168005000Y-88887500D01*
X168242500Y-89125000D01*
X168368967Y-89125000D01*
X168718132Y-88980371D01*
X168985371Y-88713132D01*
X169130000Y-88363967D01*
X169130000Y-87637500D01*
X168892500Y-87400000D01*
X168184488Y-87400000D01*
X168184488Y-87200000D01*
X168892500Y-87200000D01*
X169130000Y-86962500D01*
X169130000Y-86847958D01*
X173293464Y-86847958D01*
X173463858Y-87284448D01*
X174455009Y-87698411D01*
X175529132Y-87701566D01*
X176522698Y-87293432D01*
X176536142Y-87284448D01*
X176706536Y-86847958D01*
X175000000Y-85141421D01*
X173293464Y-86847958D01*
X169130000Y-86847958D01*
X169130000Y-86236033D01*
X168985371Y-85886868D01*
X168718132Y-85619629D01*
X168499653Y-85529132D01*
X172298434Y-85529132D01*
X172706568Y-86522698D01*
X172715552Y-86536142D01*
X173152042Y-86706536D01*
X174858579Y-85000000D01*
X175141421Y-85000000D01*
X176847958Y-86706536D01*
X177284448Y-86536142D01*
X177698411Y-85544991D01*
X177701566Y-84470868D01*
X177293432Y-83477302D01*
X177284448Y-83463858D01*
X176847958Y-83293464D01*
X175141421Y-85000000D01*
X174858579Y-85000000D01*
X173152042Y-83293464D01*
X172715552Y-83463858D01*
X172301589Y-84455009D01*
X172298434Y-85529132D01*
X168499653Y-85529132D01*
X168399678Y-85487721D01*
X168538132Y-85430371D01*
X168805371Y-85163132D01*
X168950000Y-84813967D01*
X168950000Y-84337500D01*
X168712500Y-84100000D01*
X167350000Y-84100000D01*
X167350000Y-84120000D01*
X167150000Y-84120000D01*
X167150000Y-84100000D01*
X167130000Y-84100000D01*
X167130000Y-83900000D01*
X167150000Y-83900000D01*
X167150000Y-82662500D01*
X167350000Y-82662500D01*
X167350000Y-83900000D01*
X168712500Y-83900000D01*
X168950000Y-83662500D01*
X168950000Y-83186033D01*
X168935921Y-83152042D01*
X173293464Y-83152042D01*
X175000000Y-84858579D01*
X176706536Y-83152042D01*
X176536142Y-82715552D01*
X175544991Y-82301589D01*
X174470868Y-82298434D01*
X173477302Y-82706568D01*
X173463858Y-82715552D01*
X173293464Y-83152042D01*
X168935921Y-83152042D01*
X168805371Y-82836868D01*
X168538132Y-82569629D01*
X168188967Y-82425000D01*
X167587500Y-82425000D01*
X167350000Y-82662500D01*
X167150000Y-82662500D01*
X166912500Y-82425000D01*
X166323793Y-82425000D01*
X165995847Y-82200924D01*
X165500000Y-82100512D01*
X164000000Y-82100512D01*
X163536778Y-82187673D01*
X163111337Y-82461437D01*
X163084988Y-82500000D01*
X162538442Y-82500000D01*
X162513563Y-82461337D01*
X162095847Y-82175924D01*
X161600000Y-82075512D01*
X160100000Y-82075512D01*
X159636778Y-82162673D01*
X159502712Y-82248942D01*
X159395847Y-82175924D01*
X158900000Y-82075512D01*
X157400000Y-82075512D01*
X156936778Y-82162673D01*
X156511337Y-82436437D01*
X156467906Y-82500000D01*
X145546971Y-82500000D01*
X145145847Y-82225924D01*
X144650000Y-82125512D01*
X143350000Y-82125512D01*
X142886778Y-82212673D01*
X142461337Y-82486437D01*
X142349579Y-82650000D01*
X140850000Y-82650000D01*
X140275975Y-82764181D01*
X140147538Y-82850000D01*
X137250000Y-82850000D01*
X136618572Y-82975599D01*
X136083274Y-83333274D01*
X135725599Y-83868572D01*
X135600000Y-84500000D01*
X135725599Y-85131428D01*
X136083274Y-85666726D01*
X136618572Y-86024401D01*
X137250000Y-86150000D01*
X138628736Y-86150000D01*
X138687673Y-86463222D01*
X138925000Y-86832038D01*
X138925000Y-87412500D01*
X139162500Y-87650000D01*
X140400000Y-87650000D01*
X140400000Y-87630000D01*
X140600000Y-87630000D01*
X140600000Y-87650000D01*
X141837500Y-87650000D01*
X142075000Y-87412500D01*
X142075000Y-86823793D01*
X142075512Y-86823044D01*
X142075512Y-87600000D01*
X142162673Y-88063222D01*
X142436437Y-88488663D01*
X142854153Y-88774076D01*
X143350000Y-88874488D01*
X144650000Y-88874488D01*
X145113222Y-88787327D01*
X145538663Y-88513563D01*
X145650421Y-88350000D01*
X146234920Y-88350000D01*
X146312673Y-88763222D01*
X146586437Y-89188663D01*
X147004153Y-89474076D01*
X147500000Y-89574488D01*
X149500000Y-89574488D01*
X149963222Y-89487327D01*
X150388663Y-89213563D01*
X150430766Y-89151944D01*
X150636585Y-89207814D01*
X150940000Y-89009578D01*
X150940000Y-87100000D01*
X150920000Y-87100000D01*
X150920000Y-86900000D01*
X150940000Y-86900000D01*
X150940000Y-86880000D01*
X151140000Y-86880000D01*
X151140000Y-86900000D01*
X151160000Y-86900000D01*
X151160000Y-87100000D01*
X151140000Y-87100000D01*
X151140000Y-89009578D01*
X151443415Y-89207814D01*
X151693845Y-89139834D01*
X152007065Y-88953011D01*
X152718962Y-89428686D01*
X153580000Y-89599957D01*
X154441038Y-89428686D01*
X155170990Y-88940947D01*
X155465622Y-88500000D01*
X155807800Y-88500000D01*
X155686740Y-88620849D01*
X155450270Y-89190333D01*
X155449732Y-89806961D01*
X155685208Y-90376857D01*
X156057968Y-90750269D01*
X155686740Y-91120849D01*
X155450270Y-91690333D01*
X155449753Y-92283020D01*
X155211337Y-92436437D01*
X155203748Y-92447544D01*
X155088967Y-92400000D01*
X154487500Y-92400000D01*
X154250000Y-92637500D01*
X154250000Y-93900000D01*
X154270000Y-93900000D01*
X154270000Y-94100000D01*
X154250000Y-94100000D01*
X154250000Y-95362500D01*
X154487500Y-95600000D01*
X155088967Y-95600000D01*
X155205538Y-95551714D01*
X155350000Y-95650421D01*
X155350000Y-95847210D01*
X155211337Y-95936437D01*
X155203748Y-95947544D01*
X155088967Y-95900000D01*
X154487500Y-95900000D01*
X154250000Y-96137500D01*
X154250000Y-97400000D01*
X154270000Y-97400000D01*
X154270000Y-97600000D01*
X154250000Y-97600000D01*
X154250000Y-97620000D01*
X154050000Y-97620000D01*
X154050000Y-97600000D01*
X152687500Y-97600000D01*
X152450000Y-97837500D01*
X152450000Y-98328680D01*
X152060660Y-97939340D01*
X151640495Y-97658595D01*
X151513563Y-97461337D01*
X151095847Y-97175924D01*
X150600000Y-97075512D01*
X149100000Y-97075512D01*
X148636778Y-97162673D01*
X148211337Y-97436437D01*
X148203748Y-97447544D01*
X148088967Y-97400000D01*
X147487500Y-97400000D01*
X147250000Y-97637500D01*
X147250000Y-98900000D01*
X147270000Y-98900000D01*
X147270000Y-99100000D01*
X147250000Y-99100000D01*
X147250000Y-100362500D01*
X147387500Y-100500000D01*
X147250000Y-100637500D01*
X147250000Y-101900000D01*
X147270000Y-101900000D01*
X147270000Y-102100000D01*
X147250000Y-102100000D01*
X147250000Y-103362500D01*
X147387500Y-103500000D01*
X147250000Y-103637500D01*
X147250000Y-104900000D01*
X147270000Y-104900000D01*
X147270000Y-105100000D01*
X147250000Y-105100000D01*
X147250000Y-105120000D01*
X147050000Y-105120000D01*
X147050000Y-105100000D01*
X145687500Y-105100000D01*
X145450000Y-105337500D01*
X145450000Y-105838967D01*
X145594629Y-106188132D01*
X145713102Y-106306605D01*
X145511337Y-106436437D01*
X145225924Y-106854153D01*
X145125512Y-107350000D01*
X145125512Y-108650000D01*
X145212673Y-109113222D01*
X145486437Y-109538663D01*
X145552953Y-109584111D01*
X145535356Y-109592424D01*
X145425975Y-109614181D01*
X145273171Y-109716281D01*
X145203253Y-109749311D01*
X145095847Y-109675924D01*
X144600000Y-109575512D01*
X143100000Y-109575512D01*
X142636778Y-109662673D01*
X142211337Y-109936437D01*
X142203748Y-109947544D01*
X142088967Y-109900000D01*
X141487500Y-109900000D01*
X141250000Y-110137500D01*
X141250000Y-111400000D01*
X141270000Y-111400000D01*
X141270000Y-111600000D01*
X141250000Y-111600000D01*
X141250000Y-112862500D01*
X141487500Y-113100000D01*
X142088967Y-113100000D01*
X142205538Y-113051714D01*
X142604153Y-113324076D01*
X143100000Y-113424488D01*
X143239714Y-113424488D01*
X143036778Y-113462673D01*
X142611337Y-113736437D01*
X142325924Y-114154153D01*
X142324926Y-114159079D01*
X142305371Y-114111868D01*
X142038132Y-113844629D01*
X141688967Y-113700000D01*
X140837500Y-113700000D01*
X140600000Y-113937500D01*
X140600000Y-115400000D01*
X140620000Y-115400000D01*
X140620000Y-115600000D01*
X140600000Y-115600000D01*
X140600000Y-117062500D01*
X140787500Y-117250000D01*
X140600000Y-117437500D01*
X140600000Y-118900000D01*
X140620000Y-118900000D01*
X140620000Y-119100000D01*
X140600000Y-119100000D01*
X140600000Y-120562500D01*
X140837500Y-120800000D01*
X141688967Y-120800000D01*
X142038132Y-120655371D01*
X142305371Y-120388132D01*
X142327108Y-120335654D01*
X142586437Y-120738663D01*
X142841931Y-120913235D01*
X142806871Y-120948295D01*
X142973109Y-121114533D01*
X142588583Y-121223943D01*
X142258018Y-122034192D01*
X142262684Y-122909267D01*
X142588583Y-123696057D01*
X142973111Y-123805468D01*
X144318579Y-122460000D01*
X144304437Y-122445858D01*
X144445858Y-122304437D01*
X144460000Y-122318579D01*
X144474143Y-122304437D01*
X144615564Y-122445858D01*
X144601421Y-122460000D01*
X144615564Y-122474143D01*
X144474143Y-122615564D01*
X144460000Y-122601421D01*
X143114532Y-123946889D01*
X143183635Y-124189755D01*
X143171868Y-124194629D01*
X142904629Y-124461868D01*
X142760000Y-124811033D01*
X142760000Y-126255169D01*
X142588583Y-126303943D01*
X142258018Y-127114192D01*
X142262684Y-127989267D01*
X142546724Y-128675000D01*
X81325000Y-128675000D01*
X81325000Y-126847958D01*
X83293464Y-126847958D01*
X83463858Y-127284448D01*
X84455009Y-127698411D01*
X85529132Y-127701566D01*
X86522698Y-127293432D01*
X86536142Y-127284448D01*
X86706536Y-126847958D01*
X85000000Y-125141421D01*
X83293464Y-126847958D01*
X81325000Y-126847958D01*
X81325000Y-125529132D01*
X82298434Y-125529132D01*
X82706568Y-126522698D01*
X82715552Y-126536142D01*
X83152042Y-126706536D01*
X84858579Y-125000000D01*
X85141421Y-125000000D01*
X86847958Y-126706536D01*
X87284448Y-126536142D01*
X87698411Y-125544991D01*
X87701566Y-124470868D01*
X87293432Y-123477302D01*
X87284448Y-123463858D01*
X86847958Y-123293464D01*
X85141421Y-125000000D01*
X84858579Y-125000000D01*
X83152042Y-123293464D01*
X82715552Y-123463858D01*
X82301589Y-124455009D01*
X82298434Y-125529132D01*
X81325000Y-125529132D01*
X81325000Y-123152042D01*
X83293464Y-123152042D01*
X85000000Y-124858579D01*
X86706536Y-123152042D01*
X86536142Y-122715552D01*
X85544991Y-122301589D01*
X84470868Y-122298434D01*
X83477302Y-122706568D01*
X83463858Y-122715552D01*
X83293464Y-123152042D01*
X81325000Y-123152042D01*
X81325000Y-115687500D01*
X85400000Y-115687500D01*
X85400000Y-116288967D01*
X85544629Y-116638132D01*
X85811868Y-116905371D01*
X86161033Y-117050000D01*
X86662500Y-117050000D01*
X86900000Y-116812500D01*
X86900000Y-115450000D01*
X87100000Y-115450000D01*
X87100000Y-116812500D01*
X87337500Y-117050000D01*
X87838967Y-117050000D01*
X88188132Y-116905371D01*
X88455371Y-116638132D01*
X88533211Y-116450211D01*
X88569629Y-116538132D01*
X88836868Y-116805371D01*
X89186033Y-116950000D01*
X89662500Y-116950000D01*
X89900000Y-116712500D01*
X89900000Y-115350000D01*
X88662500Y-115350000D01*
X88462500Y-115550000D01*
X88362500Y-115450000D01*
X87100000Y-115450000D01*
X86900000Y-115450000D01*
X85637500Y-115450000D01*
X85400000Y-115687500D01*
X81325000Y-115687500D01*
X81325000Y-103000000D01*
X83350000Y-103000000D01*
X83350000Y-110650000D01*
X83475599Y-111281428D01*
X83788689Y-111750000D01*
X83833274Y-111816726D01*
X85075512Y-113058964D01*
X85075512Y-113400000D01*
X85162673Y-113863222D01*
X85436437Y-114288663D01*
X85447544Y-114296252D01*
X85400000Y-114411033D01*
X85400000Y-115012500D01*
X85637500Y-115250000D01*
X86900000Y-115250000D01*
X86900000Y-115230000D01*
X87100000Y-115230000D01*
X87100000Y-115250000D01*
X88362500Y-115250000D01*
X88562500Y-115050000D01*
X88662500Y-115150000D01*
X89900000Y-115150000D01*
X89900000Y-115130000D01*
X90000000Y-115130000D01*
X90000000Y-118750000D01*
X90114181Y-119324025D01*
X90439340Y-119810660D01*
X91632168Y-121003488D01*
X91549010Y-121059053D01*
X91061271Y-121789005D01*
X90890000Y-122650043D01*
X90890000Y-123349957D01*
X91061271Y-124210995D01*
X91549010Y-124940947D01*
X92278962Y-125428686D01*
X93140000Y-125599957D01*
X94001038Y-125428686D01*
X94712935Y-124953011D01*
X95026155Y-125139834D01*
X95276585Y-125207814D01*
X95580000Y-125009578D01*
X95580000Y-123100000D01*
X95780000Y-123100000D01*
X95780000Y-125009578D01*
X96083415Y-125207814D01*
X96333845Y-125139834D01*
X96950000Y-124772323D01*
X97566155Y-125139834D01*
X97816585Y-125207814D01*
X98120000Y-125009578D01*
X98120000Y-123100000D01*
X95780000Y-123100000D01*
X95580000Y-123100000D01*
X95560000Y-123100000D01*
X95560000Y-122900000D01*
X95580000Y-122900000D01*
X95580000Y-122880000D01*
X95780000Y-122880000D01*
X95780000Y-122900000D01*
X98120000Y-122900000D01*
X98120000Y-122880000D01*
X98320000Y-122880000D01*
X98320000Y-122900000D01*
X98340000Y-122900000D01*
X98340000Y-123100000D01*
X98320000Y-123100000D01*
X98320000Y-125009578D01*
X98623415Y-125207814D01*
X98873845Y-125139834D01*
X99187065Y-124953011D01*
X99898962Y-125428686D01*
X100760000Y-125599957D01*
X101621038Y-125428686D01*
X102030000Y-125155426D01*
X102438962Y-125428686D01*
X103300000Y-125599957D01*
X104161038Y-125428686D01*
X104872935Y-124953011D01*
X105186155Y-125139834D01*
X105436585Y-125207814D01*
X105740000Y-125009578D01*
X105740000Y-123100000D01*
X105940000Y-123100000D01*
X105940000Y-125009578D01*
X106243415Y-125207814D01*
X106493845Y-125139834D01*
X107110000Y-124772323D01*
X107726155Y-125139834D01*
X107976585Y-125207814D01*
X108280000Y-125009578D01*
X108280000Y-123100000D01*
X105940000Y-123100000D01*
X105740000Y-123100000D01*
X105720000Y-123100000D01*
X105720000Y-122900000D01*
X105740000Y-122900000D01*
X105740000Y-120990422D01*
X105940000Y-120990422D01*
X105940000Y-122900000D01*
X108280000Y-122900000D01*
X108280000Y-120990422D01*
X107976585Y-120792186D01*
X107726155Y-120860166D01*
X107110000Y-121227677D01*
X106493845Y-120860166D01*
X106243415Y-120792186D01*
X105940000Y-120990422D01*
X105740000Y-120990422D01*
X105436585Y-120792186D01*
X105186155Y-120860166D01*
X104872935Y-121046989D01*
X104738658Y-120957268D01*
X104720102Y-120816980D01*
X104695434Y-120774314D01*
X104685819Y-120725975D01*
X104549748Y-120522331D01*
X104427160Y-120310298D01*
X103593630Y-119361000D01*
X103929500Y-119361000D01*
X104167000Y-119123500D01*
X104167000Y-116636000D01*
X104367000Y-116636000D01*
X104367000Y-119123500D01*
X104604500Y-119361000D01*
X105705967Y-119361000D01*
X106055132Y-119216371D01*
X106322371Y-118949132D01*
X106467000Y-118599967D01*
X106467000Y-116873500D01*
X106229500Y-116636000D01*
X104367000Y-116636000D01*
X104167000Y-116636000D01*
X102304500Y-116636000D01*
X102067000Y-116873500D01*
X102067000Y-118069120D01*
X102053323Y-118066399D01*
X101816710Y-118003153D01*
X101767852Y-118009615D01*
X101719512Y-118000000D01*
X100600000Y-118000000D01*
X100600000Y-117937500D01*
X100362500Y-117700000D01*
X99100000Y-117700000D01*
X99100000Y-117720000D01*
X98900000Y-117720000D01*
X98900000Y-117700000D01*
X98880000Y-117700000D01*
X98880000Y-117500000D01*
X98900000Y-117500000D01*
X98900000Y-117480000D01*
X99100000Y-117480000D01*
X99100000Y-117500000D01*
X100362500Y-117500000D01*
X100600000Y-117262500D01*
X100600000Y-116661033D01*
X100551714Y-116544462D01*
X100824076Y-116145847D01*
X100924488Y-115650000D01*
X100924488Y-114472033D01*
X102067000Y-114472033D01*
X102067000Y-116198500D01*
X102304500Y-116436000D01*
X104167000Y-116436000D01*
X104167000Y-113948500D01*
X104367000Y-113948500D01*
X104367000Y-116436000D01*
X106229500Y-116436000D01*
X106467000Y-116198500D01*
X106467000Y-114472033D01*
X106322371Y-114122868D01*
X106055132Y-113855629D01*
X105705967Y-113711000D01*
X104604500Y-113711000D01*
X104367000Y-113948500D01*
X104167000Y-113948500D01*
X103929500Y-113711000D01*
X102828033Y-113711000D01*
X102478868Y-113855629D01*
X102211629Y-114122868D01*
X102067000Y-114472033D01*
X100924488Y-114472033D01*
X100924488Y-114150000D01*
X100837327Y-113686778D01*
X100800767Y-113629962D01*
X100824076Y-113595847D01*
X100924488Y-113100000D01*
X100924488Y-111600000D01*
X100837327Y-111136778D01*
X100789571Y-111062564D01*
X100924025Y-111035819D01*
X101410660Y-110710660D01*
X101742512Y-110378808D01*
X101742512Y-112161000D01*
X101829673Y-112624222D01*
X102103437Y-113049663D01*
X102521153Y-113335076D01*
X103017000Y-113435488D01*
X105517000Y-113435488D01*
X105980222Y-113348327D01*
X106405663Y-113074563D01*
X106691076Y-112656847D01*
X106791488Y-112161000D01*
X106791488Y-111936000D01*
X107602548Y-111936000D01*
X107917355Y-112250807D01*
X107675924Y-112604153D01*
X107575512Y-113100000D01*
X107575512Y-116900000D01*
X107662673Y-117363222D01*
X107936437Y-117788663D01*
X108354153Y-118074076D01*
X108850000Y-118174488D01*
X110850000Y-118174488D01*
X111313222Y-118087327D01*
X111738663Y-117813563D01*
X111858961Y-117637500D01*
X114200000Y-117637500D01*
X114200000Y-118238967D01*
X114344629Y-118588132D01*
X114611868Y-118855371D01*
X114961033Y-119000000D01*
X115812500Y-119000000D01*
X116050000Y-118762500D01*
X116050000Y-117400000D01*
X116250000Y-117400000D01*
X116250000Y-118762500D01*
X116487500Y-119000000D01*
X117338967Y-119000000D01*
X117688132Y-118855371D01*
X117955371Y-118588132D01*
X118100000Y-118238967D01*
X118100000Y-117637500D01*
X117862500Y-117400000D01*
X116250000Y-117400000D01*
X116050000Y-117400000D01*
X114437500Y-117400000D01*
X114200000Y-117637500D01*
X111858961Y-117637500D01*
X112024076Y-117395847D01*
X112124488Y-116900000D01*
X112124488Y-116650000D01*
X114200000Y-116650000D01*
X114200000Y-116962500D01*
X114437500Y-117200000D01*
X116050000Y-117200000D01*
X116050000Y-117180000D01*
X116250000Y-117180000D01*
X116250000Y-117200000D01*
X117862500Y-117200000D01*
X118100000Y-116962500D01*
X118100000Y-116573793D01*
X118324076Y-116245847D01*
X118424488Y-115750000D01*
X118424488Y-115061033D01*
X118800000Y-115061033D01*
X118800000Y-116787500D01*
X119037500Y-117025000D01*
X120900000Y-117025000D01*
X120900000Y-114537500D01*
X121100000Y-114537500D01*
X121100000Y-117025000D01*
X122962500Y-117025000D01*
X123200000Y-116787500D01*
X123200000Y-115061033D01*
X123055371Y-114711868D01*
X122788132Y-114444629D01*
X122438967Y-114300000D01*
X121337500Y-114300000D01*
X121100000Y-114537500D01*
X120900000Y-114537500D01*
X120662500Y-114300000D01*
X119561033Y-114300000D01*
X119211868Y-114444629D01*
X118944629Y-114711868D01*
X118800000Y-115061033D01*
X118424488Y-115061033D01*
X118424488Y-114250000D01*
X118346460Y-113835314D01*
X118424488Y-113450000D01*
X118424488Y-112908964D01*
X118492606Y-112840846D01*
X118562673Y-113213222D01*
X118836437Y-113638663D01*
X119254153Y-113924076D01*
X119750000Y-114024488D01*
X122250000Y-114024488D01*
X122713222Y-113937327D01*
X123138663Y-113663563D01*
X123424076Y-113245847D01*
X123524488Y-112750000D01*
X123524488Y-109000000D01*
X123437327Y-108536778D01*
X123163563Y-108111337D01*
X122745847Y-107825924D01*
X122620416Y-107800524D01*
X122988663Y-107563563D01*
X122999553Y-107547625D01*
X123404153Y-107824076D01*
X123900000Y-107924488D01*
X125400000Y-107924488D01*
X125863222Y-107837327D01*
X126288663Y-107563563D01*
X126296252Y-107552456D01*
X126411033Y-107600000D01*
X127012500Y-107600000D01*
X127250000Y-107362500D01*
X127250000Y-106100000D01*
X127230000Y-106100000D01*
X127230000Y-105900000D01*
X127250000Y-105900000D01*
X127250000Y-104637500D01*
X127012500Y-104400000D01*
X126721320Y-104400000D01*
X126892660Y-104228660D01*
X126964185Y-104121616D01*
X127295222Y-104059327D01*
X127720663Y-103785563D01*
X128006076Y-103367847D01*
X128021355Y-103292398D01*
X128350000Y-103511992D01*
X128350000Y-104425281D01*
X128288967Y-104400000D01*
X127687500Y-104400000D01*
X127450000Y-104637500D01*
X127450000Y-105900000D01*
X127470000Y-105900000D01*
X127470000Y-106100000D01*
X127450000Y-106100000D01*
X127450000Y-107362500D01*
X127687500Y-107600000D01*
X128066548Y-107600000D01*
X127391036Y-108275512D01*
X125850000Y-108275512D01*
X125386778Y-108362673D01*
X124961337Y-108636437D01*
X124675924Y-109054153D01*
X124575512Y-109550000D01*
X124575512Y-113050000D01*
X124662673Y-113513222D01*
X124936437Y-113938663D01*
X125022208Y-113997268D01*
X124961337Y-114036437D01*
X124675924Y-114454153D01*
X124575512Y-114950000D01*
X124575512Y-118450000D01*
X124650777Y-118850000D01*
X123200000Y-118850000D01*
X123200000Y-117462500D01*
X122962500Y-117225000D01*
X121100000Y-117225000D01*
X121100000Y-117245000D01*
X120900000Y-117245000D01*
X120900000Y-117225000D01*
X119037500Y-117225000D01*
X118800000Y-117462500D01*
X118800000Y-118850000D01*
X118500000Y-118850000D01*
X117868572Y-118975599D01*
X117512867Y-119213274D01*
X117333274Y-119333274D01*
X116241036Y-120425512D01*
X115000000Y-120425512D01*
X114536778Y-120512673D01*
X114111337Y-120786437D01*
X114069234Y-120848056D01*
X113863415Y-120792186D01*
X113560000Y-120990422D01*
X113560000Y-122900000D01*
X113580000Y-122900000D01*
X113580000Y-123100000D01*
X113560000Y-123100000D01*
X113560000Y-123120000D01*
X113360000Y-123120000D01*
X113360000Y-123100000D01*
X113340000Y-123100000D01*
X113340000Y-122900000D01*
X113360000Y-122900000D01*
X113360000Y-120990422D01*
X113056585Y-120792186D01*
X112806155Y-120860166D01*
X112492935Y-121046989D01*
X111781038Y-120571314D01*
X110920000Y-120400043D01*
X110058962Y-120571314D01*
X109347065Y-121046989D01*
X109033845Y-120860166D01*
X108783415Y-120792186D01*
X108480000Y-120990422D01*
X108480000Y-122900000D01*
X108500000Y-122900000D01*
X108500000Y-123100000D01*
X108480000Y-123100000D01*
X108480000Y-125009578D01*
X108783415Y-125207814D01*
X109033845Y-125139834D01*
X109347065Y-124953011D01*
X110058962Y-125428686D01*
X110104240Y-125437692D01*
X111833274Y-127166726D01*
X112368572Y-127524401D01*
X113000000Y-127650000D01*
X121040000Y-127650000D01*
X121671428Y-127524401D01*
X122206726Y-127166726D01*
X124359007Y-125014445D01*
X124978962Y-125428686D01*
X125840000Y-125599957D01*
X126701038Y-125428686D01*
X127110000Y-125155426D01*
X127518962Y-125428686D01*
X128380000Y-125599957D01*
X129241038Y-125428686D01*
X129952935Y-124953011D01*
X130266155Y-125139834D01*
X130516585Y-125207814D01*
X130820000Y-125009578D01*
X130820000Y-123100000D01*
X130800000Y-123100000D01*
X130800000Y-122900000D01*
X130820000Y-122900000D01*
X130820000Y-120990422D01*
X131020000Y-120990422D01*
X131020000Y-122900000D01*
X131040000Y-122900000D01*
X131040000Y-123100000D01*
X131020000Y-123100000D01*
X131020000Y-125009578D01*
X131323415Y-125207814D01*
X131573845Y-125139834D01*
X131887065Y-124953011D01*
X132598962Y-125428686D01*
X133460000Y-125599957D01*
X134321038Y-125428686D01*
X134380032Y-125389268D01*
X134504153Y-125474076D01*
X135000000Y-125574488D01*
X137000000Y-125574488D01*
X137463222Y-125487327D01*
X137888663Y-125213563D01*
X138174076Y-124795847D01*
X138274488Y-124300000D01*
X138274488Y-121700000D01*
X138187327Y-121236778D01*
X137913563Y-120811337D01*
X137495847Y-120525924D01*
X137000000Y-120425512D01*
X135000000Y-120425512D01*
X134536778Y-120512673D01*
X134382170Y-120612161D01*
X134321038Y-120571314D01*
X133460000Y-120400043D01*
X132598962Y-120571314D01*
X131887065Y-121046989D01*
X131573845Y-120860166D01*
X131323415Y-120792186D01*
X131020000Y-120990422D01*
X130820000Y-120990422D01*
X130516585Y-120792186D01*
X130266155Y-120860166D01*
X130030000Y-121001023D01*
X130030000Y-120380000D01*
X130011350Y-120286239D01*
X129904402Y-119748573D01*
X129629732Y-119337500D01*
X138550000Y-119337500D01*
X138550000Y-120038967D01*
X138694629Y-120388132D01*
X138961868Y-120655371D01*
X139311033Y-120800000D01*
X140162500Y-120800000D01*
X140400000Y-120562500D01*
X140400000Y-119100000D01*
X138787500Y-119100000D01*
X138550000Y-119337500D01*
X129629732Y-119337500D01*
X129546726Y-119213274D01*
X129305900Y-118972448D01*
X129324076Y-118945847D01*
X129424488Y-118450000D01*
X129424488Y-117750000D01*
X131432328Y-117750000D01*
X131504153Y-117799076D01*
X132000000Y-117899488D01*
X133500000Y-117899488D01*
X133963222Y-117812327D01*
X134332038Y-117575000D01*
X134912500Y-117575000D01*
X135150000Y-117337500D01*
X135150000Y-116100000D01*
X135350000Y-116100000D01*
X135350000Y-117337500D01*
X135587500Y-117575000D01*
X136188967Y-117575000D01*
X136538132Y-117430371D01*
X136805371Y-117163132D01*
X136950000Y-116813967D01*
X136950000Y-116337500D01*
X136712500Y-116100000D01*
X135350000Y-116100000D01*
X135150000Y-116100000D01*
X135130000Y-116100000D01*
X135130000Y-115900000D01*
X135150000Y-115900000D01*
X135150000Y-114662500D01*
X135350000Y-114662500D01*
X135350000Y-115900000D01*
X136712500Y-115900000D01*
X136775000Y-115837500D01*
X138550000Y-115837500D01*
X138550000Y-116538967D01*
X138694629Y-116888132D01*
X138961868Y-117155371D01*
X139190322Y-117250000D01*
X138961868Y-117344629D01*
X138694629Y-117611868D01*
X138550000Y-117961033D01*
X138550000Y-118662500D01*
X138787500Y-118900000D01*
X140400000Y-118900000D01*
X140400000Y-117437500D01*
X140212500Y-117250000D01*
X140400000Y-117062500D01*
X140400000Y-115600000D01*
X138787500Y-115600000D01*
X138550000Y-115837500D01*
X136775000Y-115837500D01*
X136950000Y-115662500D01*
X136950000Y-115186033D01*
X136805371Y-114836868D01*
X136538132Y-114569629D01*
X136275959Y-114461033D01*
X138550000Y-114461033D01*
X138550000Y-115162500D01*
X138787500Y-115400000D01*
X140400000Y-115400000D01*
X140400000Y-113937500D01*
X140162500Y-113700000D01*
X139311033Y-113700000D01*
X138961868Y-113844629D01*
X138694629Y-114111868D01*
X138550000Y-114461033D01*
X136275959Y-114461033D01*
X136188967Y-114425000D01*
X135587500Y-114425000D01*
X135350000Y-114662500D01*
X135150000Y-114662500D01*
X134912500Y-114425000D01*
X134323793Y-114425000D01*
X133995847Y-114200924D01*
X133500000Y-114100512D01*
X132000000Y-114100512D01*
X131536778Y-114187673D01*
X131439919Y-114250000D01*
X129184964Y-114250000D01*
X129063563Y-114061337D01*
X128977792Y-114002732D01*
X129038663Y-113963563D01*
X129324076Y-113545847D01*
X129424488Y-113050000D01*
X129424488Y-110908964D01*
X130870952Y-109462500D01*
X131300000Y-109462500D01*
X131300000Y-111188967D01*
X131444629Y-111538132D01*
X131711868Y-111805371D01*
X132061033Y-111950000D01*
X133162500Y-111950000D01*
X133400000Y-111712500D01*
X133400000Y-109225000D01*
X133600000Y-109225000D01*
X133600000Y-111712500D01*
X133837500Y-111950000D01*
X134938967Y-111950000D01*
X135210565Y-111837500D01*
X139450000Y-111837500D01*
X139450000Y-112338967D01*
X139594629Y-112688132D01*
X139861868Y-112955371D01*
X140211033Y-113100000D01*
X140812500Y-113100000D01*
X141050000Y-112862500D01*
X141050000Y-111600000D01*
X139687500Y-111600000D01*
X139450000Y-111837500D01*
X135210565Y-111837500D01*
X135288132Y-111805371D01*
X135555371Y-111538132D01*
X135700000Y-111188967D01*
X135700000Y-110661033D01*
X139450000Y-110661033D01*
X139450000Y-111162500D01*
X139687500Y-111400000D01*
X141050000Y-111400000D01*
X141050000Y-110137500D01*
X140812500Y-109900000D01*
X140211033Y-109900000D01*
X139861868Y-110044629D01*
X139594629Y-110311868D01*
X139450000Y-110661033D01*
X135700000Y-110661033D01*
X135700000Y-109462500D01*
X135462500Y-109225000D01*
X133600000Y-109225000D01*
X133400000Y-109225000D01*
X131537500Y-109225000D01*
X131300000Y-109462500D01*
X130870952Y-109462500D01*
X131166726Y-109166726D01*
X131372005Y-108859505D01*
X131537500Y-109025000D01*
X133400000Y-109025000D01*
X133400000Y-106537500D01*
X133600000Y-106537500D01*
X133600000Y-109025000D01*
X135462500Y-109025000D01*
X135700000Y-108787500D01*
X135700000Y-107061033D01*
X135555371Y-106711868D01*
X135288132Y-106444629D01*
X134938967Y-106300000D01*
X133837500Y-106300000D01*
X133600000Y-106537500D01*
X133400000Y-106537500D01*
X133162500Y-106300000D01*
X132061033Y-106300000D01*
X131711868Y-106444629D01*
X131650000Y-106506497D01*
X131650000Y-105852911D01*
X131754153Y-105924076D01*
X132250000Y-106024488D01*
X134750000Y-106024488D01*
X135213222Y-105937327D01*
X135638663Y-105663563D01*
X135924076Y-105245847D01*
X136024488Y-104750000D01*
X136024488Y-104525000D01*
X136625000Y-104525000D01*
X137256428Y-104399401D01*
X137791726Y-104041726D01*
X137861585Y-103971867D01*
X137825512Y-104150000D01*
X137825512Y-106150000D01*
X137912673Y-106613222D01*
X138186437Y-107038663D01*
X138604153Y-107324076D01*
X139100000Y-107424488D01*
X142900000Y-107424488D01*
X143363222Y-107337327D01*
X143788663Y-107063563D01*
X144074076Y-106645847D01*
X144174488Y-106150000D01*
X144174488Y-104150000D01*
X144087327Y-103686778D01*
X143813563Y-103261337D01*
X143395847Y-102975924D01*
X143376562Y-102972019D01*
X143887428Y-102870401D01*
X144422726Y-102512726D01*
X144539808Y-102337500D01*
X145450000Y-102337500D01*
X145450000Y-102838967D01*
X145594629Y-103188132D01*
X145861868Y-103455371D01*
X145969612Y-103500000D01*
X145861868Y-103544629D01*
X145594629Y-103811868D01*
X145450000Y-104161033D01*
X145450000Y-104662500D01*
X145687500Y-104900000D01*
X147050000Y-104900000D01*
X147050000Y-103637500D01*
X146912500Y-103500000D01*
X147050000Y-103362500D01*
X147050000Y-102100000D01*
X145687500Y-102100000D01*
X145450000Y-102337500D01*
X144539808Y-102337500D01*
X144780401Y-101977428D01*
X144906000Y-101346000D01*
X144780401Y-100714572D01*
X144679676Y-100563827D01*
X144855371Y-100388132D01*
X145000000Y-100038967D01*
X145000000Y-99337500D01*
X145450000Y-99337500D01*
X145450000Y-99838967D01*
X145594629Y-100188132D01*
X145861868Y-100455371D01*
X145969612Y-100500000D01*
X145861868Y-100544629D01*
X145594629Y-100811868D01*
X145450000Y-101161033D01*
X145450000Y-101662500D01*
X145687500Y-101900000D01*
X147050000Y-101900000D01*
X147050000Y-100637500D01*
X146912500Y-100500000D01*
X147050000Y-100362500D01*
X147050000Y-99100000D01*
X145687500Y-99100000D01*
X145450000Y-99337500D01*
X145000000Y-99337500D01*
X145000000Y-99187500D01*
X144762500Y-98950000D01*
X143400000Y-98950000D01*
X143400000Y-98970000D01*
X143200000Y-98970000D01*
X143200000Y-98950000D01*
X143180000Y-98950000D01*
X143180000Y-98750000D01*
X143200000Y-98750000D01*
X143200000Y-97137500D01*
X143400000Y-97137500D01*
X143400000Y-98750000D01*
X144762500Y-98750000D01*
X145000000Y-98512500D01*
X145000000Y-98161033D01*
X145450000Y-98161033D01*
X145450000Y-98662500D01*
X145687500Y-98900000D01*
X147050000Y-98900000D01*
X147050000Y-97637500D01*
X146812500Y-97400000D01*
X146211033Y-97400000D01*
X145861868Y-97544629D01*
X145594629Y-97811868D01*
X145450000Y-98161033D01*
X145000000Y-98161033D01*
X145000000Y-97661033D01*
X144855371Y-97311868D01*
X144588132Y-97044629D01*
X144238967Y-96900000D01*
X143637500Y-96900000D01*
X143400000Y-97137500D01*
X143200000Y-97137500D01*
X143033621Y-96971121D01*
X143213222Y-96937327D01*
X143638663Y-96663563D01*
X143924076Y-96245847D01*
X144024488Y-95750000D01*
X144024488Y-94837500D01*
X144300000Y-94837500D01*
X144300000Y-95938967D01*
X144444629Y-96288132D01*
X144711868Y-96555371D01*
X145061033Y-96700000D01*
X146787500Y-96700000D01*
X147025000Y-96462500D01*
X147025000Y-94600000D01*
X147225000Y-94600000D01*
X147225000Y-96462500D01*
X147462500Y-96700000D01*
X149188967Y-96700000D01*
X149283041Y-96661033D01*
X152450000Y-96661033D01*
X152450000Y-97162500D01*
X152687500Y-97400000D01*
X154050000Y-97400000D01*
X154050000Y-96137500D01*
X153812500Y-95900000D01*
X153211033Y-95900000D01*
X152861868Y-96044629D01*
X152594629Y-96311868D01*
X152450000Y-96661033D01*
X149283041Y-96661033D01*
X149538132Y-96555371D01*
X149805371Y-96288132D01*
X149950000Y-95938967D01*
X149950000Y-94837500D01*
X149712500Y-94600000D01*
X147225000Y-94600000D01*
X147025000Y-94600000D01*
X144537500Y-94600000D01*
X144300000Y-94837500D01*
X144024488Y-94837500D01*
X144024488Y-93250000D01*
X143988932Y-93061033D01*
X144300000Y-93061033D01*
X144300000Y-94162500D01*
X144537500Y-94400000D01*
X147025000Y-94400000D01*
X147025000Y-92537500D01*
X147225000Y-92537500D01*
X147225000Y-94400000D01*
X149712500Y-94400000D01*
X149775000Y-94337500D01*
X152450000Y-94337500D01*
X152450000Y-94838967D01*
X152594629Y-95188132D01*
X152861868Y-95455371D01*
X153211033Y-95600000D01*
X153812500Y-95600000D01*
X154050000Y-95362500D01*
X154050000Y-94100000D01*
X152687500Y-94100000D01*
X152450000Y-94337500D01*
X149775000Y-94337500D01*
X149950000Y-94162500D01*
X149950000Y-93161033D01*
X152450000Y-93161033D01*
X152450000Y-93662500D01*
X152687500Y-93900000D01*
X154050000Y-93900000D01*
X154050000Y-92637500D01*
X153812500Y-92400000D01*
X153211033Y-92400000D01*
X152861868Y-92544629D01*
X152594629Y-92811868D01*
X152450000Y-93161033D01*
X149950000Y-93161033D01*
X149950000Y-93061033D01*
X149805371Y-92711868D01*
X149538132Y-92444629D01*
X149188967Y-92300000D01*
X147462500Y-92300000D01*
X147225000Y-92537500D01*
X147025000Y-92537500D01*
X146787500Y-92300000D01*
X145061033Y-92300000D01*
X144711868Y-92444629D01*
X144444629Y-92711868D01*
X144300000Y-93061033D01*
X143988932Y-93061033D01*
X143937327Y-92786778D01*
X143663563Y-92361337D01*
X143245847Y-92075924D01*
X142750000Y-91975512D01*
X139000000Y-91975512D01*
X138536778Y-92062673D01*
X138111337Y-92336437D01*
X137825924Y-92754153D01*
X137765000Y-93055003D01*
X137765000Y-91337500D01*
X137527500Y-91100000D01*
X135699718Y-91100000D01*
X135700306Y-90900000D01*
X137527500Y-90900000D01*
X137765000Y-90662500D01*
X137765000Y-88797500D01*
X137527500Y-88560000D01*
X135640000Y-88560000D01*
X135640000Y-88580000D01*
X135440000Y-88580000D01*
X135440000Y-88560000D01*
X135420000Y-88560000D01*
X135420000Y-88360000D01*
X135440000Y-88360000D01*
X135440000Y-86472500D01*
X135640000Y-86472500D01*
X135640000Y-88360000D01*
X137527500Y-88360000D01*
X137765000Y-88122500D01*
X137765000Y-88087500D01*
X138925000Y-88087500D01*
X138925000Y-88688967D01*
X139069629Y-89038132D01*
X139336868Y-89305371D01*
X139686033Y-89450000D01*
X140162500Y-89450000D01*
X140400000Y-89212500D01*
X140400000Y-87850000D01*
X140600000Y-87850000D01*
X140600000Y-89212500D01*
X140837500Y-89450000D01*
X141313967Y-89450000D01*
X141663132Y-89305371D01*
X141930371Y-89038132D01*
X142075000Y-88688967D01*
X142075000Y-88087500D01*
X141837500Y-87850000D01*
X140600000Y-87850000D01*
X140400000Y-87850000D01*
X139162500Y-87850000D01*
X138925000Y-88087500D01*
X137765000Y-88087500D01*
X137765000Y-86996033D01*
X137620371Y-86646868D01*
X137353132Y-86379629D01*
X137003967Y-86235000D01*
X135877500Y-86235000D01*
X135640000Y-86472500D01*
X135440000Y-86472500D01*
X135202500Y-86235000D01*
X134076033Y-86235000D01*
X133726868Y-86379629D01*
X133459629Y-86646868D01*
X133315000Y-86996033D01*
X133315000Y-88122500D01*
X133493939Y-88301439D01*
X132508954Y-88298546D01*
X132685000Y-88122500D01*
X132685000Y-86996033D01*
X132540371Y-86646868D01*
X132273132Y-86379629D01*
X131923967Y-86235000D01*
X130797500Y-86235000D01*
X130560000Y-86472500D01*
X130560000Y-88360000D01*
X130580000Y-88360000D01*
X130580000Y-88560000D01*
X130560000Y-88560000D01*
X130560000Y-88580000D01*
X130360000Y-88580000D01*
X130360000Y-88560000D01*
X128472500Y-88560000D01*
X128235000Y-88797500D01*
X128235000Y-90662500D01*
X128472500Y-90900000D01*
X130300282Y-90900000D01*
X130299694Y-91100000D01*
X128472500Y-91100000D01*
X128235000Y-91337500D01*
X128235000Y-93202500D01*
X128472500Y-93440000D01*
X130360000Y-93440000D01*
X130360000Y-93420000D01*
X130560000Y-93420000D01*
X130560000Y-93440000D01*
X130580000Y-93440000D01*
X130580000Y-93640000D01*
X130560000Y-93640000D01*
X130560000Y-95527500D01*
X130797500Y-95765000D01*
X131923967Y-95765000D01*
X132273132Y-95620371D01*
X132540371Y-95353132D01*
X132685000Y-95003967D01*
X132685000Y-93877500D01*
X132506061Y-93698561D01*
X133491046Y-93701454D01*
X133315000Y-93877500D01*
X133315000Y-95003967D01*
X133459629Y-95353132D01*
X133726868Y-95620371D01*
X134076033Y-95765000D01*
X135202500Y-95765000D01*
X135440000Y-95527500D01*
X135440000Y-93640000D01*
X135420000Y-93640000D01*
X135420000Y-93440000D01*
X135440000Y-93440000D01*
X135440000Y-93420000D01*
X135640000Y-93420000D01*
X135640000Y-93440000D01*
X135660000Y-93440000D01*
X135660000Y-93640000D01*
X135640000Y-93640000D01*
X135640000Y-95527500D01*
X135877500Y-95765000D01*
X137003967Y-95765000D01*
X137353132Y-95620371D01*
X137620371Y-95353132D01*
X137725512Y-95099299D01*
X137725512Y-95750000D01*
X137812673Y-96213222D01*
X138045800Y-96575512D01*
X137950000Y-96575512D01*
X137486778Y-96662673D01*
X137061337Y-96936437D01*
X136775924Y-97354153D01*
X136675512Y-97850000D01*
X136675512Y-99850000D01*
X136762673Y-100313222D01*
X136798167Y-100368381D01*
X136024488Y-101142060D01*
X136024488Y-101000000D01*
X135937327Y-100536778D01*
X135663563Y-100111337D01*
X135245847Y-99825924D01*
X134750000Y-99725512D01*
X132250000Y-99725512D01*
X132035378Y-99765896D01*
X132332038Y-99575000D01*
X132912500Y-99575000D01*
X133150000Y-99337500D01*
X133150000Y-98100000D01*
X133350000Y-98100000D01*
X133350000Y-99337500D01*
X133587500Y-99575000D01*
X134188967Y-99575000D01*
X134538132Y-99430371D01*
X134805371Y-99163132D01*
X134950000Y-98813967D01*
X134950000Y-98337500D01*
X134712500Y-98100000D01*
X133350000Y-98100000D01*
X133150000Y-98100000D01*
X133130000Y-98100000D01*
X133130000Y-97900000D01*
X133150000Y-97900000D01*
X133150000Y-96662500D01*
X133350000Y-96662500D01*
X133350000Y-97900000D01*
X134712500Y-97900000D01*
X134950000Y-97662500D01*
X134950000Y-97186033D01*
X134805371Y-96836868D01*
X134538132Y-96569629D01*
X134188967Y-96425000D01*
X133587500Y-96425000D01*
X133350000Y-96662500D01*
X133150000Y-96662500D01*
X132912500Y-96425000D01*
X132323793Y-96425000D01*
X131995847Y-96200924D01*
X131500000Y-96100512D01*
X130307448Y-96100512D01*
X130153428Y-95997599D01*
X129522000Y-95872000D01*
X127728971Y-95872000D01*
X127482000Y-95703252D01*
X127482000Y-94794000D01*
X127356401Y-94162572D01*
X127165922Y-93877500D01*
X128235000Y-93877500D01*
X128235000Y-95003967D01*
X128379629Y-95353132D01*
X128646868Y-95620371D01*
X128996033Y-95765000D01*
X130122500Y-95765000D01*
X130360000Y-95527500D01*
X130360000Y-93640000D01*
X128472500Y-93640000D01*
X128235000Y-93877500D01*
X127165922Y-93877500D01*
X126998726Y-93627274D01*
X126222488Y-92851036D01*
X126222488Y-90785000D01*
X126135327Y-90321778D01*
X125861563Y-89896337D01*
X125443847Y-89610924D01*
X124948000Y-89510512D01*
X122448000Y-89510512D01*
X121984778Y-89597673D01*
X121559337Y-89871437D01*
X121273924Y-90289153D01*
X121173512Y-90785000D01*
X121173512Y-94535000D01*
X121260673Y-94998222D01*
X121534437Y-95423663D01*
X121952153Y-95709076D01*
X122448000Y-95809488D01*
X124019406Y-95809488D01*
X123943337Y-95858437D01*
X123657924Y-96276153D01*
X123557512Y-96772000D01*
X123557512Y-98172000D01*
X121806488Y-98172000D01*
X121806488Y-97922000D01*
X121719327Y-97458778D01*
X121445563Y-97033337D01*
X121027847Y-96747924D01*
X120532000Y-96647512D01*
X118532000Y-96647512D01*
X118068778Y-96734673D01*
X117643337Y-97008437D01*
X117357924Y-97426153D01*
X117279908Y-97811405D01*
X117163132Y-97694629D01*
X116813967Y-97550000D01*
X116337500Y-97550000D01*
X116100000Y-97787500D01*
X116100000Y-99150000D01*
X116120000Y-99150000D01*
X116120000Y-99350000D01*
X116100000Y-99350000D01*
X116100000Y-99370000D01*
X115900000Y-99370000D01*
X115900000Y-99350000D01*
X114662500Y-99350000D01*
X114425000Y-99587500D01*
X114425000Y-100176207D01*
X114247484Y-100436010D01*
X114075000Y-100167962D01*
X114075000Y-99587500D01*
X113837500Y-99350000D01*
X112600000Y-99350000D01*
X112600000Y-99370000D01*
X112400000Y-99370000D01*
X112400000Y-99350000D01*
X111162500Y-99350000D01*
X110925000Y-99587500D01*
X110925000Y-100176207D01*
X110700924Y-100504153D01*
X110600512Y-101000000D01*
X110600512Y-101006000D01*
X109308226Y-101006000D01*
X109138563Y-100742337D01*
X108720847Y-100456924D01*
X108225000Y-100356512D01*
X107675000Y-100356512D01*
X107301782Y-100426738D01*
X106955000Y-100356512D01*
X106405000Y-100356512D01*
X106031782Y-100426738D01*
X105685000Y-100356512D01*
X105135000Y-100356512D01*
X104671778Y-100443673D01*
X104246337Y-100717437D01*
X104040000Y-101019421D01*
X104040000Y-100918500D01*
X103802500Y-100681000D01*
X103676033Y-100681000D01*
X103326868Y-100825629D01*
X103059629Y-101092868D01*
X102915000Y-101442033D01*
X102915000Y-102072677D01*
X102885819Y-101925975D01*
X102560660Y-101439340D01*
X101899488Y-100778168D01*
X101899488Y-99500000D01*
X101812327Y-99036778D01*
X101575000Y-98667962D01*
X101575000Y-98311033D01*
X110925000Y-98311033D01*
X110925000Y-98912500D01*
X111162500Y-99150000D01*
X112400000Y-99150000D01*
X112400000Y-97787500D01*
X112600000Y-97787500D01*
X112600000Y-99150000D01*
X113837500Y-99150000D01*
X114075000Y-98912500D01*
X114075000Y-98311033D01*
X114425000Y-98311033D01*
X114425000Y-98912500D01*
X114662500Y-99150000D01*
X115900000Y-99150000D01*
X115900000Y-97787500D01*
X115662500Y-97550000D01*
X115186033Y-97550000D01*
X114836868Y-97694629D01*
X114569629Y-97961868D01*
X114425000Y-98311033D01*
X114075000Y-98311033D01*
X113930371Y-97961868D01*
X113663132Y-97694629D01*
X113313967Y-97550000D01*
X112837500Y-97550000D01*
X112600000Y-97787500D01*
X112400000Y-97787500D01*
X112162500Y-97550000D01*
X111686033Y-97550000D01*
X111336868Y-97694629D01*
X111069629Y-97961868D01*
X110925000Y-98311033D01*
X101575000Y-98311033D01*
X101575000Y-98087500D01*
X101337500Y-97850000D01*
X100100000Y-97850000D01*
X100100000Y-97870000D01*
X99900000Y-97870000D01*
X99900000Y-97850000D01*
X98662500Y-97850000D01*
X98425000Y-98087500D01*
X98425000Y-98676207D01*
X98247484Y-98936010D01*
X98075000Y-98667962D01*
X98075000Y-98087500D01*
X97837500Y-97850000D01*
X96600000Y-97850000D01*
X96600000Y-97870000D01*
X96400000Y-97870000D01*
X96400000Y-97850000D01*
X95162500Y-97850000D01*
X94925000Y-98087500D01*
X94925000Y-98676207D01*
X94700924Y-99004153D01*
X94600512Y-99500000D01*
X94600512Y-101000000D01*
X94687673Y-101463222D01*
X94961437Y-101888663D01*
X95000000Y-101915012D01*
X95000000Y-102545512D01*
X93825000Y-102545512D01*
X93361778Y-102632673D01*
X92936337Y-102906437D01*
X92650924Y-103324153D01*
X92550512Y-103820000D01*
X92550512Y-103986172D01*
X92074340Y-104304340D01*
X91500000Y-104878680D01*
X90925660Y-104304340D01*
X90439025Y-103979181D01*
X89865000Y-103865000D01*
X89449488Y-103865000D01*
X89449488Y-103820000D01*
X89362327Y-103356778D01*
X89088563Y-102931337D01*
X88670847Y-102645924D01*
X88175000Y-102545512D01*
X87834269Y-102545512D01*
X87924488Y-102100000D01*
X87924488Y-100600000D01*
X87837327Y-100136778D01*
X87751058Y-100002712D01*
X87824076Y-99895847D01*
X87924488Y-99400000D01*
X87924488Y-97900000D01*
X87837327Y-97436778D01*
X87650000Y-97145664D01*
X87650000Y-95683452D01*
X90683452Y-92650000D01*
X91910512Y-92650000D01*
X91910512Y-94815000D01*
X91997673Y-95278222D01*
X92271437Y-95703663D01*
X92689153Y-95989076D01*
X93185000Y-96089488D01*
X95590701Y-96089488D01*
X95336868Y-96194629D01*
X95069629Y-96461868D01*
X94925000Y-96811033D01*
X94925000Y-97412500D01*
X95162500Y-97650000D01*
X96400000Y-97650000D01*
X96400000Y-96287500D01*
X96600000Y-96287500D01*
X96600000Y-97650000D01*
X97837500Y-97650000D01*
X98075000Y-97412500D01*
X98075000Y-96811033D01*
X97930371Y-96461868D01*
X97663132Y-96194629D01*
X97313967Y-96050000D01*
X96837500Y-96050000D01*
X96600000Y-96287500D01*
X96400000Y-96287500D01*
X96162500Y-96050000D01*
X95944861Y-96050000D01*
X96198222Y-96002327D01*
X96623663Y-95728563D01*
X96752503Y-95540000D01*
X97246123Y-95540000D01*
X97351437Y-95703663D01*
X97769153Y-95989076D01*
X98265000Y-96089488D01*
X99090701Y-96089488D01*
X98836868Y-96194629D01*
X98569629Y-96461868D01*
X98425000Y-96811033D01*
X98425000Y-97412500D01*
X98662500Y-97650000D01*
X99900000Y-97650000D01*
X99900000Y-97630000D01*
X100100000Y-97630000D01*
X100100000Y-97650000D01*
X101337500Y-97650000D01*
X101575000Y-97412500D01*
X101575000Y-96811033D01*
X101430371Y-96461868D01*
X101163132Y-96194629D01*
X100879843Y-96077287D01*
X101278222Y-96002327D01*
X101703663Y-95728563D01*
X101737528Y-95679000D01*
X102559998Y-95679000D01*
X102590512Y-95709514D01*
X102590512Y-95981000D01*
X102677673Y-96444222D01*
X102951437Y-96869663D01*
X103369153Y-97155076D01*
X103865000Y-97255488D01*
X104415000Y-97255488D01*
X104788218Y-97185262D01*
X105135000Y-97255488D01*
X105685000Y-97255488D01*
X106058218Y-97185262D01*
X106405000Y-97255488D01*
X106955000Y-97255488D01*
X107328218Y-97185262D01*
X107675000Y-97255488D01*
X108225000Y-97255488D01*
X108688222Y-97168327D01*
X109113663Y-96894563D01*
X109399076Y-96476847D01*
X109499488Y-95981000D01*
X109499488Y-95709515D01*
X109530003Y-95679000D01*
X110255567Y-95679000D01*
X110271437Y-95703663D01*
X110689153Y-95989076D01*
X111185000Y-96089488D01*
X113735000Y-96089488D01*
X114198222Y-96002327D01*
X114623663Y-95728563D01*
X114752503Y-95540000D01*
X115246123Y-95540000D01*
X115351437Y-95703663D01*
X115769153Y-95989076D01*
X116265000Y-96089488D01*
X118815000Y-96089488D01*
X119278222Y-96002327D01*
X119703663Y-95728563D01*
X119989076Y-95310847D01*
X120089488Y-94815000D01*
X120089488Y-87185000D01*
X120007167Y-86747500D01*
X121498000Y-86747500D01*
X121498000Y-88473967D01*
X121642629Y-88823132D01*
X121909868Y-89090371D01*
X122259033Y-89235000D01*
X123360500Y-89235000D01*
X123598000Y-88997500D01*
X123598000Y-86510000D01*
X123798000Y-86510000D01*
X123798000Y-88997500D01*
X124035500Y-89235000D01*
X125136967Y-89235000D01*
X125486132Y-89090371D01*
X125753371Y-88823132D01*
X125898000Y-88473967D01*
X125898000Y-86996033D01*
X128235000Y-86996033D01*
X128235000Y-88122500D01*
X128472500Y-88360000D01*
X130360000Y-88360000D01*
X130360000Y-86472500D01*
X130122500Y-86235000D01*
X128996033Y-86235000D01*
X128646868Y-86379629D01*
X128379629Y-86646868D01*
X128235000Y-86996033D01*
X125898000Y-86996033D01*
X125898000Y-86747500D01*
X125660500Y-86510000D01*
X123798000Y-86510000D01*
X123598000Y-86510000D01*
X121735500Y-86510000D01*
X121498000Y-86747500D01*
X120007167Y-86747500D01*
X120002327Y-86721778D01*
X119728563Y-86296337D01*
X119310847Y-86010924D01*
X118815000Y-85910512D01*
X116265000Y-85910512D01*
X115801778Y-85997673D01*
X115376337Y-86271437D01*
X115247497Y-86460000D01*
X114753877Y-86460000D01*
X114648563Y-86296337D01*
X114230847Y-86010924D01*
X113735000Y-85910512D01*
X111185000Y-85910512D01*
X110721778Y-85997673D01*
X110296337Y-86271437D01*
X110262472Y-86321000D01*
X108263000Y-86321000D01*
X107444440Y-86483822D01*
X106750498Y-86947499D01*
X105981500Y-87716498D01*
X105212501Y-86947499D01*
X104518560Y-86483822D01*
X103700000Y-86321000D01*
X101744433Y-86321000D01*
X101728563Y-86296337D01*
X101310847Y-86010924D01*
X100815000Y-85910512D01*
X98265000Y-85910512D01*
X97801778Y-85997673D01*
X97376337Y-86271437D01*
X97247497Y-86460000D01*
X96753877Y-86460000D01*
X96648563Y-86296337D01*
X96230847Y-86010924D01*
X95735000Y-85910512D01*
X93185000Y-85910512D01*
X92721778Y-85997673D01*
X92296337Y-86271437D01*
X92010924Y-86689153D01*
X91910512Y-87185000D01*
X91910512Y-89350000D01*
X90000000Y-89350000D01*
X89368572Y-89475599D01*
X88930107Y-89768572D01*
X88833274Y-89833274D01*
X84833274Y-93833274D01*
X84475599Y-94368572D01*
X84350000Y-95000000D01*
X84350000Y-97149384D01*
X84175924Y-97404153D01*
X84075512Y-97900000D01*
X84075512Y-99400000D01*
X84162673Y-99863222D01*
X84248942Y-99997288D01*
X84175924Y-100104153D01*
X84075512Y-100600000D01*
X84075512Y-101591036D01*
X83833274Y-101833274D01*
X83475599Y-102368572D01*
X83350000Y-103000000D01*
X81325000Y-103000000D01*
X81325000Y-86847958D01*
X83293464Y-86847958D01*
X83463858Y-87284448D01*
X84455009Y-87698411D01*
X85529132Y-87701566D01*
X86522698Y-87293432D01*
X86536142Y-87284448D01*
X86706536Y-86847958D01*
X85000000Y-85141421D01*
X83293464Y-86847958D01*
X81325000Y-86847958D01*
X81325000Y-85529132D01*
X82298434Y-85529132D01*
X82706568Y-86522698D01*
X82715552Y-86536142D01*
X83152042Y-86706536D01*
X84858579Y-85000000D01*
X85141421Y-85000000D01*
X86847958Y-86706536D01*
X87284448Y-86536142D01*
X87698411Y-85544991D01*
X87701566Y-84470868D01*
X87650287Y-84346033D01*
X121498000Y-84346033D01*
X121498000Y-86072500D01*
X121735500Y-86310000D01*
X123598000Y-86310000D01*
X123598000Y-83822500D01*
X123798000Y-83822500D01*
X123798000Y-86310000D01*
X125660500Y-86310000D01*
X125898000Y-86072500D01*
X125898000Y-84346033D01*
X125753371Y-83996868D01*
X125486132Y-83729629D01*
X125136967Y-83585000D01*
X124035500Y-83585000D01*
X123798000Y-83822500D01*
X123598000Y-83822500D01*
X123360500Y-83585000D01*
X122259033Y-83585000D01*
X121909868Y-83729629D01*
X121642629Y-83996868D01*
X121498000Y-84346033D01*
X87650287Y-84346033D01*
X87293432Y-83477302D01*
X87284448Y-83463858D01*
X86847958Y-83293464D01*
X85141421Y-85000000D01*
X84858579Y-85000000D01*
X83152042Y-83293464D01*
X82715552Y-83463858D01*
X82301589Y-84455009D01*
X82298434Y-85529132D01*
X81325000Y-85529132D01*
X81325000Y-83152042D01*
X83293464Y-83152042D01*
X85000000Y-84858579D01*
X86706536Y-83152042D01*
X86536142Y-82715552D01*
X85544991Y-82301589D01*
X84470868Y-82298434D01*
X83477302Y-82706568D01*
X83463858Y-82715552D01*
X83293464Y-83152042D01*
X81325000Y-83152042D01*
X81325000Y-81325000D01*
X178675000Y-81325000D01*
X178675000Y-128675000D01*
X178675000Y-128675000D01*
G37*
X178675000Y-128675000D02*
X168452646Y-128675000D01*
X168741982Y-127965808D01*
X168737316Y-127090733D01*
X168636756Y-126847958D01*
X173293464Y-126847958D01*
X173463858Y-127284448D01*
X174455009Y-127698411D01*
X175529132Y-127701566D01*
X176522698Y-127293432D01*
X176536142Y-127284448D01*
X176706536Y-126847958D01*
X175000000Y-125141421D01*
X173293464Y-126847958D01*
X168636756Y-126847958D01*
X168411417Y-126303943D01*
X168240000Y-126255169D01*
X168240000Y-125529132D01*
X172298434Y-125529132D01*
X172706568Y-126522698D01*
X172715552Y-126536142D01*
X173152042Y-126706536D01*
X174858579Y-125000000D01*
X175141421Y-125000000D01*
X176847958Y-126706536D01*
X177284448Y-126536142D01*
X177698411Y-125544991D01*
X177701566Y-124470868D01*
X177293432Y-123477302D01*
X177284448Y-123463858D01*
X176847958Y-123293464D01*
X175141421Y-125000000D01*
X174858579Y-125000000D01*
X173152042Y-123293464D01*
X172715552Y-123463858D01*
X172301589Y-124455009D01*
X172298434Y-125529132D01*
X168240000Y-125529132D01*
X168240000Y-124811033D01*
X168095371Y-124461868D01*
X167828132Y-124194629D01*
X167816365Y-124189755D01*
X167885468Y-123946889D01*
X166540000Y-122601421D01*
X166525858Y-122615564D01*
X166384437Y-122474143D01*
X166398579Y-122460000D01*
X166384437Y-122445858D01*
X166525858Y-122304437D01*
X166540000Y-122318579D01*
X166554143Y-122304437D01*
X166695564Y-122445858D01*
X166681421Y-122460000D01*
X168026889Y-123805468D01*
X168411417Y-123696057D01*
X168633363Y-123152042D01*
X173293464Y-123152042D01*
X175000000Y-124858579D01*
X176706536Y-123152042D01*
X176536142Y-122715552D01*
X175544991Y-122301589D01*
X174470868Y-122298434D01*
X173477302Y-122706568D01*
X173463858Y-122715552D01*
X173293464Y-123152042D01*
X168633363Y-123152042D01*
X168741982Y-122885808D01*
X168737316Y-122010733D01*
X168411417Y-121223943D01*
X168026891Y-121114533D01*
X168193129Y-120948295D01*
X168157285Y-120912451D01*
X168388663Y-120763563D01*
X168674076Y-120345847D01*
X168675074Y-120340921D01*
X168694629Y-120388132D01*
X168961868Y-120655371D01*
X169311033Y-120800000D01*
X170162500Y-120800000D01*
X170400000Y-120562500D01*
X170400000Y-119100000D01*
X170600000Y-119100000D01*
X170600000Y-120562500D01*
X170837500Y-120800000D01*
X171688967Y-120800000D01*
X172038132Y-120655371D01*
X172305371Y-120388132D01*
X172450000Y-120038967D01*
X172450000Y-119337500D01*
X172212500Y-119100000D01*
X170600000Y-119100000D01*
X170400000Y-119100000D01*
X170380000Y-119100000D01*
X170380000Y-118900000D01*
X170400000Y-118900000D01*
X170400000Y-118880000D01*
X170600000Y-118880000D01*
X170600000Y-118900000D01*
X172212500Y-118900000D01*
X172450000Y-118662500D01*
X172450000Y-117961033D01*
X172434863Y-117924488D01*
X173900000Y-117924488D01*
X174363222Y-117837327D01*
X174788663Y-117563563D01*
X174796252Y-117552456D01*
X174911033Y-117600000D01*
X175512500Y-117600000D01*
X175750000Y-117362500D01*
X175750000Y-116100000D01*
X175950000Y-116100000D01*
X175950000Y-117362500D01*
X176187500Y-117600000D01*
X176788967Y-117600000D01*
X177138132Y-117455371D01*
X177405371Y-117188132D01*
X177550000Y-116838967D01*
X177550000Y-116337500D01*
X177312500Y-116100000D01*
X175950000Y-116100000D01*
X175750000Y-116100000D01*
X175730000Y-116100000D01*
X175730000Y-115900000D01*
X175750000Y-115900000D01*
X175750000Y-114637500D01*
X175612500Y-114500000D01*
X175750000Y-114362500D01*
X175750000Y-113100000D01*
X175950000Y-113100000D01*
X175950000Y-114362500D01*
X176087500Y-114500000D01*
X175950000Y-114637500D01*
X175950000Y-115900000D01*
X177312500Y-115900000D01*
X177550000Y-115662500D01*
X177550000Y-115161033D01*
X177405371Y-114811868D01*
X177138132Y-114544629D01*
X177030388Y-114500000D01*
X177138132Y-114455371D01*
X177405371Y-114188132D01*
X177550000Y-113838967D01*
X177550000Y-113337500D01*
X177312500Y-113100000D01*
X175950000Y-113100000D01*
X175750000Y-113100000D01*
X175730000Y-113100000D01*
X175730000Y-112900000D01*
X175750000Y-112900000D01*
X175750000Y-111637500D01*
X175950000Y-111637500D01*
X175950000Y-112900000D01*
X177312500Y-112900000D01*
X177550000Y-112662500D01*
X177550000Y-112161033D01*
X177405371Y-111811868D01*
X177138132Y-111544629D01*
X176788967Y-111400000D01*
X176187500Y-111400000D01*
X175950000Y-111637500D01*
X175750000Y-111637500D01*
X175512500Y-111400000D01*
X175422162Y-111400000D01*
X175478574Y-111252624D01*
X175475114Y-111125110D01*
X175484774Y-111076544D01*
X175574076Y-110945847D01*
X175674488Y-110450000D01*
X175674488Y-109663432D01*
X175813222Y-109637327D01*
X176238663Y-109363563D01*
X176524076Y-108945847D01*
X176624488Y-108450000D01*
X176624488Y-107550000D01*
X176537327Y-107086778D01*
X176450000Y-106951068D01*
X176450000Y-106950000D01*
X176444925Y-106924488D01*
X176600000Y-106924488D01*
X177063222Y-106837327D01*
X177488663Y-106563563D01*
X177774076Y-106145847D01*
X177874488Y-105650000D01*
X177874488Y-104350000D01*
X177787327Y-103886778D01*
X177535363Y-103495215D01*
X177774076Y-103145847D01*
X177874488Y-102650000D01*
X177874488Y-101350000D01*
X177787327Y-100886778D01*
X177535363Y-100495215D01*
X177774076Y-100145847D01*
X177874488Y-99650000D01*
X177874488Y-98350000D01*
X177787327Y-97886778D01*
X177513563Y-97461337D01*
X177250000Y-97281252D01*
X177250000Y-97179430D01*
X177299730Y-97059667D01*
X177300268Y-96443039D01*
X177064792Y-95873143D01*
X176629151Y-95436740D01*
X176059667Y-95200270D01*
X175443039Y-95199732D01*
X174873143Y-95435208D01*
X174436740Y-95870849D01*
X174200270Y-96440333D01*
X174199732Y-97056961D01*
X174250000Y-97178619D01*
X174250000Y-97411558D01*
X174211337Y-97436437D01*
X174203748Y-97447544D01*
X174088967Y-97400000D01*
X173616257Y-97400000D01*
X173824076Y-97095847D01*
X173924488Y-96600000D01*
X173924488Y-95100000D01*
X173837327Y-94636778D01*
X173563563Y-94211337D01*
X173552456Y-94203748D01*
X173600000Y-94088967D01*
X173600000Y-93487500D01*
X173362500Y-93250000D01*
X172100000Y-93250000D01*
X172100000Y-93270000D01*
X171900000Y-93270000D01*
X171900000Y-93250000D01*
X170637500Y-93250000D01*
X170400000Y-93487500D01*
X170400000Y-94088967D01*
X170448286Y-94205538D01*
X170175924Y-94604153D01*
X170075512Y-95100000D01*
X170075512Y-95500000D01*
X169130000Y-95500000D01*
X169130000Y-95037500D01*
X168892500Y-94800000D01*
X168184488Y-94800000D01*
X168184488Y-94600000D01*
X168892500Y-94600000D01*
X169130000Y-94362500D01*
X169130000Y-93636033D01*
X168985371Y-93286868D01*
X168718132Y-93019629D01*
X168368967Y-92875000D01*
X168242500Y-92875000D01*
X168109699Y-93007801D01*
X168020819Y-92560975D01*
X167786996Y-92211033D01*
X170400000Y-92211033D01*
X170400000Y-92812500D01*
X170637500Y-93050000D01*
X171900000Y-93050000D01*
X171900000Y-91687500D01*
X172100000Y-91687500D01*
X172100000Y-93050000D01*
X173362500Y-93050000D01*
X173600000Y-92812500D01*
X173600000Y-92211033D01*
X173455371Y-91861868D01*
X173188132Y-91594629D01*
X172838967Y-91450000D01*
X172337500Y-91450000D01*
X172100000Y-91687500D01*
X171900000Y-91687500D01*
X171662500Y-91450000D01*
X171161033Y-91450000D01*
X170811868Y-91594629D01*
X170544629Y-91861868D01*
X170400000Y-92211033D01*
X167786996Y-92211033D01*
X167695660Y-92074340D01*
X165065935Y-89444615D01*
X165090000Y-89449488D01*
X165640000Y-89449488D01*
X166013218Y-89379262D01*
X166360000Y-89449488D01*
X166910000Y-89449488D01*
X167373222Y-89362327D01*
X167798663Y-89088563D01*
X168005000Y-88786579D01*
X168005000Y-88887500D01*
X168242500Y-89125000D01*
X168368967Y-89125000D01*
X168718132Y-88980371D01*
X168985371Y-88713132D01*
X169130000Y-88363967D01*
X169130000Y-87637500D01*
X168892500Y-87400000D01*
X168184488Y-87400000D01*
X168184488Y-87200000D01*
X168892500Y-87200000D01*
X169130000Y-86962500D01*
X169130000Y-86847958D01*
X173293464Y-86847958D01*
X173463858Y-87284448D01*
X174455009Y-87698411D01*
X175529132Y-87701566D01*
X176522698Y-87293432D01*
X176536142Y-87284448D01*
X176706536Y-86847958D01*
X175000000Y-85141421D01*
X173293464Y-86847958D01*
X169130000Y-86847958D01*
X169130000Y-86236033D01*
X168985371Y-85886868D01*
X168718132Y-85619629D01*
X168499653Y-85529132D01*
X172298434Y-85529132D01*
X172706568Y-86522698D01*
X172715552Y-86536142D01*
X173152042Y-86706536D01*
X174858579Y-85000000D01*
X175141421Y-85000000D01*
X176847958Y-86706536D01*
X177284448Y-86536142D01*
X177698411Y-85544991D01*
X177701566Y-84470868D01*
X177293432Y-83477302D01*
X177284448Y-83463858D01*
X176847958Y-83293464D01*
X175141421Y-85000000D01*
X174858579Y-85000000D01*
X173152042Y-83293464D01*
X172715552Y-83463858D01*
X172301589Y-84455009D01*
X172298434Y-85529132D01*
X168499653Y-85529132D01*
X168399678Y-85487721D01*
X168538132Y-85430371D01*
X168805371Y-85163132D01*
X168950000Y-84813967D01*
X168950000Y-84337500D01*
X168712500Y-84100000D01*
X167350000Y-84100000D01*
X167350000Y-84120000D01*
X167150000Y-84120000D01*
X167150000Y-84100000D01*
X167130000Y-84100000D01*
X167130000Y-83900000D01*
X167150000Y-83900000D01*
X167150000Y-82662500D01*
X167350000Y-82662500D01*
X167350000Y-83900000D01*
X168712500Y-83900000D01*
X168950000Y-83662500D01*
X168950000Y-83186033D01*
X168935921Y-83152042D01*
X173293464Y-83152042D01*
X175000000Y-84858579D01*
X176706536Y-83152042D01*
X176536142Y-82715552D01*
X175544991Y-82301589D01*
X174470868Y-82298434D01*
X173477302Y-82706568D01*
X173463858Y-82715552D01*
X173293464Y-83152042D01*
X168935921Y-83152042D01*
X168805371Y-82836868D01*
X168538132Y-82569629D01*
X168188967Y-82425000D01*
X167587500Y-82425000D01*
X167350000Y-82662500D01*
X167150000Y-82662500D01*
X166912500Y-82425000D01*
X166323793Y-82425000D01*
X165995847Y-82200924D01*
X165500000Y-82100512D01*
X164000000Y-82100512D01*
X163536778Y-82187673D01*
X163111337Y-82461437D01*
X163084988Y-82500000D01*
X162538442Y-82500000D01*
X162513563Y-82461337D01*
X162095847Y-82175924D01*
X161600000Y-82075512D01*
X160100000Y-82075512D01*
X159636778Y-82162673D01*
X159502712Y-82248942D01*
X159395847Y-82175924D01*
X158900000Y-82075512D01*
X157400000Y-82075512D01*
X156936778Y-82162673D01*
X156511337Y-82436437D01*
X156467906Y-82500000D01*
X145546971Y-82500000D01*
X145145847Y-82225924D01*
X144650000Y-82125512D01*
X143350000Y-82125512D01*
X142886778Y-82212673D01*
X142461337Y-82486437D01*
X142349579Y-82650000D01*
X140850000Y-82650000D01*
X140275975Y-82764181D01*
X140147538Y-82850000D01*
X137250000Y-82850000D01*
X136618572Y-82975599D01*
X136083274Y-83333274D01*
X135725599Y-83868572D01*
X135600000Y-84500000D01*
X135725599Y-85131428D01*
X136083274Y-85666726D01*
X136618572Y-86024401D01*
X137250000Y-86150000D01*
X138628736Y-86150000D01*
X138687673Y-86463222D01*
X138925000Y-86832038D01*
X138925000Y-87412500D01*
X139162500Y-87650000D01*
X140400000Y-87650000D01*
X140400000Y-87630000D01*
X140600000Y-87630000D01*
X140600000Y-87650000D01*
X141837500Y-87650000D01*
X142075000Y-87412500D01*
X142075000Y-86823793D01*
X142075512Y-86823044D01*
X142075512Y-87600000D01*
X142162673Y-88063222D01*
X142436437Y-88488663D01*
X142854153Y-88774076D01*
X143350000Y-88874488D01*
X144650000Y-88874488D01*
X145113222Y-88787327D01*
X145538663Y-88513563D01*
X145650421Y-88350000D01*
X146234920Y-88350000D01*
X146312673Y-88763222D01*
X146586437Y-89188663D01*
X147004153Y-89474076D01*
X147500000Y-89574488D01*
X149500000Y-89574488D01*
X149963222Y-89487327D01*
X150388663Y-89213563D01*
X150430766Y-89151944D01*
X150636585Y-89207814D01*
X150940000Y-89009578D01*
X150940000Y-87100000D01*
X150920000Y-87100000D01*
X150920000Y-86900000D01*
X150940000Y-86900000D01*
X150940000Y-86880000D01*
X151140000Y-86880000D01*
X151140000Y-86900000D01*
X151160000Y-86900000D01*
X151160000Y-87100000D01*
X151140000Y-87100000D01*
X151140000Y-89009578D01*
X151443415Y-89207814D01*
X151693845Y-89139834D01*
X152007065Y-88953011D01*
X152718962Y-89428686D01*
X153580000Y-89599957D01*
X154441038Y-89428686D01*
X155170990Y-88940947D01*
X155465622Y-88500000D01*
X155807800Y-88500000D01*
X155686740Y-88620849D01*
X155450270Y-89190333D01*
X155449732Y-89806961D01*
X155685208Y-90376857D01*
X156057968Y-90750269D01*
X155686740Y-91120849D01*
X155450270Y-91690333D01*
X155449753Y-92283020D01*
X155211337Y-92436437D01*
X155203748Y-92447544D01*
X155088967Y-92400000D01*
X154487500Y-92400000D01*
X154250000Y-92637500D01*
X154250000Y-93900000D01*
X154270000Y-93900000D01*
X154270000Y-94100000D01*
X154250000Y-94100000D01*
X154250000Y-95362500D01*
X154487500Y-95600000D01*
X155088967Y-95600000D01*
X155205538Y-95551714D01*
X155350000Y-95650421D01*
X155350000Y-95847210D01*
X155211337Y-95936437D01*
X155203748Y-95947544D01*
X155088967Y-95900000D01*
X154487500Y-95900000D01*
X154250000Y-96137500D01*
X154250000Y-97400000D01*
X154270000Y-97400000D01*
X154270000Y-97600000D01*
X154250000Y-97600000D01*
X154250000Y-97620000D01*
X154050000Y-97620000D01*
X154050000Y-97600000D01*
X152687500Y-97600000D01*
X152450000Y-97837500D01*
X152450000Y-98328680D01*
X152060660Y-97939340D01*
X151640495Y-97658595D01*
X151513563Y-97461337D01*
X151095847Y-97175924D01*
X150600000Y-97075512D01*
X149100000Y-97075512D01*
X148636778Y-97162673D01*
X148211337Y-97436437D01*
X148203748Y-97447544D01*
X148088967Y-97400000D01*
X147487500Y-97400000D01*
X147250000Y-97637500D01*
X147250000Y-98900000D01*
X147270000Y-98900000D01*
X147270000Y-99100000D01*
X147250000Y-99100000D01*
X147250000Y-100362500D01*
X147387500Y-100500000D01*
X147250000Y-100637500D01*
X147250000Y-101900000D01*
X147270000Y-101900000D01*
X147270000Y-102100000D01*
X147250000Y-102100000D01*
X147250000Y-103362500D01*
X147387500Y-103500000D01*
X147250000Y-103637500D01*
X147250000Y-104900000D01*
X147270000Y-104900000D01*
X147270000Y-105100000D01*
X147250000Y-105100000D01*
X147250000Y-105120000D01*
X147050000Y-105120000D01*
X147050000Y-105100000D01*
X145687500Y-105100000D01*
X145450000Y-105337500D01*
X145450000Y-105838967D01*
X145594629Y-106188132D01*
X145713102Y-106306605D01*
X145511337Y-106436437D01*
X145225924Y-106854153D01*
X145125512Y-107350000D01*
X145125512Y-108650000D01*
X145212673Y-109113222D01*
X145486437Y-109538663D01*
X145552953Y-109584111D01*
X145535356Y-109592424D01*
X145425975Y-109614181D01*
X145273171Y-109716281D01*
X145203253Y-109749311D01*
X145095847Y-109675924D01*
X144600000Y-109575512D01*
X143100000Y-109575512D01*
X142636778Y-109662673D01*
X142211337Y-109936437D01*
X142203748Y-109947544D01*
X142088967Y-109900000D01*
X141487500Y-109900000D01*
X141250000Y-110137500D01*
X141250000Y-111400000D01*
X141270000Y-111400000D01*
X141270000Y-111600000D01*
X141250000Y-111600000D01*
X141250000Y-112862500D01*
X141487500Y-113100000D01*
X142088967Y-113100000D01*
X142205538Y-113051714D01*
X142604153Y-113324076D01*
X143100000Y-113424488D01*
X143239714Y-113424488D01*
X143036778Y-113462673D01*
X142611337Y-113736437D01*
X142325924Y-114154153D01*
X142324926Y-114159079D01*
X142305371Y-114111868D01*
X142038132Y-113844629D01*
X141688967Y-113700000D01*
X140837500Y-113700000D01*
X140600000Y-113937500D01*
X140600000Y-115400000D01*
X140620000Y-115400000D01*
X140620000Y-115600000D01*
X140600000Y-115600000D01*
X140600000Y-117062500D01*
X140787500Y-117250000D01*
X140600000Y-117437500D01*
X140600000Y-118900000D01*
X140620000Y-118900000D01*
X140620000Y-119100000D01*
X140600000Y-119100000D01*
X140600000Y-120562500D01*
X140837500Y-120800000D01*
X141688967Y-120800000D01*
X142038132Y-120655371D01*
X142305371Y-120388132D01*
X142327108Y-120335654D01*
X142586437Y-120738663D01*
X142841931Y-120913235D01*
X142806871Y-120948295D01*
X142973109Y-121114533D01*
X142588583Y-121223943D01*
X142258018Y-122034192D01*
X142262684Y-122909267D01*
X142588583Y-123696057D01*
X142973111Y-123805468D01*
X144318579Y-122460000D01*
X144304437Y-122445858D01*
X144445858Y-122304437D01*
X144460000Y-122318579D01*
X144474143Y-122304437D01*
X144615564Y-122445858D01*
X144601421Y-122460000D01*
X144615564Y-122474143D01*
X144474143Y-122615564D01*
X144460000Y-122601421D01*
X143114532Y-123946889D01*
X143183635Y-124189755D01*
X143171868Y-124194629D01*
X142904629Y-124461868D01*
X142760000Y-124811033D01*
X142760000Y-126255169D01*
X142588583Y-126303943D01*
X142258018Y-127114192D01*
X142262684Y-127989267D01*
X142546724Y-128675000D01*
X81325000Y-128675000D01*
X81325000Y-126847958D01*
X83293464Y-126847958D01*
X83463858Y-127284448D01*
X84455009Y-127698411D01*
X85529132Y-127701566D01*
X86522698Y-127293432D01*
X86536142Y-127284448D01*
X86706536Y-126847958D01*
X85000000Y-125141421D01*
X83293464Y-126847958D01*
X81325000Y-126847958D01*
X81325000Y-125529132D01*
X82298434Y-125529132D01*
X82706568Y-126522698D01*
X82715552Y-126536142D01*
X83152042Y-126706536D01*
X84858579Y-125000000D01*
X85141421Y-125000000D01*
X86847958Y-126706536D01*
X87284448Y-126536142D01*
X87698411Y-125544991D01*
X87701566Y-124470868D01*
X87293432Y-123477302D01*
X87284448Y-123463858D01*
X86847958Y-123293464D01*
X85141421Y-125000000D01*
X84858579Y-125000000D01*
X83152042Y-123293464D01*
X82715552Y-123463858D01*
X82301589Y-124455009D01*
X82298434Y-125529132D01*
X81325000Y-125529132D01*
X81325000Y-123152042D01*
X83293464Y-123152042D01*
X85000000Y-124858579D01*
X86706536Y-123152042D01*
X86536142Y-122715552D01*
X85544991Y-122301589D01*
X84470868Y-122298434D01*
X83477302Y-122706568D01*
X83463858Y-122715552D01*
X83293464Y-123152042D01*
X81325000Y-123152042D01*
X81325000Y-115687500D01*
X85400000Y-115687500D01*
X85400000Y-116288967D01*
X85544629Y-116638132D01*
X85811868Y-116905371D01*
X86161033Y-117050000D01*
X86662500Y-117050000D01*
X86900000Y-116812500D01*
X86900000Y-115450000D01*
X87100000Y-115450000D01*
X87100000Y-116812500D01*
X87337500Y-117050000D01*
X87838967Y-117050000D01*
X88188132Y-116905371D01*
X88455371Y-116638132D01*
X88533211Y-116450211D01*
X88569629Y-116538132D01*
X88836868Y-116805371D01*
X89186033Y-116950000D01*
X89662500Y-116950000D01*
X89900000Y-116712500D01*
X89900000Y-115350000D01*
X88662500Y-115350000D01*
X88462500Y-115550000D01*
X88362500Y-115450000D01*
X87100000Y-115450000D01*
X86900000Y-115450000D01*
X85637500Y-115450000D01*
X85400000Y-115687500D01*
X81325000Y-115687500D01*
X81325000Y-103000000D01*
X83350000Y-103000000D01*
X83350000Y-110650000D01*
X83475599Y-111281428D01*
X83788689Y-111750000D01*
X83833274Y-111816726D01*
X85075512Y-113058964D01*
X85075512Y-113400000D01*
X85162673Y-113863222D01*
X85436437Y-114288663D01*
X85447544Y-114296252D01*
X85400000Y-114411033D01*
X85400000Y-115012500D01*
X85637500Y-115250000D01*
X86900000Y-115250000D01*
X86900000Y-115230000D01*
X87100000Y-115230000D01*
X87100000Y-115250000D01*
X88362500Y-115250000D01*
X88562500Y-115050000D01*
X88662500Y-115150000D01*
X89900000Y-115150000D01*
X89900000Y-115130000D01*
X90000000Y-115130000D01*
X90000000Y-118750000D01*
X90114181Y-119324025D01*
X90439340Y-119810660D01*
X91632168Y-121003488D01*
X91549010Y-121059053D01*
X91061271Y-121789005D01*
X90890000Y-122650043D01*
X90890000Y-123349957D01*
X91061271Y-124210995D01*
X91549010Y-124940947D01*
X92278962Y-125428686D01*
X93140000Y-125599957D01*
X94001038Y-125428686D01*
X94712935Y-124953011D01*
X95026155Y-125139834D01*
X95276585Y-125207814D01*
X95580000Y-125009578D01*
X95580000Y-123100000D01*
X95780000Y-123100000D01*
X95780000Y-125009578D01*
X96083415Y-125207814D01*
X96333845Y-125139834D01*
X96950000Y-124772323D01*
X97566155Y-125139834D01*
X97816585Y-125207814D01*
X98120000Y-125009578D01*
X98120000Y-123100000D01*
X95780000Y-123100000D01*
X95580000Y-123100000D01*
X95560000Y-123100000D01*
X95560000Y-122900000D01*
X95580000Y-122900000D01*
X95580000Y-122880000D01*
X95780000Y-122880000D01*
X95780000Y-122900000D01*
X98120000Y-122900000D01*
X98120000Y-122880000D01*
X98320000Y-122880000D01*
X98320000Y-122900000D01*
X98340000Y-122900000D01*
X98340000Y-123100000D01*
X98320000Y-123100000D01*
X98320000Y-125009578D01*
X98623415Y-125207814D01*
X98873845Y-125139834D01*
X99187065Y-124953011D01*
X99898962Y-125428686D01*
X100760000Y-125599957D01*
X101621038Y-125428686D01*
X102030000Y-125155426D01*
X102438962Y-125428686D01*
X103300000Y-125599957D01*
X104161038Y-125428686D01*
X104872935Y-124953011D01*
X105186155Y-125139834D01*
X105436585Y-125207814D01*
X105740000Y-125009578D01*
X105740000Y-123100000D01*
X105940000Y-123100000D01*
X105940000Y-125009578D01*
X106243415Y-125207814D01*
X106493845Y-125139834D01*
X107110000Y-124772323D01*
X107726155Y-125139834D01*
X107976585Y-125207814D01*
X108280000Y-125009578D01*
X108280000Y-123100000D01*
X105940000Y-123100000D01*
X105740000Y-123100000D01*
X105720000Y-123100000D01*
X105720000Y-122900000D01*
X105740000Y-122900000D01*
X105740000Y-120990422D01*
X105940000Y-120990422D01*
X105940000Y-122900000D01*
X108280000Y-122900000D01*
X108280000Y-120990422D01*
X107976585Y-120792186D01*
X107726155Y-120860166D01*
X107110000Y-121227677D01*
X106493845Y-120860166D01*
X106243415Y-120792186D01*
X105940000Y-120990422D01*
X105740000Y-120990422D01*
X105436585Y-120792186D01*
X105186155Y-120860166D01*
X104872935Y-121046989D01*
X104738658Y-120957268D01*
X104720102Y-120816980D01*
X104695434Y-120774314D01*
X104685819Y-120725975D01*
X104549748Y-120522331D01*
X104427160Y-120310298D01*
X103593630Y-119361000D01*
X103929500Y-119361000D01*
X104167000Y-119123500D01*
X104167000Y-116636000D01*
X104367000Y-116636000D01*
X104367000Y-119123500D01*
X104604500Y-119361000D01*
X105705967Y-119361000D01*
X106055132Y-119216371D01*
X106322371Y-118949132D01*
X106467000Y-118599967D01*
X106467000Y-116873500D01*
X106229500Y-116636000D01*
X104367000Y-116636000D01*
X104167000Y-116636000D01*
X102304500Y-116636000D01*
X102067000Y-116873500D01*
X102067000Y-118069120D01*
X102053323Y-118066399D01*
X101816710Y-118003153D01*
X101767852Y-118009615D01*
X101719512Y-118000000D01*
X100600000Y-118000000D01*
X100600000Y-117937500D01*
X100362500Y-117700000D01*
X99100000Y-117700000D01*
X99100000Y-117720000D01*
X98900000Y-117720000D01*
X98900000Y-117700000D01*
X98880000Y-117700000D01*
X98880000Y-117500000D01*
X98900000Y-117500000D01*
X98900000Y-117480000D01*
X99100000Y-117480000D01*
X99100000Y-117500000D01*
X100362500Y-117500000D01*
X100600000Y-117262500D01*
X100600000Y-116661033D01*
X100551714Y-116544462D01*
X100824076Y-116145847D01*
X100924488Y-115650000D01*
X100924488Y-114472033D01*
X102067000Y-114472033D01*
X102067000Y-116198500D01*
X102304500Y-116436000D01*
X104167000Y-116436000D01*
X104167000Y-113948500D01*
X104367000Y-113948500D01*
X104367000Y-116436000D01*
X106229500Y-116436000D01*
X106467000Y-116198500D01*
X106467000Y-114472033D01*
X106322371Y-114122868D01*
X106055132Y-113855629D01*
X105705967Y-113711000D01*
X104604500Y-113711000D01*
X104367000Y-113948500D01*
X104167000Y-113948500D01*
X103929500Y-113711000D01*
X102828033Y-113711000D01*
X102478868Y-113855629D01*
X102211629Y-114122868D01*
X102067000Y-114472033D01*
X100924488Y-114472033D01*
X100924488Y-114150000D01*
X100837327Y-113686778D01*
X100800767Y-113629962D01*
X100824076Y-113595847D01*
X100924488Y-113100000D01*
X100924488Y-111600000D01*
X100837327Y-111136778D01*
X100789571Y-111062564D01*
X100924025Y-111035819D01*
X101410660Y-110710660D01*
X101742512Y-110378808D01*
X101742512Y-112161000D01*
X101829673Y-112624222D01*
X102103437Y-113049663D01*
X102521153Y-113335076D01*
X103017000Y-113435488D01*
X105517000Y-113435488D01*
X105980222Y-113348327D01*
X106405663Y-113074563D01*
X106691076Y-112656847D01*
X106791488Y-112161000D01*
X106791488Y-111936000D01*
X107602548Y-111936000D01*
X107917355Y-112250807D01*
X107675924Y-112604153D01*
X107575512Y-113100000D01*
X107575512Y-116900000D01*
X107662673Y-117363222D01*
X107936437Y-117788663D01*
X108354153Y-118074076D01*
X108850000Y-118174488D01*
X110850000Y-118174488D01*
X111313222Y-118087327D01*
X111738663Y-117813563D01*
X111858961Y-117637500D01*
X114200000Y-117637500D01*
X114200000Y-118238967D01*
X114344629Y-118588132D01*
X114611868Y-118855371D01*
X114961033Y-119000000D01*
X115812500Y-119000000D01*
X116050000Y-118762500D01*
X116050000Y-117400000D01*
X116250000Y-117400000D01*
X116250000Y-118762500D01*
X116487500Y-119000000D01*
X117338967Y-119000000D01*
X117688132Y-118855371D01*
X117955371Y-118588132D01*
X118100000Y-118238967D01*
X118100000Y-117637500D01*
X117862500Y-117400000D01*
X116250000Y-117400000D01*
X116050000Y-117400000D01*
X114437500Y-117400000D01*
X114200000Y-117637500D01*
X111858961Y-117637500D01*
X112024076Y-117395847D01*
X112124488Y-116900000D01*
X112124488Y-116650000D01*
X114200000Y-116650000D01*
X114200000Y-116962500D01*
X114437500Y-117200000D01*
X116050000Y-117200000D01*
X116050000Y-117180000D01*
X116250000Y-117180000D01*
X116250000Y-117200000D01*
X117862500Y-117200000D01*
X118100000Y-116962500D01*
X118100000Y-116573793D01*
X118324076Y-116245847D01*
X118424488Y-115750000D01*
X118424488Y-115061033D01*
X118800000Y-115061033D01*
X118800000Y-116787500D01*
X119037500Y-117025000D01*
X120900000Y-117025000D01*
X120900000Y-114537500D01*
X121100000Y-114537500D01*
X121100000Y-117025000D01*
X122962500Y-117025000D01*
X123200000Y-116787500D01*
X123200000Y-115061033D01*
X123055371Y-114711868D01*
X122788132Y-114444629D01*
X122438967Y-114300000D01*
X121337500Y-114300000D01*
X121100000Y-114537500D01*
X120900000Y-114537500D01*
X120662500Y-114300000D01*
X119561033Y-114300000D01*
X119211868Y-114444629D01*
X118944629Y-114711868D01*
X118800000Y-115061033D01*
X118424488Y-115061033D01*
X118424488Y-114250000D01*
X118346460Y-113835314D01*
X118424488Y-113450000D01*
X118424488Y-112908964D01*
X118492606Y-112840846D01*
X118562673Y-113213222D01*
X118836437Y-113638663D01*
X119254153Y-113924076D01*
X119750000Y-114024488D01*
X122250000Y-114024488D01*
X122713222Y-113937327D01*
X123138663Y-113663563D01*
X123424076Y-113245847D01*
X123524488Y-112750000D01*
X123524488Y-109000000D01*
X123437327Y-108536778D01*
X123163563Y-108111337D01*
X122745847Y-107825924D01*
X122620416Y-107800524D01*
X122988663Y-107563563D01*
X122999553Y-107547625D01*
X123404153Y-107824076D01*
X123900000Y-107924488D01*
X125400000Y-107924488D01*
X125863222Y-107837327D01*
X126288663Y-107563563D01*
X126296252Y-107552456D01*
X126411033Y-107600000D01*
X127012500Y-107600000D01*
X127250000Y-107362500D01*
X127250000Y-106100000D01*
X127230000Y-106100000D01*
X127230000Y-105900000D01*
X127250000Y-105900000D01*
X127250000Y-104637500D01*
X127012500Y-104400000D01*
X126721320Y-104400000D01*
X126892660Y-104228660D01*
X126964185Y-104121616D01*
X127295222Y-104059327D01*
X127720663Y-103785563D01*
X128006076Y-103367847D01*
X128021355Y-103292398D01*
X128350000Y-103511992D01*
X128350000Y-104425281D01*
X128288967Y-104400000D01*
X127687500Y-104400000D01*
X127450000Y-104637500D01*
X127450000Y-105900000D01*
X127470000Y-105900000D01*
X127470000Y-106100000D01*
X127450000Y-106100000D01*
X127450000Y-107362500D01*
X127687500Y-107600000D01*
X128066548Y-107600000D01*
X127391036Y-108275512D01*
X125850000Y-108275512D01*
X125386778Y-108362673D01*
X124961337Y-108636437D01*
X124675924Y-109054153D01*
X124575512Y-109550000D01*
X124575512Y-113050000D01*
X124662673Y-113513222D01*
X124936437Y-113938663D01*
X125022208Y-113997268D01*
X124961337Y-114036437D01*
X124675924Y-114454153D01*
X124575512Y-114950000D01*
X124575512Y-118450000D01*
X124650777Y-118850000D01*
X123200000Y-118850000D01*
X123200000Y-117462500D01*
X122962500Y-117225000D01*
X121100000Y-117225000D01*
X121100000Y-117245000D01*
X120900000Y-117245000D01*
X120900000Y-117225000D01*
X119037500Y-117225000D01*
X118800000Y-117462500D01*
X118800000Y-118850000D01*
X118500000Y-118850000D01*
X117868572Y-118975599D01*
X117512867Y-119213274D01*
X117333274Y-119333274D01*
X116241036Y-120425512D01*
X115000000Y-120425512D01*
X114536778Y-120512673D01*
X114111337Y-120786437D01*
X114069234Y-120848056D01*
X113863415Y-120792186D01*
X113560000Y-120990422D01*
X113560000Y-122900000D01*
X113580000Y-122900000D01*
X113580000Y-123100000D01*
X113560000Y-123100000D01*
X113560000Y-123120000D01*
X113360000Y-123120000D01*
X113360000Y-123100000D01*
X113340000Y-123100000D01*
X113340000Y-122900000D01*
X113360000Y-122900000D01*
X113360000Y-120990422D01*
X113056585Y-120792186D01*
X112806155Y-120860166D01*
X112492935Y-121046989D01*
X111781038Y-120571314D01*
X110920000Y-120400043D01*
X110058962Y-120571314D01*
X109347065Y-121046989D01*
X109033845Y-120860166D01*
X108783415Y-120792186D01*
X108480000Y-120990422D01*
X108480000Y-122900000D01*
X108500000Y-122900000D01*
X108500000Y-123100000D01*
X108480000Y-123100000D01*
X108480000Y-125009578D01*
X108783415Y-125207814D01*
X109033845Y-125139834D01*
X109347065Y-124953011D01*
X110058962Y-125428686D01*
X110104240Y-125437692D01*
X111833274Y-127166726D01*
X112368572Y-127524401D01*
X113000000Y-127650000D01*
X121040000Y-127650000D01*
X121671428Y-127524401D01*
X122206726Y-127166726D01*
X124359007Y-125014445D01*
X124978962Y-125428686D01*
X125840000Y-125599957D01*
X126701038Y-125428686D01*
X127110000Y-125155426D01*
X127518962Y-125428686D01*
X128380000Y-125599957D01*
X129241038Y-125428686D01*
X129952935Y-124953011D01*
X130266155Y-125139834D01*
X130516585Y-125207814D01*
X130820000Y-125009578D01*
X130820000Y-123100000D01*
X130800000Y-123100000D01*
X130800000Y-122900000D01*
X130820000Y-122900000D01*
X130820000Y-120990422D01*
X131020000Y-120990422D01*
X131020000Y-122900000D01*
X131040000Y-122900000D01*
X131040000Y-123100000D01*
X131020000Y-123100000D01*
X131020000Y-125009578D01*
X131323415Y-125207814D01*
X131573845Y-125139834D01*
X131887065Y-124953011D01*
X132598962Y-125428686D01*
X133460000Y-125599957D01*
X134321038Y-125428686D01*
X134380032Y-125389268D01*
X134504153Y-125474076D01*
X135000000Y-125574488D01*
X137000000Y-125574488D01*
X137463222Y-125487327D01*
X137888663Y-125213563D01*
X138174076Y-124795847D01*
X138274488Y-124300000D01*
X138274488Y-121700000D01*
X138187327Y-121236778D01*
X137913563Y-120811337D01*
X137495847Y-120525924D01*
X137000000Y-120425512D01*
X135000000Y-120425512D01*
X134536778Y-120512673D01*
X134382170Y-120612161D01*
X134321038Y-120571314D01*
X133460000Y-120400043D01*
X132598962Y-120571314D01*
X131887065Y-121046989D01*
X131573845Y-120860166D01*
X131323415Y-120792186D01*
X131020000Y-120990422D01*
X130820000Y-120990422D01*
X130516585Y-120792186D01*
X130266155Y-120860166D01*
X130030000Y-121001023D01*
X130030000Y-120380000D01*
X130011350Y-120286239D01*
X129904402Y-119748573D01*
X129629732Y-119337500D01*
X138550000Y-119337500D01*
X138550000Y-120038967D01*
X138694629Y-120388132D01*
X138961868Y-120655371D01*
X139311033Y-120800000D01*
X140162500Y-120800000D01*
X140400000Y-120562500D01*
X140400000Y-119100000D01*
X138787500Y-119100000D01*
X138550000Y-119337500D01*
X129629732Y-119337500D01*
X129546726Y-119213274D01*
X129305900Y-118972448D01*
X129324076Y-118945847D01*
X129424488Y-118450000D01*
X129424488Y-117750000D01*
X131432328Y-117750000D01*
X131504153Y-117799076D01*
X132000000Y-117899488D01*
X133500000Y-117899488D01*
X133963222Y-117812327D01*
X134332038Y-117575000D01*
X134912500Y-117575000D01*
X135150000Y-117337500D01*
X135150000Y-116100000D01*
X135350000Y-116100000D01*
X135350000Y-117337500D01*
X135587500Y-117575000D01*
X136188967Y-117575000D01*
X136538132Y-117430371D01*
X136805371Y-117163132D01*
X136950000Y-116813967D01*
X136950000Y-116337500D01*
X136712500Y-116100000D01*
X135350000Y-116100000D01*
X135150000Y-116100000D01*
X135130000Y-116100000D01*
X135130000Y-115900000D01*
X135150000Y-115900000D01*
X135150000Y-114662500D01*
X135350000Y-114662500D01*
X135350000Y-115900000D01*
X136712500Y-115900000D01*
X136775000Y-115837500D01*
X138550000Y-115837500D01*
X138550000Y-116538967D01*
X138694629Y-116888132D01*
X138961868Y-117155371D01*
X139190322Y-117250000D01*
X138961868Y-117344629D01*
X138694629Y-117611868D01*
X138550000Y-117961033D01*
X138550000Y-118662500D01*
X138787500Y-118900000D01*
X140400000Y-118900000D01*
X140400000Y-117437500D01*
X140212500Y-117250000D01*
X140400000Y-117062500D01*
X140400000Y-115600000D01*
X138787500Y-115600000D01*
X138550000Y-115837500D01*
X136775000Y-115837500D01*
X136950000Y-115662500D01*
X136950000Y-115186033D01*
X136805371Y-114836868D01*
X136538132Y-114569629D01*
X136275959Y-114461033D01*
X138550000Y-114461033D01*
X138550000Y-115162500D01*
X138787500Y-115400000D01*
X140400000Y-115400000D01*
X140400000Y-113937500D01*
X140162500Y-113700000D01*
X139311033Y-113700000D01*
X138961868Y-113844629D01*
X138694629Y-114111868D01*
X138550000Y-114461033D01*
X136275959Y-114461033D01*
X136188967Y-114425000D01*
X135587500Y-114425000D01*
X135350000Y-114662500D01*
X135150000Y-114662500D01*
X134912500Y-114425000D01*
X134323793Y-114425000D01*
X133995847Y-114200924D01*
X133500000Y-114100512D01*
X132000000Y-114100512D01*
X131536778Y-114187673D01*
X131439919Y-114250000D01*
X129184964Y-114250000D01*
X129063563Y-114061337D01*
X128977792Y-114002732D01*
X129038663Y-113963563D01*
X129324076Y-113545847D01*
X129424488Y-113050000D01*
X129424488Y-110908964D01*
X130870952Y-109462500D01*
X131300000Y-109462500D01*
X131300000Y-111188967D01*
X131444629Y-111538132D01*
X131711868Y-111805371D01*
X132061033Y-111950000D01*
X133162500Y-111950000D01*
X133400000Y-111712500D01*
X133400000Y-109225000D01*
X133600000Y-109225000D01*
X133600000Y-111712500D01*
X133837500Y-111950000D01*
X134938967Y-111950000D01*
X135210565Y-111837500D01*
X139450000Y-111837500D01*
X139450000Y-112338967D01*
X139594629Y-112688132D01*
X139861868Y-112955371D01*
X140211033Y-113100000D01*
X140812500Y-113100000D01*
X141050000Y-112862500D01*
X141050000Y-111600000D01*
X139687500Y-111600000D01*
X139450000Y-111837500D01*
X135210565Y-111837500D01*
X135288132Y-111805371D01*
X135555371Y-111538132D01*
X135700000Y-111188967D01*
X135700000Y-110661033D01*
X139450000Y-110661033D01*
X139450000Y-111162500D01*
X139687500Y-111400000D01*
X141050000Y-111400000D01*
X141050000Y-110137500D01*
X140812500Y-109900000D01*
X140211033Y-109900000D01*
X139861868Y-110044629D01*
X139594629Y-110311868D01*
X139450000Y-110661033D01*
X135700000Y-110661033D01*
X135700000Y-109462500D01*
X135462500Y-109225000D01*
X133600000Y-109225000D01*
X133400000Y-109225000D01*
X131537500Y-109225000D01*
X131300000Y-109462500D01*
X130870952Y-109462500D01*
X131166726Y-109166726D01*
X131372005Y-108859505D01*
X131537500Y-109025000D01*
X133400000Y-109025000D01*
X133400000Y-106537500D01*
X133600000Y-106537500D01*
X133600000Y-109025000D01*
X135462500Y-109025000D01*
X135700000Y-108787500D01*
X135700000Y-107061033D01*
X135555371Y-106711868D01*
X135288132Y-106444629D01*
X134938967Y-106300000D01*
X133837500Y-106300000D01*
X133600000Y-106537500D01*
X133400000Y-106537500D01*
X133162500Y-106300000D01*
X132061033Y-106300000D01*
X131711868Y-106444629D01*
X131650000Y-106506497D01*
X131650000Y-105852911D01*
X131754153Y-105924076D01*
X132250000Y-106024488D01*
X134750000Y-106024488D01*
X135213222Y-105937327D01*
X135638663Y-105663563D01*
X135924076Y-105245847D01*
X136024488Y-104750000D01*
X136024488Y-104525000D01*
X136625000Y-104525000D01*
X137256428Y-104399401D01*
X137791726Y-104041726D01*
X137861585Y-103971867D01*
X137825512Y-104150000D01*
X137825512Y-106150000D01*
X137912673Y-106613222D01*
X138186437Y-107038663D01*
X138604153Y-107324076D01*
X139100000Y-107424488D01*
X142900000Y-107424488D01*
X143363222Y-107337327D01*
X143788663Y-107063563D01*
X144074076Y-106645847D01*
X144174488Y-106150000D01*
X144174488Y-104150000D01*
X144087327Y-103686778D01*
X143813563Y-103261337D01*
X143395847Y-102975924D01*
X143376562Y-102972019D01*
X143887428Y-102870401D01*
X144422726Y-102512726D01*
X144539808Y-102337500D01*
X145450000Y-102337500D01*
X145450000Y-102838967D01*
X145594629Y-103188132D01*
X145861868Y-103455371D01*
X145969612Y-103500000D01*
X145861868Y-103544629D01*
X145594629Y-103811868D01*
X145450000Y-104161033D01*
X145450000Y-104662500D01*
X145687500Y-104900000D01*
X147050000Y-104900000D01*
X147050000Y-103637500D01*
X146912500Y-103500000D01*
X147050000Y-103362500D01*
X147050000Y-102100000D01*
X145687500Y-102100000D01*
X145450000Y-102337500D01*
X144539808Y-102337500D01*
X144780401Y-101977428D01*
X144906000Y-101346000D01*
X144780401Y-100714572D01*
X144679676Y-100563827D01*
X144855371Y-100388132D01*
X145000000Y-100038967D01*
X145000000Y-99337500D01*
X145450000Y-99337500D01*
X145450000Y-99838967D01*
X145594629Y-100188132D01*
X145861868Y-100455371D01*
X145969612Y-100500000D01*
X145861868Y-100544629D01*
X145594629Y-100811868D01*
X145450000Y-101161033D01*
X145450000Y-101662500D01*
X145687500Y-101900000D01*
X147050000Y-101900000D01*
X147050000Y-100637500D01*
X146912500Y-100500000D01*
X147050000Y-100362500D01*
X147050000Y-99100000D01*
X145687500Y-99100000D01*
X145450000Y-99337500D01*
X145000000Y-99337500D01*
X145000000Y-99187500D01*
X144762500Y-98950000D01*
X143400000Y-98950000D01*
X143400000Y-98970000D01*
X143200000Y-98970000D01*
X143200000Y-98950000D01*
X143180000Y-98950000D01*
X143180000Y-98750000D01*
X143200000Y-98750000D01*
X143200000Y-97137500D01*
X143400000Y-97137500D01*
X143400000Y-98750000D01*
X144762500Y-98750000D01*
X145000000Y-98512500D01*
X145000000Y-98161033D01*
X145450000Y-98161033D01*
X145450000Y-98662500D01*
X145687500Y-98900000D01*
X147050000Y-98900000D01*
X147050000Y-97637500D01*
X146812500Y-97400000D01*
X146211033Y-97400000D01*
X145861868Y-97544629D01*
X145594629Y-97811868D01*
X145450000Y-98161033D01*
X145000000Y-98161033D01*
X145000000Y-97661033D01*
X144855371Y-97311868D01*
X144588132Y-97044629D01*
X144238967Y-96900000D01*
X143637500Y-96900000D01*
X143400000Y-97137500D01*
X143200000Y-97137500D01*
X143033621Y-96971121D01*
X143213222Y-96937327D01*
X143638663Y-96663563D01*
X143924076Y-96245847D01*
X144024488Y-95750000D01*
X144024488Y-94837500D01*
X144300000Y-94837500D01*
X144300000Y-95938967D01*
X144444629Y-96288132D01*
X144711868Y-96555371D01*
X145061033Y-96700000D01*
X146787500Y-96700000D01*
X147025000Y-96462500D01*
X147025000Y-94600000D01*
X147225000Y-94600000D01*
X147225000Y-96462500D01*
X147462500Y-96700000D01*
X149188967Y-96700000D01*
X149283041Y-96661033D01*
X152450000Y-96661033D01*
X152450000Y-97162500D01*
X152687500Y-97400000D01*
X154050000Y-97400000D01*
X154050000Y-96137500D01*
X153812500Y-95900000D01*
X153211033Y-95900000D01*
X152861868Y-96044629D01*
X152594629Y-96311868D01*
X152450000Y-96661033D01*
X149283041Y-96661033D01*
X149538132Y-96555371D01*
X149805371Y-96288132D01*
X149950000Y-95938967D01*
X149950000Y-94837500D01*
X149712500Y-94600000D01*
X147225000Y-94600000D01*
X147025000Y-94600000D01*
X144537500Y-94600000D01*
X144300000Y-94837500D01*
X144024488Y-94837500D01*
X144024488Y-93250000D01*
X143988932Y-93061033D01*
X144300000Y-93061033D01*
X144300000Y-94162500D01*
X144537500Y-94400000D01*
X147025000Y-94400000D01*
X147025000Y-92537500D01*
X147225000Y-92537500D01*
X147225000Y-94400000D01*
X149712500Y-94400000D01*
X149775000Y-94337500D01*
X152450000Y-94337500D01*
X152450000Y-94838967D01*
X152594629Y-95188132D01*
X152861868Y-95455371D01*
X153211033Y-95600000D01*
X153812500Y-95600000D01*
X154050000Y-95362500D01*
X154050000Y-94100000D01*
X152687500Y-94100000D01*
X152450000Y-94337500D01*
X149775000Y-94337500D01*
X149950000Y-94162500D01*
X149950000Y-93161033D01*
X152450000Y-93161033D01*
X152450000Y-93662500D01*
X152687500Y-93900000D01*
X154050000Y-93900000D01*
X154050000Y-92637500D01*
X153812500Y-92400000D01*
X153211033Y-92400000D01*
X152861868Y-92544629D01*
X152594629Y-92811868D01*
X152450000Y-93161033D01*
X149950000Y-93161033D01*
X149950000Y-93061033D01*
X149805371Y-92711868D01*
X149538132Y-92444629D01*
X149188967Y-92300000D01*
X147462500Y-92300000D01*
X147225000Y-92537500D01*
X147025000Y-92537500D01*
X146787500Y-92300000D01*
X145061033Y-92300000D01*
X144711868Y-92444629D01*
X144444629Y-92711868D01*
X144300000Y-93061033D01*
X143988932Y-93061033D01*
X143937327Y-92786778D01*
X143663563Y-92361337D01*
X143245847Y-92075924D01*
X142750000Y-91975512D01*
X139000000Y-91975512D01*
X138536778Y-92062673D01*
X138111337Y-92336437D01*
X137825924Y-92754153D01*
X137765000Y-93055003D01*
X137765000Y-91337500D01*
X137527500Y-91100000D01*
X135699718Y-91100000D01*
X135700306Y-90900000D01*
X137527500Y-90900000D01*
X137765000Y-90662500D01*
X137765000Y-88797500D01*
X137527500Y-88560000D01*
X135640000Y-88560000D01*
X135640000Y-88580000D01*
X135440000Y-88580000D01*
X135440000Y-88560000D01*
X135420000Y-88560000D01*
X135420000Y-88360000D01*
X135440000Y-88360000D01*
X135440000Y-86472500D01*
X135640000Y-86472500D01*
X135640000Y-88360000D01*
X137527500Y-88360000D01*
X137765000Y-88122500D01*
X137765000Y-88087500D01*
X138925000Y-88087500D01*
X138925000Y-88688967D01*
X139069629Y-89038132D01*
X139336868Y-89305371D01*
X139686033Y-89450000D01*
X140162500Y-89450000D01*
X140400000Y-89212500D01*
X140400000Y-87850000D01*
X140600000Y-87850000D01*
X140600000Y-89212500D01*
X140837500Y-89450000D01*
X141313967Y-89450000D01*
X141663132Y-89305371D01*
X141930371Y-89038132D01*
X142075000Y-88688967D01*
X142075000Y-88087500D01*
X141837500Y-87850000D01*
X140600000Y-87850000D01*
X140400000Y-87850000D01*
X139162500Y-87850000D01*
X138925000Y-88087500D01*
X137765000Y-88087500D01*
X137765000Y-86996033D01*
X137620371Y-86646868D01*
X137353132Y-86379629D01*
X137003967Y-86235000D01*
X135877500Y-86235000D01*
X135640000Y-86472500D01*
X135440000Y-86472500D01*
X135202500Y-86235000D01*
X134076033Y-86235000D01*
X133726868Y-86379629D01*
X133459629Y-86646868D01*
X133315000Y-86996033D01*
X133315000Y-88122500D01*
X133493939Y-88301439D01*
X132508954Y-88298546D01*
X132685000Y-88122500D01*
X132685000Y-86996033D01*
X132540371Y-86646868D01*
X132273132Y-86379629D01*
X131923967Y-86235000D01*
X130797500Y-86235000D01*
X130560000Y-86472500D01*
X130560000Y-88360000D01*
X130580000Y-88360000D01*
X130580000Y-88560000D01*
X130560000Y-88560000D01*
X130560000Y-88580000D01*
X130360000Y-88580000D01*
X130360000Y-88560000D01*
X128472500Y-88560000D01*
X128235000Y-88797500D01*
X128235000Y-90662500D01*
X128472500Y-90900000D01*
X130300282Y-90900000D01*
X130299694Y-91100000D01*
X128472500Y-91100000D01*
X128235000Y-91337500D01*
X128235000Y-93202500D01*
X128472500Y-93440000D01*
X130360000Y-93440000D01*
X130360000Y-93420000D01*
X130560000Y-93420000D01*
X130560000Y-93440000D01*
X130580000Y-93440000D01*
X130580000Y-93640000D01*
X130560000Y-93640000D01*
X130560000Y-95527500D01*
X130797500Y-95765000D01*
X131923967Y-95765000D01*
X132273132Y-95620371D01*
X132540371Y-95353132D01*
X132685000Y-95003967D01*
X132685000Y-93877500D01*
X132506061Y-93698561D01*
X133491046Y-93701454D01*
X133315000Y-93877500D01*
X133315000Y-95003967D01*
X133459629Y-95353132D01*
X133726868Y-95620371D01*
X134076033Y-95765000D01*
X135202500Y-95765000D01*
X135440000Y-95527500D01*
X135440000Y-93640000D01*
X135420000Y-93640000D01*
X135420000Y-93440000D01*
X135440000Y-93440000D01*
X135440000Y-93420000D01*
X135640000Y-93420000D01*
X135640000Y-93440000D01*
X135660000Y-93440000D01*
X135660000Y-93640000D01*
X135640000Y-93640000D01*
X135640000Y-95527500D01*
X135877500Y-95765000D01*
X137003967Y-95765000D01*
X137353132Y-95620371D01*
X137620371Y-95353132D01*
X137725512Y-95099299D01*
X137725512Y-95750000D01*
X137812673Y-96213222D01*
X138045800Y-96575512D01*
X137950000Y-96575512D01*
X137486778Y-96662673D01*
X137061337Y-96936437D01*
X136775924Y-97354153D01*
X136675512Y-97850000D01*
X136675512Y-99850000D01*
X136762673Y-100313222D01*
X136798167Y-100368381D01*
X136024488Y-101142060D01*
X136024488Y-101000000D01*
X135937327Y-100536778D01*
X135663563Y-100111337D01*
X135245847Y-99825924D01*
X134750000Y-99725512D01*
X132250000Y-99725512D01*
X132035378Y-99765896D01*
X132332038Y-99575000D01*
X132912500Y-99575000D01*
X133150000Y-99337500D01*
X133150000Y-98100000D01*
X133350000Y-98100000D01*
X133350000Y-99337500D01*
X133587500Y-99575000D01*
X134188967Y-99575000D01*
X134538132Y-99430371D01*
X134805371Y-99163132D01*
X134950000Y-98813967D01*
X134950000Y-98337500D01*
X134712500Y-98100000D01*
X133350000Y-98100000D01*
X133150000Y-98100000D01*
X133130000Y-98100000D01*
X133130000Y-97900000D01*
X133150000Y-97900000D01*
X133150000Y-96662500D01*
X133350000Y-96662500D01*
X133350000Y-97900000D01*
X134712500Y-97900000D01*
X134950000Y-97662500D01*
X134950000Y-97186033D01*
X134805371Y-96836868D01*
X134538132Y-96569629D01*
X134188967Y-96425000D01*
X133587500Y-96425000D01*
X133350000Y-96662500D01*
X133150000Y-96662500D01*
X132912500Y-96425000D01*
X132323793Y-96425000D01*
X131995847Y-96200924D01*
X131500000Y-96100512D01*
X130307448Y-96100512D01*
X130153428Y-95997599D01*
X129522000Y-95872000D01*
X127728971Y-95872000D01*
X127482000Y-95703252D01*
X127482000Y-94794000D01*
X127356401Y-94162572D01*
X127165922Y-93877500D01*
X128235000Y-93877500D01*
X128235000Y-95003967D01*
X128379629Y-95353132D01*
X128646868Y-95620371D01*
X128996033Y-95765000D01*
X130122500Y-95765000D01*
X130360000Y-95527500D01*
X130360000Y-93640000D01*
X128472500Y-93640000D01*
X128235000Y-93877500D01*
X127165922Y-93877500D01*
X126998726Y-93627274D01*
X126222488Y-92851036D01*
X126222488Y-90785000D01*
X126135327Y-90321778D01*
X125861563Y-89896337D01*
X125443847Y-89610924D01*
X124948000Y-89510512D01*
X122448000Y-89510512D01*
X121984778Y-89597673D01*
X121559337Y-89871437D01*
X121273924Y-90289153D01*
X121173512Y-90785000D01*
X121173512Y-94535000D01*
X121260673Y-94998222D01*
X121534437Y-95423663D01*
X121952153Y-95709076D01*
X122448000Y-95809488D01*
X124019406Y-95809488D01*
X123943337Y-95858437D01*
X123657924Y-96276153D01*
X123557512Y-96772000D01*
X123557512Y-98172000D01*
X121806488Y-98172000D01*
X121806488Y-97922000D01*
X121719327Y-97458778D01*
X121445563Y-97033337D01*
X121027847Y-96747924D01*
X120532000Y-96647512D01*
X118532000Y-96647512D01*
X118068778Y-96734673D01*
X117643337Y-97008437D01*
X117357924Y-97426153D01*
X117279908Y-97811405D01*
X117163132Y-97694629D01*
X116813967Y-97550000D01*
X116337500Y-97550000D01*
X116100000Y-97787500D01*
X116100000Y-99150000D01*
X116120000Y-99150000D01*
X116120000Y-99350000D01*
X116100000Y-99350000D01*
X116100000Y-99370000D01*
X115900000Y-99370000D01*
X115900000Y-99350000D01*
X114662500Y-99350000D01*
X114425000Y-99587500D01*
X114425000Y-100176207D01*
X114247484Y-100436010D01*
X114075000Y-100167962D01*
X114075000Y-99587500D01*
X113837500Y-99350000D01*
X112600000Y-99350000D01*
X112600000Y-99370000D01*
X112400000Y-99370000D01*
X112400000Y-99350000D01*
X111162500Y-99350000D01*
X110925000Y-99587500D01*
X110925000Y-100176207D01*
X110700924Y-100504153D01*
X110600512Y-101000000D01*
X110600512Y-101006000D01*
X109308226Y-101006000D01*
X109138563Y-100742337D01*
X108720847Y-100456924D01*
X108225000Y-100356512D01*
X107675000Y-100356512D01*
X107301782Y-100426738D01*
X106955000Y-100356512D01*
X106405000Y-100356512D01*
X106031782Y-100426738D01*
X105685000Y-100356512D01*
X105135000Y-100356512D01*
X104671778Y-100443673D01*
X104246337Y-100717437D01*
X104040000Y-101019421D01*
X104040000Y-100918500D01*
X103802500Y-100681000D01*
X103676033Y-100681000D01*
X103326868Y-100825629D01*
X103059629Y-101092868D01*
X102915000Y-101442033D01*
X102915000Y-102072677D01*
X102885819Y-101925975D01*
X102560660Y-101439340D01*
X101899488Y-100778168D01*
X101899488Y-99500000D01*
X101812327Y-99036778D01*
X101575000Y-98667962D01*
X101575000Y-98311033D01*
X110925000Y-98311033D01*
X110925000Y-98912500D01*
X111162500Y-99150000D01*
X112400000Y-99150000D01*
X112400000Y-97787500D01*
X112600000Y-97787500D01*
X112600000Y-99150000D01*
X113837500Y-99150000D01*
X114075000Y-98912500D01*
X114075000Y-98311033D01*
X114425000Y-98311033D01*
X114425000Y-98912500D01*
X114662500Y-99150000D01*
X115900000Y-99150000D01*
X115900000Y-97787500D01*
X115662500Y-97550000D01*
X115186033Y-97550000D01*
X114836868Y-97694629D01*
X114569629Y-97961868D01*
X114425000Y-98311033D01*
X114075000Y-98311033D01*
X113930371Y-97961868D01*
X113663132Y-97694629D01*
X113313967Y-97550000D01*
X112837500Y-97550000D01*
X112600000Y-97787500D01*
X112400000Y-97787500D01*
X112162500Y-97550000D01*
X111686033Y-97550000D01*
X111336868Y-97694629D01*
X111069629Y-97961868D01*
X110925000Y-98311033D01*
X101575000Y-98311033D01*
X101575000Y-98087500D01*
X101337500Y-97850000D01*
X100100000Y-97850000D01*
X100100000Y-97870000D01*
X99900000Y-97870000D01*
X99900000Y-97850000D01*
X98662500Y-97850000D01*
X98425000Y-98087500D01*
X98425000Y-98676207D01*
X98247484Y-98936010D01*
X98075000Y-98667962D01*
X98075000Y-98087500D01*
X97837500Y-97850000D01*
X96600000Y-97850000D01*
X96600000Y-97870000D01*
X96400000Y-97870000D01*
X96400000Y-97850000D01*
X95162500Y-97850000D01*
X94925000Y-98087500D01*
X94925000Y-98676207D01*
X94700924Y-99004153D01*
X94600512Y-99500000D01*
X94600512Y-101000000D01*
X94687673Y-101463222D01*
X94961437Y-101888663D01*
X95000000Y-101915012D01*
X95000000Y-102545512D01*
X93825000Y-102545512D01*
X93361778Y-102632673D01*
X92936337Y-102906437D01*
X92650924Y-103324153D01*
X92550512Y-103820000D01*
X92550512Y-103986172D01*
X92074340Y-104304340D01*
X91500000Y-104878680D01*
X90925660Y-104304340D01*
X90439025Y-103979181D01*
X89865000Y-103865000D01*
X89449488Y-103865000D01*
X89449488Y-103820000D01*
X89362327Y-103356778D01*
X89088563Y-102931337D01*
X88670847Y-102645924D01*
X88175000Y-102545512D01*
X87834269Y-102545512D01*
X87924488Y-102100000D01*
X87924488Y-100600000D01*
X87837327Y-100136778D01*
X87751058Y-100002712D01*
X87824076Y-99895847D01*
X87924488Y-99400000D01*
X87924488Y-97900000D01*
X87837327Y-97436778D01*
X87650000Y-97145664D01*
X87650000Y-95683452D01*
X90683452Y-92650000D01*
X91910512Y-92650000D01*
X91910512Y-94815000D01*
X91997673Y-95278222D01*
X92271437Y-95703663D01*
X92689153Y-95989076D01*
X93185000Y-96089488D01*
X95590701Y-96089488D01*
X95336868Y-96194629D01*
X95069629Y-96461868D01*
X94925000Y-96811033D01*
X94925000Y-97412500D01*
X95162500Y-97650000D01*
X96400000Y-97650000D01*
X96400000Y-96287500D01*
X96600000Y-96287500D01*
X96600000Y-97650000D01*
X97837500Y-97650000D01*
X98075000Y-97412500D01*
X98075000Y-96811033D01*
X97930371Y-96461868D01*
X97663132Y-96194629D01*
X97313967Y-96050000D01*
X96837500Y-96050000D01*
X96600000Y-96287500D01*
X96400000Y-96287500D01*
X96162500Y-96050000D01*
X95944861Y-96050000D01*
X96198222Y-96002327D01*
X96623663Y-95728563D01*
X96752503Y-95540000D01*
X97246123Y-95540000D01*
X97351437Y-95703663D01*
X97769153Y-95989076D01*
X98265000Y-96089488D01*
X99090701Y-96089488D01*
X98836868Y-96194629D01*
X98569629Y-96461868D01*
X98425000Y-96811033D01*
X98425000Y-97412500D01*
X98662500Y-97650000D01*
X99900000Y-97650000D01*
X99900000Y-97630000D01*
X100100000Y-97630000D01*
X100100000Y-97650000D01*
X101337500Y-97650000D01*
X101575000Y-97412500D01*
X101575000Y-96811033D01*
X101430371Y-96461868D01*
X101163132Y-96194629D01*
X100879843Y-96077287D01*
X101278222Y-96002327D01*
X101703663Y-95728563D01*
X101737528Y-95679000D01*
X102559998Y-95679000D01*
X102590512Y-95709514D01*
X102590512Y-95981000D01*
X102677673Y-96444222D01*
X102951437Y-96869663D01*
X103369153Y-97155076D01*
X103865000Y-97255488D01*
X104415000Y-97255488D01*
X104788218Y-97185262D01*
X105135000Y-97255488D01*
X105685000Y-97255488D01*
X106058218Y-97185262D01*
X106405000Y-97255488D01*
X106955000Y-97255488D01*
X107328218Y-97185262D01*
X107675000Y-97255488D01*
X108225000Y-97255488D01*
X108688222Y-97168327D01*
X109113663Y-96894563D01*
X109399076Y-96476847D01*
X109499488Y-95981000D01*
X109499488Y-95709515D01*
X109530003Y-95679000D01*
X110255567Y-95679000D01*
X110271437Y-95703663D01*
X110689153Y-95989076D01*
X111185000Y-96089488D01*
X113735000Y-96089488D01*
X114198222Y-96002327D01*
X114623663Y-95728563D01*
X114752503Y-95540000D01*
X115246123Y-95540000D01*
X115351437Y-95703663D01*
X115769153Y-95989076D01*
X116265000Y-96089488D01*
X118815000Y-96089488D01*
X119278222Y-96002327D01*
X119703663Y-95728563D01*
X119989076Y-95310847D01*
X120089488Y-94815000D01*
X120089488Y-87185000D01*
X120007167Y-86747500D01*
X121498000Y-86747500D01*
X121498000Y-88473967D01*
X121642629Y-88823132D01*
X121909868Y-89090371D01*
X122259033Y-89235000D01*
X123360500Y-89235000D01*
X123598000Y-88997500D01*
X123598000Y-86510000D01*
X123798000Y-86510000D01*
X123798000Y-88997500D01*
X124035500Y-89235000D01*
X125136967Y-89235000D01*
X125486132Y-89090371D01*
X125753371Y-88823132D01*
X125898000Y-88473967D01*
X125898000Y-86996033D01*
X128235000Y-86996033D01*
X128235000Y-88122500D01*
X128472500Y-88360000D01*
X130360000Y-88360000D01*
X130360000Y-86472500D01*
X130122500Y-86235000D01*
X128996033Y-86235000D01*
X128646868Y-86379629D01*
X128379629Y-86646868D01*
X128235000Y-86996033D01*
X125898000Y-86996033D01*
X125898000Y-86747500D01*
X125660500Y-86510000D01*
X123798000Y-86510000D01*
X123598000Y-86510000D01*
X121735500Y-86510000D01*
X121498000Y-86747500D01*
X120007167Y-86747500D01*
X120002327Y-86721778D01*
X119728563Y-86296337D01*
X119310847Y-86010924D01*
X118815000Y-85910512D01*
X116265000Y-85910512D01*
X115801778Y-85997673D01*
X115376337Y-86271437D01*
X115247497Y-86460000D01*
X114753877Y-86460000D01*
X114648563Y-86296337D01*
X114230847Y-86010924D01*
X113735000Y-85910512D01*
X111185000Y-85910512D01*
X110721778Y-85997673D01*
X110296337Y-86271437D01*
X110262472Y-86321000D01*
X108263000Y-86321000D01*
X107444440Y-86483822D01*
X106750498Y-86947499D01*
X105981500Y-87716498D01*
X105212501Y-86947499D01*
X104518560Y-86483822D01*
X103700000Y-86321000D01*
X101744433Y-86321000D01*
X101728563Y-86296337D01*
X101310847Y-86010924D01*
X100815000Y-85910512D01*
X98265000Y-85910512D01*
X97801778Y-85997673D01*
X97376337Y-86271437D01*
X97247497Y-86460000D01*
X96753877Y-86460000D01*
X96648563Y-86296337D01*
X96230847Y-86010924D01*
X95735000Y-85910512D01*
X93185000Y-85910512D01*
X92721778Y-85997673D01*
X92296337Y-86271437D01*
X92010924Y-86689153D01*
X91910512Y-87185000D01*
X91910512Y-89350000D01*
X90000000Y-89350000D01*
X89368572Y-89475599D01*
X88930107Y-89768572D01*
X88833274Y-89833274D01*
X84833274Y-93833274D01*
X84475599Y-94368572D01*
X84350000Y-95000000D01*
X84350000Y-97149384D01*
X84175924Y-97404153D01*
X84075512Y-97900000D01*
X84075512Y-99400000D01*
X84162673Y-99863222D01*
X84248942Y-99997288D01*
X84175924Y-100104153D01*
X84075512Y-100600000D01*
X84075512Y-101591036D01*
X83833274Y-101833274D01*
X83475599Y-102368572D01*
X83350000Y-103000000D01*
X81325000Y-103000000D01*
X81325000Y-86847958D01*
X83293464Y-86847958D01*
X83463858Y-87284448D01*
X84455009Y-87698411D01*
X85529132Y-87701566D01*
X86522698Y-87293432D01*
X86536142Y-87284448D01*
X86706536Y-86847958D01*
X85000000Y-85141421D01*
X83293464Y-86847958D01*
X81325000Y-86847958D01*
X81325000Y-85529132D01*
X82298434Y-85529132D01*
X82706568Y-86522698D01*
X82715552Y-86536142D01*
X83152042Y-86706536D01*
X84858579Y-85000000D01*
X85141421Y-85000000D01*
X86847958Y-86706536D01*
X87284448Y-86536142D01*
X87698411Y-85544991D01*
X87701566Y-84470868D01*
X87650287Y-84346033D01*
X121498000Y-84346033D01*
X121498000Y-86072500D01*
X121735500Y-86310000D01*
X123598000Y-86310000D01*
X123598000Y-83822500D01*
X123798000Y-83822500D01*
X123798000Y-86310000D01*
X125660500Y-86310000D01*
X125898000Y-86072500D01*
X125898000Y-84346033D01*
X125753371Y-83996868D01*
X125486132Y-83729629D01*
X125136967Y-83585000D01*
X124035500Y-83585000D01*
X123798000Y-83822500D01*
X123598000Y-83822500D01*
X123360500Y-83585000D01*
X122259033Y-83585000D01*
X121909868Y-83729629D01*
X121642629Y-83996868D01*
X121498000Y-84346033D01*
X87650287Y-84346033D01*
X87293432Y-83477302D01*
X87284448Y-83463858D01*
X86847958Y-83293464D01*
X85141421Y-85000000D01*
X84858579Y-85000000D01*
X83152042Y-83293464D01*
X82715552Y-83463858D01*
X82301589Y-84455009D01*
X82298434Y-85529132D01*
X81325000Y-85529132D01*
X81325000Y-83152042D01*
X83293464Y-83152042D01*
X85000000Y-84858579D01*
X86706536Y-83152042D01*
X86536142Y-82715552D01*
X85544991Y-82301589D01*
X84470868Y-82298434D01*
X83477302Y-82706568D01*
X83463858Y-82715552D01*
X83293464Y-83152042D01*
X81325000Y-83152042D01*
X81325000Y-81325000D01*
X178675000Y-81325000D01*
X178675000Y-128675000D01*
G36*
X94100512Y-113319448D02*
X94100512Y-114750000D01*
X94187673Y-115213222D01*
X94425000Y-115582038D01*
X94425000Y-116162500D01*
X94662500Y-116400000D01*
X95900000Y-116400000D01*
X95900000Y-116380000D01*
X96100000Y-116380000D01*
X96100000Y-116400000D01*
X96120000Y-116400000D01*
X96120000Y-116600000D01*
X96100000Y-116600000D01*
X96100000Y-116620000D01*
X95900000Y-116620000D01*
X95900000Y-116600000D01*
X94662500Y-116600000D01*
X94425000Y-116837500D01*
X94425000Y-117438967D01*
X94569629Y-117788132D01*
X94781497Y-118000000D01*
X94371320Y-118000000D01*
X94000000Y-117628680D01*
X94000000Y-113199607D01*
X94100512Y-113319448D01*
X94100512Y-113319448D01*
G37*
X94100512Y-113319448D02*
X94100512Y-114750000D01*
X94187673Y-115213222D01*
X94425000Y-115582038D01*
X94425000Y-116162500D01*
X94662500Y-116400000D01*
X95900000Y-116400000D01*
X95900000Y-116380000D01*
X96100000Y-116380000D01*
X96100000Y-116400000D01*
X96120000Y-116400000D01*
X96120000Y-116600000D01*
X96100000Y-116600000D01*
X96100000Y-116620000D01*
X95900000Y-116620000D01*
X95900000Y-116600000D01*
X94662500Y-116600000D01*
X94425000Y-116837500D01*
X94425000Y-117438967D01*
X94569629Y-117788132D01*
X94781497Y-118000000D01*
X94371320Y-118000000D01*
X94000000Y-117628680D01*
X94000000Y-113199607D01*
X94100512Y-113319448D01*
G36*
X90000000Y-107621320D02*
X90000000Y-110350000D01*
X89368573Y-110475599D01*
X88833274Y-110833274D01*
X88749365Y-110917183D01*
X88620664Y-111000000D01*
X88546971Y-111000000D01*
X88145847Y-110725924D01*
X87650000Y-110625512D01*
X87308964Y-110625512D01*
X86650000Y-109966548D01*
X86650000Y-109130000D01*
X86962500Y-109130000D01*
X87200000Y-108892500D01*
X87200000Y-108285000D01*
X87300000Y-108285000D01*
X87400000Y-108265109D01*
X87400000Y-108892500D01*
X87637500Y-109130000D01*
X88363967Y-109130000D01*
X88713132Y-108985371D01*
X88980371Y-108718132D01*
X89125000Y-108368967D01*
X89125000Y-108242500D01*
X88887500Y-108005000D01*
X88781702Y-108005000D01*
X89063663Y-107823563D01*
X89349076Y-107405847D01*
X89422407Y-107043727D01*
X90000000Y-107621320D01*
X90000000Y-107621320D01*
G37*
X90000000Y-107621320D02*
X90000000Y-110350000D01*
X89368573Y-110475599D01*
X88833274Y-110833274D01*
X88749365Y-110917183D01*
X88620664Y-111000000D01*
X88546971Y-111000000D01*
X88145847Y-110725924D01*
X87650000Y-110625512D01*
X87308964Y-110625512D01*
X86650000Y-109966548D01*
X86650000Y-109130000D01*
X86962500Y-109130000D01*
X87200000Y-108892500D01*
X87200000Y-108285000D01*
X87300000Y-108285000D01*
X87400000Y-108265109D01*
X87400000Y-108892500D01*
X87637500Y-109130000D01*
X88363967Y-109130000D01*
X88713132Y-108985371D01*
X88980371Y-108718132D01*
X89125000Y-108368967D01*
X89125000Y-108242500D01*
X88887500Y-108005000D01*
X88781702Y-108005000D01*
X89063663Y-107823563D01*
X89349076Y-107405847D01*
X89422407Y-107043727D01*
X90000000Y-107621320D01*
G36*
X110675924Y-104404153D02*
X110645903Y-104552400D01*
X110638132Y-104544629D01*
X110288967Y-104400000D01*
X109687500Y-104400000D01*
X109450000Y-104637500D01*
X109450000Y-105900000D01*
X109470000Y-105900000D01*
X109470000Y-106100000D01*
X109450000Y-106100000D01*
X109450000Y-107362500D01*
X109687500Y-107600000D01*
X110288967Y-107600000D01*
X110601748Y-107470442D01*
X110575512Y-107600000D01*
X110575512Y-109100000D01*
X110607687Y-109270993D01*
X110106066Y-109772614D01*
X109452726Y-109119274D01*
X109404092Y-109086778D01*
X108917428Y-108761599D01*
X108286000Y-108636000D01*
X106791488Y-108636000D01*
X106791488Y-108411000D01*
X106704327Y-107947778D01*
X106689340Y-107924488D01*
X107400000Y-107924488D01*
X107863222Y-107837327D01*
X108288663Y-107563563D01*
X108296252Y-107552456D01*
X108411033Y-107600000D01*
X109012500Y-107600000D01*
X109250000Y-107362500D01*
X109250000Y-106100000D01*
X109230000Y-106100000D01*
X109230000Y-105900000D01*
X109250000Y-105900000D01*
X109250000Y-104637500D01*
X109012500Y-104400000D01*
X108949809Y-104400000D01*
X109113663Y-104294563D01*
X109310830Y-104006000D01*
X110947970Y-104006000D01*
X110675924Y-104404153D01*
X110675924Y-104404153D01*
G37*
X110675924Y-104404153D02*
X110645903Y-104552400D01*
X110638132Y-104544629D01*
X110288967Y-104400000D01*
X109687500Y-104400000D01*
X109450000Y-104637500D01*
X109450000Y-105900000D01*
X109470000Y-105900000D01*
X109470000Y-106100000D01*
X109450000Y-106100000D01*
X109450000Y-107362500D01*
X109687500Y-107600000D01*
X110288967Y-107600000D01*
X110601748Y-107470442D01*
X110575512Y-107600000D01*
X110575512Y-109100000D01*
X110607687Y-109270993D01*
X110106066Y-109772614D01*
X109452726Y-109119274D01*
X109404092Y-109086778D01*
X108917428Y-108761599D01*
X108286000Y-108636000D01*
X106791488Y-108636000D01*
X106791488Y-108411000D01*
X106704327Y-107947778D01*
X106689340Y-107924488D01*
X107400000Y-107924488D01*
X107863222Y-107837327D01*
X108288663Y-107563563D01*
X108296252Y-107552456D01*
X108411033Y-107600000D01*
X109012500Y-107600000D01*
X109250000Y-107362500D01*
X109250000Y-106100000D01*
X109230000Y-106100000D01*
X109230000Y-105900000D01*
X109250000Y-105900000D01*
X109250000Y-104637500D01*
X109012500Y-104400000D01*
X108949809Y-104400000D01*
X109113663Y-104294563D01*
X109310830Y-104006000D01*
X110947970Y-104006000D01*
X110675924Y-104404153D01*
G36*
X133155564Y-90985858D02*
X133141421Y-91000000D01*
X133155564Y-91014142D01*
X133014143Y-91155564D01*
X133000000Y-91141421D01*
X132985858Y-91155564D01*
X132844436Y-91014142D01*
X132858579Y-91000000D01*
X132844436Y-90985858D01*
X132985858Y-90844437D01*
X133000000Y-90858579D01*
X133014143Y-90844437D01*
X133155564Y-90985858D01*
X133155564Y-90985858D01*
G37*
X133155564Y-90985858D02*
X133141421Y-91000000D01*
X133155564Y-91014142D01*
X133014143Y-91155564D01*
X133000000Y-91141421D01*
X132985858Y-91155564D01*
X132844436Y-91014142D01*
X132858579Y-91000000D01*
X132844436Y-90985858D01*
X132985858Y-90844437D01*
X133000000Y-90858579D01*
X133014143Y-90844437D01*
X133155564Y-90985858D01*
G36*
X151425975Y-109885819D02*
X152000000Y-110000000D01*
X152461558Y-110000000D01*
X152486437Y-110038663D01*
X152713018Y-110193479D01*
X152594629Y-110311868D01*
X152450000Y-110661033D01*
X152450000Y-111162500D01*
X152687500Y-111400000D01*
X154050000Y-111400000D01*
X154050000Y-111380000D01*
X154250000Y-111380000D01*
X154250000Y-111400000D01*
X154270000Y-111400000D01*
X154270000Y-111600000D01*
X154250000Y-111600000D01*
X154250000Y-112862500D01*
X154487500Y-113100000D01*
X155088967Y-113100000D01*
X155205538Y-113051714D01*
X155604153Y-113324076D01*
X156100000Y-113424488D01*
X157600000Y-113424488D01*
X158063222Y-113337327D01*
X158354336Y-113150000D01*
X159347210Y-113150000D01*
X159436437Y-113288663D01*
X159447544Y-113296252D01*
X159400000Y-113411033D01*
X159400000Y-114012500D01*
X159637500Y-114250000D01*
X160900000Y-114250000D01*
X160900000Y-114230000D01*
X161100000Y-114230000D01*
X161100000Y-114250000D01*
X161120000Y-114250000D01*
X161120000Y-114450000D01*
X161100000Y-114450000D01*
X161100000Y-115812500D01*
X161337500Y-116050000D01*
X161838967Y-116050000D01*
X162188132Y-115905371D01*
X162306605Y-115786898D01*
X162436437Y-115988663D01*
X162854153Y-116274076D01*
X163350000Y-116374488D01*
X164650000Y-116374488D01*
X165113222Y-116287327D01*
X165538663Y-116013563D01*
X165650421Y-115850000D01*
X166028680Y-115850000D01*
X165939340Y-115939340D01*
X165877380Y-116032070D01*
X165794780Y-116107003D01*
X165716281Y-116273172D01*
X165614181Y-116425975D01*
X165592424Y-116535355D01*
X165544786Y-116636196D01*
X165484214Y-116878482D01*
X165036778Y-116962673D01*
X164978770Y-117000000D01*
X163031083Y-117000000D01*
X162995847Y-116975924D01*
X162500000Y-116875512D01*
X160500000Y-116875512D01*
X160036778Y-116962673D01*
X159611337Y-117236437D01*
X159325924Y-117654153D01*
X159324926Y-117659079D01*
X159305371Y-117611868D01*
X159038132Y-117344629D01*
X158688967Y-117200000D01*
X157837500Y-117200000D01*
X157600000Y-117437500D01*
X157600000Y-118900000D01*
X157620000Y-118900000D01*
X157620000Y-119100000D01*
X157600000Y-119100000D01*
X157600000Y-120562500D01*
X157837500Y-120800000D01*
X158688967Y-120800000D01*
X159038132Y-120655371D01*
X159305371Y-120388132D01*
X159327108Y-120335654D01*
X159586437Y-120738663D01*
X159841931Y-120913235D01*
X159806871Y-120948295D01*
X159973109Y-121114533D01*
X159588583Y-121223943D01*
X159258018Y-122034192D01*
X159262684Y-122909267D01*
X159588583Y-123696057D01*
X159973111Y-123805468D01*
X161318579Y-122460000D01*
X161304437Y-122445858D01*
X161445858Y-122304437D01*
X161460000Y-122318579D01*
X161474143Y-122304437D01*
X161615564Y-122445858D01*
X161601421Y-122460000D01*
X161615564Y-122474143D01*
X161474143Y-122615564D01*
X161460000Y-122601421D01*
X160114532Y-123946889D01*
X160183635Y-124189755D01*
X160171868Y-124194629D01*
X159904629Y-124461868D01*
X159760000Y-124811033D01*
X159760000Y-126255169D01*
X159588583Y-126303943D01*
X159258018Y-127114192D01*
X159262684Y-127989267D01*
X159546724Y-128675000D01*
X151452646Y-128675000D01*
X151741982Y-127965808D01*
X151737316Y-127090733D01*
X151411417Y-126303943D01*
X151240000Y-126255169D01*
X151240000Y-124811033D01*
X151095371Y-124461868D01*
X150828132Y-124194629D01*
X150816365Y-124189755D01*
X150885468Y-123946889D01*
X149540000Y-122601421D01*
X149525858Y-122615564D01*
X149384437Y-122474143D01*
X149398579Y-122460000D01*
X149384437Y-122445858D01*
X149525858Y-122304437D01*
X149540000Y-122318579D01*
X149554143Y-122304437D01*
X149695564Y-122445858D01*
X149681421Y-122460000D01*
X151026889Y-123805468D01*
X151411417Y-123696057D01*
X151741982Y-122885808D01*
X151737316Y-122010733D01*
X151411417Y-121223943D01*
X151026891Y-121114533D01*
X151193129Y-120948295D01*
X151157285Y-120912451D01*
X151388663Y-120763563D01*
X151674076Y-120345847D01*
X151675074Y-120340921D01*
X151694629Y-120388132D01*
X151961868Y-120655371D01*
X152311033Y-120800000D01*
X153162500Y-120800000D01*
X153400000Y-120562500D01*
X153400000Y-119100000D01*
X153600000Y-119100000D01*
X153600000Y-120562500D01*
X153837500Y-120800000D01*
X154688967Y-120800000D01*
X155038132Y-120655371D01*
X155305371Y-120388132D01*
X155450000Y-120038967D01*
X155450000Y-119337500D01*
X155550000Y-119337500D01*
X155550000Y-120038967D01*
X155694629Y-120388132D01*
X155961868Y-120655371D01*
X156311033Y-120800000D01*
X157162500Y-120800000D01*
X157400000Y-120562500D01*
X157400000Y-119100000D01*
X155787500Y-119100000D01*
X155550000Y-119337500D01*
X155450000Y-119337500D01*
X155212500Y-119100000D01*
X153600000Y-119100000D01*
X153400000Y-119100000D01*
X153380000Y-119100000D01*
X153380000Y-118900000D01*
X153400000Y-118900000D01*
X153400000Y-117437500D01*
X153212500Y-117250000D01*
X153400000Y-117062500D01*
X153400000Y-115600000D01*
X153600000Y-115600000D01*
X153600000Y-117062500D01*
X153787500Y-117250000D01*
X153600000Y-117437500D01*
X153600000Y-118900000D01*
X155212500Y-118900000D01*
X155450000Y-118662500D01*
X155450000Y-117961033D01*
X155550000Y-117961033D01*
X155550000Y-118662500D01*
X155787500Y-118900000D01*
X157400000Y-118900000D01*
X157400000Y-117437500D01*
X157162500Y-117200000D01*
X156311033Y-117200000D01*
X155961868Y-117344629D01*
X155694629Y-117611868D01*
X155550000Y-117961033D01*
X155450000Y-117961033D01*
X155305371Y-117611868D01*
X155038132Y-117344629D01*
X154809678Y-117250000D01*
X155038132Y-117155371D01*
X155305371Y-116888132D01*
X155450000Y-116538967D01*
X155450000Y-115837500D01*
X155212500Y-115600000D01*
X153600000Y-115600000D01*
X153400000Y-115600000D01*
X153380000Y-115600000D01*
X153380000Y-115400000D01*
X153400000Y-115400000D01*
X153400000Y-113937500D01*
X153600000Y-113937500D01*
X153600000Y-115400000D01*
X155212500Y-115400000D01*
X155450000Y-115162500D01*
X155450000Y-114687500D01*
X159400000Y-114687500D01*
X159400000Y-115288967D01*
X159544629Y-115638132D01*
X159811868Y-115905371D01*
X160161033Y-116050000D01*
X160662500Y-116050000D01*
X160900000Y-115812500D01*
X160900000Y-114450000D01*
X159637500Y-114450000D01*
X159400000Y-114687500D01*
X155450000Y-114687500D01*
X155450000Y-114461033D01*
X155305371Y-114111868D01*
X155038132Y-113844629D01*
X154688967Y-113700000D01*
X153837500Y-113700000D01*
X153600000Y-113937500D01*
X153400000Y-113937500D01*
X153162500Y-113700000D01*
X152311033Y-113700000D01*
X151961868Y-113844629D01*
X151694629Y-114111868D01*
X151672892Y-114164346D01*
X151413563Y-113761337D01*
X150995847Y-113475924D01*
X150536810Y-113382966D01*
X150624488Y-112950000D01*
X150624488Y-112050000D01*
X150584504Y-111837500D01*
X152450000Y-111837500D01*
X152450000Y-112338967D01*
X152594629Y-112688132D01*
X152861868Y-112955371D01*
X153211033Y-113100000D01*
X153812500Y-113100000D01*
X154050000Y-112862500D01*
X154050000Y-111600000D01*
X152687500Y-111600000D01*
X152450000Y-111837500D01*
X150584504Y-111837500D01*
X150537327Y-111586778D01*
X150263563Y-111161337D01*
X149845847Y-110875924D01*
X149674488Y-110841223D01*
X149674488Y-110050000D01*
X149650871Y-109924488D01*
X150600000Y-109924488D01*
X151063222Y-109837327D01*
X151211043Y-109742206D01*
X151425975Y-109885819D01*
X151425975Y-109885819D01*
G37*
X151425975Y-109885819D02*
X152000000Y-110000000D01*
X152461558Y-110000000D01*
X152486437Y-110038663D01*
X152713018Y-110193479D01*
X152594629Y-110311868D01*
X152450000Y-110661033D01*
X152450000Y-111162500D01*
X152687500Y-111400000D01*
X154050000Y-111400000D01*
X154050000Y-111380000D01*
X154250000Y-111380000D01*
X154250000Y-111400000D01*
X154270000Y-111400000D01*
X154270000Y-111600000D01*
X154250000Y-111600000D01*
X154250000Y-112862500D01*
X154487500Y-113100000D01*
X155088967Y-113100000D01*
X155205538Y-113051714D01*
X155604153Y-113324076D01*
X156100000Y-113424488D01*
X157600000Y-113424488D01*
X158063222Y-113337327D01*
X158354336Y-113150000D01*
X159347210Y-113150000D01*
X159436437Y-113288663D01*
X159447544Y-113296252D01*
X159400000Y-113411033D01*
X159400000Y-114012500D01*
X159637500Y-114250000D01*
X160900000Y-114250000D01*
X160900000Y-114230000D01*
X161100000Y-114230000D01*
X161100000Y-114250000D01*
X161120000Y-114250000D01*
X161120000Y-114450000D01*
X161100000Y-114450000D01*
X161100000Y-115812500D01*
X161337500Y-116050000D01*
X161838967Y-116050000D01*
X162188132Y-115905371D01*
X162306605Y-115786898D01*
X162436437Y-115988663D01*
X162854153Y-116274076D01*
X163350000Y-116374488D01*
X164650000Y-116374488D01*
X165113222Y-116287327D01*
X165538663Y-116013563D01*
X165650421Y-115850000D01*
X166028680Y-115850000D01*
X165939340Y-115939340D01*
X165877380Y-116032070D01*
X165794780Y-116107003D01*
X165716281Y-116273172D01*
X165614181Y-116425975D01*
X165592424Y-116535355D01*
X165544786Y-116636196D01*
X165484214Y-116878482D01*
X165036778Y-116962673D01*
X164978770Y-117000000D01*
X163031083Y-117000000D01*
X162995847Y-116975924D01*
X162500000Y-116875512D01*
X160500000Y-116875512D01*
X160036778Y-116962673D01*
X159611337Y-117236437D01*
X159325924Y-117654153D01*
X159324926Y-117659079D01*
X159305371Y-117611868D01*
X159038132Y-117344629D01*
X158688967Y-117200000D01*
X157837500Y-117200000D01*
X157600000Y-117437500D01*
X157600000Y-118900000D01*
X157620000Y-118900000D01*
X157620000Y-119100000D01*
X157600000Y-119100000D01*
X157600000Y-120562500D01*
X157837500Y-120800000D01*
X158688967Y-120800000D01*
X159038132Y-120655371D01*
X159305371Y-120388132D01*
X159327108Y-120335654D01*
X159586437Y-120738663D01*
X159841931Y-120913235D01*
X159806871Y-120948295D01*
X159973109Y-121114533D01*
X159588583Y-121223943D01*
X159258018Y-122034192D01*
X159262684Y-122909267D01*
X159588583Y-123696057D01*
X159973111Y-123805468D01*
X161318579Y-122460000D01*
X161304437Y-122445858D01*
X161445858Y-122304437D01*
X161460000Y-122318579D01*
X161474143Y-122304437D01*
X161615564Y-122445858D01*
X161601421Y-122460000D01*
X161615564Y-122474143D01*
X161474143Y-122615564D01*
X161460000Y-122601421D01*
X160114532Y-123946889D01*
X160183635Y-124189755D01*
X160171868Y-124194629D01*
X159904629Y-124461868D01*
X159760000Y-124811033D01*
X159760000Y-126255169D01*
X159588583Y-126303943D01*
X159258018Y-127114192D01*
X159262684Y-127989267D01*
X159546724Y-128675000D01*
X151452646Y-128675000D01*
X151741982Y-127965808D01*
X151737316Y-127090733D01*
X151411417Y-126303943D01*
X151240000Y-126255169D01*
X151240000Y-124811033D01*
X151095371Y-124461868D01*
X150828132Y-124194629D01*
X150816365Y-124189755D01*
X150885468Y-123946889D01*
X149540000Y-122601421D01*
X149525858Y-122615564D01*
X149384437Y-122474143D01*
X149398579Y-122460000D01*
X149384437Y-122445858D01*
X149525858Y-122304437D01*
X149540000Y-122318579D01*
X149554143Y-122304437D01*
X149695564Y-122445858D01*
X149681421Y-122460000D01*
X151026889Y-123805468D01*
X151411417Y-123696057D01*
X151741982Y-122885808D01*
X151737316Y-122010733D01*
X151411417Y-121223943D01*
X151026891Y-121114533D01*
X151193129Y-120948295D01*
X151157285Y-120912451D01*
X151388663Y-120763563D01*
X151674076Y-120345847D01*
X151675074Y-120340921D01*
X151694629Y-120388132D01*
X151961868Y-120655371D01*
X152311033Y-120800000D01*
X153162500Y-120800000D01*
X153400000Y-120562500D01*
X153400000Y-119100000D01*
X153600000Y-119100000D01*
X153600000Y-120562500D01*
X153837500Y-120800000D01*
X154688967Y-120800000D01*
X155038132Y-120655371D01*
X155305371Y-120388132D01*
X155450000Y-120038967D01*
X155450000Y-119337500D01*
X155550000Y-119337500D01*
X155550000Y-120038967D01*
X155694629Y-120388132D01*
X155961868Y-120655371D01*
X156311033Y-120800000D01*
X157162500Y-120800000D01*
X157400000Y-120562500D01*
X157400000Y-119100000D01*
X155787500Y-119100000D01*
X155550000Y-119337500D01*
X155450000Y-119337500D01*
X155212500Y-119100000D01*
X153600000Y-119100000D01*
X153400000Y-119100000D01*
X153380000Y-119100000D01*
X153380000Y-118900000D01*
X153400000Y-118900000D01*
X153400000Y-117437500D01*
X153212500Y-117250000D01*
X153400000Y-117062500D01*
X153400000Y-115600000D01*
X153600000Y-115600000D01*
X153600000Y-117062500D01*
X153787500Y-117250000D01*
X153600000Y-117437500D01*
X153600000Y-118900000D01*
X155212500Y-118900000D01*
X155450000Y-118662500D01*
X155450000Y-117961033D01*
X155550000Y-117961033D01*
X155550000Y-118662500D01*
X155787500Y-118900000D01*
X157400000Y-118900000D01*
X157400000Y-117437500D01*
X157162500Y-117200000D01*
X156311033Y-117200000D01*
X155961868Y-117344629D01*
X155694629Y-117611868D01*
X155550000Y-117961033D01*
X155450000Y-117961033D01*
X155305371Y-117611868D01*
X155038132Y-117344629D01*
X154809678Y-117250000D01*
X155038132Y-117155371D01*
X155305371Y-116888132D01*
X155450000Y-116538967D01*
X155450000Y-115837500D01*
X155212500Y-115600000D01*
X153600000Y-115600000D01*
X153400000Y-115600000D01*
X153380000Y-115600000D01*
X153380000Y-115400000D01*
X153400000Y-115400000D01*
X153400000Y-113937500D01*
X153600000Y-113937500D01*
X153600000Y-115400000D01*
X155212500Y-115400000D01*
X155450000Y-115162500D01*
X155450000Y-114687500D01*
X159400000Y-114687500D01*
X159400000Y-115288967D01*
X159544629Y-115638132D01*
X159811868Y-115905371D01*
X160161033Y-116050000D01*
X160662500Y-116050000D01*
X160900000Y-115812500D01*
X160900000Y-114450000D01*
X159637500Y-114450000D01*
X159400000Y-114687500D01*
X155450000Y-114687500D01*
X155450000Y-114461033D01*
X155305371Y-114111868D01*
X155038132Y-113844629D01*
X154688967Y-113700000D01*
X153837500Y-113700000D01*
X153600000Y-113937500D01*
X153400000Y-113937500D01*
X153162500Y-113700000D01*
X152311033Y-113700000D01*
X151961868Y-113844629D01*
X151694629Y-114111868D01*
X151672892Y-114164346D01*
X151413563Y-113761337D01*
X150995847Y-113475924D01*
X150536810Y-113382966D01*
X150624488Y-112950000D01*
X150624488Y-112050000D01*
X150584504Y-111837500D01*
X152450000Y-111837500D01*
X152450000Y-112338967D01*
X152594629Y-112688132D01*
X152861868Y-112955371D01*
X153211033Y-113100000D01*
X153812500Y-113100000D01*
X154050000Y-112862500D01*
X154050000Y-111600000D01*
X152687500Y-111600000D01*
X152450000Y-111837500D01*
X150584504Y-111837500D01*
X150537327Y-111586778D01*
X150263563Y-111161337D01*
X149845847Y-110875924D01*
X149674488Y-110841223D01*
X149674488Y-110050000D01*
X149650871Y-109924488D01*
X150600000Y-109924488D01*
X151063222Y-109837327D01*
X151211043Y-109742206D01*
X151425975Y-109885819D01*
G36*
X164500000Y-103000000D02*
X164614181Y-103574025D01*
X164939340Y-104060660D01*
X165534340Y-104655660D01*
X166020975Y-104980819D01*
X166050512Y-104986694D01*
X166050512Y-105140000D01*
X166120738Y-105513218D01*
X166050512Y-105860000D01*
X166050512Y-106410000D01*
X166120738Y-106783218D01*
X166050512Y-107130000D01*
X166050512Y-107680000D01*
X166137673Y-108143222D01*
X166411437Y-108568663D01*
X166829153Y-108854076D01*
X167325000Y-108954488D01*
X167833168Y-108954488D01*
X168467953Y-109589273D01*
X168400000Y-109575512D01*
X166900000Y-109575512D01*
X166436778Y-109662673D01*
X166011337Y-109936437D01*
X165865416Y-110150000D01*
X165652790Y-110150000D01*
X165563563Y-110011337D01*
X165145847Y-109725924D01*
X164650000Y-109625512D01*
X163350000Y-109625512D01*
X162886778Y-109712673D01*
X162495215Y-109964637D01*
X162145847Y-109725924D01*
X161650000Y-109625512D01*
X160350000Y-109625512D01*
X159886778Y-109712673D01*
X159461337Y-109986437D01*
X159349579Y-110150000D01*
X158634964Y-110150000D01*
X158535363Y-109995215D01*
X158774076Y-109645847D01*
X158874488Y-109150000D01*
X158874488Y-108596832D01*
X159186409Y-108284912D01*
X159386868Y-108485371D01*
X159736033Y-108630000D01*
X160462500Y-108630000D01*
X160700000Y-108392500D01*
X160700000Y-107684488D01*
X160900000Y-107684488D01*
X160900000Y-108392500D01*
X161137500Y-108630000D01*
X161863967Y-108630000D01*
X162213132Y-108485371D01*
X162480371Y-108218132D01*
X162625000Y-107868967D01*
X162625000Y-107742500D01*
X162387500Y-107505000D01*
X162281702Y-107505000D01*
X162563663Y-107323563D01*
X162849076Y-106905847D01*
X162949488Y-106410000D01*
X162949488Y-105860000D01*
X162879262Y-105486782D01*
X162949488Y-105140000D01*
X162949488Y-104590000D01*
X162879262Y-104216782D01*
X162949488Y-103870000D01*
X162949488Y-103320000D01*
X162862327Y-102856778D01*
X162588563Y-102431337D01*
X162170847Y-102145924D01*
X161675000Y-102045512D01*
X161289373Y-102045512D01*
X161424401Y-101843428D01*
X161441130Y-101759327D01*
X161550000Y-101212000D01*
X161550000Y-100863736D01*
X161850000Y-100924488D01*
X163350000Y-100924488D01*
X163813222Y-100837327D01*
X164238663Y-100563563D01*
X164282094Y-100500000D01*
X164500000Y-100500000D01*
X164500000Y-103000000D01*
X164500000Y-103000000D01*
G37*
X164500000Y-103000000D02*
X164614181Y-103574025D01*
X164939340Y-104060660D01*
X165534340Y-104655660D01*
X166020975Y-104980819D01*
X166050512Y-104986694D01*
X166050512Y-105140000D01*
X166120738Y-105513218D01*
X166050512Y-105860000D01*
X166050512Y-106410000D01*
X166120738Y-106783218D01*
X166050512Y-107130000D01*
X166050512Y-107680000D01*
X166137673Y-108143222D01*
X166411437Y-108568663D01*
X166829153Y-108854076D01*
X167325000Y-108954488D01*
X167833168Y-108954488D01*
X168467953Y-109589273D01*
X168400000Y-109575512D01*
X166900000Y-109575512D01*
X166436778Y-109662673D01*
X166011337Y-109936437D01*
X165865416Y-110150000D01*
X165652790Y-110150000D01*
X165563563Y-110011337D01*
X165145847Y-109725924D01*
X164650000Y-109625512D01*
X163350000Y-109625512D01*
X162886778Y-109712673D01*
X162495215Y-109964637D01*
X162145847Y-109725924D01*
X161650000Y-109625512D01*
X160350000Y-109625512D01*
X159886778Y-109712673D01*
X159461337Y-109986437D01*
X159349579Y-110150000D01*
X158634964Y-110150000D01*
X158535363Y-109995215D01*
X158774076Y-109645847D01*
X158874488Y-109150000D01*
X158874488Y-108596832D01*
X159186409Y-108284912D01*
X159386868Y-108485371D01*
X159736033Y-108630000D01*
X160462500Y-108630000D01*
X160700000Y-108392500D01*
X160700000Y-107684488D01*
X160900000Y-107684488D01*
X160900000Y-108392500D01*
X161137500Y-108630000D01*
X161863967Y-108630000D01*
X162213132Y-108485371D01*
X162480371Y-108218132D01*
X162625000Y-107868967D01*
X162625000Y-107742500D01*
X162387500Y-107505000D01*
X162281702Y-107505000D01*
X162563663Y-107323563D01*
X162849076Y-106905847D01*
X162949488Y-106410000D01*
X162949488Y-105860000D01*
X162879262Y-105486782D01*
X162949488Y-105140000D01*
X162949488Y-104590000D01*
X162879262Y-104216782D01*
X162949488Y-103870000D01*
X162949488Y-103320000D01*
X162862327Y-102856778D01*
X162588563Y-102431337D01*
X162170847Y-102145924D01*
X161675000Y-102045512D01*
X161289373Y-102045512D01*
X161424401Y-101843428D01*
X161441130Y-101759327D01*
X161550000Y-101212000D01*
X161550000Y-100863736D01*
X161850000Y-100924488D01*
X163350000Y-100924488D01*
X163813222Y-100837327D01*
X164238663Y-100563563D01*
X164282094Y-100500000D01*
X164500000Y-100500000D01*
X164500000Y-103000000D01*
G36*
X171450000Y-98662500D02*
X171687500Y-98900000D01*
X173050000Y-98900000D01*
X173050000Y-98880000D01*
X173250000Y-98880000D01*
X173250000Y-98900000D01*
X173270000Y-98900000D01*
X173270000Y-99100000D01*
X173250000Y-99100000D01*
X173250000Y-100362500D01*
X173387500Y-100500000D01*
X173250000Y-100637500D01*
X173250000Y-101900000D01*
X173270000Y-101900000D01*
X173270000Y-102100000D01*
X173250000Y-102100000D01*
X173250000Y-102120000D01*
X173050000Y-102120000D01*
X173050000Y-102100000D01*
X171687500Y-102100000D01*
X171450000Y-102337500D01*
X171450000Y-102838967D01*
X171594629Y-103188132D01*
X171713102Y-103306605D01*
X171622353Y-103365000D01*
X170349488Y-103365000D01*
X170349488Y-103320000D01*
X170262327Y-102856778D01*
X169988563Y-102431337D01*
X169570847Y-102145924D01*
X169075000Y-102045512D01*
X168333804Y-102045512D01*
X168105000Y-102000000D01*
X167876196Y-102045512D01*
X167500000Y-102045512D01*
X167500000Y-100899488D01*
X167963222Y-100812327D01*
X168332038Y-100575000D01*
X168912500Y-100575000D01*
X169150000Y-100337500D01*
X169150000Y-99100000D01*
X169350000Y-99100000D01*
X169350000Y-100337500D01*
X169587500Y-100575000D01*
X170188967Y-100575000D01*
X170538132Y-100430371D01*
X170805371Y-100163132D01*
X170950000Y-99813967D01*
X170950000Y-99337500D01*
X171450000Y-99337500D01*
X171450000Y-99838967D01*
X171594629Y-100188132D01*
X171861868Y-100455371D01*
X171969612Y-100500000D01*
X171861868Y-100544629D01*
X171594629Y-100811868D01*
X171450000Y-101161033D01*
X171450000Y-101662500D01*
X171687500Y-101900000D01*
X173050000Y-101900000D01*
X173050000Y-100637500D01*
X172912500Y-100500000D01*
X173050000Y-100362500D01*
X173050000Y-99100000D01*
X171687500Y-99100000D01*
X171450000Y-99337500D01*
X170950000Y-99337500D01*
X170712500Y-99100000D01*
X169350000Y-99100000D01*
X169150000Y-99100000D01*
X169130000Y-99100000D01*
X169130000Y-98900000D01*
X169150000Y-98900000D01*
X169150000Y-98880000D01*
X169350000Y-98880000D01*
X169350000Y-98900000D01*
X170712500Y-98900000D01*
X170950000Y-98662500D01*
X170950000Y-98480109D01*
X171424025Y-98385819D01*
X171450000Y-98368463D01*
X171450000Y-98662500D01*
X171450000Y-98662500D01*
G37*
X171450000Y-98662500D02*
X171687500Y-98900000D01*
X173050000Y-98900000D01*
X173050000Y-98880000D01*
X173250000Y-98880000D01*
X173250000Y-98900000D01*
X173270000Y-98900000D01*
X173270000Y-99100000D01*
X173250000Y-99100000D01*
X173250000Y-100362500D01*
X173387500Y-100500000D01*
X173250000Y-100637500D01*
X173250000Y-101900000D01*
X173270000Y-101900000D01*
X173270000Y-102100000D01*
X173250000Y-102100000D01*
X173250000Y-102120000D01*
X173050000Y-102120000D01*
X173050000Y-102100000D01*
X171687500Y-102100000D01*
X171450000Y-102337500D01*
X171450000Y-102838967D01*
X171594629Y-103188132D01*
X171713102Y-103306605D01*
X171622353Y-103365000D01*
X170349488Y-103365000D01*
X170349488Y-103320000D01*
X170262327Y-102856778D01*
X169988563Y-102431337D01*
X169570847Y-102145924D01*
X169075000Y-102045512D01*
X168333804Y-102045512D01*
X168105000Y-102000000D01*
X167876196Y-102045512D01*
X167500000Y-102045512D01*
X167500000Y-100899488D01*
X167963222Y-100812327D01*
X168332038Y-100575000D01*
X168912500Y-100575000D01*
X169150000Y-100337500D01*
X169150000Y-99100000D01*
X169350000Y-99100000D01*
X169350000Y-100337500D01*
X169587500Y-100575000D01*
X170188967Y-100575000D01*
X170538132Y-100430371D01*
X170805371Y-100163132D01*
X170950000Y-99813967D01*
X170950000Y-99337500D01*
X171450000Y-99337500D01*
X171450000Y-99838967D01*
X171594629Y-100188132D01*
X171861868Y-100455371D01*
X171969612Y-100500000D01*
X171861868Y-100544629D01*
X171594629Y-100811868D01*
X171450000Y-101161033D01*
X171450000Y-101662500D01*
X171687500Y-101900000D01*
X173050000Y-101900000D01*
X173050000Y-100637500D01*
X172912500Y-100500000D01*
X173050000Y-100362500D01*
X173050000Y-99100000D01*
X171687500Y-99100000D01*
X171450000Y-99337500D01*
X170950000Y-99337500D01*
X170712500Y-99100000D01*
X169350000Y-99100000D01*
X169150000Y-99100000D01*
X169130000Y-99100000D01*
X169130000Y-98900000D01*
X169150000Y-98900000D01*
X169150000Y-98880000D01*
X169350000Y-98880000D01*
X169350000Y-98900000D01*
X170712500Y-98900000D01*
X170950000Y-98662500D01*
X170950000Y-98480109D01*
X171424025Y-98385819D01*
X171450000Y-98368463D01*
X171450000Y-98662500D01*
M02*
