M48
;DRILL file {KiCad 4.0.7} date 03/03/18 23:14:30
;FORMAT={3:3/ absolute / metric / suppress leading zeros}
FMAT,2
METRIC,TZ
T1C0.300
T2C0.400
T3C1.200
T4C1.300
T5C1.450
T6C3.200
T7C3.500
%
G90
G05
M71
T1
X82000Y-89000
X82000Y-90000
X82000Y-91000
X82000Y-92000
X82000Y-93000
X82000Y-94000
X82000Y-95000
X82000Y-96000
X82000Y-97000
X82000Y-98000
X82000Y-99000
X82000Y-100000
X82000Y-101000
X82000Y-102000
X82000Y-103000
X82000Y-104000
X82000Y-105000
X82000Y-106000
X82000Y-107000
X82000Y-108000
X82000Y-109000
X82000Y-110000
X82000Y-111000
X82000Y-112000
X82000Y-113000
X82000Y-114000
X82000Y-115000
X82000Y-116000
X82000Y-117000
X82000Y-118000
X82000Y-119000
X82000Y-120000
X82000Y-121000
X83000Y-89000
X83000Y-90000
X83000Y-91000
X83000Y-92000
X83000Y-93000
X83000Y-94000
X83000Y-95000
X83000Y-96000
X83000Y-97000
X83000Y-98000
X83000Y-99000
X83000Y-100000
X83000Y-101000
X83000Y-102000
X83000Y-103000
X83000Y-104000
X83000Y-105000
X83000Y-106000
X83000Y-107000
X83000Y-108000
X83000Y-109000
X83000Y-110000
X83000Y-111000
X83000Y-112000
X83000Y-113000
X83000Y-114000
X83000Y-115000
X83000Y-116000
X83000Y-117000
X83000Y-118000
X83000Y-119000
X83000Y-120000
X83000Y-121000
X89000Y-82000
X89000Y-128000
X90000Y-82000
X90000Y-128000
X91000Y-82000
X91000Y-128000
X92000Y-82000
X92000Y-128000
X93000Y-82000
X93000Y-128000
X94000Y-82000
X94000Y-128000
X95000Y-82000
X95000Y-128000
X96000Y-82000
X96000Y-128000
X97000Y-82000
X97000Y-128000
X98000Y-82000
X98000Y-128000
X99000Y-82000
X99000Y-128000
X100000Y-82000
X100000Y-128000
X101000Y-82000
X101000Y-128000
X102000Y-82000
X102000Y-128000
X103000Y-82000
X103000Y-128000
X104000Y-82000
X104000Y-128000
X105000Y-82000
X105000Y-128000
X106000Y-82000
X106000Y-128000
X107000Y-82000
X107000Y-128000
X108000Y-82000
X108000Y-128000
X109000Y-82000
X109000Y-128000
X110000Y-82000
X110000Y-128000
X111000Y-82000
X111000Y-128000
X112000Y-82000
X112000Y-128000
X113000Y-82000
X113000Y-128000
X114000Y-82000
X114000Y-128000
X115000Y-82000
X115000Y-128000
X116000Y-82000
X116000Y-128000
X117000Y-82000
X117000Y-128000
X118000Y-82000
X118000Y-128000
X119000Y-82000
X119000Y-128000
X120000Y-82000
X120000Y-128000
X121000Y-82000
X121000Y-128000
X122000Y-82000
X122000Y-128000
X123000Y-82000
X123000Y-128000
X124000Y-82000
X124000Y-128000
X125000Y-82000
X125000Y-128000
X126000Y-82000
X126000Y-128000
X127000Y-82000
X127000Y-128000
X128000Y-82000
X128000Y-128000
X129000Y-82000
X129000Y-128000
X130000Y-82000
X130000Y-128000
X131000Y-82000
X131000Y-128000
X132000Y-82000
X132000Y-128000
X133000Y-82000
X133000Y-128000
X134000Y-82000
X134000Y-128000
X135000Y-82000
X135000Y-128000
X136000Y-82000
X136000Y-128000
X137000Y-82000
X137000Y-128000
X138000Y-82000
X138000Y-128000
X139000Y-82000
X139000Y-128000
X140000Y-82000
X140000Y-128000
X141000Y-82000
X141000Y-128000
X142000Y-82000
X142000Y-128000
X143000Y-82000
X144000Y-82000
X145000Y-82000
X146000Y-82000
X147000Y-82000
X148000Y-82000
X149000Y-82000
X150000Y-82000
X151000Y-82000
X152000Y-82000
X152000Y-126000
X152000Y-127000
X152000Y-128000
X153000Y-82000
X153000Y-126000
X153000Y-127000
X153000Y-128000
X154000Y-82000
X154000Y-126000
X154000Y-127000
X154000Y-128000
X155000Y-82000
X155000Y-126000
X155000Y-127000
X155000Y-128000
X156000Y-82000
X156000Y-126000
X156000Y-127000
X156000Y-128000
X157000Y-82000
X157000Y-126000
X157000Y-127000
X157000Y-128000
X158000Y-82000
X158000Y-126000
X158000Y-127000
X158000Y-128000
X159000Y-82000
X159000Y-126000
X159000Y-127000
X159000Y-128000
X160000Y-82000
X161000Y-82000
X162000Y-82000
X163000Y-82000
X164000Y-82000
X165000Y-82000
X166000Y-82000
X167000Y-82000
X168000Y-82000
X169000Y-82000
X170000Y-82000
X178000Y-89000
X178000Y-90000
X178000Y-91000
X178000Y-92000
X178000Y-93000
X178000Y-94000
X178000Y-95000
X178000Y-96000
X178000Y-97000
X178000Y-98000
X178000Y-99000
X178000Y-100000
X178000Y-101000
X178000Y-102000
X178000Y-103000
X178000Y-104000
X178000Y-105000
X178000Y-106000
X178000Y-107000
X178000Y-108000
X178000Y-109000
X178000Y-110000
X178000Y-111000
X178000Y-112000
X178000Y-113000
X178000Y-114000
X178000Y-115000
X178000Y-116000
X178000Y-117000
X178000Y-118000
X178000Y-119000
X178000Y-120000
X178000Y-121000
T2
X87000Y-109000
X87000Y-110000
X88000Y-97000
X88000Y-109000
X88000Y-110000
X89000Y-97000
X89000Y-108000
X89000Y-109000
X89000Y-110000
X90000Y-97000
X90000Y-108000
X90000Y-109000
X90000Y-110000
X91000Y-97000
X92000Y-97000
X93000Y-97000
X94000Y-97000
X95000Y-97000
X97000Y-106750
X102000Y-98000
X103000Y-98000
X104000Y-98000
X105000Y-98000
X106000Y-98000
X107000Y-98000
X107000Y-108000
X108000Y-98000
X108000Y-108000
X109000Y-98000
X109000Y-108000
X110000Y-98000
X110000Y-108000
X111000Y-98000
X113000Y-113250
X126000Y-107500
X127000Y-107500
X128000Y-103000
X128000Y-104000
X128000Y-107500
X130000Y-100000
X130000Y-101000
X130000Y-103000
X130000Y-104000
X137250Y-84500
X138000Y-108000
X138000Y-109000
X138000Y-110000
X138000Y-111000
X138000Y-112000
X138000Y-113000
X138000Y-114000
X138000Y-115000
X138000Y-116000
X138000Y-117000
X138000Y-118000
X138000Y-119000
X138000Y-120000
X138000Y-121000
X138000Y-122000
X138000Y-123000
X138000Y-124000
X138000Y-125000
X143256Y-101346
X157000Y-89500
X157000Y-92000
X159000Y-109000
X159893Y-101219
X160000Y-109000
X161000Y-109000
X162000Y-109000
X163000Y-109000
X164000Y-109000
X165000Y-109000
X166000Y-109000
X167000Y-101000
X167000Y-109000
X168000Y-101000
X168000Y-109000
X169000Y-101000
X170000Y-101000
X171000Y-101000
X171000Y-102000
X171000Y-103000
X171000Y-104000
X175750Y-96750
T3
X93140Y-123000
X95680Y-123000
X98220Y-123000
X100760Y-123000
X103300Y-123000
X105840Y-123000
X108380Y-123000
X110920Y-123000
X113460Y-123000
X116000Y-123000
X125840Y-123000
X128380Y-123000
X130920Y-123000
X133460Y-123000
X136000Y-123000
X148500Y-87000
X151040Y-87000
X153580Y-87000
T4
X144460Y-122460
X144460Y-127540
X147000Y-125000
X149540Y-122460
X149540Y-127540
X161460Y-122460
X161460Y-127540
X164000Y-125000
X166540Y-122460
X166540Y-127540
T5
X94460Y-88460
X94460Y-91000
X94460Y-93540
X99540Y-88460
X99540Y-91000
X99540Y-93540
X112460Y-88460
X112460Y-91000
X112460Y-93540
X117540Y-88460
X117540Y-91000
X117540Y-93540
X130460Y-88460
X130460Y-91000
X130460Y-93540
X135540Y-88460
X135540Y-91000
X135540Y-93540
T6
X97000Y-91000
X115000Y-91000
X133000Y-91000
T7
X85000Y-85000
X85000Y-125000
X175000Y-85000
X175000Y-125000
T0
M30
