G04 #@! TF.FileFunction,Soldermask,Bot*
%FSLAX46Y46*%
G04 Gerber Fmt 4.6, Leading zero omitted, Abs format (unit mm)*
G04 Created by KiCad (PCBNEW 4.0.7) date 03/03/18 23:13:13*
%MOMM*%
%LPD*%
G01*
G04 APERTURE LIST*
%ADD10C,0.100000*%
%ADD11R,2.400000X3.000000*%
%ADD12O,2.400000X3.000000*%
%ADD13C,3.900000*%
%ADD14R,2.950000X2.950000*%
%ADD15R,1.900000X4.400000*%
%ADD16C,2.398980*%
%ADD17C,2.899360*%
G04 APERTURE END LIST*
D10*
D11*
X148500000Y-87000000D03*
D12*
X151040000Y-87000000D03*
X153580000Y-87000000D03*
D11*
X116000000Y-123000000D03*
D12*
X113460000Y-123000000D03*
X110920000Y-123000000D03*
X108380000Y-123000000D03*
X105840000Y-123000000D03*
X103300000Y-123000000D03*
X100760000Y-123000000D03*
X98220000Y-123000000D03*
X95680000Y-123000000D03*
X93140000Y-123000000D03*
D11*
X136000000Y-123000000D03*
D12*
X133460000Y-123000000D03*
X130920000Y-123000000D03*
X128380000Y-123000000D03*
X125840000Y-123000000D03*
D13*
X175000000Y-85000000D03*
X85000000Y-85000000D03*
X85000000Y-125000000D03*
X175000000Y-125000000D03*
D14*
X99540000Y-88460000D03*
X99540000Y-91000000D03*
X99540000Y-93540000D03*
X94460000Y-88460000D03*
X94460000Y-91000000D03*
X94460000Y-93540000D03*
D13*
X97000000Y-91000000D03*
D14*
X117540000Y-88460000D03*
X117540000Y-91000000D03*
X117540000Y-93540000D03*
X112460000Y-88460000D03*
X112460000Y-91000000D03*
X112460000Y-93540000D03*
D13*
X115000000Y-91000000D03*
D14*
X135540000Y-88460000D03*
X135540000Y-91000000D03*
X135540000Y-93540000D03*
X130460000Y-88460000D03*
X130460000Y-91000000D03*
X130460000Y-93540000D03*
D13*
X133000000Y-91000000D03*
D15*
X149540000Y-127000000D03*
X144460000Y-127000000D03*
X166540000Y-127000000D03*
X161460000Y-127000000D03*
D16*
X147000000Y-125000000D03*
D17*
X149540000Y-122460000D03*
X149540000Y-127540000D03*
X144460000Y-127540000D03*
X144460000Y-122460000D03*
D16*
X164000000Y-125000000D03*
D17*
X166540000Y-122460000D03*
X166540000Y-127540000D03*
X161460000Y-127540000D03*
X161460000Y-122460000D03*
M02*
